G04*
G04 #@! TF.GenerationSoftware,Altium Limited,Altium Designer,21.8.1 (53)*
G04*
G04 Layer_Color=8388736*
%FSLAX44Y44*%
%MOMM*%
G71*
G04*
G04 #@! TF.SameCoordinates,B26C40CF-43AE-4B56-A471-EC5E2FB952F6*
G04*
G04*
G04 #@! TF.FilePolarity,Negative*
G04*
G01*
G75*
%ADD19R,1.7016X0.2500*%
%ADD20R,1.2500X6.9000*%
%ADD21R,1.3000X12.4000*%
%ADD22R,12.4000X1.3000*%
%ADD23R,1.1000X0.8000*%
%ADD24R,0.3500X0.8000*%
%ADD25R,0.8000X0.3500*%
%ADD26O,0.8000X0.3500*%
%ADD27R,2.8000X2.8000*%
%ADD28R,1.6000X1.1000*%
G04:AMPARAMS|DCode=29|XSize=1.05mm|YSize=0.95mm|CornerRadius=0.2625mm|HoleSize=0mm|Usage=FLASHONLY|Rotation=180.000|XOffset=0mm|YOffset=0mm|HoleType=Round|Shape=RoundedRectangle|*
%AMROUNDEDRECTD29*
21,1,1.0500,0.4250,0,0,180.0*
21,1,0.5250,0.9500,0,0,180.0*
1,1,0.5250,-0.2625,0.2125*
1,1,0.5250,0.2625,0.2125*
1,1,0.5250,0.2625,-0.2125*
1,1,0.5250,-0.2625,-0.2125*
%
%ADD29ROUNDEDRECTD29*%
%ADD30R,5.3500X6.3300*%
%ADD31R,5.3500X10.4000*%
%ADD32R,1.4000X0.7800*%
%ADD33O,1.4000X0.7800*%
G04:AMPARAMS|DCode=34|XSize=1.05mm|YSize=0.95mm|CornerRadius=0.2625mm|HoleSize=0mm|Usage=FLASHONLY|Rotation=90.000|XOffset=0mm|YOffset=0mm|HoleType=Round|Shape=RoundedRectangle|*
%AMROUNDEDRECTD34*
21,1,1.0500,0.4250,0,0,90.0*
21,1,0.5250,0.9500,0,0,90.0*
1,1,0.5250,0.2125,0.2625*
1,1,0.5250,0.2125,-0.2625*
1,1,0.5250,-0.2125,-0.2625*
1,1,0.5250,-0.2125,0.2625*
%
%ADD34ROUNDEDRECTD34*%
G04:AMPARAMS|DCode=35|XSize=2.8mm|YSize=1.45mm|CornerRadius=0.3875mm|HoleSize=0mm|Usage=FLASHONLY|Rotation=90.000|XOffset=0mm|YOffset=0mm|HoleType=Round|Shape=RoundedRectangle|*
%AMROUNDEDRECTD35*
21,1,2.8000,0.6750,0,0,90.0*
21,1,2.0250,1.4500,0,0,90.0*
1,1,0.7750,0.3375,1.0125*
1,1,0.7750,0.3375,-1.0125*
1,1,0.7750,-0.3375,-1.0125*
1,1,0.7750,-0.3375,1.0125*
%
%ADD35ROUNDEDRECTD35*%
%ADD36R,0.8000X1.1000*%
%ADD37R,1.5000X1.1500*%
%ADD38R,1.1500X1.5000*%
%ADD39R,1.3000X1.0000*%
%ADD40R,1.0000X1.3000*%
G04:AMPARAMS|DCode=41|XSize=2.8mm|YSize=1.45mm|CornerRadius=0.3875mm|HoleSize=0mm|Usage=FLASHONLY|Rotation=0.000|XOffset=0mm|YOffset=0mm|HoleType=Round|Shape=RoundedRectangle|*
%AMROUNDEDRECTD41*
21,1,2.8000,0.6750,0,0,0.0*
21,1,2.0250,1.4500,0,0,0.0*
1,1,0.7750,1.0125,-0.3375*
1,1,0.7750,-1.0125,-0.3375*
1,1,0.7750,-1.0125,0.3375*
1,1,0.7750,1.0125,0.3375*
%
%ADD41ROUNDEDRECTD41*%
%ADD42R,1.4000X1.2000*%
%ADD43R,1.2500X0.4000*%
%ADD44R,1.2500X0.7000*%
%ADD45R,6.9000X5.7500*%
%ADD46R,2.7500X1.0500*%
%ADD47R,1.3400X1.5000*%
%ADD48R,4.8200X4.9000*%
%ADD49R,1.3700X1.5000*%
%ADD50R,1.5000X1.3400*%
%ADD51R,4.9000X4.8200*%
%ADD52R,1.5000X1.3700*%
%ADD53R,1.5000X1.5000*%
%ADD54R,5.4000X3.1000*%
%ADD55R,3.1000X5.4000*%
%ADD56R,0.9500X1.0500*%
%ADD57R,0.6500X1.3500*%
%ADD58R,1.3500X0.6500*%
%ADD59R,0.4000X1.3000*%
%ADD60R,1.3000X0.4000*%
%ADD61R,4.1000X1.8000*%
%ADD62R,1.3000X2.1000*%
%ADD63R,2.1000X1.3000*%
%ADD64R,1.8000X4.1000*%
G04:AMPARAMS|DCode=65|XSize=1.55mm|YSize=1mm|CornerRadius=0.275mm|HoleSize=0mm|Usage=FLASHONLY|Rotation=90.000|XOffset=0mm|YOffset=0mm|HoleType=Round|Shape=RoundedRectangle|*
%AMROUNDEDRECTD65*
21,1,1.5500,0.4500,0,0,90.0*
21,1,1.0000,1.0000,0,0,90.0*
1,1,0.5500,0.2250,0.5000*
1,1,0.5500,0.2250,-0.5000*
1,1,0.5500,-0.2250,-0.5000*
1,1,0.5500,-0.2250,0.5000*
%
%ADD65ROUNDEDRECTD65*%
G04:AMPARAMS|DCode=66|XSize=1.9mm|YSize=1.15mm|CornerRadius=0.3125mm|HoleSize=0mm|Usage=FLASHONLY|Rotation=90.000|XOffset=0mm|YOffset=0mm|HoleType=Round|Shape=RoundedRectangle|*
%AMROUNDEDRECTD66*
21,1,1.9000,0.5250,0,0,90.0*
21,1,1.2750,1.1500,0,0,90.0*
1,1,0.6250,0.2625,0.6375*
1,1,0.6250,0.2625,-0.6375*
1,1,0.6250,-0.2625,-0.6375*
1,1,0.6250,-0.2625,0.6375*
%
%ADD66ROUNDEDRECTD66*%
G04:AMPARAMS|DCode=67|XSize=1.55mm|YSize=1mm|CornerRadius=0.275mm|HoleSize=0mm|Usage=FLASHONLY|Rotation=0.000|XOffset=0mm|YOffset=0mm|HoleType=Round|Shape=RoundedRectangle|*
%AMROUNDEDRECTD67*
21,1,1.5500,0.4500,0,0,0.0*
21,1,1.0000,1.0000,0,0,0.0*
1,1,0.5500,0.5000,-0.2250*
1,1,0.5500,-0.5000,-0.2250*
1,1,0.5500,-0.5000,0.2250*
1,1,0.5500,0.5000,0.2250*
%
%ADD67ROUNDEDRECTD67*%
%ADD68C,2.1000*%
%ADD69R,2.1000X2.1000*%
%ADD70C,7.1000*%
%ADD71C,1.4000*%
%ADD72R,1.9000X2.6000*%
%ADD73R,2.6000X1.9000*%
%ADD74R,6.1000X6.1000*%
%ADD75C,6.1000*%
%ADD76C,1.7000*%
%ADD77R,1.7000X1.7000*%
%ADD78R,2.1000X2.1000*%
%ADD79C,3.1000*%
%ADD80R,3.1000X3.1000*%
%ADD81R,1.7000X1.7000*%
%ADD82C,1.8000*%
%ADD83R,1.8000X1.8000*%
%ADD84C,0.1000*%
%ADD85O,1.9000X1.1000*%
G36*
X1110600Y997281D02*
X1102330Y1005550D01*
X1093557Y996777D01*
Y1010050D01*
X1110600D01*
Y997281D01*
D02*
G37*
G36*
X1110841Y992550D02*
X1093826D01*
X1102326Y1000550D01*
X1110841Y992550D01*
D02*
G37*
G36*
X1160269Y997281D02*
X1152000Y1005550D01*
X1143227Y996777D01*
Y1010050D01*
X1160269D01*
Y997281D01*
D02*
G37*
G36*
X1160511Y992550D02*
X1143496D01*
X1151996Y1000550D01*
X1160511Y992550D01*
D02*
G37*
G36*
X1214519Y997281D02*
X1206250Y1005550D01*
X1197477Y996777D01*
Y1010050D01*
X1214519D01*
Y997281D01*
D02*
G37*
G36*
X1214761Y992550D02*
X1197746D01*
X1206246Y1000550D01*
X1214761Y992550D01*
D02*
G37*
G36*
X1267269Y997281D02*
X1259000Y1005550D01*
X1250227Y996777D01*
Y1010050D01*
X1267269D01*
Y997281D01*
D02*
G37*
G36*
X1267511Y992550D02*
X1250496D01*
X1258996Y1000550D01*
X1267511Y992550D01*
D02*
G37*
D19*
X1206258Y991300D02*
D03*
X1259008D02*
D03*
X1102338D02*
D03*
X1152008D02*
D03*
D20*
X1219250Y845500D02*
D03*
D21*
X917500Y1203000D02*
D03*
X762500Y1203000D02*
D03*
D22*
X840000Y1125500D02*
D03*
Y1280500D02*
D03*
D23*
X696000Y1120750D02*
D03*
Y1105750D02*
D03*
X1201000Y813500D02*
D03*
Y828500D02*
D03*
X955000Y771000D02*
D03*
Y786000D02*
D03*
X667500Y1260500D02*
D03*
Y1245500D02*
D03*
X1083108Y193500D02*
D03*
Y178500D02*
D03*
X1121393Y193500D02*
D03*
Y178500D02*
D03*
X1083108Y631750D02*
D03*
Y616750D02*
D03*
Y413750D02*
D03*
Y398750D02*
D03*
X1121393Y616750D02*
D03*
Y631750D02*
D03*
Y413750D02*
D03*
Y398750D02*
D03*
X1107000Y848500D02*
D03*
Y863500D02*
D03*
X671000Y1202240D02*
D03*
Y1187240D02*
D03*
X686000Y1202240D02*
D03*
Y1187240D02*
D03*
X1103267Y178500D02*
D03*
Y163500D02*
D03*
Y616750D02*
D03*
Y601750D02*
D03*
Y398750D02*
D03*
Y383750D02*
D03*
X1120000Y1343450D02*
D03*
Y1358450D02*
D03*
X1139000Y1238000D02*
D03*
Y1223000D02*
D03*
X1092000Y863500D02*
D03*
Y848500D02*
D03*
X1076000Y833550D02*
D03*
Y848550D02*
D03*
X1107000Y878597D02*
D03*
Y893597D02*
D03*
X1248000Y1094000D02*
D03*
Y1109000D02*
D03*
X1127000Y766500D02*
D03*
Y751500D02*
D03*
D24*
X1162500Y815150D02*
D03*
X1157500D02*
D03*
X1152500D02*
D03*
X1147500D02*
D03*
X1142500D02*
D03*
X1137500D02*
D03*
Y854650D02*
D03*
X1142500D02*
D03*
X1147500D02*
D03*
X1152500D02*
D03*
X1157500D02*
D03*
X1162500D02*
D03*
D25*
X1130250Y822400D02*
D03*
Y827400D02*
D03*
Y832400D02*
D03*
Y837400D02*
D03*
Y842400D02*
D03*
Y847400D02*
D03*
X1169750D02*
D03*
Y842400D02*
D03*
Y837400D02*
D03*
Y832400D02*
D03*
Y827400D02*
D03*
D26*
Y822400D02*
D03*
D27*
X1150000Y834900D02*
D03*
D28*
X1206000Y1015500D02*
D03*
X1206250Y984550D02*
D03*
X1259000D02*
D03*
X1258750Y1015500D02*
D03*
X1102080D02*
D03*
X1102330Y984550D02*
D03*
X1152000D02*
D03*
X1151750Y1015500D02*
D03*
D29*
X800000Y1106750D02*
D03*
Y1093250D02*
D03*
X626000Y1118750D02*
D03*
Y1105250D02*
D03*
X656000Y1201290D02*
D03*
Y1187790D02*
D03*
X821400Y109800D02*
D03*
Y123300D02*
D03*
X825500Y543250D02*
D03*
Y556750D02*
D03*
X825500Y325250D02*
D03*
Y338750D02*
D03*
X1024000Y1284250D02*
D03*
Y1297750D02*
D03*
X1092000Y893098D02*
D03*
Y879597D02*
D03*
X1149000Y1170750D02*
D03*
Y1157250D02*
D03*
X1164000Y1170750D02*
D03*
Y1157250D02*
D03*
X889000Y1091250D02*
D03*
Y1104750D02*
D03*
D30*
X981000Y437250D02*
D03*
Y360250D02*
D03*
X980000Y578250D02*
D03*
Y655250D02*
D03*
X981000Y216566D02*
D03*
Y139566D02*
D03*
D31*
X919500Y398750D02*
D03*
X918500Y616750D02*
D03*
X919500Y178066D02*
D03*
D32*
X859000Y468750D02*
D03*
X858000Y686750D02*
D03*
X859000Y248066D02*
D03*
D33*
Y458750D02*
D03*
Y448750D02*
D03*
Y438750D02*
D03*
Y428750D02*
D03*
Y418750D02*
D03*
Y408750D02*
D03*
Y398750D02*
D03*
Y388750D02*
D03*
Y378750D02*
D03*
Y368750D02*
D03*
Y358750D02*
D03*
Y348750D02*
D03*
Y338750D02*
D03*
Y328750D02*
D03*
X1041000Y468750D02*
D03*
Y458750D02*
D03*
Y448750D02*
D03*
Y438750D02*
D03*
Y428750D02*
D03*
Y418750D02*
D03*
Y408750D02*
D03*
Y398750D02*
D03*
Y388750D02*
D03*
Y378750D02*
D03*
Y368750D02*
D03*
Y358750D02*
D03*
Y348750D02*
D03*
Y338750D02*
D03*
Y328750D02*
D03*
X1040000Y546750D02*
D03*
Y556750D02*
D03*
Y566750D02*
D03*
Y576750D02*
D03*
Y586750D02*
D03*
Y596750D02*
D03*
Y606750D02*
D03*
Y616750D02*
D03*
Y626750D02*
D03*
Y636750D02*
D03*
Y646750D02*
D03*
Y656750D02*
D03*
Y666750D02*
D03*
Y676750D02*
D03*
Y686750D02*
D03*
X858000Y546750D02*
D03*
Y556750D02*
D03*
Y566750D02*
D03*
Y576750D02*
D03*
Y586750D02*
D03*
Y596750D02*
D03*
Y606750D02*
D03*
Y616750D02*
D03*
Y626750D02*
D03*
Y636750D02*
D03*
Y646750D02*
D03*
Y656750D02*
D03*
Y666750D02*
D03*
Y676750D02*
D03*
X859000Y238066D02*
D03*
Y228066D02*
D03*
Y218066D02*
D03*
Y208066D02*
D03*
Y198066D02*
D03*
Y188066D02*
D03*
Y178066D02*
D03*
Y168066D02*
D03*
Y158066D02*
D03*
Y148066D02*
D03*
Y138066D02*
D03*
Y128066D02*
D03*
Y118066D02*
D03*
Y108066D02*
D03*
X1041000Y248066D02*
D03*
Y238066D02*
D03*
Y228066D02*
D03*
Y218066D02*
D03*
Y208066D02*
D03*
Y198066D02*
D03*
Y188066D02*
D03*
Y178066D02*
D03*
Y168066D02*
D03*
Y158066D02*
D03*
Y148066D02*
D03*
Y138066D02*
D03*
Y128066D02*
D03*
Y118066D02*
D03*
Y108066D02*
D03*
D34*
X1115750Y1074000D02*
D03*
X1102250D02*
D03*
X1115750Y1090000D02*
D03*
X1102250D02*
D03*
X1183250Y788000D02*
D03*
X1196750D02*
D03*
X781750Y963000D02*
D03*
X795250D02*
D03*
X715750Y988000D02*
D03*
X702250D02*
D03*
X1189000Y1318000D02*
D03*
X1175500D02*
D03*
X1138450Y1208950D02*
D03*
X1151950D02*
D03*
X1238500Y906000D02*
D03*
X1225000D02*
D03*
X1162460Y894000D02*
D03*
X1175960D02*
D03*
X1162460Y878597D02*
D03*
X1175960D02*
D03*
X1144210Y894000D02*
D03*
X1130710D02*
D03*
X1130785Y878597D02*
D03*
X1144285D02*
D03*
X936250Y1188000D02*
D03*
X949750D02*
D03*
X731250Y1213000D02*
D03*
X744750D02*
D03*
X876250Y1303000D02*
D03*
X889750D02*
D03*
X916750Y1091000D02*
D03*
X903250D02*
D03*
X850000Y1318000D02*
D03*
X836500D02*
D03*
X863250D02*
D03*
X876750D02*
D03*
D35*
X1103750Y812000D02*
D03*
X1076250D02*
D03*
X708250Y760000D02*
D03*
X735750D02*
D03*
X628500Y1321999D02*
D03*
X601000D02*
D03*
X547250Y1322000D02*
D03*
X574750D02*
D03*
X932500Y818000D02*
D03*
X905000D02*
D03*
X657250Y1077000D02*
D03*
X684750D02*
D03*
X639750D02*
D03*
X612250D02*
D03*
D36*
X1187500Y862400D02*
D03*
X1202500D02*
D03*
X755000Y834000D02*
D03*
X770000D02*
D03*
X676500Y988000D02*
D03*
X661500D02*
D03*
X538500Y810000D02*
D03*
X523500D02*
D03*
X1092000Y836000D02*
D03*
X1107000D02*
D03*
X701500Y1008000D02*
D03*
X716500D02*
D03*
X716500Y1022050D02*
D03*
X701500D02*
D03*
X780250Y1041750D02*
D03*
X795250D02*
D03*
X813000Y194500D02*
D03*
X828000D02*
D03*
X813000Y177199D02*
D03*
X828000D02*
D03*
X813000Y632500D02*
D03*
X828000D02*
D03*
X813000Y418500D02*
D03*
X828000D02*
D03*
X813000Y616750D02*
D03*
X828000D02*
D03*
X813000Y399500D02*
D03*
X828000D02*
D03*
X1240000Y921000D02*
D03*
X1225000D02*
D03*
X1137500Y1193000D02*
D03*
X1152500D02*
D03*
X989000Y1186000D02*
D03*
X1004000D02*
D03*
X967000Y1152000D02*
D03*
X982000D02*
D03*
X982000Y1167000D02*
D03*
X967000D02*
D03*
X1124500Y791000D02*
D03*
X1139500D02*
D03*
X1166500D02*
D03*
X1151500D02*
D03*
X848250Y1303000D02*
D03*
X863250D02*
D03*
D37*
X955000Y733750D02*
D03*
Y752250D02*
D03*
X644000Y1007250D02*
D03*
Y988750D02*
D03*
D38*
X806250Y834000D02*
D03*
X787750D02*
D03*
X667500Y1282000D02*
D03*
X686000D02*
D03*
X575850Y810000D02*
D03*
X557350D02*
D03*
D39*
X702000Y811000D02*
D03*
Y785000D02*
D03*
X589000Y880000D02*
D03*
Y906000D02*
D03*
X1159000Y1369000D02*
D03*
Y1337000D02*
D03*
X1184000D02*
D03*
Y1369000D02*
D03*
X1195000Y921000D02*
D03*
Y889000D02*
D03*
D40*
X905000Y848000D02*
D03*
X931000D02*
D03*
X619000Y810000D02*
D03*
X593000D02*
D03*
X543000Y1367000D02*
D03*
X569000D02*
D03*
D41*
X614000Y951750D02*
D03*
Y924250D02*
D03*
Y906750D02*
D03*
Y879250D02*
D03*
X732000Y812500D02*
D03*
Y785000D02*
D03*
X880000Y814250D02*
D03*
Y841750D02*
D03*
X829000Y1019250D02*
D03*
Y1046750D02*
D03*
X646000Y810000D02*
D03*
Y782500D02*
D03*
X829000Y996750D02*
D03*
Y969250D02*
D03*
X1048000Y1284250D02*
D03*
Y1311750D02*
D03*
X974000Y1131750D02*
D03*
Y1104250D02*
D03*
D42*
X850000Y1353000D02*
D03*
Y1335000D02*
D03*
X873000D02*
D03*
Y1353000D02*
D03*
D43*
X1219250Y837400D02*
D03*
Y852400D02*
D03*
Y827400D02*
D03*
Y862400D02*
D03*
Y832400D02*
D03*
Y842400D02*
D03*
Y847400D02*
D03*
Y857400D02*
D03*
D44*
Y820900D02*
D03*
Y868900D02*
D03*
Y876900D02*
D03*
Y812900D02*
D03*
D45*
X590843Y181500D02*
D03*
Y616753D02*
D03*
Y398753D02*
D03*
X590933Y758915D02*
D03*
D46*
X529843Y158600D02*
D03*
Y204400D02*
D03*
Y593853D02*
D03*
Y639653D02*
D03*
Y375853D02*
D03*
Y421653D02*
D03*
X529933Y781815D02*
D03*
Y736015D02*
D03*
D47*
X548000Y1121600D02*
D03*
D48*
X586000Y1132000D02*
D03*
D49*
X548000Y1142400D02*
D03*
D50*
X809800Y878000D02*
D03*
D51*
X799400Y916000D02*
D03*
D52*
X789000Y878000D02*
D03*
D53*
X1145000Y727500D02*
D03*
X1203000D02*
D03*
X1145000Y766500D02*
D03*
X1203000D02*
D03*
D54*
X586000Y1183000D02*
D03*
Y1281000D02*
D03*
D55*
X650000Y913000D02*
D03*
X748000D02*
D03*
D56*
X916750Y1106000D02*
D03*
X903250D02*
D03*
D57*
X641950Y1105750D02*
D03*
X654650D02*
D03*
X667350D02*
D03*
X680050D02*
D03*
X641950Y1158250D02*
D03*
X654650D02*
D03*
X667350D02*
D03*
X680050D02*
D03*
D58*
X795250Y983950D02*
D03*
Y996650D02*
D03*
Y1009350D02*
D03*
Y1022050D02*
D03*
X742750Y983950D02*
D03*
Y996650D02*
D03*
Y1009350D02*
D03*
Y1022050D02*
D03*
D59*
X780000Y1125500D02*
D03*
X785000D02*
D03*
X790000D02*
D03*
X795000D02*
D03*
X800000D02*
D03*
X805000D02*
D03*
X810000D02*
D03*
X815000D02*
D03*
X820000D02*
D03*
X825000D02*
D03*
X830000D02*
D03*
X835000D02*
D03*
X840000D02*
D03*
X845000D02*
D03*
X850000D02*
D03*
X855000D02*
D03*
X860000D02*
D03*
X865000D02*
D03*
X870000D02*
D03*
X875000D02*
D03*
X880000D02*
D03*
X885000D02*
D03*
X890000D02*
D03*
X895000D02*
D03*
X900000D02*
D03*
Y1280500D02*
D03*
X895000D02*
D03*
X890000D02*
D03*
X885000D02*
D03*
X880000D02*
D03*
X875000D02*
D03*
X870000D02*
D03*
X865000D02*
D03*
X860000D02*
D03*
X855000D02*
D03*
X850000D02*
D03*
X845000D02*
D03*
X840000D02*
D03*
X835000D02*
D03*
X830000D02*
D03*
X825000D02*
D03*
X820000D02*
D03*
X815000D02*
D03*
X810000D02*
D03*
X805000D02*
D03*
X800000D02*
D03*
X795000D02*
D03*
X790000D02*
D03*
X785000D02*
D03*
X780000D02*
D03*
D60*
X917500Y1143000D02*
D03*
Y1148000D02*
D03*
Y1153000D02*
D03*
Y1158000D02*
D03*
Y1163000D02*
D03*
Y1168000D02*
D03*
Y1173000D02*
D03*
Y1178000D02*
D03*
Y1183000D02*
D03*
Y1188000D02*
D03*
Y1193000D02*
D03*
Y1198000D02*
D03*
Y1203000D02*
D03*
Y1208000D02*
D03*
Y1213000D02*
D03*
Y1218000D02*
D03*
Y1223000D02*
D03*
Y1228000D02*
D03*
Y1233000D02*
D03*
Y1238000D02*
D03*
Y1243000D02*
D03*
Y1248000D02*
D03*
Y1253000D02*
D03*
Y1258000D02*
D03*
Y1263000D02*
D03*
X762500D02*
D03*
Y1258000D02*
D03*
Y1253000D02*
D03*
Y1248000D02*
D03*
Y1243000D02*
D03*
Y1238000D02*
D03*
Y1233000D02*
D03*
Y1228000D02*
D03*
Y1223000D02*
D03*
Y1218000D02*
D03*
Y1213000D02*
D03*
Y1208000D02*
D03*
Y1203000D02*
D03*
Y1198000D02*
D03*
Y1193000D02*
D03*
Y1188000D02*
D03*
Y1183000D02*
D03*
Y1178000D02*
D03*
Y1173000D02*
D03*
Y1168000D02*
D03*
Y1163000D02*
D03*
Y1158000D02*
D03*
Y1153000D02*
D03*
Y1148000D02*
D03*
Y1143000D02*
D03*
D61*
X905000Y727000D02*
D03*
D62*
X883000Y786000D02*
D03*
X905000D02*
D03*
X929000D02*
D03*
D63*
X764000Y809000D02*
D03*
Y785000D02*
D03*
Y763000D02*
D03*
D64*
X823000Y785000D02*
D03*
D65*
X500750Y711000D02*
D03*
X521250D02*
D03*
D66*
X793250Y177199D02*
D03*
X762750D02*
D03*
X792000Y616750D02*
D03*
X761500D02*
D03*
X792000Y398750D02*
D03*
X761500D02*
D03*
D67*
X1139000Y1337000D02*
D03*
Y1357500D02*
D03*
X1004000Y1168250D02*
D03*
Y1147750D02*
D03*
D68*
X111600Y1391400D02*
D03*
Y1366000D02*
D03*
Y1340600D02*
D03*
X162400Y1366000D02*
D03*
Y1340600D02*
D03*
Y1228300D02*
D03*
Y1253700D02*
D03*
X111600Y1228300D02*
D03*
Y1253700D02*
D03*
Y1279100D02*
D03*
Y1165900D02*
D03*
Y1140500D02*
D03*
Y1115100D02*
D03*
X162400Y1140500D02*
D03*
Y1115100D02*
D03*
X327200Y1300000D02*
D03*
X352600D02*
D03*
X327200Y1325000D02*
D03*
X352600D02*
D03*
X327200Y1375000D02*
D03*
X352600D02*
D03*
X327200Y1275000D02*
D03*
X352600D02*
D03*
X327200Y1350000D02*
D03*
X352600D02*
D03*
X327200Y1175000D02*
D03*
X352600D02*
D03*
X327200Y1200000D02*
D03*
X352600D02*
D03*
X327200Y1225000D02*
D03*
X352600D02*
D03*
X327200Y1250000D02*
D03*
X352600D02*
D03*
X327200Y1050000D02*
D03*
X352600D02*
D03*
X327200Y1075000D02*
D03*
X352600D02*
D03*
X327200Y1100000D02*
D03*
X352600D02*
D03*
X327200Y1125000D02*
D03*
X352600D02*
D03*
X327200Y1150000D02*
D03*
X352600D02*
D03*
X247000Y1434100D02*
D03*
Y1408700D02*
D03*
Y1383300D02*
D03*
X248000Y1292500D02*
D03*
Y1267500D02*
D03*
Y1242500D02*
D03*
X498000Y873000D02*
D03*
X473000D02*
D03*
X448000D02*
D03*
X498000Y954167D02*
D03*
X473000D02*
D03*
X448000D02*
D03*
X498000Y1035333D02*
D03*
X473000D02*
D03*
X448000D02*
D03*
X328400Y942167D02*
D03*
X353800D02*
D03*
X379200D02*
D03*
X243500Y1047000D02*
D03*
Y1072400D02*
D03*
Y1097800D02*
D03*
Y1123200D02*
D03*
Y1148600D02*
D03*
X462500Y1358000D02*
D03*
X437000D02*
D03*
X462500Y1276833D02*
D03*
X437000D02*
D03*
X462500Y1195667D02*
D03*
X437000D02*
D03*
X462500Y1114500D02*
D03*
X437000D02*
D03*
X624750Y1439500D02*
D03*
Y1465000D02*
D03*
X784250Y1439500D02*
D03*
Y1465000D02*
D03*
X943750Y1439500D02*
D03*
Y1465000D02*
D03*
X1103250Y1439500D02*
D03*
Y1465000D02*
D03*
X545000Y1439500D02*
D03*
Y1465000D02*
D03*
X704500Y1439500D02*
D03*
Y1465000D02*
D03*
X864000Y1439500D02*
D03*
Y1465000D02*
D03*
X1023500Y1439500D02*
D03*
Y1465000D02*
D03*
X1183000Y1439500D02*
D03*
Y1465000D02*
D03*
X380200Y1445520D02*
D03*
X431000D02*
D03*
X405600D02*
D03*
X431000Y1471020D02*
D03*
X405600D02*
D03*
X1004000Y1108000D02*
D03*
X1054000Y1083000D02*
D03*
Y1133000D02*
D03*
X1087000Y1228000D02*
D03*
Y1194000D02*
D03*
X1048000Y1211000D02*
D03*
Y1245000D02*
D03*
D69*
X162400Y1391400D02*
D03*
Y1279100D02*
D03*
Y1165900D02*
D03*
X523000Y873000D02*
D03*
Y954167D02*
D03*
Y1035333D02*
D03*
X303000Y942167D02*
D03*
X487500Y1358000D02*
D03*
Y1276833D02*
D03*
Y1195667D02*
D03*
Y1114500D02*
D03*
X1048000Y1177000D02*
D03*
D70*
X1260063Y750063D02*
D03*
X440064Y40064D02*
D03*
X1260063D02*
D03*
X440064Y750063D02*
D03*
X94560Y1062560D02*
D03*
X1260063Y1460063D02*
D03*
X94489Y1460063D02*
D03*
D71*
X1278500Y1163000D02*
D03*
Y1263000D02*
D03*
X1253500D02*
D03*
Y1163000D02*
D03*
X1203500Y1213149D02*
D03*
D72*
X1253500Y1213000D02*
D03*
D73*
X1203500Y1263000D02*
D03*
Y1238000D02*
D03*
Y1188000D02*
D03*
Y1163000D02*
D03*
D74*
X449000Y205000D02*
D03*
D75*
Y133000D02*
D03*
D76*
X1095870Y1133170D02*
D03*
X1146670D02*
D03*
X1121270D02*
D03*
X1172070D02*
D03*
X1197470D02*
D03*
X1222870D02*
D03*
X1248270D02*
D03*
X1095870Y952830D02*
D03*
X1146670D02*
D03*
X1121270D02*
D03*
X1172070D02*
D03*
X1197470D02*
D03*
X1222870D02*
D03*
X1273670D02*
D03*
X1248270D02*
D03*
X674000Y221000D02*
D03*
Y256000D02*
D03*
Y668000D02*
D03*
Y703000D02*
D03*
X674000Y357500D02*
D03*
Y322500D02*
D03*
X980000Y977000D02*
D03*
Y1002000D02*
D03*
Y1027000D02*
D03*
X1042000D02*
D03*
Y1002000D02*
D03*
Y977000D02*
D03*
X674000Y123600D02*
D03*
Y88600D02*
D03*
X763000Y221000D02*
D03*
Y256000D02*
D03*
X763000Y123900D02*
D03*
Y88900D02*
D03*
X763000Y668000D02*
D03*
Y703000D02*
D03*
X674000Y450000D02*
D03*
Y485000D02*
D03*
X674000Y573500D02*
D03*
Y538500D02*
D03*
X763000Y357500D02*
D03*
Y322500D02*
D03*
X763000Y575500D02*
D03*
Y540500D02*
D03*
X763000Y450000D02*
D03*
Y485000D02*
D03*
D77*
X1273670Y1133170D02*
D03*
D78*
X378000Y1300000D02*
D03*
Y1325000D02*
D03*
Y1375000D02*
D03*
Y1275000D02*
D03*
Y1350000D02*
D03*
Y1175000D02*
D03*
Y1200000D02*
D03*
Y1225000D02*
D03*
Y1250000D02*
D03*
Y1050000D02*
D03*
Y1075000D02*
D03*
Y1100000D02*
D03*
Y1125000D02*
D03*
Y1150000D02*
D03*
X247000Y1459500D02*
D03*
X248000Y1317500D02*
D03*
X243500Y1174000D02*
D03*
X624750Y1414500D02*
D03*
X784250D02*
D03*
X943750D02*
D03*
X1103250D02*
D03*
X545000D02*
D03*
X704500D02*
D03*
X864000D02*
D03*
X1023500D02*
D03*
X1183000D02*
D03*
X380200Y1471020D02*
D03*
D79*
X1213700Y140066D02*
D03*
X1215000Y577500D02*
D03*
X1215000Y359500D02*
D03*
D80*
X1213700Y216066D02*
D03*
X1215000Y653500D02*
D03*
X1215000Y435500D02*
D03*
D81*
X980000Y952000D02*
D03*
X1042000D02*
D03*
D82*
X1245828Y1353000D02*
D03*
D83*
Y1303000D02*
D03*
D84*
X1230000Y873800D02*
D03*
Y816000D02*
D03*
D85*
X1225000Y888100D02*
D03*
X1266800D02*
D03*
X1225000Y801700D02*
D03*
X1266800D02*
D03*
M02*
