G04*
G04 #@! TF.GenerationSoftware,Altium Limited,Altium Designer,21.8.1 (53)*
G04*
G04 Layer_Physical_Order=3*
G04 Layer_Color=16440176*
%FSLAX44Y44*%
%MOMM*%
G71*
G04*
G04 #@! TF.SameCoordinates,B26C40CF-43AE-4B56-A471-EC5E2FB952F6*
G04*
G04*
G04 #@! TF.FilePolarity,Positive*
G04*
G01*
G75*
%ADD76C,1.7000*%
%ADD141C,2.0000*%
%ADD145R,1.8000X2.5000*%
%ADD148C,6.0000*%
%ADD149C,1.6000*%
%ADD156C,0.6000*%
G36*
X1242965Y1496245D02*
X1239099Y1494275D01*
X1234005Y1490574D01*
X1229553Y1486122D01*
X1225852Y1481028D01*
X1222994Y1475418D01*
X1221048Y1469430D01*
X1220063Y1463212D01*
Y1456915D01*
X1221048Y1450697D01*
X1222994Y1444709D01*
X1225852Y1439099D01*
X1229553Y1434005D01*
X1234005Y1429553D01*
X1239099Y1425852D01*
X1244709Y1422994D01*
X1250697Y1421048D01*
X1256915Y1420063D01*
X1263212D01*
X1269430Y1421048D01*
X1275418Y1422994D01*
X1281028Y1425852D01*
X1286122Y1429553D01*
X1290574Y1434005D01*
X1294275Y1439099D01*
X1296245Y1442965D01*
X1297515Y1442661D01*
Y1393764D01*
X1297500Y1392500D01*
X1296245Y1392500D01*
X1092500D01*
Y1387500D01*
X1296245D01*
X1297515Y1386236D01*
Y1063764D01*
X1297500Y1062500D01*
X1296245Y1062500D01*
X970500D01*
X955000Y1078000D01*
X950000D01*
X970500Y1057500D01*
X1296245D01*
X1297515Y1056236D01*
Y767467D01*
X1296245Y767162D01*
X1294275Y771028D01*
X1290574Y776122D01*
X1286122Y780574D01*
X1281028Y784275D01*
X1275418Y787133D01*
X1269430Y789079D01*
X1263212Y790063D01*
X1256915D01*
X1250697Y789079D01*
X1244709Y787133D01*
X1239099Y784275D01*
X1234005Y780574D01*
X1229553Y776122D01*
X1225852Y771028D01*
X1222994Y765418D01*
X1221048Y759430D01*
X1220063Y753212D01*
Y746915D01*
X1221048Y740697D01*
X1221266Y740027D01*
X1220519Y739000D01*
X1115000D01*
Y727000D01*
X1227377D01*
X1229553Y724005D01*
X1234005Y719553D01*
X1239099Y715852D01*
X1244709Y712994D01*
X1250697Y711048D01*
X1256915Y710063D01*
X1263212D01*
X1269430Y711048D01*
X1275418Y712994D01*
X1281028Y715852D01*
X1286122Y719553D01*
X1290574Y724005D01*
X1292750Y727000D01*
X1297515D01*
Y57467D01*
X1296245Y57162D01*
X1294275Y61028D01*
X1290574Y66122D01*
X1286122Y70574D01*
X1281028Y74275D01*
X1275418Y77133D01*
X1269430Y79079D01*
X1263212Y80063D01*
X1256915D01*
X1250697Y79079D01*
X1244709Y77133D01*
X1239099Y74275D01*
X1234005Y70574D01*
X1229553Y66122D01*
X1225852Y61028D01*
X1222994Y55418D01*
X1221048Y49430D01*
X1220063Y43212D01*
Y36915D01*
X1221048Y30697D01*
X1222994Y24709D01*
X1225852Y19099D01*
X1229553Y14005D01*
X1234005Y9553D01*
X1239099Y5852D01*
X1242965Y3882D01*
X1242661Y2612D01*
X457467D01*
X457162Y3882D01*
X461028Y5852D01*
X466122Y9553D01*
X470574Y14005D01*
X474275Y19099D01*
X477133Y24709D01*
X479079Y30697D01*
X480064Y36915D01*
Y43212D01*
X479079Y49430D01*
X477133Y55418D01*
X474275Y61028D01*
X470574Y66122D01*
X466122Y70574D01*
X461028Y74275D01*
X455418Y77133D01*
X449430Y79079D01*
X443212Y80063D01*
X436915D01*
X430697Y79079D01*
X424709Y77133D01*
X419099Y74275D01*
X414005Y70574D01*
X409553Y66122D01*
X405852Y61028D01*
X403882Y57162D01*
X402612Y57467D01*
X402612Y680000D01*
X608000D01*
X656000Y728000D01*
X785000D01*
Y737000D01*
X683817D01*
X683084Y738270D01*
X683455Y738912D01*
X684000Y740947D01*
Y743053D01*
X683455Y745088D01*
X682402Y746912D01*
X682314Y747000D01*
X682402Y747088D01*
X683455Y748912D01*
X684000Y750947D01*
Y753053D01*
X683455Y755088D01*
X682402Y756912D01*
X682314Y757000D01*
X682402Y757088D01*
X683455Y758912D01*
X684000Y760947D01*
Y763053D01*
X683455Y765088D01*
X682402Y766912D01*
X680912Y768402D01*
X679088Y769455D01*
X677053Y770000D01*
X674947D01*
X672912Y769455D01*
X671088Y768402D01*
X669598Y766912D01*
X668545Y765088D01*
X668000Y763053D01*
Y760947D01*
X668545Y758912D01*
X669598Y757088D01*
X669686Y757000D01*
X669598Y756912D01*
X668545Y755088D01*
X668000Y753053D01*
Y750947D01*
X668545Y748912D01*
X669598Y747088D01*
X669686Y747000D01*
X669598Y746912D01*
X668545Y745088D01*
X668000Y743053D01*
Y740947D01*
X668545Y738912D01*
X668916Y738270D01*
X668183Y737000D01*
X642000D01*
X597000Y692000D01*
X404553D01*
X403258Y690704D01*
X401880Y691123D01*
X401365Y693711D01*
X401316Y693828D01*
X401304Y693954D01*
X400164Y697710D01*
X400105Y697822D01*
X400080Y697946D01*
X398578Y701572D01*
X398508Y701678D01*
X398471Y701799D01*
X396620Y705260D01*
X396540Y705358D01*
X396492Y705475D01*
X394311Y708739D01*
X394222Y708828D01*
X394162Y708940D01*
X391672Y711974D01*
X391598Y712035D01*
X391548Y712115D01*
X390194Y713537D01*
X390168Y713555D01*
X390151Y713580D01*
X80360Y1023781D01*
X81043Y1024894D01*
X85194Y1023545D01*
X91412Y1022560D01*
X97709D01*
X103927Y1023545D01*
X109915Y1025491D01*
X115525Y1028349D01*
X120619Y1032050D01*
X125071Y1036502D01*
X128772Y1041596D01*
X131630Y1047206D01*
X133576Y1053194D01*
X134560Y1059412D01*
Y1065708D01*
X133576Y1071927D01*
X131630Y1077915D01*
X128772Y1083525D01*
X125071Y1088619D01*
X120619Y1093071D01*
X115525Y1096771D01*
X111485Y1098830D01*
X111790Y1100100D01*
X113077D01*
X115975Y1100676D01*
X118705Y1101807D01*
X121162Y1103449D01*
X123251Y1105538D01*
X124893Y1107995D01*
X126024Y1110725D01*
X126600Y1113623D01*
Y1116577D01*
X126024Y1119475D01*
X124893Y1122205D01*
X123251Y1124662D01*
X121162Y1126751D01*
X120543Y1127165D01*
Y1128435D01*
X121162Y1128849D01*
X123251Y1130938D01*
X124893Y1133395D01*
X126024Y1136125D01*
X126600Y1139023D01*
Y1141977D01*
X126024Y1144875D01*
X124893Y1147605D01*
X123251Y1150062D01*
X121162Y1152151D01*
X120543Y1152565D01*
Y1153835D01*
X121162Y1154249D01*
X123251Y1156338D01*
X124893Y1158795D01*
X126024Y1161525D01*
X126600Y1164423D01*
Y1167377D01*
X126024Y1170275D01*
X124893Y1173005D01*
X123251Y1175462D01*
X121162Y1177551D01*
X118705Y1179193D01*
X115975Y1180323D01*
X113077Y1180900D01*
X110123D01*
X107225Y1180323D01*
X104495Y1179193D01*
X102038Y1177551D01*
X99949Y1175462D01*
X98307Y1173005D01*
X97177Y1170275D01*
X96600Y1167377D01*
Y1164423D01*
X97177Y1161525D01*
X98307Y1158795D01*
X99949Y1156338D01*
X102038Y1154249D01*
X102657Y1153835D01*
Y1152565D01*
X102038Y1152151D01*
X99949Y1150062D01*
X98307Y1147605D01*
X97177Y1144875D01*
X96600Y1141977D01*
Y1139023D01*
X97177Y1136125D01*
X98307Y1133395D01*
X99949Y1130938D01*
X102038Y1128849D01*
X102657Y1128435D01*
Y1127165D01*
X102038Y1126751D01*
X99949Y1124662D01*
X98307Y1122205D01*
X97177Y1119475D01*
X96600Y1116577D01*
Y1113623D01*
X97177Y1110725D01*
X98307Y1107995D01*
X99949Y1105538D01*
X102038Y1103449D01*
X102603Y1103071D01*
X102129Y1101860D01*
X97709Y1102560D01*
X91412D01*
X85194Y1101575D01*
X79206Y1099630D01*
X73596Y1096771D01*
X68502Y1093071D01*
X64050Y1088619D01*
X60349Y1083525D01*
X58307Y1079517D01*
X57038Y1079822D01*
X57038Y1442660D01*
X58307Y1442965D01*
X60278Y1439099D01*
X63978Y1434005D01*
X68430Y1429553D01*
X73524Y1425852D01*
X79134Y1422994D01*
X85122Y1421048D01*
X91341Y1420063D01*
X97637D01*
X103855Y1421048D01*
X109843Y1422994D01*
X115453Y1425852D01*
X120547Y1429553D01*
X124999Y1434005D01*
X128700Y1439099D01*
X131558Y1444709D01*
X133504Y1450697D01*
X134489Y1456915D01*
Y1463212D01*
X133504Y1469430D01*
X131558Y1475418D01*
X128700Y1481028D01*
X124999Y1486122D01*
X120547Y1490574D01*
X115453Y1494274D01*
X111587Y1496245D01*
X111892Y1497514D01*
X1242660Y1497515D01*
X1242965Y1496245D01*
D02*
G37*
%LPC*%
G36*
X432477Y1486020D02*
X429523D01*
X426625Y1485444D01*
X423895Y1484313D01*
X421438Y1482671D01*
X419349Y1480582D01*
X418935Y1479963D01*
X417665D01*
X417251Y1480582D01*
X415162Y1482671D01*
X412705Y1484313D01*
X409975Y1485444D01*
X407077Y1486020D01*
X404123D01*
X401225Y1485444D01*
X398495Y1484313D01*
X396470Y1482960D01*
X395200Y1483529D01*
Y1486020D01*
X365200D01*
Y1456020D01*
X367841D01*
X368327Y1454750D01*
X366907Y1452625D01*
X365776Y1449895D01*
X365200Y1446997D01*
Y1444043D01*
X365776Y1441145D01*
X366907Y1438415D01*
X368549Y1435958D01*
X370638Y1433869D01*
X373095Y1432227D01*
X375825Y1431096D01*
X378723Y1430520D01*
X381677D01*
X384575Y1431096D01*
X387305Y1432227D01*
X389762Y1433869D01*
X391851Y1435958D01*
X392265Y1436577D01*
X393535D01*
X393949Y1435958D01*
X396038Y1433869D01*
X398495Y1432227D01*
X401225Y1431096D01*
X404123Y1430520D01*
X407077D01*
X409975Y1431096D01*
X412705Y1432227D01*
X415162Y1433869D01*
X417251Y1435958D01*
X418749Y1438199D01*
X420090Y1438417D01*
X420597Y1437538D01*
X423018Y1435117D01*
X425500Y1433684D01*
Y1445520D01*
X431000D01*
Y1451020D01*
X442836D01*
X441403Y1453502D01*
X438982Y1455923D01*
X438023Y1456476D01*
X438050Y1456877D01*
X438240Y1457818D01*
X440562Y1459369D01*
X442651Y1461458D01*
X444293Y1463915D01*
X445424Y1466645D01*
X446000Y1469543D01*
Y1472497D01*
X445424Y1475395D01*
X444293Y1478125D01*
X442651Y1480582D01*
X440562Y1482671D01*
X438105Y1484313D01*
X435375Y1485444D01*
X432477Y1486020D01*
D02*
G37*
G36*
X1029000Y1476836D02*
Y1470500D01*
X1035335D01*
X1033902Y1472982D01*
X1031482Y1475403D01*
X1029000Y1476836D01*
D02*
G37*
G36*
X949250Y1476836D02*
Y1470500D01*
X955585D01*
X954152Y1472982D01*
X951732Y1475403D01*
X949250Y1476836D01*
D02*
G37*
G36*
X630250D02*
Y1470500D01*
X636586D01*
X635153Y1472982D01*
X632732Y1475403D01*
X630250Y1476836D01*
D02*
G37*
G36*
X869500Y1476836D02*
Y1470500D01*
X875835D01*
X874402Y1472982D01*
X871982Y1475403D01*
X869500Y1476836D01*
D02*
G37*
G36*
X550500D02*
Y1470500D01*
X556836D01*
X555402Y1472982D01*
X552982Y1475403D01*
X550500Y1476836D01*
D02*
G37*
G36*
X1188500D02*
Y1470500D01*
X1194836D01*
X1193402Y1472982D01*
X1190982Y1475403D01*
X1188500Y1476836D01*
D02*
G37*
G36*
X710000D02*
Y1470500D01*
X716336D01*
X714902Y1472982D01*
X712482Y1475403D01*
X710000Y1476836D01*
D02*
G37*
G36*
X1108750Y1476836D02*
Y1470500D01*
X1115086D01*
X1113652Y1472982D01*
X1111232Y1475403D01*
X1108750Y1476836D01*
D02*
G37*
G36*
X789750D02*
Y1470500D01*
X796086D01*
X794652Y1472982D01*
X792232Y1475403D01*
X789750Y1476836D01*
D02*
G37*
G36*
X778750Y1476836D02*
X776268Y1475403D01*
X773847Y1472982D01*
X772414Y1470500D01*
X778750D01*
Y1476836D01*
D02*
G37*
G36*
X1097750D02*
X1095268Y1475403D01*
X1092847Y1472982D01*
X1091414Y1470500D01*
X1097750D01*
Y1476836D01*
D02*
G37*
G36*
X858500Y1476836D02*
X856018Y1475403D01*
X853597Y1472982D01*
X852164Y1470500D01*
X858500D01*
Y1476836D01*
D02*
G37*
G36*
X539500D02*
X537018Y1475403D01*
X534597Y1472982D01*
X533164Y1470500D01*
X539500D01*
Y1476836D01*
D02*
G37*
G36*
X1177500D02*
X1175018Y1475403D01*
X1172597Y1472982D01*
X1171164Y1470500D01*
X1177500D01*
Y1476836D01*
D02*
G37*
G36*
X699000D02*
X696518Y1475403D01*
X694097Y1472982D01*
X692664Y1470500D01*
X699000D01*
Y1476836D01*
D02*
G37*
G36*
X619250Y1476836D02*
X616768Y1475403D01*
X614347Y1472982D01*
X612914Y1470500D01*
X619250D01*
Y1476836D01*
D02*
G37*
G36*
X938250D02*
X935768Y1475403D01*
X933347Y1472982D01*
X931914Y1470500D01*
X938250D01*
Y1476836D01*
D02*
G37*
G36*
X1018000Y1476836D02*
X1015518Y1475403D01*
X1013097Y1472982D01*
X1011664Y1470500D01*
X1018000D01*
Y1476836D01*
D02*
G37*
G36*
X505053Y1471000D02*
X502947D01*
X500912Y1470455D01*
X499088Y1469402D01*
X497598Y1467912D01*
X496545Y1466088D01*
X496000Y1464053D01*
Y1461947D01*
X496545Y1459912D01*
X497072Y1459000D01*
X496545Y1458088D01*
X496000Y1456053D01*
Y1453947D01*
X496545Y1451912D01*
X497072Y1451000D01*
X496545Y1450088D01*
X496000Y1448053D01*
Y1445947D01*
X496545Y1443912D01*
X497598Y1442088D01*
X499088Y1440598D01*
X500912Y1439545D01*
X502947Y1439000D01*
X505053D01*
X507088Y1439545D01*
X508912Y1440598D01*
X510402Y1442088D01*
X511455Y1443912D01*
X512000Y1445947D01*
Y1448053D01*
X511455Y1450088D01*
X510928Y1451000D01*
X511455Y1451912D01*
X512000Y1453947D01*
Y1456053D01*
X511455Y1458088D01*
X510928Y1459000D01*
X511455Y1459912D01*
X512000Y1461947D01*
Y1464053D01*
X511455Y1466088D01*
X510402Y1467912D01*
X508912Y1469402D01*
X507088Y1470455D01*
X505053Y1471000D01*
D02*
G37*
G36*
X442836Y1440020D02*
X436500D01*
Y1433684D01*
X438982Y1435117D01*
X441403Y1437538D01*
X442836Y1440020D01*
D02*
G37*
G36*
X1194836Y1459500D02*
X1183000D01*
X1171164D01*
X1172597Y1457018D01*
X1175018Y1454597D01*
X1175977Y1454044D01*
X1175950Y1453642D01*
X1175760Y1452703D01*
X1173438Y1451151D01*
X1171349Y1449062D01*
X1169707Y1446605D01*
X1168576Y1443875D01*
X1168000Y1440977D01*
Y1438023D01*
X1168576Y1435125D01*
X1169707Y1432395D01*
X1170793Y1430770D01*
X1170114Y1429500D01*
X1168000D01*
Y1399500D01*
X1198000D01*
Y1429500D01*
X1195886D01*
X1195207Y1430770D01*
X1196293Y1432395D01*
X1197423Y1435125D01*
X1198000Y1438023D01*
Y1440977D01*
X1197423Y1443875D01*
X1196293Y1446605D01*
X1194651Y1449062D01*
X1192562Y1451151D01*
X1190240Y1452703D01*
X1190049Y1453642D01*
X1190023Y1454044D01*
X1190982Y1454597D01*
X1193402Y1457018D01*
X1194836Y1459500D01*
D02*
G37*
G36*
X1115086D02*
X1103250D01*
X1091414D01*
X1092847Y1457018D01*
X1095268Y1454597D01*
X1096227Y1454044D01*
X1096200Y1453642D01*
X1096010Y1452703D01*
X1093688Y1451151D01*
X1091599Y1449062D01*
X1089957Y1446605D01*
X1088826Y1443875D01*
X1088250Y1440977D01*
Y1438023D01*
X1088826Y1435125D01*
X1089957Y1432395D01*
X1091043Y1430770D01*
X1090364Y1429500D01*
X1088250D01*
Y1399500D01*
X1118250D01*
Y1429500D01*
X1116136D01*
X1115457Y1430770D01*
X1116543Y1432395D01*
X1117673Y1435125D01*
X1118250Y1438023D01*
Y1440977D01*
X1117673Y1443875D01*
X1116543Y1446605D01*
X1114901Y1449062D01*
X1112812Y1451151D01*
X1110490Y1452703D01*
X1110299Y1453642D01*
X1110273Y1454044D01*
X1111232Y1454597D01*
X1113652Y1457018D01*
X1115086Y1459500D01*
D02*
G37*
G36*
X1035336D02*
X1023500D01*
X1011664D01*
X1013097Y1457018D01*
X1015518Y1454597D01*
X1016477Y1454044D01*
X1016450Y1453642D01*
X1016260Y1452703D01*
X1013938Y1451151D01*
X1011849Y1449062D01*
X1010207Y1446605D01*
X1009076Y1443875D01*
X1008500Y1440977D01*
Y1438023D01*
X1009076Y1435125D01*
X1010207Y1432395D01*
X1011293Y1430770D01*
X1010614Y1429500D01*
X1008500D01*
Y1399500D01*
X1038500D01*
Y1429500D01*
X1036386D01*
X1035707Y1430770D01*
X1036793Y1432395D01*
X1037923Y1435125D01*
X1038500Y1438023D01*
Y1440977D01*
X1037923Y1443875D01*
X1036793Y1446605D01*
X1035151Y1449062D01*
X1033062Y1451151D01*
X1030740Y1452703D01*
X1030549Y1453642D01*
X1030523Y1454044D01*
X1031482Y1454597D01*
X1033902Y1457018D01*
X1035336Y1459500D01*
D02*
G37*
G36*
X955586D02*
X943750D01*
X931914D01*
X933347Y1457018D01*
X935768Y1454597D01*
X936727Y1454044D01*
X936700Y1453642D01*
X936510Y1452703D01*
X934188Y1451151D01*
X932099Y1449062D01*
X930457Y1446605D01*
X929326Y1443875D01*
X928750Y1440977D01*
Y1438023D01*
X929326Y1435125D01*
X930457Y1432395D01*
X931543Y1430770D01*
X930864Y1429500D01*
X928750D01*
Y1399500D01*
X958750D01*
Y1429500D01*
X956636D01*
X955957Y1430770D01*
X957043Y1432395D01*
X958173Y1435125D01*
X958750Y1438023D01*
Y1440977D01*
X958173Y1443875D01*
X957043Y1446605D01*
X955401Y1449062D01*
X953312Y1451151D01*
X950990Y1452703D01*
X950799Y1453642D01*
X950773Y1454044D01*
X951732Y1454597D01*
X954152Y1457018D01*
X955586Y1459500D01*
D02*
G37*
G36*
X875836D02*
X864000D01*
X852164D01*
X853597Y1457018D01*
X856018Y1454597D01*
X856977Y1454044D01*
X856950Y1453642D01*
X856760Y1452703D01*
X854438Y1451151D01*
X852349Y1449062D01*
X850707Y1446605D01*
X849576Y1443875D01*
X849000Y1440977D01*
Y1438023D01*
X849576Y1435125D01*
X850707Y1432395D01*
X851793Y1430770D01*
X851114Y1429500D01*
X849000D01*
Y1399500D01*
X879000D01*
Y1429500D01*
X876886D01*
X876207Y1430770D01*
X877293Y1432395D01*
X878423Y1435125D01*
X879000Y1438023D01*
Y1440977D01*
X878423Y1443875D01*
X877293Y1446605D01*
X875651Y1449062D01*
X873562Y1451151D01*
X871240Y1452703D01*
X871049Y1453642D01*
X871023Y1454044D01*
X871982Y1454597D01*
X874402Y1457018D01*
X875836Y1459500D01*
D02*
G37*
G36*
X796086D02*
X784250D01*
X772414D01*
X773847Y1457018D01*
X776268Y1454597D01*
X777227Y1454044D01*
X777200Y1453642D01*
X777010Y1452703D01*
X774688Y1451151D01*
X772599Y1449062D01*
X770957Y1446605D01*
X769826Y1443875D01*
X769250Y1440977D01*
Y1438023D01*
X769826Y1435125D01*
X770957Y1432395D01*
X772043Y1430770D01*
X771364Y1429500D01*
X769250D01*
Y1399500D01*
X799250D01*
Y1429500D01*
X797136D01*
X796457Y1430770D01*
X797543Y1432395D01*
X798673Y1435125D01*
X799250Y1438023D01*
Y1440977D01*
X798673Y1443875D01*
X797543Y1446605D01*
X795901Y1449062D01*
X793812Y1451151D01*
X791490Y1452703D01*
X791299Y1453642D01*
X791273Y1454044D01*
X792232Y1454597D01*
X794652Y1457018D01*
X796086Y1459500D01*
D02*
G37*
G36*
X716336D02*
X704500D01*
X692664D01*
X694097Y1457018D01*
X696518Y1454597D01*
X697477Y1454044D01*
X697450Y1453642D01*
X697260Y1452703D01*
X694938Y1451151D01*
X692849Y1449062D01*
X691207Y1446605D01*
X690076Y1443875D01*
X689500Y1440977D01*
Y1438023D01*
X690076Y1435125D01*
X691207Y1432395D01*
X692293Y1430770D01*
X691614Y1429500D01*
X689500D01*
Y1399500D01*
X719500D01*
Y1429500D01*
X717386D01*
X716707Y1430770D01*
X717793Y1432395D01*
X718923Y1435125D01*
X719500Y1438023D01*
Y1440977D01*
X718923Y1443875D01*
X717793Y1446605D01*
X716151Y1449062D01*
X714062Y1451151D01*
X711740Y1452703D01*
X711549Y1453642D01*
X711523Y1454044D01*
X712482Y1454597D01*
X714902Y1457018D01*
X716336Y1459500D01*
D02*
G37*
G36*
X636586D02*
X624750D01*
X612914D01*
X614347Y1457018D01*
X616768Y1454597D01*
X617727Y1454044D01*
X617701Y1453642D01*
X617510Y1452703D01*
X615188Y1451151D01*
X613099Y1449062D01*
X611457Y1446605D01*
X610326Y1443875D01*
X609750Y1440977D01*
Y1438023D01*
X610326Y1435125D01*
X611457Y1432395D01*
X612543Y1430770D01*
X611864Y1429500D01*
X609750D01*
Y1399500D01*
X639750D01*
Y1429500D01*
X637636D01*
X636957Y1430770D01*
X638043Y1432395D01*
X639174Y1435125D01*
X639750Y1438023D01*
Y1440977D01*
X639174Y1443875D01*
X638043Y1446605D01*
X636401Y1449062D01*
X634312Y1451151D01*
X631990Y1452703D01*
X631799Y1453642D01*
X631773Y1454044D01*
X632732Y1454597D01*
X635153Y1457018D01*
X636586Y1459500D01*
D02*
G37*
G36*
X556836D02*
X545000D01*
X533164D01*
X534597Y1457018D01*
X537018Y1454597D01*
X537977Y1454044D01*
X537951Y1453642D01*
X537760Y1452703D01*
X535438Y1451151D01*
X533349Y1449062D01*
X531707Y1446605D01*
X530576Y1443875D01*
X530000Y1440977D01*
Y1438023D01*
X530576Y1435125D01*
X531707Y1432395D01*
X532793Y1430770D01*
X532114Y1429500D01*
X530000D01*
Y1399500D01*
X560000D01*
Y1429500D01*
X557886D01*
X557207Y1430770D01*
X558293Y1432395D01*
X559423Y1435125D01*
X560000Y1438023D01*
Y1440977D01*
X559423Y1443875D01*
X558293Y1446605D01*
X556651Y1449062D01*
X554562Y1451151D01*
X552240Y1452703D01*
X552049Y1453642D01*
X552023Y1454044D01*
X552982Y1454597D01*
X555402Y1457018D01*
X556836Y1459500D01*
D02*
G37*
G36*
X262000Y1474500D02*
X232000D01*
Y1444500D01*
X234491D01*
X235060Y1443230D01*
X233707Y1441205D01*
X232577Y1438475D01*
X232000Y1435577D01*
Y1432623D01*
X232577Y1429725D01*
X233707Y1426995D01*
X235349Y1424538D01*
X237438Y1422449D01*
X238057Y1422035D01*
Y1420765D01*
X237438Y1420351D01*
X235349Y1418262D01*
X233707Y1415805D01*
X232577Y1413075D01*
X232000Y1410177D01*
Y1407223D01*
X232577Y1404325D01*
X233707Y1401595D01*
X235349Y1399138D01*
X237438Y1397049D01*
X239680Y1395551D01*
X239897Y1394210D01*
X239018Y1393703D01*
X236597Y1391282D01*
X235164Y1388800D01*
X258836D01*
X257403Y1391282D01*
X254982Y1393703D01*
X254103Y1394210D01*
X254321Y1395551D01*
X256562Y1397049D01*
X258651Y1399138D01*
X260293Y1401595D01*
X261424Y1404325D01*
X262000Y1407223D01*
Y1410177D01*
X261424Y1413075D01*
X260293Y1415805D01*
X258651Y1418262D01*
X256562Y1420351D01*
X255943Y1420765D01*
Y1422035D01*
X256562Y1422449D01*
X258651Y1424538D01*
X260293Y1426995D01*
X261424Y1429725D01*
X262000Y1432623D01*
Y1435577D01*
X261424Y1438475D01*
X260293Y1441205D01*
X258940Y1443230D01*
X259509Y1444500D01*
X262000D01*
Y1474500D01*
D02*
G37*
G36*
X393000Y1390000D02*
X363000D01*
Y1387509D01*
X361730Y1386940D01*
X359705Y1388293D01*
X356975Y1389424D01*
X354077Y1390000D01*
X351123D01*
X348225Y1389424D01*
X345495Y1388293D01*
X343038Y1386651D01*
X340949Y1384562D01*
X339451Y1382321D01*
X338110Y1382103D01*
X337603Y1382982D01*
X335182Y1385403D01*
X332700Y1386836D01*
Y1375000D01*
X327200D01*
Y1369500D01*
X315364D01*
X316797Y1367018D01*
X319218Y1364598D01*
X321602Y1363221D01*
Y1361779D01*
X319218Y1360403D01*
X316797Y1357982D01*
X315364Y1355500D01*
X327200D01*
Y1344500D01*
X315364D01*
X316797Y1342018D01*
X319218Y1339598D01*
X321602Y1338221D01*
Y1336779D01*
X319218Y1335403D01*
X316797Y1332982D01*
X315364Y1330500D01*
X327200D01*
Y1319500D01*
X315364D01*
X316797Y1317018D01*
X319218Y1314598D01*
X321601Y1313221D01*
Y1311779D01*
X319218Y1310403D01*
X316797Y1307982D01*
X315364Y1305500D01*
X327200D01*
Y1294500D01*
X315364D01*
X316797Y1292018D01*
X319218Y1289598D01*
X321602Y1288221D01*
Y1286779D01*
X319218Y1285403D01*
X316797Y1282982D01*
X315364Y1280500D01*
X327200D01*
Y1269500D01*
X315364D01*
X316797Y1267018D01*
X319218Y1264598D01*
X321602Y1263221D01*
Y1261779D01*
X319218Y1260403D01*
X316797Y1257982D01*
X315364Y1255500D01*
X327200D01*
Y1244500D01*
X315364D01*
X316797Y1242018D01*
X319218Y1239598D01*
X321602Y1238221D01*
Y1236779D01*
X319218Y1235403D01*
X316797Y1232982D01*
X315364Y1230500D01*
X327200D01*
Y1219500D01*
X315364D01*
X316797Y1217018D01*
X319218Y1214598D01*
X321602Y1213221D01*
Y1211779D01*
X319218Y1210403D01*
X316797Y1207982D01*
X315364Y1205500D01*
X327200D01*
Y1194500D01*
X315364D01*
X316797Y1192018D01*
X319218Y1189598D01*
X321602Y1188221D01*
Y1186779D01*
X319218Y1185403D01*
X316797Y1182982D01*
X315364Y1180500D01*
X327200D01*
Y1169500D01*
X315364D01*
X316797Y1167018D01*
X319218Y1164598D01*
X321602Y1163221D01*
Y1161779D01*
X319218Y1160403D01*
X316797Y1157982D01*
X315364Y1155500D01*
X327200D01*
Y1144500D01*
X315364D01*
X316797Y1142018D01*
X319218Y1139598D01*
X321602Y1138221D01*
Y1136779D01*
X319218Y1135403D01*
X316797Y1132982D01*
X315364Y1130500D01*
X327200D01*
Y1119500D01*
X315364D01*
X316797Y1117018D01*
X319218Y1114598D01*
X321602Y1113221D01*
Y1111779D01*
X319218Y1110403D01*
X316797Y1107982D01*
X315364Y1105500D01*
X327200D01*
Y1094500D01*
X315364D01*
X316797Y1092018D01*
X319218Y1089598D01*
X321602Y1088221D01*
Y1086779D01*
X319218Y1085403D01*
X316797Y1082982D01*
X315364Y1080500D01*
X327200D01*
Y1069500D01*
X315364D01*
X316797Y1067018D01*
X319218Y1064598D01*
X321602Y1063221D01*
Y1061779D01*
X319218Y1060403D01*
X316797Y1057982D01*
X315364Y1055500D01*
X327200D01*
Y1050000D01*
X332700D01*
Y1038165D01*
X335182Y1039598D01*
X337603Y1042018D01*
X338110Y1042897D01*
X339451Y1042680D01*
X340949Y1040438D01*
X343038Y1038349D01*
X345495Y1036707D01*
X348225Y1035577D01*
X351123Y1035000D01*
X354077D01*
X356975Y1035577D01*
X359705Y1036707D01*
X361730Y1038060D01*
X363000Y1037491D01*
Y1035000D01*
X393000D01*
Y1060000D01*
Y1085000D01*
Y1110000D01*
Y1135000D01*
Y1160000D01*
Y1185000D01*
Y1210000D01*
Y1235000D01*
Y1260000D01*
Y1285000D01*
Y1310000D01*
Y1335000D01*
Y1360000D01*
Y1390000D01*
D02*
G37*
G36*
X321700Y1386836D02*
X319218Y1385403D01*
X316797Y1382982D01*
X315364Y1380500D01*
X321700D01*
Y1386836D01*
D02*
G37*
G36*
X258836Y1377800D02*
X252500D01*
Y1371464D01*
X254982Y1372897D01*
X257403Y1375318D01*
X258836Y1377800D01*
D02*
G37*
G36*
X241500D02*
X235164D01*
X236597Y1375318D01*
X239018Y1372897D01*
X241500Y1371464D01*
Y1377800D01*
D02*
G37*
G36*
X502500Y1373000D02*
X472500D01*
Y1370886D01*
X471230Y1370207D01*
X469605Y1371293D01*
X466875Y1372423D01*
X463977Y1373000D01*
X461023D01*
X458125Y1372423D01*
X455395Y1371293D01*
X452938Y1369651D01*
X450849Y1367562D01*
X449297Y1365240D01*
X448358Y1365049D01*
X447956Y1365023D01*
X447403Y1365982D01*
X444982Y1368402D01*
X442500Y1369835D01*
Y1358000D01*
Y1346164D01*
X444982Y1347597D01*
X447403Y1350018D01*
X447956Y1350977D01*
X448358Y1350950D01*
X449297Y1350759D01*
X450849Y1348438D01*
X452938Y1346348D01*
X455395Y1344707D01*
X458125Y1343576D01*
X461023Y1343000D01*
X463977D01*
X466875Y1343576D01*
X469605Y1344707D01*
X471230Y1345793D01*
X472500Y1345114D01*
Y1343000D01*
X502500D01*
Y1373000D01*
D02*
G37*
G36*
X431500Y1369835D02*
X429018Y1368402D01*
X426597Y1365982D01*
X425164Y1363500D01*
X431500D01*
Y1369835D01*
D02*
G37*
G36*
X1250828Y1363392D02*
Y1358000D01*
X1256220D01*
X1255030Y1360061D01*
X1252889Y1362202D01*
X1250828Y1363392D01*
D02*
G37*
G36*
X1240828Y1363392D02*
X1238767Y1362202D01*
X1236626Y1360061D01*
X1235436Y1358000D01*
X1240828D01*
Y1363392D01*
D02*
G37*
G36*
X431500Y1352500D02*
X425164D01*
X426597Y1350018D01*
X429018Y1347597D01*
X431500Y1346164D01*
Y1352500D01*
D02*
G37*
G36*
X177400Y1406400D02*
X147400D01*
Y1376400D01*
X149891D01*
X150460Y1375130D01*
X149107Y1373105D01*
X147977Y1370375D01*
X147400Y1367477D01*
Y1364523D01*
X147977Y1361625D01*
X149107Y1358895D01*
X150749Y1356438D01*
X152838Y1354349D01*
X155079Y1352851D01*
X155297Y1351510D01*
X154418Y1351003D01*
X151997Y1348582D01*
X150564Y1346100D01*
X162400D01*
X174236D01*
X172803Y1348582D01*
X170382Y1351003D01*
X169503Y1351510D01*
X169720Y1352851D01*
X171962Y1354349D01*
X174051Y1356438D01*
X175693Y1358895D01*
X176824Y1361625D01*
X177400Y1364523D01*
Y1367477D01*
X176824Y1370375D01*
X175693Y1373105D01*
X174340Y1375130D01*
X174909Y1376400D01*
X177400D01*
Y1406400D01*
D02*
G37*
G36*
X1256220Y1348000D02*
X1250828D01*
Y1342608D01*
X1252889Y1343798D01*
X1255030Y1345939D01*
X1256220Y1348000D01*
D02*
G37*
G36*
X1240828D02*
X1235436D01*
X1236626Y1345939D01*
X1238767Y1343798D01*
X1240828Y1342608D01*
Y1348000D01*
D02*
G37*
G36*
X174236Y1335100D02*
X167900D01*
Y1328764D01*
X170382Y1330197D01*
X172803Y1332618D01*
X174236Y1335100D01*
D02*
G37*
G36*
X156900D02*
X150564D01*
X151997Y1332618D01*
X154418Y1330197D01*
X156900Y1328764D01*
Y1335100D01*
D02*
G37*
G36*
X113077Y1406400D02*
X110123D01*
X107225Y1405824D01*
X104495Y1404693D01*
X102038Y1403051D01*
X99949Y1400962D01*
X98307Y1398505D01*
X97177Y1395775D01*
X96600Y1392877D01*
Y1389923D01*
X97177Y1387025D01*
X98307Y1384295D01*
X99949Y1381838D01*
X102038Y1379749D01*
X102657Y1379335D01*
Y1378065D01*
X102038Y1377651D01*
X99949Y1375562D01*
X98307Y1373105D01*
X97177Y1370375D01*
X96600Y1367477D01*
Y1364523D01*
X97177Y1361625D01*
X98307Y1358895D01*
X99949Y1356438D01*
X102038Y1354349D01*
X102657Y1353935D01*
Y1352665D01*
X102038Y1352251D01*
X99949Y1350162D01*
X98307Y1347705D01*
X97177Y1344975D01*
X96600Y1342077D01*
Y1339123D01*
X97177Y1336225D01*
X98307Y1333495D01*
X99949Y1331038D01*
X102038Y1328949D01*
X104495Y1327307D01*
X107225Y1326176D01*
X110123Y1325600D01*
X113077D01*
X115975Y1326176D01*
X118705Y1327307D01*
X121162Y1328949D01*
X123251Y1331038D01*
X124893Y1333495D01*
X126024Y1336225D01*
X126600Y1339123D01*
Y1342077D01*
X126024Y1344975D01*
X124893Y1347705D01*
X123251Y1350162D01*
X121162Y1352251D01*
X120543Y1352665D01*
Y1353935D01*
X121162Y1354349D01*
X123251Y1356438D01*
X124893Y1358895D01*
X126024Y1361625D01*
X126600Y1364523D01*
Y1367477D01*
X126024Y1370375D01*
X124893Y1373105D01*
X123251Y1375562D01*
X121162Y1377651D01*
X120543Y1378065D01*
Y1379335D01*
X121162Y1379749D01*
X123251Y1381838D01*
X124893Y1384295D01*
X126024Y1387025D01*
X126600Y1389923D01*
Y1392877D01*
X126024Y1395775D01*
X124893Y1398505D01*
X123251Y1400962D01*
X121162Y1403051D01*
X118705Y1404693D01*
X115975Y1405824D01*
X113077Y1406400D01*
D02*
G37*
G36*
X896053Y1325500D02*
X893947D01*
X891912Y1324955D01*
X890088Y1323902D01*
X888598Y1322412D01*
X887545Y1320588D01*
X887000Y1318553D01*
Y1316447D01*
X887545Y1314412D01*
X888598Y1312588D01*
X890088Y1311098D01*
X891912Y1310045D01*
X893947Y1309500D01*
X896053D01*
X898088Y1310045D01*
X899912Y1311098D01*
X901402Y1312588D01*
X902455Y1314412D01*
X903000Y1316447D01*
Y1318553D01*
X902455Y1320588D01*
X901402Y1322412D01*
X899912Y1323902D01*
X898088Y1324955D01*
X896053Y1325500D01*
D02*
G37*
G36*
X1084250Y1383250D02*
X1007315Y1306315D01*
X1013283Y1306034D01*
X1087124Y1380376D01*
X1084250Y1383250D01*
D02*
G37*
G36*
X743553Y1318000D02*
X741447D01*
X739412Y1317455D01*
X737588Y1316402D01*
X736098Y1314912D01*
X735045Y1313088D01*
X734500Y1311053D01*
Y1308947D01*
X735045Y1306912D01*
X735427Y1306250D01*
X735045Y1305588D01*
X734500Y1303553D01*
Y1301447D01*
X735045Y1299412D01*
X736098Y1297588D01*
X737588Y1296098D01*
X739412Y1295045D01*
X741447Y1294500D01*
X743553D01*
X745588Y1295045D01*
X747412Y1296098D01*
X748902Y1297588D01*
X749955Y1299412D01*
X750500Y1301447D01*
Y1303553D01*
X749955Y1305588D01*
X749573Y1306250D01*
X749955Y1306912D01*
X750500Y1308947D01*
Y1311053D01*
X749955Y1313088D01*
X748902Y1314912D01*
X747412Y1316402D01*
X745588Y1317455D01*
X743553Y1318000D01*
D02*
G37*
G36*
X818917Y1308364D02*
X816811D01*
X814777Y1307819D01*
X812952Y1306766D01*
X811463Y1305276D01*
X810409Y1303452D01*
X809864Y1301418D01*
Y1299311D01*
X810409Y1297276D01*
X811463Y1295452D01*
X812952Y1293963D01*
X814777Y1292910D01*
X816811Y1292364D01*
X818917D01*
X820952Y1292910D01*
X822117Y1293582D01*
X823912Y1292545D01*
X825947Y1292000D01*
X828053D01*
X830088Y1292545D01*
X831500Y1293360D01*
X832912Y1292545D01*
X834947Y1292000D01*
X837053D01*
X839088Y1292545D01*
X840912Y1293598D01*
X842402Y1295088D01*
X843455Y1296912D01*
X844000Y1298947D01*
Y1301053D01*
X843455Y1303088D01*
X842402Y1304912D01*
X840912Y1306402D01*
X839088Y1307455D01*
X837053Y1308000D01*
X834947D01*
X832912Y1307455D01*
X831500Y1306640D01*
X830088Y1307455D01*
X828053Y1308000D01*
X825947D01*
X823912Y1307455D01*
X822748Y1306783D01*
X820952Y1307819D01*
X818917Y1308364D01*
D02*
G37*
G36*
X1259328Y1316500D02*
X1232328D01*
Y1289500D01*
X1259328D01*
Y1316500D01*
D02*
G37*
G36*
X502500Y1291833D02*
X472500D01*
Y1289719D01*
X471230Y1289040D01*
X469605Y1290126D01*
X466875Y1291257D01*
X463977Y1291833D01*
X461023D01*
X458125Y1291257D01*
X455395Y1290126D01*
X452938Y1288484D01*
X450849Y1286395D01*
X449297Y1284073D01*
X448358Y1283883D01*
X447956Y1283856D01*
X447403Y1284815D01*
X444982Y1287236D01*
X442500Y1288669D01*
Y1276833D01*
X437000D01*
D01*
X442500D01*
Y1264997D01*
X444982Y1266431D01*
X447403Y1268851D01*
X447956Y1269810D01*
X448358Y1269784D01*
X449297Y1269593D01*
X450849Y1267271D01*
X452938Y1265182D01*
X455395Y1263540D01*
X458125Y1262410D01*
X461023Y1261833D01*
X463977D01*
X466875Y1262410D01*
X469605Y1263540D01*
X471230Y1264626D01*
X472500Y1263947D01*
Y1261833D01*
X502500D01*
Y1291833D01*
D02*
G37*
G36*
X431500Y1288669D02*
X429018Y1287236D01*
X426597Y1284815D01*
X425164Y1282333D01*
X431500D01*
Y1288669D01*
D02*
G37*
G36*
Y1271333D02*
X425164D01*
X426597Y1268851D01*
X429018Y1266431D01*
X431500Y1264997D01*
Y1271333D01*
D02*
G37*
G36*
X738553Y1275500D02*
X736447D01*
X734412Y1274955D01*
X732588Y1273902D01*
X731098Y1272412D01*
X730045Y1270588D01*
X729500Y1268553D01*
Y1266447D01*
X730045Y1264412D01*
X731098Y1262588D01*
X732588Y1261098D01*
X734412Y1260045D01*
X736447Y1259500D01*
X738553D01*
X740588Y1260045D01*
X742412Y1261098D01*
X743902Y1262588D01*
X744955Y1264412D01*
X745500Y1266447D01*
Y1268553D01*
X744955Y1270588D01*
X743902Y1272412D01*
X742412Y1273902D01*
X740588Y1274955D01*
X738553Y1275500D01*
D02*
G37*
G36*
X803553D02*
X801447D01*
X799412Y1274955D01*
X797588Y1273902D01*
X796098Y1272412D01*
X795045Y1270588D01*
X794500Y1268553D01*
Y1266447D01*
X795045Y1264412D01*
X796098Y1262588D01*
X797588Y1261098D01*
X799412Y1260045D01*
X801447Y1259500D01*
X803553D01*
X805588Y1260045D01*
X807107Y1260922D01*
X807598Y1260072D01*
X809088Y1258583D01*
X810912Y1257530D01*
X812947Y1256984D01*
X815053D01*
X817088Y1257530D01*
X818912Y1258583D01*
X820402Y1260072D01*
X821455Y1261897D01*
X822000Y1263931D01*
Y1266038D01*
X821455Y1268072D01*
X820402Y1269896D01*
X818912Y1271386D01*
X817088Y1272439D01*
X815053Y1272984D01*
X812947D01*
X810912Y1272439D01*
X809392Y1271562D01*
X808902Y1272412D01*
X807412Y1273902D01*
X805588Y1274955D01*
X803553Y1275500D01*
D02*
G37*
G36*
X881053Y1271000D02*
X878947D01*
X876912Y1270455D01*
X875088Y1269402D01*
X873598Y1267912D01*
X872545Y1266088D01*
X872000Y1264053D01*
Y1261947D01*
X872545Y1259912D01*
X873598Y1258088D01*
X875088Y1256598D01*
X876912Y1255545D01*
X878947Y1255000D01*
X881053D01*
X883088Y1255545D01*
X884912Y1256598D01*
X886402Y1258088D01*
X887455Y1259912D01*
X888000Y1261947D01*
Y1264053D01*
X887455Y1266088D01*
X886402Y1267912D01*
X884912Y1269402D01*
X883088Y1270455D01*
X881053Y1271000D01*
D02*
G37*
G36*
X842456Y1271284D02*
X840349D01*
X838314Y1270739D01*
X836490Y1269686D01*
X835001Y1268196D01*
X833948Y1266372D01*
X833402Y1264337D01*
Y1262231D01*
X833948Y1260196D01*
X835001Y1258372D01*
X836490Y1256882D01*
X838314Y1255829D01*
X840349Y1255284D01*
X842456D01*
X844490Y1255829D01*
X845080Y1256170D01*
X846162Y1255545D01*
X848197Y1255000D01*
X850303D01*
X852338Y1255545D01*
X854162Y1256598D01*
X855651Y1258088D01*
X856705Y1259912D01*
X857250Y1261947D01*
Y1264053D01*
X856705Y1266088D01*
X855651Y1267912D01*
X854162Y1269402D01*
X852338Y1270455D01*
X850303Y1271000D01*
X848197D01*
X846162Y1270455D01*
X845572Y1270114D01*
X844490Y1270739D01*
X842456Y1271284D01*
D02*
G37*
G36*
X1280014Y1274500D02*
X1276986D01*
X1274061Y1273716D01*
X1271439Y1272202D01*
X1269298Y1270061D01*
X1267784Y1267439D01*
X1267000Y1264514D01*
Y1261486D01*
X1267784Y1258561D01*
X1269298Y1255939D01*
X1271439Y1253798D01*
X1274061Y1252284D01*
X1276986Y1251500D01*
X1280014D01*
X1282939Y1252284D01*
X1285561Y1253798D01*
X1287702Y1255939D01*
X1289216Y1258561D01*
X1290000Y1261486D01*
Y1264514D01*
X1289216Y1267439D01*
X1287702Y1270061D01*
X1285561Y1272202D01*
X1282939Y1273716D01*
X1280014Y1274500D01*
D02*
G37*
G36*
X1255014D02*
X1251986D01*
X1249061Y1273716D01*
X1246439Y1272202D01*
X1244298Y1270061D01*
X1242784Y1267439D01*
X1242000Y1264514D01*
Y1261486D01*
X1242784Y1258561D01*
X1244298Y1255939D01*
X1246439Y1253798D01*
X1249061Y1252284D01*
X1251986Y1251500D01*
X1255014D01*
X1257939Y1252284D01*
X1260561Y1253798D01*
X1262702Y1255939D01*
X1264216Y1258561D01*
X1265000Y1261486D01*
Y1264514D01*
X1264216Y1267439D01*
X1262702Y1270061D01*
X1260561Y1272202D01*
X1257939Y1273716D01*
X1255014Y1274500D01*
D02*
G37*
G36*
X263000Y1332500D02*
X233000D01*
Y1302500D01*
X235114D01*
X235793Y1301230D01*
X234707Y1299605D01*
X233577Y1296875D01*
X233000Y1293977D01*
Y1291023D01*
X233577Y1288125D01*
X234707Y1285395D01*
X236349Y1282938D01*
X238438Y1280849D01*
X238758Y1280635D01*
Y1279365D01*
X238438Y1279151D01*
X236349Y1277062D01*
X234707Y1274605D01*
X233577Y1271875D01*
X233000Y1268977D01*
Y1266023D01*
X233577Y1263125D01*
X234707Y1260395D01*
X236349Y1257938D01*
X238438Y1255849D01*
X240358Y1254566D01*
X240382Y1253113D01*
X240018Y1252903D01*
X237597Y1250482D01*
X236164Y1248000D01*
X259836D01*
X258403Y1250482D01*
X255982Y1252903D01*
X255618Y1253113D01*
X255642Y1254566D01*
X257562Y1255849D01*
X259651Y1257938D01*
X261293Y1260395D01*
X262424Y1263125D01*
X263000Y1266023D01*
Y1268977D01*
X262424Y1271875D01*
X261293Y1274605D01*
X259651Y1277062D01*
X257562Y1279151D01*
X257242Y1279365D01*
Y1280635D01*
X257562Y1280849D01*
X259651Y1282938D01*
X261293Y1285395D01*
X262424Y1288125D01*
X263000Y1291023D01*
Y1293977D01*
X262424Y1296875D01*
X261293Y1299605D01*
X260207Y1301230D01*
X260886Y1302500D01*
X263000D01*
Y1332500D01*
D02*
G37*
G36*
X704053Y1258000D02*
X701947D01*
X699912Y1257455D01*
X698088Y1256402D01*
X696598Y1254912D01*
X695545Y1253088D01*
X695000Y1251053D01*
Y1248947D01*
X695545Y1246912D01*
X696598Y1245088D01*
X698088Y1243598D01*
X699912Y1242545D01*
X701947Y1242000D01*
X704053D01*
X706088Y1242545D01*
X707912Y1243598D01*
X709402Y1245088D01*
X710455Y1246912D01*
X711000Y1248947D01*
Y1251053D01*
X710455Y1253088D01*
X709402Y1254912D01*
X707912Y1256402D01*
X706088Y1257455D01*
X704053Y1258000D01*
D02*
G37*
G36*
X863053D02*
X860947D01*
X858912Y1257455D01*
X857088Y1256402D01*
X855598Y1254912D01*
X854545Y1253088D01*
X854000Y1251053D01*
Y1248947D01*
X854545Y1246912D01*
X855598Y1245088D01*
X856931Y1243756D01*
X856545Y1243088D01*
X856000Y1241053D01*
Y1238947D01*
X856545Y1236912D01*
X856565Y1236878D01*
X856241Y1236555D01*
X855375Y1236044D01*
X854509Y1236555D01*
X853662Y1237402D01*
X851838Y1238455D01*
X849803Y1239000D01*
X847697D01*
X845662Y1238455D01*
X843838Y1237402D01*
X843181Y1236744D01*
X842343Y1235917D01*
X841506Y1236744D01*
X840848Y1237402D01*
X839024Y1238455D01*
X836990Y1239000D01*
X834883D01*
X832849Y1238455D01*
X831024Y1237402D01*
X830234Y1236611D01*
X828892Y1236461D01*
X828623Y1236691D01*
X827367Y1237947D01*
X825543Y1239000D01*
X823508Y1239545D01*
X821402D01*
X819367Y1239000D01*
X817543Y1237947D01*
X816053Y1236457D01*
X815000Y1234633D01*
X814455Y1232598D01*
Y1230492D01*
X815000Y1228457D01*
X816053Y1226633D01*
X817543Y1225144D01*
X819367Y1224090D01*
X821402Y1223545D01*
X823508D01*
X825543Y1224090D01*
X827367Y1225144D01*
X828157Y1225934D01*
X829500Y1226084D01*
X829769Y1225854D01*
X831024Y1224598D01*
X832849Y1223545D01*
X834883Y1223000D01*
X836990D01*
X839024Y1223545D01*
X840848Y1224598D01*
X841506Y1225256D01*
X842343Y1226083D01*
X843181Y1225256D01*
X843838Y1224598D01*
X845662Y1223545D01*
X847697Y1223000D01*
X849803D01*
X851838Y1223545D01*
X853662Y1224598D01*
X854509Y1225445D01*
X855375Y1225956D01*
X856241Y1225445D01*
X857088Y1224598D01*
X858912Y1223545D01*
X860067Y1223236D01*
X859750Y1222053D01*
Y1219947D01*
X860295Y1217912D01*
X860822Y1217000D01*
X860295Y1216088D01*
X859750Y1214053D01*
Y1211947D01*
X860295Y1209912D01*
X861348Y1208088D01*
X862838Y1206598D01*
X864662Y1205545D01*
X866697Y1205000D01*
X868803D01*
X870838Y1205545D01*
X872662Y1206598D01*
X874152Y1208088D01*
X875205Y1209912D01*
X875750Y1211947D01*
Y1214053D01*
X875205Y1216088D01*
X874678Y1217000D01*
X875205Y1217912D01*
X875580Y1219311D01*
X876963Y1219723D01*
X877088Y1219598D01*
X878912Y1218545D01*
X880947Y1218000D01*
X883053D01*
X885088Y1218545D01*
X886336Y1219266D01*
X887266Y1218336D01*
X886545Y1217088D01*
X886000Y1215053D01*
Y1212947D01*
X886545Y1210912D01*
X887598Y1209088D01*
X889088Y1207598D01*
X890912Y1206545D01*
X892947Y1206000D01*
X894000D01*
Y1205947D01*
X894545Y1203912D01*
X895598Y1202088D01*
X897088Y1200598D01*
X898912Y1199545D01*
X900947Y1199000D01*
X903053D01*
X905088Y1199545D01*
X906912Y1200598D01*
X908402Y1202088D01*
X909455Y1203912D01*
X910000Y1205947D01*
Y1208053D01*
X909455Y1210088D01*
X908402Y1211912D01*
X906912Y1213402D01*
X905088Y1214455D01*
X903053Y1215000D01*
X902000D01*
Y1215053D01*
X901455Y1217088D01*
X900402Y1218912D01*
X898912Y1220402D01*
X897088Y1221455D01*
X895053Y1222000D01*
X892947D01*
X890912Y1221455D01*
X889664Y1220734D01*
X888734Y1221664D01*
X889455Y1222912D01*
X890000Y1224947D01*
Y1227053D01*
X889455Y1229088D01*
X888402Y1230912D01*
X886912Y1232402D01*
X885088Y1233455D01*
X883053Y1234000D01*
X880947D01*
X879577Y1233633D01*
X879455Y1234088D01*
X878402Y1235912D01*
X876912Y1237402D01*
X875088Y1238455D01*
X873053Y1239000D01*
X872000D01*
Y1241053D01*
X871455Y1243088D01*
X870402Y1244912D01*
X869069Y1246244D01*
X869455Y1246912D01*
X870000Y1248947D01*
Y1251053D01*
X869455Y1253088D01*
X868402Y1254912D01*
X866912Y1256402D01*
X865088Y1257455D01*
X863053Y1258000D01*
D02*
G37*
G36*
X177400Y1294100D02*
X147400D01*
Y1264100D01*
X149891D01*
X150460Y1262830D01*
X149107Y1260805D01*
X147977Y1258075D01*
X147400Y1255177D01*
Y1252223D01*
X147977Y1249325D01*
X149107Y1246595D01*
X150749Y1244138D01*
X152838Y1242049D01*
X155079Y1240551D01*
X155297Y1239210D01*
X154418Y1238703D01*
X151997Y1236282D01*
X150564Y1233800D01*
X162400D01*
X174236D01*
X172803Y1236282D01*
X170382Y1238703D01*
X169503Y1239210D01*
X169720Y1240551D01*
X171962Y1242049D01*
X174051Y1244138D01*
X175693Y1246595D01*
X176824Y1249325D01*
X177400Y1252223D01*
Y1255177D01*
X176824Y1258075D01*
X175693Y1260805D01*
X174340Y1262830D01*
X174909Y1264100D01*
X177400D01*
Y1294100D01*
D02*
G37*
G36*
X259836Y1237000D02*
X253500D01*
Y1230664D01*
X255982Y1232097D01*
X258403Y1234518D01*
X259836Y1237000D01*
D02*
G37*
G36*
X242500D02*
X236164D01*
X237597Y1234518D01*
X240018Y1232097D01*
X242500Y1230664D01*
Y1237000D01*
D02*
G37*
G36*
X1049477Y1260000D02*
X1046523D01*
X1043625Y1259424D01*
X1040895Y1258293D01*
X1038438Y1256651D01*
X1036349Y1254562D01*
X1034707Y1252105D01*
X1033577Y1249375D01*
X1033000Y1246477D01*
Y1243523D01*
X1033577Y1240625D01*
X1034707Y1237895D01*
X1036349Y1235438D01*
X1038438Y1233349D01*
X1040895Y1231707D01*
X1043625Y1230576D01*
X1046523Y1230000D01*
X1049477D01*
X1052375Y1230576D01*
X1055105Y1231707D01*
X1057562Y1233349D01*
X1059651Y1235438D01*
X1061293Y1237895D01*
X1062424Y1240625D01*
X1063000Y1243523D01*
Y1246477D01*
X1062424Y1249375D01*
X1061293Y1252105D01*
X1059651Y1254562D01*
X1057562Y1256651D01*
X1055105Y1258293D01*
X1052375Y1259424D01*
X1049477Y1260000D01*
D02*
G37*
G36*
X941053Y1267000D02*
X938947D01*
X936912Y1266455D01*
X935088Y1265402D01*
X933598Y1263912D01*
X932545Y1262088D01*
X932000Y1260053D01*
Y1257947D01*
X932545Y1255912D01*
X933598Y1254088D01*
X934186Y1253500D01*
X933598Y1252912D01*
X932545Y1251088D01*
X932000Y1249053D01*
Y1246947D01*
X932545Y1244912D01*
X933598Y1243088D01*
X933686Y1243000D01*
X933598Y1242912D01*
X932545Y1241088D01*
X932000Y1239053D01*
Y1236947D01*
X932545Y1234912D01*
X933598Y1233088D01*
X935088Y1231598D01*
X936912Y1230545D01*
X938947Y1230000D01*
X941053D01*
X943088Y1230545D01*
X944912Y1231598D01*
X946402Y1233088D01*
X947455Y1234912D01*
X948000Y1236947D01*
Y1239053D01*
X947455Y1241088D01*
X946402Y1242912D01*
X946314Y1243000D01*
X946402Y1243088D01*
X947455Y1244912D01*
X948000Y1246947D01*
Y1249053D01*
X947455Y1251088D01*
X946402Y1252912D01*
X945814Y1253500D01*
X946402Y1254088D01*
X947455Y1255912D01*
X948000Y1257947D01*
Y1260053D01*
X947455Y1262088D01*
X946402Y1263912D01*
X944912Y1265402D01*
X943088Y1266455D01*
X941053Y1267000D01*
D02*
G37*
G36*
X1265500Y1228500D02*
X1258500D01*
Y1218000D01*
X1265500D01*
Y1228500D01*
D02*
G37*
G36*
X1248500D02*
X1241500D01*
Y1218000D01*
X1248500D01*
Y1228500D01*
D02*
G37*
G36*
X1053500Y1222836D02*
Y1216500D01*
X1059836D01*
X1058403Y1218982D01*
X1055982Y1221403D01*
X1053500Y1222836D01*
D02*
G37*
G36*
X1042500D02*
X1040018Y1221403D01*
X1037598Y1218982D01*
X1036164Y1216500D01*
X1042500D01*
Y1222836D01*
D02*
G37*
G36*
X174236Y1222800D02*
X167900D01*
Y1216464D01*
X170382Y1217897D01*
X172803Y1220318D01*
X174236Y1222800D01*
D02*
G37*
G36*
X156900D02*
X150564D01*
X151997Y1220318D01*
X154418Y1217897D01*
X156900Y1216464D01*
Y1222800D01*
D02*
G37*
G36*
X742061Y1255708D02*
X739955D01*
X737920Y1255163D01*
X736096Y1254110D01*
X734606Y1252620D01*
X733553Y1250796D01*
X733008Y1248762D01*
Y1248168D01*
X732154Y1247939D01*
X730330Y1246886D01*
X728841Y1245397D01*
X727787Y1243572D01*
X727242Y1241538D01*
Y1240491D01*
X727088Y1240402D01*
X725598Y1238912D01*
X724545Y1237088D01*
X724000Y1235053D01*
Y1232947D01*
X724545Y1230912D01*
X725598Y1229088D01*
X727088Y1227598D01*
X728301Y1226898D01*
X727545Y1225588D01*
X727000Y1223553D01*
Y1221447D01*
X727545Y1219412D01*
X728598Y1217588D01*
X730088Y1216098D01*
X731912Y1215045D01*
X733947Y1214500D01*
X736053D01*
X738088Y1215045D01*
X739912Y1216098D01*
X741402Y1217588D01*
X742455Y1219412D01*
X743000Y1221447D01*
Y1223553D01*
X742455Y1225588D01*
X741402Y1227412D01*
X739912Y1228902D01*
X738699Y1229602D01*
X739455Y1230912D01*
X740000Y1232947D01*
Y1233994D01*
X740154Y1234083D01*
X741644Y1235573D01*
X742697Y1237397D01*
X743242Y1239431D01*
Y1240025D01*
X744096Y1240254D01*
X745920Y1241307D01*
X747409Y1242796D01*
X748463Y1244620D01*
X749008Y1246655D01*
Y1248762D01*
X748463Y1250796D01*
X747409Y1252620D01*
X745920Y1254110D01*
X744096Y1255163D01*
X742061Y1255708D01*
D02*
G37*
G36*
X113077Y1294100D02*
X110123D01*
X107225Y1293524D01*
X104495Y1292393D01*
X102038Y1290751D01*
X99949Y1288662D01*
X98307Y1286205D01*
X97177Y1283475D01*
X96600Y1280577D01*
Y1277623D01*
X97177Y1274725D01*
X98307Y1271995D01*
X99949Y1269538D01*
X102038Y1267449D01*
X102657Y1267035D01*
Y1265765D01*
X102038Y1265351D01*
X99949Y1263262D01*
X98307Y1260805D01*
X97177Y1258075D01*
X96600Y1255177D01*
Y1252223D01*
X97177Y1249325D01*
X98307Y1246595D01*
X99949Y1244138D01*
X102038Y1242049D01*
X102657Y1241635D01*
Y1240365D01*
X102038Y1239951D01*
X99949Y1237862D01*
X98307Y1235405D01*
X97177Y1232675D01*
X96600Y1229777D01*
Y1226823D01*
X97177Y1223925D01*
X98307Y1221195D01*
X99949Y1218738D01*
X102038Y1216649D01*
X104495Y1215007D01*
X107225Y1213876D01*
X110123Y1213300D01*
X113077D01*
X115975Y1213876D01*
X118705Y1215007D01*
X121162Y1216649D01*
X123251Y1218738D01*
X124893Y1221195D01*
X126024Y1223925D01*
X126600Y1226823D01*
Y1229777D01*
X126024Y1232675D01*
X124893Y1235405D01*
X123251Y1237862D01*
X121162Y1239951D01*
X120543Y1240365D01*
Y1241635D01*
X121162Y1242049D01*
X123251Y1244138D01*
X124893Y1246595D01*
X126024Y1249325D01*
X126600Y1252223D01*
Y1255177D01*
X126024Y1258075D01*
X124893Y1260805D01*
X123251Y1263262D01*
X121162Y1265351D01*
X120543Y1265765D01*
Y1267035D01*
X121162Y1267449D01*
X123251Y1269538D01*
X124893Y1271995D01*
X126024Y1274725D01*
X126600Y1277623D01*
Y1280577D01*
X126024Y1283475D01*
X124893Y1286205D01*
X123251Y1288662D01*
X121162Y1290751D01*
X118705Y1292393D01*
X115975Y1293524D01*
X113077Y1294100D01*
D02*
G37*
G36*
X1088477Y1243000D02*
X1085523D01*
X1082625Y1242424D01*
X1079895Y1241293D01*
X1077438Y1239651D01*
X1075349Y1237562D01*
X1073707Y1235105D01*
X1072577Y1232375D01*
X1072000Y1229477D01*
Y1226523D01*
X1072577Y1223625D01*
X1073707Y1220895D01*
X1075349Y1218438D01*
X1077438Y1216349D01*
X1079895Y1214707D01*
X1082625Y1213577D01*
X1085523Y1213000D01*
X1088477D01*
X1091375Y1213577D01*
X1094105Y1214707D01*
X1096562Y1216349D01*
X1098651Y1218438D01*
X1100293Y1220895D01*
X1101424Y1223625D01*
X1102000Y1226523D01*
Y1229477D01*
X1101424Y1232375D01*
X1100293Y1235105D01*
X1098651Y1237562D01*
X1096562Y1239651D01*
X1094105Y1241293D01*
X1091375Y1242424D01*
X1088477Y1243000D01*
D02*
G37*
G36*
X1012500Y1300000D02*
X1007500D01*
Y1212500D01*
X1012500D01*
Y1300000D01*
D02*
G37*
G36*
X502500Y1210667D02*
X472500D01*
Y1208552D01*
X471230Y1207874D01*
X469605Y1208959D01*
X466875Y1210090D01*
X463977Y1210667D01*
X461023D01*
X458125Y1210090D01*
X455395Y1208959D01*
X452938Y1207318D01*
X450849Y1205228D01*
X449297Y1202907D01*
X448358Y1202716D01*
X447956Y1202690D01*
X447403Y1203649D01*
X444982Y1206069D01*
X442500Y1207502D01*
Y1195667D01*
Y1183831D01*
X444982Y1185264D01*
X447403Y1187684D01*
X447956Y1188643D01*
X448358Y1188617D01*
X449297Y1188426D01*
X450849Y1186105D01*
X452938Y1184015D01*
X455395Y1182374D01*
X458125Y1181243D01*
X461023Y1180667D01*
X463977D01*
X466875Y1181243D01*
X469605Y1182374D01*
X471230Y1183459D01*
X472500Y1182781D01*
Y1180667D01*
X502500D01*
Y1210667D01*
D02*
G37*
G36*
X431500Y1207502D02*
X429018Y1206069D01*
X426597Y1203649D01*
X425164Y1201167D01*
X431500D01*
Y1207502D01*
D02*
G37*
G36*
X1059836Y1205500D02*
X1053500D01*
Y1199164D01*
X1055982Y1200598D01*
X1058403Y1203018D01*
X1059836Y1205500D01*
D02*
G37*
G36*
X1042500D02*
X1036164D01*
X1037598Y1203018D01*
X1040018Y1200598D01*
X1042500Y1199164D01*
Y1205500D01*
D02*
G37*
G36*
X1265500Y1208000D02*
X1258500D01*
Y1197500D01*
X1265500D01*
Y1208000D01*
D02*
G37*
G36*
X1248500D02*
X1241500D01*
Y1197500D01*
X1248500D01*
Y1208000D01*
D02*
G37*
G36*
X935053Y1211000D02*
X932947D01*
X930912Y1210455D01*
X929088Y1209402D01*
X927598Y1207912D01*
X926545Y1206088D01*
X926000Y1204053D01*
Y1201947D01*
X926545Y1199912D01*
X927598Y1198088D01*
X929088Y1196598D01*
X930912Y1195545D01*
X932947Y1195000D01*
X935053D01*
X937088Y1195545D01*
X938912Y1196598D01*
X940402Y1198088D01*
X941455Y1199912D01*
X942000Y1201947D01*
Y1204053D01*
X941455Y1206088D01*
X940402Y1207912D01*
X938912Y1209402D01*
X937088Y1210455D01*
X935053Y1211000D01*
D02*
G37*
G36*
X976119Y1199934D02*
X974013D01*
X971978Y1199389D01*
X970154Y1198336D01*
X968664Y1196846D01*
X967611Y1195022D01*
X967066Y1192987D01*
Y1190881D01*
X967611Y1188846D01*
X968664Y1187022D01*
X970154Y1185533D01*
X971978Y1184479D01*
X974013Y1183934D01*
X976119D01*
X978154Y1184479D01*
X979978Y1185533D01*
X981467Y1187022D01*
X982521Y1188846D01*
X983066Y1190881D01*
Y1192987D01*
X982521Y1195022D01*
X981467Y1196846D01*
X979978Y1198336D01*
X978154Y1199389D01*
X976119Y1199934D01*
D02*
G37*
G36*
X431500Y1190166D02*
X425164D01*
X426597Y1187684D01*
X429018Y1185264D01*
X431500Y1183831D01*
Y1190166D01*
D02*
G37*
G36*
X1088477Y1209000D02*
X1085523D01*
X1082625Y1208424D01*
X1079895Y1207293D01*
X1077438Y1205651D01*
X1075349Y1203562D01*
X1073707Y1201105D01*
X1072577Y1198375D01*
X1072000Y1195477D01*
Y1192523D01*
X1072577Y1189625D01*
X1073707Y1186895D01*
X1075349Y1184438D01*
X1077438Y1182349D01*
X1079895Y1180707D01*
X1082625Y1179576D01*
X1085523Y1179000D01*
X1088477D01*
X1091375Y1179576D01*
X1094105Y1180707D01*
X1096562Y1182349D01*
X1098651Y1184438D01*
X1100293Y1186895D01*
X1101424Y1189625D01*
X1102000Y1192523D01*
Y1195477D01*
X1101424Y1198375D01*
X1100293Y1201105D01*
X1098651Y1203562D01*
X1096562Y1205651D01*
X1094105Y1207293D01*
X1091375Y1208424D01*
X1088477Y1209000D01*
D02*
G37*
G36*
X902119Y1190066D02*
X900013D01*
X897978Y1189521D01*
X896154Y1188467D01*
X894664Y1186978D01*
X893611Y1185154D01*
X893066Y1183119D01*
Y1181013D01*
X893611Y1178978D01*
X894664Y1177154D01*
X896154Y1175664D01*
X897978Y1174611D01*
X900013Y1174066D01*
X902119D01*
X904154Y1174611D01*
X905978Y1175664D01*
X907467Y1177154D01*
X908521Y1178978D01*
X909066Y1181013D01*
Y1183119D01*
X908521Y1185154D01*
X907467Y1186978D01*
X905978Y1188467D01*
X904154Y1189521D01*
X902119Y1190066D01*
D02*
G37*
G36*
X788053Y1189000D02*
X785947D01*
X783912Y1188455D01*
X782088Y1187402D01*
X780598Y1185912D01*
X779545Y1184088D01*
X779000Y1182053D01*
Y1179947D01*
X779545Y1177912D01*
X780598Y1176088D01*
X782088Y1174598D01*
X783912Y1173545D01*
X785947Y1173000D01*
X788053D01*
X790088Y1173545D01*
X791912Y1174598D01*
X793402Y1176088D01*
X794455Y1177912D01*
X795000Y1179947D01*
Y1182053D01*
X794455Y1184088D01*
X793402Y1185912D01*
X791912Y1187402D01*
X790088Y1188455D01*
X788053Y1189000D01*
D02*
G37*
G36*
X815053Y1197000D02*
X812947D01*
X810912Y1196455D01*
X809088Y1195402D01*
X807598Y1193912D01*
X806545Y1192088D01*
X806000Y1190053D01*
Y1187947D01*
X806545Y1185912D01*
X807598Y1184088D01*
X807686Y1184000D01*
X807598Y1183912D01*
X806545Y1182088D01*
X806000Y1180053D01*
Y1177947D01*
X806545Y1175912D01*
X807598Y1174088D01*
X809088Y1172598D01*
X810912Y1171545D01*
X812947Y1171000D01*
X815053D01*
X817088Y1171545D01*
X818912Y1172598D01*
X820402Y1174088D01*
X821455Y1175912D01*
X822000Y1177947D01*
Y1180053D01*
X821455Y1182088D01*
X820402Y1183912D01*
X820314Y1184000D01*
X820402Y1184088D01*
X821455Y1185912D01*
X822000Y1187947D01*
Y1190053D01*
X821455Y1192088D01*
X820402Y1193912D01*
X818912Y1195402D01*
X817088Y1196455D01*
X815053Y1197000D01*
D02*
G37*
G36*
X747449Y1201604D02*
X745343D01*
X743308Y1201059D01*
X741484Y1200005D01*
X739995Y1198516D01*
X738941Y1196692D01*
X738396Y1194657D01*
Y1192551D01*
X738941Y1190516D01*
X739995Y1188692D01*
X741484Y1187202D01*
X743308Y1186149D01*
X743318Y1186146D01*
Y1184831D01*
X741912Y1184455D01*
X740088Y1183402D01*
X738598Y1181912D01*
X737545Y1180088D01*
X737000Y1178053D01*
Y1175947D01*
X737545Y1173912D01*
X738598Y1172088D01*
X740088Y1170598D01*
X741912Y1169545D01*
X743947Y1169000D01*
X746053D01*
X748088Y1169545D01*
X749912Y1170598D01*
X751402Y1172088D01*
X752455Y1173912D01*
X753000Y1175947D01*
Y1178053D01*
X752455Y1180088D01*
X751402Y1181912D01*
X749912Y1183402D01*
X748088Y1184455D01*
X748078Y1184457D01*
Y1185772D01*
X749484Y1186149D01*
X751308Y1187202D01*
X752798Y1188692D01*
X753851Y1190516D01*
X754396Y1192551D01*
Y1194657D01*
X753851Y1196692D01*
X752798Y1198516D01*
X751308Y1200005D01*
X749484Y1201059D01*
X747449Y1201604D01*
D02*
G37*
G36*
X1012500Y1210000D02*
X1007500D01*
X965000Y1167500D01*
X970000Y1167500D01*
X1012500Y1210000D01*
D02*
G37*
G36*
X936053Y1183000D02*
X933947D01*
X931912Y1182455D01*
X930088Y1181402D01*
X928598Y1179912D01*
X927545Y1178088D01*
X927000Y1176053D01*
Y1173947D01*
X927545Y1171912D01*
X928598Y1170088D01*
X930088Y1168598D01*
X931912Y1167545D01*
X933947Y1167000D01*
X936053D01*
X938088Y1167545D01*
X939912Y1168598D01*
X941402Y1170088D01*
X942455Y1171912D01*
X943000Y1173947D01*
Y1176053D01*
X942455Y1178088D01*
X941402Y1179912D01*
X939912Y1181402D01*
X938088Y1182455D01*
X936053Y1183000D01*
D02*
G37*
G36*
X1063000Y1192000D02*
X1033000D01*
Y1162000D01*
X1063000D01*
Y1192000D01*
D02*
G37*
G36*
X795303Y1168500D02*
X793197D01*
X791162Y1167955D01*
X789338Y1166902D01*
X787848Y1165412D01*
X786795Y1163588D01*
X786293Y1161714D01*
X785761Y1161354D01*
X784980Y1161036D01*
X783792Y1161721D01*
X781758Y1162266D01*
X779651D01*
X777617Y1161721D01*
X775793Y1160668D01*
X774303Y1159178D01*
X773250Y1157354D01*
X772705Y1155320D01*
Y1154585D01*
X771088Y1153652D01*
X769598Y1152162D01*
X768545Y1150338D01*
X768000Y1148303D01*
Y1146197D01*
X768545Y1144162D01*
X769598Y1142338D01*
X771088Y1140848D01*
X772912Y1139795D01*
X774947Y1139250D01*
X777053D01*
X779088Y1139795D01*
X780912Y1140848D01*
X782402Y1142338D01*
X783455Y1144162D01*
X784000Y1146197D01*
Y1146931D01*
X785617Y1147865D01*
X787106Y1149354D01*
X788159Y1151179D01*
X788662Y1153052D01*
X789194Y1153413D01*
X789975Y1153731D01*
X791162Y1153045D01*
X793197Y1152500D01*
X795303D01*
X797338Y1153045D01*
X799162Y1154098D01*
X800652Y1155588D01*
X801705Y1157412D01*
X802250Y1159447D01*
Y1161553D01*
X801705Y1163588D01*
X800652Y1165412D01*
X799162Y1166902D01*
X797338Y1167955D01*
X795303Y1168500D01*
D02*
G37*
G36*
X901053Y1172000D02*
X898947D01*
X896912Y1171455D01*
X895088Y1170402D01*
X893598Y1168912D01*
X892545Y1167088D01*
X892000Y1165053D01*
Y1162947D01*
X892545Y1160912D01*
X893598Y1159088D01*
X895088Y1157598D01*
X896912Y1156545D01*
X898947Y1156000D01*
X901053D01*
X903088Y1156545D01*
X904912Y1157598D01*
X906402Y1159088D01*
X907455Y1160912D01*
X908000Y1162947D01*
Y1165053D01*
X907455Y1167088D01*
X906402Y1168912D01*
X904912Y1170402D01*
X903088Y1171455D01*
X901053Y1172000D01*
D02*
G37*
G36*
X1280014Y1174500D02*
X1276986D01*
X1274061Y1173716D01*
X1271439Y1172202D01*
X1269298Y1170061D01*
X1267784Y1167439D01*
X1267000Y1164514D01*
Y1161486D01*
X1267784Y1158561D01*
X1269298Y1155939D01*
X1271439Y1153798D01*
X1274061Y1152284D01*
X1276986Y1151500D01*
X1280014D01*
X1282939Y1152284D01*
X1285561Y1153798D01*
X1287702Y1155939D01*
X1289216Y1158561D01*
X1290000Y1161486D01*
Y1164514D01*
X1289216Y1167439D01*
X1287702Y1170061D01*
X1285561Y1172202D01*
X1282939Y1173716D01*
X1280014Y1174500D01*
D02*
G37*
G36*
X1255014D02*
X1251986D01*
X1249061Y1173716D01*
X1246439Y1172202D01*
X1244298Y1170061D01*
X1242784Y1167439D01*
X1242000Y1164514D01*
Y1161486D01*
X1242784Y1158561D01*
X1244298Y1155939D01*
X1246439Y1153798D01*
X1249061Y1152284D01*
X1251986Y1151500D01*
X1255014D01*
X1257939Y1152284D01*
X1260561Y1153798D01*
X1262702Y1155939D01*
X1264216Y1158561D01*
X1265000Y1161486D01*
Y1164514D01*
X1264216Y1167439D01*
X1262702Y1170061D01*
X1260561Y1172202D01*
X1257939Y1173716D01*
X1255014Y1174500D01*
D02*
G37*
G36*
X1221000Y1277000D02*
X1186000D01*
Y1249000D01*
Y1224000D01*
X1196754D01*
X1197094Y1222730D01*
X1196439Y1222352D01*
X1194298Y1220210D01*
X1192784Y1217588D01*
X1192000Y1214663D01*
Y1211635D01*
X1192784Y1208710D01*
X1194298Y1206088D01*
X1196439Y1203947D01*
X1197611Y1203270D01*
X1197271Y1202000D01*
X1186000D01*
Y1174000D01*
Y1149000D01*
X1221000D01*
Y1174000D01*
Y1202000D01*
X1209729D01*
X1209388Y1203270D01*
X1210561Y1203947D01*
X1212702Y1206088D01*
X1214216Y1208710D01*
X1215000Y1211635D01*
Y1214663D01*
X1214216Y1217588D01*
X1212702Y1220210D01*
X1210561Y1222352D01*
X1209906Y1222730D01*
X1210246Y1224000D01*
X1221000D01*
Y1249000D01*
Y1277000D01*
D02*
G37*
G36*
X868803Y1162000D02*
X866697D01*
X864662Y1161455D01*
X862838Y1160402D01*
X861348Y1158912D01*
X860295Y1157088D01*
X859750Y1155053D01*
Y1152947D01*
X860295Y1150912D01*
X861348Y1149088D01*
X862838Y1147598D01*
X864662Y1146545D01*
X866697Y1146000D01*
X868803D01*
X870838Y1146545D01*
X872662Y1147598D01*
X874152Y1149088D01*
X875205Y1150912D01*
X875750Y1152947D01*
Y1155053D01*
X875205Y1157088D01*
X874152Y1158912D01*
X872662Y1160402D01*
X870838Y1161455D01*
X868803Y1162000D01*
D02*
G37*
G36*
X843053D02*
X840947D01*
X838912Y1161455D01*
X837088Y1160402D01*
X835598Y1158912D01*
X834545Y1157088D01*
X834000Y1155053D01*
Y1152947D01*
X834545Y1150912D01*
X835598Y1149088D01*
X837088Y1147598D01*
X838912Y1146545D01*
X840947Y1146000D01*
X843053D01*
X845088Y1146545D01*
X846912Y1147598D01*
X848402Y1149088D01*
X849455Y1150912D01*
X850000Y1152947D01*
Y1155053D01*
X849455Y1157088D01*
X848402Y1158912D01*
X846912Y1160402D01*
X845088Y1161455D01*
X843053Y1162000D01*
D02*
G37*
G36*
X1286670Y1146170D02*
X1260670D01*
Y1140232D01*
X1259400Y1139892D01*
X1258673Y1141152D01*
X1256252Y1143573D01*
X1253288Y1145284D01*
X1249982Y1146170D01*
X1246559D01*
X1243252Y1145284D01*
X1240288Y1143573D01*
X1237868Y1141152D01*
X1236254Y1138357D01*
X1235570Y1138266D01*
X1234886Y1138357D01*
X1233273Y1141152D01*
X1230852Y1143573D01*
X1227888Y1145284D01*
X1224582Y1146170D01*
X1221159D01*
X1217852Y1145284D01*
X1214888Y1143573D01*
X1212467Y1141152D01*
X1210854Y1138357D01*
X1210170Y1138266D01*
X1209486Y1138357D01*
X1207873Y1141152D01*
X1205452Y1143573D01*
X1202488Y1145284D01*
X1199182Y1146170D01*
X1195759D01*
X1192452Y1145284D01*
X1189488Y1143573D01*
X1187067Y1141152D01*
X1185454Y1138357D01*
X1184770Y1138266D01*
X1184087Y1138357D01*
X1182473Y1141152D01*
X1180052Y1143573D01*
X1177088Y1145284D01*
X1173782Y1146170D01*
X1170359D01*
X1167052Y1145284D01*
X1164088Y1143573D01*
X1161667Y1141152D01*
X1160054Y1138357D01*
X1159370Y1138266D01*
X1158687Y1138357D01*
X1157073Y1141152D01*
X1154652Y1143573D01*
X1151688Y1145284D01*
X1148382Y1146170D01*
X1144958D01*
X1141652Y1145284D01*
X1138688Y1143573D01*
X1136267Y1141152D01*
X1134556Y1138188D01*
X1133670Y1134882D01*
Y1131459D01*
X1134556Y1128152D01*
X1136267Y1125188D01*
X1138688Y1122767D01*
X1141652Y1121056D01*
X1144958Y1120170D01*
X1148382D01*
X1151688Y1121056D01*
X1154652Y1122767D01*
X1157073Y1125188D01*
X1158687Y1127983D01*
X1159370Y1128074D01*
X1160054Y1127983D01*
X1161667Y1125188D01*
X1164088Y1122767D01*
X1167052Y1121056D01*
X1170359Y1120170D01*
X1173782D01*
X1177088Y1121056D01*
X1180052Y1122767D01*
X1182473Y1125188D01*
X1184087Y1127983D01*
X1184770Y1128074D01*
X1185454Y1127983D01*
X1187067Y1125188D01*
X1189488Y1122767D01*
X1192452Y1121056D01*
X1195759Y1120170D01*
X1199182D01*
X1202488Y1121056D01*
X1205452Y1122767D01*
X1207873Y1125188D01*
X1209486Y1127983D01*
X1210170Y1128074D01*
X1210854Y1127983D01*
X1212467Y1125188D01*
X1214888Y1122767D01*
X1217852Y1121056D01*
X1221159Y1120170D01*
X1224582D01*
X1227888Y1121056D01*
X1230852Y1122767D01*
X1233273Y1125188D01*
X1234886Y1127983D01*
X1235570Y1128074D01*
X1236254Y1127983D01*
X1237868Y1125188D01*
X1240288Y1122767D01*
X1243252Y1121056D01*
X1246559Y1120170D01*
X1249982D01*
X1253288Y1121056D01*
X1256252Y1122767D01*
X1258673Y1125188D01*
X1259400Y1126448D01*
X1260670Y1126108D01*
Y1120170D01*
X1286670D01*
Y1146170D01*
D02*
G37*
G36*
X1059500Y1144836D02*
Y1138500D01*
X1065836D01*
X1064403Y1140982D01*
X1061982Y1143403D01*
X1059500Y1144836D01*
D02*
G37*
G36*
X1048500Y1144836D02*
X1046018Y1143403D01*
X1043597Y1140982D01*
X1042164Y1138500D01*
X1048500D01*
Y1144836D01*
D02*
G37*
G36*
X1125270Y1143486D02*
Y1137170D01*
X1131586D01*
X1131520Y1137416D01*
X1130072Y1139924D01*
X1128024Y1141972D01*
X1125516Y1143420D01*
X1125270Y1143486D01*
D02*
G37*
G36*
X1117270Y1143486D02*
X1117024Y1143420D01*
X1114516Y1141972D01*
X1112468Y1139924D01*
X1111020Y1137416D01*
X1110954Y1137170D01*
X1117270D01*
Y1143486D01*
D02*
G37*
G36*
X814303Y1169000D02*
X812197D01*
X810162Y1168455D01*
X808338Y1167402D01*
X806848Y1165912D01*
X805795Y1164088D01*
X805250Y1162053D01*
Y1159947D01*
X805795Y1157912D01*
X806322Y1157000D01*
X805795Y1156088D01*
X805250Y1154053D01*
Y1151947D01*
X805795Y1149912D01*
X806322Y1149000D01*
X805795Y1148088D01*
X805250Y1146053D01*
Y1143947D01*
X805795Y1141912D01*
X806848Y1140088D01*
X808338Y1138598D01*
X810162Y1137545D01*
X812197Y1137000D01*
X814303D01*
X816338Y1137545D01*
X818162Y1138598D01*
X819652Y1140088D01*
X820705Y1141912D01*
X821250Y1143947D01*
Y1146053D01*
X820705Y1148088D01*
X820178Y1149000D01*
X820705Y1149912D01*
X821250Y1151947D01*
Y1154053D01*
X820705Y1156088D01*
X820178Y1157000D01*
X820705Y1157912D01*
X821250Y1159947D01*
Y1162053D01*
X820705Y1164088D01*
X819652Y1165912D01*
X818162Y1167402D01*
X816338Y1168455D01*
X814303Y1169000D01*
D02*
G37*
G36*
X902987Y1151934D02*
X900881D01*
X898846Y1151389D01*
X897022Y1150336D01*
X895533Y1148846D01*
X894479Y1147022D01*
X893934Y1144987D01*
Y1142881D01*
X894479Y1140846D01*
X895533Y1139022D01*
X897022Y1137533D01*
X898846Y1136479D01*
X900881Y1135934D01*
X902987D01*
X905022Y1136479D01*
X906846Y1137533D01*
X908336Y1139022D01*
X909389Y1140846D01*
X909934Y1142881D01*
Y1144987D01*
X909389Y1147022D01*
X908336Y1148846D01*
X906846Y1150336D01*
X905022Y1151389D01*
X902987Y1151934D01*
D02*
G37*
G36*
X502500Y1129500D02*
X472500D01*
Y1127386D01*
X471230Y1126707D01*
X469605Y1127793D01*
X466875Y1128923D01*
X463977Y1129500D01*
X461023D01*
X458125Y1128923D01*
X455395Y1127793D01*
X452938Y1126151D01*
X450849Y1124062D01*
X449297Y1121740D01*
X448358Y1121549D01*
X447956Y1121523D01*
X447403Y1122482D01*
X444982Y1124902D01*
X442500Y1126336D01*
Y1114500D01*
Y1102664D01*
X444982Y1104097D01*
X447403Y1106518D01*
X447956Y1107477D01*
X448358Y1107450D01*
X449297Y1107260D01*
X450849Y1104938D01*
X452938Y1102849D01*
X455395Y1101207D01*
X458125Y1100076D01*
X461023Y1099500D01*
X463977D01*
X466875Y1100076D01*
X469605Y1101207D01*
X471230Y1102293D01*
X472500Y1101614D01*
Y1099500D01*
X502500D01*
Y1129500D01*
D02*
G37*
G36*
X734053Y1139250D02*
X731947D01*
X729912Y1138705D01*
X728088Y1137652D01*
X726598Y1136162D01*
X725545Y1134338D01*
X725000Y1132303D01*
Y1130197D01*
X725545Y1128162D01*
X726598Y1126338D01*
X728088Y1124848D01*
X729912Y1123795D01*
X731947Y1123250D01*
X734053D01*
X736088Y1123795D01*
X737912Y1124848D01*
X739402Y1126338D01*
X740455Y1128162D01*
X741000Y1130197D01*
Y1132303D01*
X740455Y1134338D01*
X739402Y1136162D01*
X737912Y1137652D01*
X736088Y1138705D01*
X734053Y1139250D01*
D02*
G37*
G36*
X1117270Y1129170D02*
X1110954D01*
X1111020Y1128924D01*
X1112468Y1126416D01*
X1114516Y1124368D01*
X1117024Y1122920D01*
X1117270Y1122854D01*
Y1129170D01*
D02*
G37*
G36*
X1131586D02*
X1125270D01*
Y1122854D01*
X1125516Y1122920D01*
X1128024Y1124368D01*
X1130072Y1126416D01*
X1131520Y1128924D01*
X1131586Y1129170D01*
D02*
G37*
G36*
X1065836Y1127500D02*
X1059500D01*
Y1121164D01*
X1061982Y1122597D01*
X1064403Y1125018D01*
X1065836Y1127500D01*
D02*
G37*
G36*
X1048500D02*
X1042164D01*
X1043597Y1125018D01*
X1046018Y1122597D01*
X1048500Y1121164D01*
Y1127500D01*
D02*
G37*
G36*
X177400Y1180900D02*
X147400D01*
Y1150900D01*
X149891D01*
X150460Y1149630D01*
X149107Y1147605D01*
X147977Y1144875D01*
X147400Y1141977D01*
Y1139023D01*
X147977Y1136125D01*
X149107Y1133395D01*
X150749Y1130938D01*
X152838Y1128849D01*
X155079Y1127351D01*
X155297Y1126010D01*
X154418Y1125502D01*
X151997Y1123082D01*
X150564Y1120600D01*
X162400D01*
X174236D01*
X172803Y1123082D01*
X170382Y1125502D01*
X169503Y1126010D01*
X169720Y1127351D01*
X171962Y1128849D01*
X174051Y1130938D01*
X175693Y1133395D01*
X176824Y1136125D01*
X177400Y1139023D01*
Y1141977D01*
X176824Y1144875D01*
X175693Y1147605D01*
X174340Y1149630D01*
X174909Y1150900D01*
X177400D01*
Y1180900D01*
D02*
G37*
G36*
X1097581Y1146170D02*
X1094158D01*
X1090852Y1145284D01*
X1087888Y1143573D01*
X1085468Y1141152D01*
X1083756Y1138188D01*
X1082870Y1134882D01*
Y1131459D01*
X1083756Y1128152D01*
X1085468Y1125188D01*
X1087888Y1122767D01*
X1090852Y1121056D01*
X1094158Y1120170D01*
X1097581D01*
X1100888Y1121056D01*
X1103852Y1122767D01*
X1106273Y1125188D01*
X1107984Y1128152D01*
X1108870Y1131459D01*
Y1134882D01*
X1107984Y1138188D01*
X1106273Y1141152D01*
X1103852Y1143573D01*
X1100888Y1145284D01*
X1097581Y1146170D01*
D02*
G37*
G36*
X431500Y1126336D02*
X429018Y1124902D01*
X426597Y1122482D01*
X425164Y1120000D01*
X431500D01*
Y1126336D01*
D02*
G37*
G36*
X728053Y1121500D02*
X725947D01*
X723912Y1120955D01*
X722088Y1119902D01*
X720598Y1118412D01*
X719545Y1116588D01*
X719000Y1114553D01*
Y1112447D01*
X719545Y1110412D01*
X720598Y1108588D01*
X722088Y1107098D01*
X723912Y1106045D01*
X725947Y1105500D01*
X728053D01*
X730088Y1106045D01*
X731912Y1107098D01*
X733402Y1108588D01*
X734455Y1110412D01*
X735000Y1112447D01*
Y1114553D01*
X734455Y1116588D01*
X733402Y1118412D01*
X731912Y1119902D01*
X730088Y1120955D01*
X728053Y1121500D01*
D02*
G37*
G36*
X156900Y1109600D02*
X150564D01*
X151997Y1107118D01*
X154418Y1104697D01*
X156900Y1103264D01*
Y1109600D01*
D02*
G37*
G36*
X174236D02*
X167900D01*
Y1103264D01*
X170382Y1104697D01*
X172803Y1107118D01*
X174236Y1109600D01*
D02*
G37*
G36*
X431500Y1109000D02*
X425164D01*
X426597Y1106518D01*
X429018Y1104097D01*
X431500Y1102664D01*
Y1109000D01*
D02*
G37*
G36*
X1232053Y1109000D02*
X1229947D01*
X1227912Y1108455D01*
X1226088Y1107402D01*
X1224598Y1105912D01*
X1223545Y1104088D01*
X1223000Y1102053D01*
Y1099947D01*
X1223545Y1097912D01*
X1224598Y1096088D01*
X1226088Y1094598D01*
X1227912Y1093545D01*
X1229947Y1093000D01*
X1232053D01*
X1234088Y1093545D01*
X1235912Y1094598D01*
X1237402Y1096088D01*
X1238455Y1097912D01*
X1239000Y1099947D01*
Y1102053D01*
X1238455Y1104088D01*
X1237402Y1105912D01*
X1235912Y1107402D01*
X1234088Y1108455D01*
X1232053Y1109000D01*
D02*
G37*
G36*
X1005477Y1123000D02*
X1002523D01*
X999625Y1122424D01*
X996895Y1121293D01*
X994438Y1119651D01*
X992349Y1117562D01*
X990707Y1115105D01*
X989576Y1112375D01*
X989000Y1109477D01*
Y1106523D01*
X989576Y1103625D01*
X990707Y1100895D01*
X992349Y1098438D01*
X994438Y1096349D01*
X996895Y1094707D01*
X999625Y1093577D01*
X1002523Y1093000D01*
X1005477D01*
X1008375Y1093577D01*
X1011105Y1094707D01*
X1013562Y1096349D01*
X1015651Y1098438D01*
X1017293Y1100895D01*
X1018423Y1103625D01*
X1019000Y1106523D01*
Y1109477D01*
X1018423Y1112375D01*
X1017293Y1115105D01*
X1015651Y1117562D01*
X1013562Y1119651D01*
X1011105Y1121293D01*
X1008375Y1122424D01*
X1005477Y1123000D01*
D02*
G37*
G36*
X952500Y1157500D02*
X948000D01*
Y1082500D01*
X952500D01*
Y1157500D01*
D02*
G37*
G36*
X822282Y1090771D02*
X820176D01*
X818141Y1090226D01*
X816317Y1089172D01*
X814828Y1087683D01*
X813774Y1085859D01*
X813581Y1085135D01*
X811752Y1084646D01*
X809928Y1083592D01*
X808439Y1082103D01*
X807385Y1080279D01*
X806840Y1078244D01*
Y1076138D01*
X807385Y1074103D01*
X808439Y1072279D01*
X809928Y1070789D01*
X811752Y1069736D01*
X813787Y1069191D01*
X815893D01*
X817928Y1069736D01*
X819752Y1070789D01*
X821242Y1072279D01*
X821936Y1073480D01*
X822991Y1073948D01*
X823536Y1073826D01*
X825004Y1072979D01*
X827039Y1072433D01*
X829145D01*
X831180Y1072979D01*
X833004Y1074032D01*
X834494Y1075521D01*
X835547Y1077346D01*
X836092Y1079380D01*
Y1081487D01*
X835547Y1083521D01*
X834494Y1085346D01*
X833004Y1086835D01*
X831180Y1087888D01*
X829145Y1088433D01*
X827039D01*
X826914Y1088400D01*
X826141Y1089172D01*
X824317Y1090226D01*
X822282Y1090771D01*
D02*
G37*
G36*
X1055477Y1098000D02*
X1052523D01*
X1049625Y1097424D01*
X1046895Y1096293D01*
X1044438Y1094651D01*
X1042349Y1092562D01*
X1040707Y1090105D01*
X1039576Y1087375D01*
X1039000Y1084477D01*
Y1081523D01*
X1039576Y1078625D01*
X1040707Y1075895D01*
X1042349Y1073438D01*
X1044438Y1071349D01*
X1046895Y1069707D01*
X1049625Y1068577D01*
X1052523Y1068000D01*
X1055477D01*
X1058375Y1068577D01*
X1061105Y1069707D01*
X1063562Y1071349D01*
X1065651Y1073438D01*
X1067293Y1075895D01*
X1068423Y1078625D01*
X1069000Y1081523D01*
Y1084477D01*
X1068423Y1087375D01*
X1067293Y1090105D01*
X1065651Y1092562D01*
X1063562Y1094651D01*
X1061105Y1096293D01*
X1058375Y1097424D01*
X1055477Y1098000D01*
D02*
G37*
G36*
X875053Y1120000D02*
X872947D01*
X870912Y1119455D01*
X869088Y1118402D01*
X867598Y1116912D01*
X866545Y1115088D01*
X866000Y1113053D01*
Y1110947D01*
X866545Y1108912D01*
X867361Y1107500D01*
X866545Y1106088D01*
X866000Y1104053D01*
Y1102663D01*
X864978Y1102389D01*
X863154Y1101336D01*
X861664Y1099846D01*
X860611Y1098022D01*
X860066Y1095987D01*
Y1094276D01*
X858355D01*
X856320Y1093731D01*
X854496Y1092678D01*
X853006Y1091188D01*
X851953Y1089364D01*
X851715Y1088475D01*
X850825Y1088236D01*
X849001Y1087183D01*
X847512Y1085694D01*
X846459Y1083869D01*
X846276Y1083188D01*
X845594Y1083005D01*
X843770Y1081952D01*
X842281Y1080463D01*
X841228Y1078639D01*
X840682Y1076604D01*
Y1074497D01*
X841228Y1072463D01*
X842281Y1070639D01*
X843770Y1069149D01*
X845594Y1068096D01*
X847629Y1067551D01*
X849736D01*
X851770Y1068096D01*
X853595Y1069149D01*
X855084Y1070639D01*
X856137Y1072463D01*
X856320Y1073144D01*
X857001Y1073327D01*
X858825Y1074380D01*
X860315Y1075870D01*
X861368Y1077694D01*
X861606Y1078583D01*
X862496Y1078821D01*
X864320Y1079875D01*
X865809Y1081364D01*
X866863Y1083188D01*
X867408Y1085223D01*
Y1086934D01*
X869119D01*
X871154Y1087479D01*
X872978Y1088532D01*
X874467Y1090022D01*
X875521Y1091846D01*
X876066Y1093881D01*
Y1095271D01*
X877088Y1095545D01*
X878912Y1096598D01*
X880402Y1098088D01*
X881455Y1099912D01*
X882000Y1101947D01*
Y1104053D01*
X881455Y1106088D01*
X880639Y1107500D01*
X881455Y1108912D01*
X882000Y1110947D01*
Y1113053D01*
X881455Y1115088D01*
X880402Y1116912D01*
X878912Y1118402D01*
X877088Y1119455D01*
X875053Y1120000D01*
D02*
G37*
G36*
X258500Y1189000D02*
X228500D01*
Y1159000D01*
X230991D01*
X231560Y1157730D01*
X230207Y1155705D01*
X229076Y1152975D01*
X228500Y1150077D01*
Y1147123D01*
X229076Y1144225D01*
X230207Y1141495D01*
X231849Y1139038D01*
X233938Y1136949D01*
X234557Y1136535D01*
Y1135265D01*
X233938Y1134851D01*
X231849Y1132762D01*
X230207Y1130305D01*
X229076Y1127575D01*
X228500Y1124677D01*
Y1121723D01*
X229076Y1118825D01*
X230207Y1116095D01*
X231849Y1113638D01*
X233938Y1111549D01*
X234557Y1111135D01*
Y1109865D01*
X233938Y1109451D01*
X231849Y1107362D01*
X230207Y1104905D01*
X229076Y1102175D01*
X228500Y1099277D01*
Y1096323D01*
X229076Y1093425D01*
X230207Y1090695D01*
X231849Y1088238D01*
X233938Y1086149D01*
X234557Y1085735D01*
Y1084465D01*
X233938Y1084051D01*
X231849Y1081962D01*
X230207Y1079505D01*
X229076Y1076775D01*
X228500Y1073877D01*
Y1070923D01*
X229076Y1068025D01*
X230207Y1065295D01*
X231849Y1062838D01*
X233938Y1060749D01*
X236180Y1059251D01*
X236397Y1057910D01*
X235518Y1057403D01*
X233097Y1054982D01*
X231664Y1052500D01*
X255336D01*
X253903Y1054982D01*
X251482Y1057403D01*
X250603Y1057910D01*
X250821Y1059251D01*
X253062Y1060749D01*
X255151Y1062838D01*
X256793Y1065295D01*
X257924Y1068025D01*
X258500Y1070923D01*
Y1073877D01*
X257924Y1076775D01*
X256793Y1079505D01*
X255151Y1081962D01*
X253062Y1084051D01*
X252443Y1084465D01*
Y1085735D01*
X253062Y1086149D01*
X255151Y1088238D01*
X256793Y1090695D01*
X257924Y1093425D01*
X258500Y1096323D01*
Y1099277D01*
X257924Y1102175D01*
X256793Y1104905D01*
X255151Y1107362D01*
X253062Y1109451D01*
X252443Y1109865D01*
Y1111135D01*
X253062Y1111549D01*
X255151Y1113638D01*
X256793Y1116095D01*
X257924Y1118825D01*
X258500Y1121723D01*
Y1124677D01*
X257924Y1127575D01*
X256793Y1130305D01*
X255151Y1132762D01*
X253062Y1134851D01*
X252443Y1135265D01*
Y1136535D01*
X253062Y1136949D01*
X255151Y1139038D01*
X256793Y1141495D01*
X257924Y1144225D01*
X258500Y1147123D01*
Y1150077D01*
X257924Y1152975D01*
X256793Y1155705D01*
X255440Y1157730D01*
X256009Y1159000D01*
X258500D01*
Y1189000D01*
D02*
G37*
G36*
X538000Y1050333D02*
X508000D01*
Y1048219D01*
X506730Y1047540D01*
X505105Y1048626D01*
X502375Y1049757D01*
X499477Y1050333D01*
X496523D01*
X493625Y1049757D01*
X490895Y1048626D01*
X488438Y1046984D01*
X486349Y1044895D01*
X486135Y1044575D01*
X484865D01*
X484651Y1044895D01*
X482562Y1046984D01*
X480105Y1048626D01*
X477375Y1049757D01*
X474477Y1050333D01*
X471523D01*
X468625Y1049757D01*
X465895Y1048626D01*
X463438Y1046984D01*
X461349Y1044895D01*
X460066Y1042975D01*
X458613Y1042951D01*
X458403Y1043315D01*
X455982Y1045736D01*
X453500Y1047169D01*
Y1035333D01*
Y1023498D01*
X455982Y1024931D01*
X458403Y1027351D01*
X458613Y1027715D01*
X460066Y1027692D01*
X461349Y1025771D01*
X463438Y1023682D01*
X465895Y1022040D01*
X468625Y1020910D01*
X471523Y1020333D01*
X474477D01*
X477375Y1020910D01*
X480105Y1022040D01*
X482562Y1023682D01*
X484651Y1025771D01*
X484865Y1026091D01*
X486135D01*
X486349Y1025771D01*
X488438Y1023682D01*
X490895Y1022040D01*
X493625Y1020910D01*
X496523Y1020333D01*
X499477D01*
X502375Y1020910D01*
X505105Y1022040D01*
X506730Y1023126D01*
X508000Y1022447D01*
Y1020333D01*
X538000D01*
Y1050333D01*
D02*
G37*
G36*
X442500Y1047169D02*
X440018Y1045736D01*
X437597Y1043315D01*
X436164Y1040833D01*
X442500D01*
Y1047169D01*
D02*
G37*
G36*
X321700Y1044500D02*
X315364D01*
X316797Y1042018D01*
X319218Y1039598D01*
X321700Y1038165D01*
Y1044500D01*
D02*
G37*
G36*
X255336Y1041500D02*
X249000D01*
Y1035164D01*
X251482Y1036597D01*
X253903Y1039018D01*
X255336Y1041500D01*
D02*
G37*
G36*
X238000D02*
X231664D01*
X233097Y1039018D01*
X235518Y1036597D01*
X238000Y1035164D01*
Y1041500D01*
D02*
G37*
G36*
X984000Y1037316D02*
Y1031000D01*
X990316D01*
X990250Y1031246D01*
X988802Y1033754D01*
X986754Y1035802D01*
X984246Y1037250D01*
X984000Y1037316D01*
D02*
G37*
G36*
X976000D02*
X975754Y1037250D01*
X973246Y1035802D01*
X971198Y1033754D01*
X969750Y1031246D01*
X969684Y1031000D01*
X976000D01*
Y1037316D01*
D02*
G37*
G36*
X1046000D02*
Y1031000D01*
X1052316D01*
X1052250Y1031246D01*
X1050802Y1033754D01*
X1048754Y1035802D01*
X1046246Y1037250D01*
X1046000Y1037316D01*
D02*
G37*
G36*
X1038000Y1037316D02*
X1037754Y1037250D01*
X1035246Y1035802D01*
X1033198Y1033754D01*
X1031750Y1031246D01*
X1031684Y1031000D01*
X1038000D01*
Y1037316D01*
D02*
G37*
G36*
X442500Y1029833D02*
X436164D01*
X437597Y1027351D01*
X440018Y1024931D01*
X442500Y1023498D01*
Y1029833D01*
D02*
G37*
G36*
X538000Y969167D02*
X508000D01*
Y967053D01*
X506730Y966374D01*
X505105Y967459D01*
X502375Y968590D01*
X499477Y969167D01*
X496523D01*
X493625Y968590D01*
X490895Y967459D01*
X488438Y965818D01*
X486349Y963729D01*
X486135Y963409D01*
X484865D01*
X484651Y963729D01*
X482562Y965818D01*
X480105Y967459D01*
X477375Y968590D01*
X474477Y969167D01*
X471523D01*
X468625Y968590D01*
X465895Y967459D01*
X463438Y965818D01*
X461349Y963729D01*
X460066Y961808D01*
X458613Y961785D01*
X458403Y962149D01*
X455982Y964569D01*
X453500Y966002D01*
Y954167D01*
Y942331D01*
X455982Y943764D01*
X458403Y946184D01*
X458613Y946549D01*
X460066Y946525D01*
X461349Y944605D01*
X463438Y942515D01*
X465895Y940874D01*
X468625Y939743D01*
X471523Y939167D01*
X474477D01*
X477375Y939743D01*
X480105Y940874D01*
X482562Y942515D01*
X484651Y944605D01*
X484865Y944925D01*
X486135D01*
X486349Y944605D01*
X488438Y942515D01*
X490895Y940874D01*
X493625Y939743D01*
X496523Y939167D01*
X499477D01*
X502375Y939743D01*
X505105Y940874D01*
X506730Y941960D01*
X508000Y941281D01*
Y939167D01*
X538000D01*
Y969167D01*
D02*
G37*
G36*
X442500Y966002D02*
X440018Y964569D01*
X437597Y962149D01*
X436164Y959667D01*
X442500D01*
Y966002D01*
D02*
G37*
G36*
X1275381Y965830D02*
X1271958D01*
X1268652Y964944D01*
X1265688Y963233D01*
X1263268Y960812D01*
X1261654Y958017D01*
X1260970Y957926D01*
X1260286Y958017D01*
X1258673Y960812D01*
X1256252Y963233D01*
X1253288Y964944D01*
X1249982Y965830D01*
X1246559D01*
X1243252Y964944D01*
X1240288Y963233D01*
X1237868Y960812D01*
X1236254Y958017D01*
X1235570Y957926D01*
X1234886Y958017D01*
X1233273Y960812D01*
X1230852Y963233D01*
X1227888Y964944D01*
X1224582Y965830D01*
X1221159D01*
X1217852Y964944D01*
X1214888Y963233D01*
X1212467Y960812D01*
X1210854Y958017D01*
X1210170Y957926D01*
X1209486Y958017D01*
X1207873Y960812D01*
X1205452Y963233D01*
X1202488Y964944D01*
X1199182Y965830D01*
X1195759D01*
X1192452Y964944D01*
X1189488Y963233D01*
X1187067Y960812D01*
X1185454Y958017D01*
X1184770Y957926D01*
X1184087Y958017D01*
X1182473Y960812D01*
X1180052Y963233D01*
X1177088Y964944D01*
X1173782Y965830D01*
X1170359D01*
X1167052Y964944D01*
X1164088Y963233D01*
X1161667Y960812D01*
X1160054Y958017D01*
X1159370Y957926D01*
X1158687Y958017D01*
X1157073Y960812D01*
X1154652Y963233D01*
X1151688Y964944D01*
X1148382Y965830D01*
X1144958D01*
X1141652Y964944D01*
X1138688Y963233D01*
X1136267Y960812D01*
X1134556Y957848D01*
X1133670Y954541D01*
Y951118D01*
X1134556Y947812D01*
X1136267Y944848D01*
X1138688Y942428D01*
X1141652Y940716D01*
X1144958Y939830D01*
X1148382D01*
X1151688Y940716D01*
X1154652Y942428D01*
X1157073Y944848D01*
X1158687Y947643D01*
X1159370Y947734D01*
X1160054Y947643D01*
X1161667Y944848D01*
X1164088Y942428D01*
X1167052Y940716D01*
X1170359Y939830D01*
X1173782D01*
X1177088Y940716D01*
X1180052Y942428D01*
X1182473Y944848D01*
X1184087Y947643D01*
X1184770Y947734D01*
X1185454Y947643D01*
X1187067Y944848D01*
X1189488Y942428D01*
X1192452Y940716D01*
X1195759Y939830D01*
X1199182D01*
X1202488Y940716D01*
X1205452Y942428D01*
X1207873Y944848D01*
X1209486Y947643D01*
X1210170Y947734D01*
X1210854Y947643D01*
X1212467Y944848D01*
X1214888Y942428D01*
X1217852Y940716D01*
X1221159Y939830D01*
X1224582D01*
X1227888Y940716D01*
X1230852Y942428D01*
X1233273Y944848D01*
X1234886Y947643D01*
X1235570Y947734D01*
X1236254Y947643D01*
X1237868Y944848D01*
X1240288Y942428D01*
X1243252Y940716D01*
X1246559Y939830D01*
X1249982D01*
X1253288Y940716D01*
X1256252Y942428D01*
X1258673Y944848D01*
X1260286Y947643D01*
X1260970Y947734D01*
X1261654Y947643D01*
X1263268Y944848D01*
X1265688Y942428D01*
X1268652Y940716D01*
X1271958Y939830D01*
X1275381D01*
X1278688Y940716D01*
X1281652Y942428D01*
X1284073Y944848D01*
X1285784Y947812D01*
X1286670Y951118D01*
Y954541D01*
X1285784Y957848D01*
X1284073Y960812D01*
X1281652Y963233D01*
X1278688Y964944D01*
X1275381Y965830D01*
D02*
G37*
G36*
X1125270Y963146D02*
Y956830D01*
X1131586D01*
X1131520Y957076D01*
X1130072Y959584D01*
X1128024Y961632D01*
X1125516Y963080D01*
X1125270Y963146D01*
D02*
G37*
G36*
X1117270Y963146D02*
X1117024Y963080D01*
X1114516Y961632D01*
X1112468Y959584D01*
X1111020Y957076D01*
X1110954Y956830D01*
X1117270D01*
Y963146D01*
D02*
G37*
G36*
X355277Y957167D02*
X352323D01*
X349425Y956590D01*
X346695Y955459D01*
X344238Y953818D01*
X342149Y951729D01*
X341735Y951109D01*
X340465D01*
X340051Y951729D01*
X337962Y953818D01*
X335505Y955459D01*
X332775Y956590D01*
X329877Y957167D01*
X326923D01*
X324025Y956590D01*
X321295Y955459D01*
X319270Y954107D01*
X318000Y954676D01*
Y957167D01*
X288000D01*
Y927167D01*
X318000D01*
Y929658D01*
X319270Y930227D01*
X321295Y928874D01*
X324025Y927743D01*
X326923Y927167D01*
X329877D01*
X332775Y927743D01*
X335505Y928874D01*
X337962Y930515D01*
X340051Y932605D01*
X340465Y933224D01*
X341735D01*
X342149Y932605D01*
X344238Y930515D01*
X346695Y928874D01*
X349425Y927743D01*
X352323Y927167D01*
X355277D01*
X358175Y927743D01*
X360905Y928874D01*
X363362Y930515D01*
X365451Y932605D01*
X366949Y934846D01*
X368290Y935064D01*
X368797Y934184D01*
X371218Y931764D01*
X373700Y930331D01*
Y942167D01*
Y954002D01*
X371218Y952569D01*
X368797Y950149D01*
X368290Y949269D01*
X366949Y949487D01*
X365451Y951729D01*
X363362Y953818D01*
X360905Y955459D01*
X358175Y956590D01*
X355277Y957167D01*
D02*
G37*
G36*
X384700Y954002D02*
Y947667D01*
X391036D01*
X389603Y950149D01*
X387182Y952569D01*
X384700Y954002D01*
D02*
G37*
G36*
X1117270Y948830D02*
X1110954D01*
X1111020Y948584D01*
X1112468Y946076D01*
X1114516Y944028D01*
X1117024Y942580D01*
X1117270Y942514D01*
Y948830D01*
D02*
G37*
G36*
X1131586D02*
X1125270D01*
Y942514D01*
X1125516Y942580D01*
X1128024Y944028D01*
X1130072Y946076D01*
X1131520Y948584D01*
X1131586Y948830D01*
D02*
G37*
G36*
X442500Y948667D02*
X436164D01*
X437597Y946184D01*
X440018Y943764D01*
X442500Y942331D01*
Y948667D01*
D02*
G37*
G36*
X1097581Y965830D02*
X1094158D01*
X1090852Y964944D01*
X1087888Y963233D01*
X1085468Y960812D01*
X1083756Y957848D01*
X1082870Y954541D01*
Y951118D01*
X1083756Y947812D01*
X1085468Y944848D01*
X1087888Y942428D01*
X1090852Y940716D01*
X1094158Y939830D01*
X1097581D01*
X1100888Y940716D01*
X1103852Y942428D01*
X1106273Y944848D01*
X1107984Y947812D01*
X1108870Y951118D01*
Y954541D01*
X1107984Y957848D01*
X1106273Y960812D01*
X1103852Y963233D01*
X1100888Y964944D01*
X1097581Y965830D01*
D02*
G37*
G36*
X1052316Y1023000D02*
X1042000D01*
X1031684D01*
X1031750Y1022754D01*
X1033198Y1020246D01*
X1035246Y1018198D01*
X1037754Y1016750D01*
X1039833Y1016193D01*
Y1014878D01*
X1036982Y1014114D01*
X1034018Y1012403D01*
X1031597Y1009982D01*
X1029886Y1007018D01*
X1029000Y1003711D01*
Y1000288D01*
X1029886Y996982D01*
X1031597Y994018D01*
X1034018Y991597D01*
X1036402Y990221D01*
Y988779D01*
X1034018Y987403D01*
X1031597Y984982D01*
X1029886Y982018D01*
X1029000Y978711D01*
Y975288D01*
X1029886Y971982D01*
X1031597Y969018D01*
X1034018Y966597D01*
X1034660Y966227D01*
X1034331Y965000D01*
X1029000D01*
Y939000D01*
X1055000D01*
Y965000D01*
X1049669D01*
X1049340Y966227D01*
X1049982Y966597D01*
X1052403Y969018D01*
X1054114Y971982D01*
X1055000Y975288D01*
Y978711D01*
X1054114Y982018D01*
X1052403Y984982D01*
X1049982Y987403D01*
X1047598Y988779D01*
Y990221D01*
X1049982Y991597D01*
X1052403Y994018D01*
X1054114Y996982D01*
X1055000Y1000288D01*
Y1003711D01*
X1054114Y1007018D01*
X1052403Y1009982D01*
X1049982Y1012403D01*
X1047018Y1014114D01*
X1044167Y1014878D01*
Y1016193D01*
X1046246Y1016750D01*
X1048754Y1018198D01*
X1050802Y1020246D01*
X1052250Y1022754D01*
X1052316Y1023000D01*
D02*
G37*
G36*
X990316Y1023000D02*
X980000D01*
X969684D01*
X969750Y1022754D01*
X971198Y1020246D01*
X973246Y1018198D01*
X975754Y1016750D01*
X977833Y1016193D01*
Y1014878D01*
X974982Y1014114D01*
X972018Y1012403D01*
X969597Y1009982D01*
X967886Y1007018D01*
X967000Y1003711D01*
Y1000288D01*
X967886Y996982D01*
X969597Y994018D01*
X972018Y991597D01*
X974402Y990221D01*
Y988779D01*
X972018Y987403D01*
X969597Y984982D01*
X967886Y982018D01*
X967000Y978711D01*
Y975288D01*
X967886Y971982D01*
X969597Y969018D01*
X972018Y966597D01*
X972660Y966227D01*
X972331Y965000D01*
X967000D01*
Y939000D01*
X993000D01*
Y965000D01*
X987669D01*
X987340Y966227D01*
X987982Y966597D01*
X990403Y969018D01*
X992114Y971982D01*
X993000Y975288D01*
Y978711D01*
X992114Y982018D01*
X990403Y984982D01*
X987982Y987403D01*
X985598Y988779D01*
Y990221D01*
X987982Y991597D01*
X990403Y994018D01*
X992114Y996982D01*
X993000Y1000288D01*
Y1003711D01*
X992114Y1007018D01*
X990403Y1009982D01*
X987982Y1012403D01*
X985018Y1014114D01*
X982167Y1014878D01*
Y1016193D01*
X984246Y1016750D01*
X986754Y1018198D01*
X988802Y1020246D01*
X990250Y1022754D01*
X990316Y1023000D01*
D02*
G37*
G36*
X391036Y936667D02*
X384700D01*
Y930331D01*
X387182Y931764D01*
X389603Y934184D01*
X391036Y936667D01*
D02*
G37*
G36*
X1180053Y929000D02*
X1177947D01*
X1175912Y928455D01*
X1174088Y927402D01*
X1172598Y925912D01*
X1171545Y924088D01*
X1171000Y922053D01*
Y919947D01*
X1171545Y917912D01*
X1172598Y916088D01*
X1174088Y914598D01*
X1175912Y913545D01*
X1177947Y913000D01*
X1180053D01*
X1182088Y913545D01*
X1183912Y914598D01*
X1185402Y916088D01*
X1186455Y917912D01*
X1187000Y919947D01*
Y922053D01*
X1186455Y924088D01*
X1185402Y925912D01*
X1183912Y927402D01*
X1182088Y928455D01*
X1180053Y929000D01*
D02*
G37*
G36*
X1145263Y917000D02*
X1143157D01*
X1141122Y916455D01*
X1139298Y915402D01*
X1137808Y913912D01*
X1136755Y912088D01*
X1136210Y910053D01*
Y907947D01*
X1136755Y905912D01*
X1137808Y904088D01*
X1139298Y902598D01*
X1141122Y901545D01*
X1143157Y901000D01*
X1145263D01*
X1147298Y901545D01*
X1149122Y902598D01*
X1150612Y904088D01*
X1151665Y905912D01*
X1152210Y907947D01*
Y910053D01*
X1151665Y912088D01*
X1150612Y913912D01*
X1149122Y915402D01*
X1147298Y916455D01*
X1145263Y917000D01*
D02*
G37*
G36*
X538000Y888000D02*
X508000D01*
Y885886D01*
X506730Y885207D01*
X505105Y886293D01*
X502375Y887424D01*
X499477Y888000D01*
X496523D01*
X493625Y887424D01*
X490895Y886293D01*
X488438Y884651D01*
X486349Y882562D01*
X486135Y882242D01*
X484865D01*
X484651Y882562D01*
X482562Y884651D01*
X480105Y886293D01*
X477375Y887424D01*
X474477Y888000D01*
X471523D01*
X468625Y887424D01*
X465895Y886293D01*
X463438Y884651D01*
X461349Y882562D01*
X460066Y880642D01*
X458613Y880618D01*
X458403Y880982D01*
X455982Y883403D01*
X453500Y884836D01*
Y873000D01*
Y861164D01*
X455982Y862598D01*
X458403Y865018D01*
X458613Y865382D01*
X460066Y865358D01*
X461349Y863438D01*
X463438Y861349D01*
X465895Y859707D01*
X468625Y858577D01*
X471523Y858000D01*
X474477D01*
X477375Y858577D01*
X480105Y859707D01*
X482562Y861349D01*
X484651Y863438D01*
X484865Y863758D01*
X486135D01*
X486349Y863438D01*
X488438Y861349D01*
X490895Y859707D01*
X493625Y858577D01*
X496523Y858000D01*
X499477D01*
X502375Y858577D01*
X505105Y859707D01*
X506730Y860793D01*
X508000Y860114D01*
Y858000D01*
X538000D01*
Y888000D01*
D02*
G37*
G36*
X442500Y884836D02*
X440018Y883403D01*
X437597Y880982D01*
X436164Y878500D01*
X442500D01*
Y884836D01*
D02*
G37*
G36*
X1270800Y898186D02*
X1262800D01*
X1260190Y897843D01*
X1257757Y896835D01*
X1255668Y895232D01*
X1254065Y893143D01*
X1253057Y890711D01*
X1252714Y888100D01*
X1253057Y885490D01*
X1254065Y883057D01*
X1255668Y880968D01*
X1257757Y879365D01*
X1260190Y878357D01*
X1262800Y878014D01*
X1270800D01*
X1273410Y878357D01*
X1275843Y879365D01*
X1277932Y880968D01*
X1279535Y883057D01*
X1280543Y885490D01*
X1280886Y888100D01*
X1280543Y890711D01*
X1279535Y893143D01*
X1277932Y895232D01*
X1275843Y896835D01*
X1273410Y897843D01*
X1270800Y898186D01*
D02*
G37*
G36*
X935053Y874000D02*
X932947D01*
X930912Y873455D01*
X929088Y872402D01*
X928875Y872189D01*
X928662Y872402D01*
X926838Y873455D01*
X924803Y874000D01*
X922697D01*
X920662Y873455D01*
X918838Y872402D01*
X918750Y872314D01*
X918662Y872402D01*
X916838Y873455D01*
X914803Y874000D01*
X912697D01*
X910662Y873455D01*
X908838Y872402D01*
X907348Y870912D01*
X906295Y869088D01*
X905750Y867053D01*
Y864947D01*
X906295Y862912D01*
X907348Y861088D01*
X908838Y859598D01*
X910662Y858545D01*
X912697Y858000D01*
X914803D01*
X916838Y858545D01*
X918662Y859598D01*
X918750Y859686D01*
X918838Y859598D01*
X920662Y858545D01*
X922697Y858000D01*
X924803D01*
X926838Y858545D01*
X928662Y859598D01*
X928875Y859811D01*
X929088Y859598D01*
X930912Y858545D01*
X932947Y858000D01*
X935053D01*
X937088Y858545D01*
X938912Y859598D01*
X940402Y861088D01*
X941455Y862912D01*
X942000Y864947D01*
Y867053D01*
X941455Y869088D01*
X940402Y870912D01*
X938912Y872402D01*
X937088Y873455D01*
X935053Y874000D01*
D02*
G37*
G36*
X1229000Y898186D02*
X1221000D01*
X1218390Y897843D01*
X1215957Y896835D01*
X1213868Y895232D01*
X1212265Y893143D01*
X1211257Y890711D01*
X1210914Y888100D01*
X1211257Y885490D01*
X1212265Y883057D01*
X1213868Y880968D01*
X1215957Y879365D01*
X1218390Y878357D01*
X1221000Y878014D01*
X1221623D01*
X1222248Y876744D01*
X1221750Y874886D01*
Y872714D01*
X1222312Y870616D01*
X1223398Y868734D01*
X1224934Y867198D01*
X1226816Y866112D01*
X1228914Y865550D01*
X1231086D01*
X1233184Y866112D01*
X1235066Y867198D01*
X1236602Y868734D01*
X1237688Y870616D01*
X1238250Y872714D01*
Y874886D01*
X1237688Y876984D01*
X1236602Y878866D01*
X1235889Y879578D01*
X1235972Y880845D01*
X1236132Y880968D01*
X1237735Y883057D01*
X1238743Y885490D01*
X1239086Y888100D01*
X1238743Y890711D01*
X1237735Y893143D01*
X1236132Y895232D01*
X1234043Y896835D01*
X1231610Y897843D01*
X1229000Y898186D01*
D02*
G37*
G36*
X442500Y867500D02*
X436164D01*
X437597Y865018D01*
X440018Y862598D01*
X442500Y861164D01*
Y867500D01*
D02*
G37*
G36*
X1206156Y855400D02*
X1204050D01*
X1202015Y854855D01*
X1200191Y853802D01*
X1198702Y852312D01*
X1197648Y850488D01*
X1197103Y848453D01*
Y846347D01*
X1197648Y844312D01*
X1198702Y842488D01*
X1200191Y840998D01*
X1202015Y839945D01*
X1204050Y839400D01*
X1206156D01*
X1208191Y839945D01*
X1210015Y840998D01*
X1211505Y842488D01*
X1212558Y844312D01*
X1213103Y846347D01*
Y848453D01*
X1212558Y850488D01*
X1211505Y852312D01*
X1210015Y853802D01*
X1208191Y854855D01*
X1206156Y855400D01*
D02*
G37*
G36*
X1186053Y837000D02*
X1183947D01*
X1181912Y836455D01*
X1180088Y835402D01*
X1178598Y833912D01*
X1177545Y832088D01*
X1177000Y830053D01*
Y827947D01*
X1177545Y825912D01*
X1178598Y824088D01*
X1180088Y822598D01*
X1181912Y821545D01*
X1183947Y821000D01*
X1186053D01*
X1188088Y821545D01*
X1189912Y822598D01*
X1191402Y824088D01*
X1192455Y825912D01*
X1193000Y827947D01*
Y830053D01*
X1192455Y832088D01*
X1191402Y833912D01*
X1189912Y835402D01*
X1188088Y836455D01*
X1186053Y837000D01*
D02*
G37*
G36*
X1270800Y811786D02*
X1262800D01*
X1260190Y811443D01*
X1257757Y810435D01*
X1255668Y808832D01*
X1254065Y806743D01*
X1253057Y804311D01*
X1252714Y801700D01*
X1253057Y799090D01*
X1254065Y796657D01*
X1255668Y794568D01*
X1257757Y792965D01*
X1260190Y791957D01*
X1262800Y791614D01*
X1270800D01*
X1273410Y791957D01*
X1275843Y792965D01*
X1277932Y794568D01*
X1279535Y796657D01*
X1280543Y799090D01*
X1280886Y801700D01*
X1280543Y804311D01*
X1279535Y806743D01*
X1277932Y808832D01*
X1275843Y810435D01*
X1273410Y811443D01*
X1270800Y811786D01*
D02*
G37*
G36*
X1231086Y824250D02*
X1228914D01*
X1226816Y823688D01*
X1224934Y822602D01*
X1223398Y821066D01*
X1222312Y819184D01*
X1221750Y817086D01*
Y814914D01*
X1222248Y813056D01*
X1221623Y811786D01*
X1221000D01*
X1218390Y811443D01*
X1215957Y810435D01*
X1213868Y808832D01*
X1212265Y806743D01*
X1211257Y804311D01*
X1210914Y801700D01*
X1211257Y799090D01*
X1212265Y796657D01*
X1213868Y794568D01*
X1215957Y792965D01*
X1218390Y791957D01*
X1221000Y791614D01*
X1229000D01*
X1231610Y791957D01*
X1234043Y792965D01*
X1236132Y794568D01*
X1237735Y796657D01*
X1238743Y799090D01*
X1239086Y801700D01*
X1238743Y804311D01*
X1237735Y806743D01*
X1236132Y808832D01*
X1235972Y808955D01*
X1235889Y810222D01*
X1236602Y810934D01*
X1237688Y812816D01*
X1238250Y814914D01*
Y817086D01*
X1237688Y819184D01*
X1236602Y821066D01*
X1235066Y822602D01*
X1233184Y823688D01*
X1231086Y824250D01*
D02*
G37*
G36*
X648053Y776000D02*
X645947D01*
X643912Y775455D01*
X642088Y774402D01*
X641500Y773814D01*
X640912Y774402D01*
X639088Y775455D01*
X637053Y776000D01*
X634947D01*
X632912Y775455D01*
X631088Y774402D01*
X629598Y772912D01*
X628545Y771088D01*
X628000Y769053D01*
Y766947D01*
X628545Y764912D01*
X629072Y764000D01*
X628545Y763088D01*
X628000Y761053D01*
Y758947D01*
X628545Y756912D01*
X629598Y755088D01*
X631088Y753598D01*
X632912Y752545D01*
X634947Y752000D01*
X637053D01*
X639088Y752545D01*
X640912Y753598D01*
X641500Y754186D01*
X642088Y753598D01*
X643912Y752545D01*
X645947Y752000D01*
X648053D01*
X650088Y752545D01*
X651912Y753598D01*
X653402Y755088D01*
X654455Y756912D01*
X655000Y758947D01*
Y761053D01*
X654455Y763088D01*
X653928Y764000D01*
X654455Y764912D01*
X655000Y766947D01*
Y769053D01*
X654455Y771088D01*
X653402Y772912D01*
X651912Y774402D01*
X650088Y775455D01*
X648053Y776000D01*
D02*
G37*
G36*
X1114053Y774000D02*
X1111947D01*
X1109912Y773455D01*
X1108088Y772402D01*
X1106598Y770912D01*
X1105545Y769088D01*
X1105000Y767053D01*
Y764947D01*
X1105545Y762912D01*
X1106598Y761088D01*
X1108088Y759598D01*
X1109912Y758545D01*
X1111947Y758000D01*
X1114053D01*
X1116088Y758545D01*
X1117912Y759598D01*
X1119402Y761088D01*
X1120455Y762912D01*
X1121000Y764947D01*
Y767053D01*
X1120455Y769088D01*
X1119402Y770912D01*
X1117912Y772402D01*
X1116088Y773455D01*
X1114053Y774000D01*
D02*
G37*
G36*
X1101000Y739000D02*
X1000000D01*
Y727000D01*
X1101000D01*
Y739000D01*
D02*
G37*
G36*
X977000D02*
X846000D01*
Y727000D01*
X977000D01*
Y739000D01*
D02*
G37*
G36*
X443212Y790063D02*
X436915D01*
X430697Y789079D01*
X424709Y787133D01*
X419099Y784275D01*
X414005Y780574D01*
X409553Y776122D01*
X405852Y771028D01*
X402994Y765418D01*
X401048Y759430D01*
X400064Y753212D01*
Y746915D01*
X401048Y740697D01*
X402994Y734709D01*
X405852Y729099D01*
X409553Y724005D01*
X414005Y719553D01*
X419099Y715852D01*
X424709Y712994D01*
X430697Y711048D01*
X436915Y710063D01*
X443212D01*
X449430Y711048D01*
X455418Y712994D01*
X461028Y715852D01*
X466122Y719553D01*
X470574Y724005D01*
X474275Y729099D01*
X477133Y734709D01*
X479079Y740697D01*
X480064Y746915D01*
Y753212D01*
X479079Y759430D01*
X477133Y765418D01*
X474275Y771028D01*
X470574Y776122D01*
X466122Y780574D01*
X461028Y784275D01*
X455418Y787133D01*
X449430Y789079D01*
X443212Y790063D01*
D02*
G37*
G36*
X767000Y713316D02*
Y707000D01*
X773316D01*
X773250Y707246D01*
X771802Y709754D01*
X769754Y711802D01*
X767246Y713250D01*
X767000Y713316D01*
D02*
G37*
G36*
X678000Y713316D02*
Y707000D01*
X684316D01*
X684250Y707246D01*
X682802Y709754D01*
X680754Y711802D01*
X678246Y713250D01*
X678000Y713316D01*
D02*
G37*
G36*
X670000Y713316D02*
X669754Y713250D01*
X667246Y711802D01*
X665198Y709754D01*
X663750Y707246D01*
X663684Y707000D01*
X670000D01*
Y713316D01*
D02*
G37*
G36*
X759000D02*
X758754Y713250D01*
X756246Y711802D01*
X754198Y709754D01*
X752750Y707246D01*
X752684Y707000D01*
X759000D01*
Y713316D01*
D02*
G37*
G36*
X670000Y699000D02*
X663684D01*
X663750Y698754D01*
X665198Y696246D01*
X667246Y694198D01*
X669754Y692750D01*
X670000Y692684D01*
Y699000D01*
D02*
G37*
G36*
X773316D02*
X767000D01*
Y692684D01*
X767246Y692750D01*
X769754Y694198D01*
X771802Y696246D01*
X773250Y698754D01*
X773316Y699000D01*
D02*
G37*
G36*
X759000D02*
X752684D01*
X752750Y698754D01*
X754198Y696246D01*
X756246Y694198D01*
X758754Y692750D01*
X759000Y692684D01*
Y699000D01*
D02*
G37*
G36*
X684316D02*
X678000D01*
Y692684D01*
X678246Y692750D01*
X680754Y694198D01*
X682802Y696246D01*
X684250Y698754D01*
X684316Y699000D01*
D02*
G37*
G36*
X764712Y681000D02*
X761289D01*
X757982Y680114D01*
X755018Y678403D01*
X752597Y675982D01*
X750886Y673018D01*
X750000Y669712D01*
Y666289D01*
X750886Y662982D01*
X752597Y660018D01*
X755018Y657598D01*
X757982Y655886D01*
X761289Y655000D01*
X764712D01*
X768018Y655886D01*
X770982Y657598D01*
X773403Y660018D01*
X775114Y662982D01*
X776000Y666289D01*
Y669712D01*
X775114Y673018D01*
X773403Y675982D01*
X770982Y678403D01*
X768018Y680114D01*
X764712Y681000D01*
D02*
G37*
G36*
X675712D02*
X672289D01*
X668982Y680114D01*
X666018Y678403D01*
X663597Y675982D01*
X661886Y673018D01*
X661000Y669712D01*
Y666289D01*
X661886Y662982D01*
X663597Y660018D01*
X666018Y657598D01*
X668982Y655886D01*
X672289Y655000D01*
X675712D01*
X679018Y655886D01*
X681982Y657598D01*
X684403Y660018D01*
X686114Y662982D01*
X687000Y666289D01*
Y669712D01*
X686114Y673018D01*
X684403Y675982D01*
X681982Y678403D01*
X679018Y680114D01*
X675712Y681000D01*
D02*
G37*
G36*
X1235000Y673500D02*
X1195000D01*
Y633500D01*
X1235000D01*
Y673500D01*
D02*
G37*
G36*
X510156Y643403D02*
X508050D01*
X506015Y642858D01*
X504191Y641805D01*
X502701Y640315D01*
X501648Y638491D01*
X501103Y636456D01*
Y634350D01*
X501648Y632315D01*
X502701Y630491D01*
X504191Y629001D01*
X506015Y627948D01*
X508050Y627403D01*
X510156D01*
X512191Y627948D01*
X514015Y629001D01*
X515505Y630491D01*
X516558Y632315D01*
X517103Y634350D01*
Y636456D01*
X516558Y638491D01*
X515505Y640315D01*
X514015Y641805D01*
X512191Y642858D01*
X510156Y643403D01*
D02*
G37*
G36*
X879053Y639000D02*
X876947D01*
X874912Y638455D01*
X873088Y637402D01*
X871598Y635912D01*
X870545Y634088D01*
X870000Y632053D01*
Y629947D01*
X870545Y627912D01*
X871598Y626088D01*
X873088Y624598D01*
X874912Y623545D01*
X876947Y623000D01*
X879053D01*
X881088Y623545D01*
X882912Y624598D01*
X884402Y626088D01*
X885455Y627912D01*
X886000Y629947D01*
Y632053D01*
X885455Y634088D01*
X884402Y635912D01*
X882912Y637402D01*
X881088Y638455D01*
X879053Y639000D01*
D02*
G37*
G36*
X844053Y664750D02*
X841947D01*
X839912Y664205D01*
X838088Y663152D01*
X836598Y661662D01*
X835545Y659838D01*
X835000Y657803D01*
Y655697D01*
X835545Y653662D01*
X836598Y651838D01*
X836686Y651750D01*
X836598Y651662D01*
X835545Y649838D01*
X835000Y647803D01*
Y645697D01*
X835545Y643662D01*
X836598Y641838D01*
X836686Y641750D01*
X836598Y641662D01*
X835545Y639838D01*
X835000Y637803D01*
Y635697D01*
X835545Y633662D01*
X836598Y631838D01*
X836686Y631750D01*
X836598Y631662D01*
X835545Y629838D01*
X835000Y627803D01*
Y625697D01*
X835545Y623662D01*
X836598Y621838D01*
X838088Y620348D01*
X839912Y619295D01*
X841947Y618750D01*
X844053D01*
X846088Y619295D01*
X847912Y620348D01*
X849402Y621838D01*
X850455Y623662D01*
X851000Y625697D01*
Y627803D01*
X850455Y629838D01*
X849402Y631662D01*
X849314Y631750D01*
X849402Y631838D01*
X850455Y633662D01*
X851000Y635697D01*
Y637803D01*
X850455Y639838D01*
X849402Y641662D01*
X849314Y641750D01*
X849402Y641838D01*
X850455Y643662D01*
X851000Y645697D01*
Y647803D01*
X850455Y649838D01*
X849402Y651662D01*
X849314Y651750D01*
X849402Y651838D01*
X850455Y653662D01*
X851000Y655697D01*
Y657803D01*
X850455Y659838D01*
X849402Y661662D01*
X847912Y663152D01*
X846088Y664205D01*
X844053Y664750D01*
D02*
G37*
G36*
X777053Y642750D02*
X774947D01*
X772912Y642205D01*
X771088Y641152D01*
X769598Y639662D01*
X768545Y637838D01*
X768000Y635803D01*
Y633697D01*
X768545Y631662D01*
X769072Y630750D01*
X768545Y629838D01*
X768000Y627803D01*
Y625697D01*
X768545Y623662D01*
X769072Y622750D01*
X768545Y621838D01*
X768000Y619803D01*
Y617697D01*
X768545Y615662D01*
X769598Y613838D01*
X771088Y612348D01*
X772912Y611295D01*
X774947Y610750D01*
X777053D01*
X779088Y611295D01*
X780912Y612348D01*
X782402Y613838D01*
X783455Y615662D01*
X784000Y617697D01*
Y619803D01*
X783455Y621838D01*
X782928Y622750D01*
X783455Y623662D01*
X784000Y625697D01*
Y627803D01*
X783455Y629838D01*
X782928Y630750D01*
X783455Y631662D01*
X784000Y633697D01*
Y635803D01*
X783455Y637838D01*
X782402Y639662D01*
X780912Y641152D01*
X779088Y642205D01*
X777053Y642750D01*
D02*
G37*
G36*
X1061053Y624750D02*
X1058947D01*
X1056912Y624205D01*
X1055088Y623152D01*
X1053598Y621662D01*
X1052545Y619838D01*
X1052000Y617803D01*
Y615697D01*
X1052545Y613662D01*
X1053598Y611838D01*
X1055088Y610348D01*
X1056912Y609295D01*
X1058947Y608750D01*
X1061053D01*
X1063088Y609295D01*
X1064912Y610348D01*
X1066402Y611838D01*
X1067455Y613662D01*
X1068000Y615697D01*
Y617803D01*
X1067455Y619838D01*
X1066402Y621662D01*
X1064912Y623152D01*
X1063088Y624205D01*
X1061053Y624750D01*
D02*
G37*
G36*
X814053Y612000D02*
X811947D01*
X809912Y611455D01*
X808088Y610402D01*
X806598Y608912D01*
X805545Y607088D01*
X805000Y605053D01*
Y602947D01*
X805545Y600912D01*
X806598Y599088D01*
X808088Y597598D01*
X809912Y596545D01*
X811947Y596000D01*
X814053D01*
X816088Y596545D01*
X817912Y597598D01*
X819402Y599088D01*
X820455Y600912D01*
X821000Y602947D01*
Y605053D01*
X820455Y607088D01*
X819402Y608912D01*
X817912Y610402D01*
X816088Y611455D01*
X814053Y612000D01*
D02*
G37*
G36*
X508396Y601853D02*
X506289D01*
X504255Y601308D01*
X502430Y600255D01*
X500941Y598765D01*
X499888Y596941D01*
X499343Y594906D01*
Y592800D01*
X499888Y590765D01*
X500941Y588941D01*
X502430Y587451D01*
X504255Y586398D01*
X506289Y585853D01*
X508396D01*
X510430Y586398D01*
X512255Y587451D01*
X513744Y588941D01*
X514797Y590765D01*
X515343Y592800D01*
Y594906D01*
X514797Y596941D01*
X513744Y598765D01*
X512255Y600255D01*
X510430Y601308D01*
X508396Y601853D01*
D02*
G37*
G36*
X845994Y612809D02*
X843888D01*
X841853Y612264D01*
X840029Y611211D01*
X838539Y609721D01*
X837486Y607897D01*
X836941Y605862D01*
Y603756D01*
X837311Y602375D01*
X836598Y601662D01*
X835545Y599838D01*
X835000Y597803D01*
Y595697D01*
X835545Y593662D01*
X836598Y591838D01*
X836686Y591750D01*
X836598Y591662D01*
X835545Y589838D01*
X835000Y587803D01*
Y585697D01*
X835545Y583662D01*
X836598Y581838D01*
X836686Y581750D01*
X836598Y581662D01*
X835545Y579838D01*
X835000Y577803D01*
Y575697D01*
X835545Y573662D01*
X836598Y571838D01*
X838088Y570348D01*
X839912Y569295D01*
X841947Y568750D01*
X844053D01*
X846088Y569295D01*
X847912Y570348D01*
X849402Y571838D01*
X850455Y573662D01*
X851000Y575697D01*
Y577803D01*
X850455Y579838D01*
X849402Y581662D01*
X849314Y581750D01*
X849402Y581838D01*
X850455Y583662D01*
X851000Y585697D01*
Y587803D01*
X850455Y589838D01*
X849402Y591662D01*
X849314Y591750D01*
X849402Y591838D01*
X850455Y593662D01*
X851000Y595697D01*
Y597803D01*
X850630Y599184D01*
X851342Y599897D01*
X852396Y601721D01*
X852941Y603756D01*
Y605862D01*
X852396Y607897D01*
X851342Y609721D01*
X849853Y611211D01*
X848029Y612264D01*
X845994Y612809D01*
D02*
G37*
G36*
X764712Y588500D02*
X761289D01*
X757982Y587614D01*
X755018Y585903D01*
X752597Y583482D01*
X750886Y580518D01*
X750000Y577211D01*
Y573789D01*
X750886Y570482D01*
X752597Y567518D01*
X755018Y565098D01*
X757982Y563386D01*
X761289Y562500D01*
X764712D01*
X768018Y563386D01*
X770982Y565098D01*
X773403Y567518D01*
X775114Y570482D01*
X776000Y573789D01*
Y577211D01*
X775114Y580518D01*
X773403Y583482D01*
X770982Y585903D01*
X768018Y587614D01*
X764712Y588500D01*
D02*
G37*
G36*
X675712Y586500D02*
X672289D01*
X668982Y585614D01*
X666018Y583903D01*
X663597Y581482D01*
X661886Y578518D01*
X661000Y575211D01*
Y571789D01*
X661886Y568482D01*
X663597Y565518D01*
X666018Y563097D01*
X668982Y561386D01*
X672289Y560500D01*
X675712D01*
X679018Y561386D01*
X681982Y563097D01*
X684403Y565518D01*
X686114Y568482D01*
X687000Y571789D01*
Y575211D01*
X686114Y578518D01*
X684403Y581482D01*
X681982Y583903D01*
X679018Y585614D01*
X675712Y586500D01*
D02*
G37*
G36*
X1216970Y597500D02*
X1213030D01*
X1209166Y596731D01*
X1205527Y595224D01*
X1202251Y593035D01*
X1199465Y590249D01*
X1197276Y586974D01*
X1195769Y583334D01*
X1195000Y579470D01*
Y575530D01*
X1195769Y571666D01*
X1197276Y568027D01*
X1199465Y564751D01*
X1202251Y561965D01*
X1205527Y559776D01*
X1209166Y558269D01*
X1213030Y557500D01*
X1216970D01*
X1220834Y558269D01*
X1224473Y559776D01*
X1227749Y561965D01*
X1230535Y564751D01*
X1232724Y568027D01*
X1234231Y571666D01*
X1235000Y575530D01*
Y579470D01*
X1234231Y583334D01*
X1232724Y586974D01*
X1230535Y590249D01*
X1227749Y593035D01*
X1224473Y595224D01*
X1220834Y596731D01*
X1216970Y597500D01*
D02*
G37*
G36*
X767000Y550816D02*
Y544500D01*
X773316D01*
X773250Y544746D01*
X771802Y547254D01*
X769754Y549302D01*
X767246Y550750D01*
X767000Y550816D01*
D02*
G37*
G36*
X759000D02*
X758754Y550750D01*
X756246Y549302D01*
X754198Y547254D01*
X752750Y544746D01*
X752684Y544500D01*
X759000D01*
Y550816D01*
D02*
G37*
G36*
X678000Y548816D02*
Y542500D01*
X684316D01*
X684250Y542746D01*
X682802Y545254D01*
X680754Y547302D01*
X678246Y548750D01*
X678000Y548816D01*
D02*
G37*
G36*
X670000D02*
X669754Y548750D01*
X667246Y547302D01*
X665198Y545254D01*
X663750Y542746D01*
X663684Y542500D01*
X670000D01*
Y548816D01*
D02*
G37*
G36*
X773316Y536500D02*
X767000D01*
Y530184D01*
X767246Y530250D01*
X769754Y531698D01*
X771802Y533746D01*
X773250Y536254D01*
X773316Y536500D01*
D02*
G37*
G36*
X759000D02*
X752684D01*
X752750Y536254D01*
X754198Y533746D01*
X756246Y531698D01*
X758754Y530250D01*
X759000Y530184D01*
Y536500D01*
D02*
G37*
G36*
X684316Y534500D02*
X678000D01*
Y528184D01*
X678246Y528250D01*
X680754Y529698D01*
X682802Y531746D01*
X684250Y534254D01*
X684316Y534500D01*
D02*
G37*
G36*
X670000D02*
X663684D01*
X663750Y534254D01*
X665198Y531746D01*
X667246Y529698D01*
X669754Y528250D01*
X670000Y528184D01*
Y534500D01*
D02*
G37*
G36*
X678000Y495316D02*
Y489000D01*
X684316D01*
X684250Y489246D01*
X682802Y491754D01*
X680754Y493802D01*
X678246Y495250D01*
X678000Y495316D01*
D02*
G37*
G36*
X767000Y495316D02*
Y489000D01*
X773316D01*
X773250Y489246D01*
X771802Y491754D01*
X769754Y493802D01*
X767246Y495250D01*
X767000Y495316D01*
D02*
G37*
G36*
X759000Y495316D02*
X758754Y495250D01*
X756246Y493802D01*
X754198Y491754D01*
X752750Y489246D01*
X752684Y489000D01*
X759000D01*
Y495316D01*
D02*
G37*
G36*
X670000D02*
X669754Y495250D01*
X667246Y493802D01*
X665198Y491754D01*
X663750Y489246D01*
X663684Y489000D01*
X670000D01*
Y495316D01*
D02*
G37*
G36*
X759000Y481000D02*
X752684D01*
X752750Y480754D01*
X754198Y478246D01*
X756246Y476198D01*
X758754Y474750D01*
X759000Y474684D01*
Y481000D01*
D02*
G37*
G36*
X684316D02*
X678000D01*
Y474684D01*
X678246Y474750D01*
X680754Y476198D01*
X682802Y478246D01*
X684250Y480754D01*
X684316Y481000D01*
D02*
G37*
G36*
X670000D02*
X663684D01*
X663750Y480754D01*
X665198Y478246D01*
X667246Y476198D01*
X669754Y474750D01*
X670000Y474684D01*
Y481000D01*
D02*
G37*
G36*
X773316D02*
X767000D01*
Y474684D01*
X767246Y474750D01*
X769754Y476198D01*
X771802Y478246D01*
X773250Y480754D01*
X773316Y481000D01*
D02*
G37*
G36*
X764711Y463000D02*
X761289D01*
X757982Y462114D01*
X755018Y460403D01*
X752597Y457982D01*
X750886Y455018D01*
X750000Y451712D01*
Y448289D01*
X750886Y444982D01*
X752597Y442018D01*
X755018Y439598D01*
X757982Y437886D01*
X761289Y437000D01*
X764711D01*
X768018Y437886D01*
X770982Y439598D01*
X773402Y442018D01*
X775114Y444982D01*
X776000Y448289D01*
Y451712D01*
X775114Y455018D01*
X773402Y457982D01*
X770982Y460403D01*
X768018Y462114D01*
X764711Y463000D01*
D02*
G37*
G36*
X675712D02*
X672289D01*
X668982Y462114D01*
X666018Y460403D01*
X663597Y457982D01*
X661886Y455018D01*
X661000Y451712D01*
Y448289D01*
X661886Y444982D01*
X663597Y442018D01*
X666018Y439598D01*
X668982Y437886D01*
X672289Y437000D01*
X675712D01*
X679018Y437886D01*
X681982Y439598D01*
X684402Y442018D01*
X686114Y444982D01*
X687000Y448289D01*
Y451712D01*
X686114Y455018D01*
X684402Y457982D01*
X681982Y460403D01*
X679018Y462114D01*
X675712Y463000D01*
D02*
G37*
G36*
X1235000Y455500D02*
X1195000D01*
Y415500D01*
X1235000D01*
Y455500D01*
D02*
G37*
G36*
X508332Y429589D02*
X506226D01*
X504191Y429044D01*
X502367Y427991D01*
X500877Y426501D01*
X499824Y424677D01*
X499279Y422643D01*
Y420536D01*
X499824Y418501D01*
X500877Y416677D01*
X502367Y415188D01*
X504191Y414134D01*
X506226Y413589D01*
X508332D01*
X510367Y414134D01*
X512191Y415188D01*
X513680Y416677D01*
X514734Y418501D01*
X515279Y420536D01*
Y422643D01*
X514734Y424677D01*
X513680Y426501D01*
X512191Y427991D01*
X510367Y429044D01*
X508332Y429589D01*
D02*
G37*
G36*
X879053Y421750D02*
X876947D01*
X874912Y421205D01*
X873088Y420152D01*
X871598Y418662D01*
X870545Y416838D01*
X870000Y414803D01*
Y412697D01*
X870545Y410662D01*
X871598Y408838D01*
X873088Y407348D01*
X874912Y406295D01*
X876947Y405750D01*
X879053D01*
X881088Y406295D01*
X882912Y407348D01*
X884402Y408838D01*
X885455Y410662D01*
X886000Y412697D01*
Y414803D01*
X885455Y416838D01*
X884402Y418662D01*
X882912Y420152D01*
X881088Y421205D01*
X879053Y421750D01*
D02*
G37*
G36*
X844053Y446750D02*
X841947D01*
X839912Y446205D01*
X838088Y445152D01*
X836598Y443662D01*
X835545Y441838D01*
X835000Y439803D01*
Y437697D01*
X835545Y435662D01*
X836598Y433838D01*
X836686Y433750D01*
X836598Y433662D01*
X835545Y431838D01*
X835000Y429803D01*
Y427697D01*
X835545Y425662D01*
X836598Y423838D01*
X836686Y423750D01*
X836598Y423662D01*
X835545Y421838D01*
X835000Y419803D01*
Y417697D01*
X835545Y415662D01*
X836598Y413838D01*
X836686Y413750D01*
X836598Y413662D01*
X835545Y411838D01*
X835000Y409803D01*
Y407697D01*
X835545Y405662D01*
X836598Y403838D01*
X838088Y402348D01*
X839912Y401295D01*
X841947Y400750D01*
X844053D01*
X846088Y401295D01*
X847912Y402348D01*
X849402Y403838D01*
X850455Y405662D01*
X851000Y407697D01*
Y409803D01*
X850455Y411838D01*
X849402Y413662D01*
X849314Y413750D01*
X849402Y413838D01*
X850455Y415662D01*
X851000Y417697D01*
Y419803D01*
X850455Y421838D01*
X849402Y423662D01*
X849314Y423750D01*
X849402Y423838D01*
X850455Y425662D01*
X851000Y427697D01*
Y429803D01*
X850455Y431838D01*
X849402Y433662D01*
X849314Y433750D01*
X849402Y433838D01*
X850455Y435662D01*
X851000Y437697D01*
Y439803D01*
X850455Y441838D01*
X849402Y443662D01*
X847912Y445152D01*
X846088Y446205D01*
X844053Y446750D01*
D02*
G37*
G36*
X777119Y424816D02*
X775013D01*
X772978Y424271D01*
X771154Y423217D01*
X769664Y421728D01*
X768611Y419904D01*
X768066Y417869D01*
Y415763D01*
X768611Y413728D01*
X769124Y412840D01*
X768545Y411838D01*
X768000Y409803D01*
Y407697D01*
X768545Y405662D01*
X769072Y404750D01*
X768545Y403838D01*
X768000Y401803D01*
Y399697D01*
X768545Y397662D01*
X769598Y395838D01*
X771088Y394348D01*
X772912Y393295D01*
X774947Y392750D01*
X777053D01*
X779088Y393295D01*
X780912Y394348D01*
X782402Y395838D01*
X783455Y397662D01*
X784000Y399697D01*
Y401803D01*
X783455Y403838D01*
X782928Y404750D01*
X783455Y405662D01*
X784000Y407697D01*
Y409803D01*
X783455Y411838D01*
X782942Y412726D01*
X783521Y413728D01*
X784066Y415763D01*
Y417869D01*
X783521Y419904D01*
X782467Y421728D01*
X780978Y423217D01*
X779154Y424271D01*
X777119Y424816D01*
D02*
G37*
G36*
X1061053Y406750D02*
X1058947D01*
X1056912Y406205D01*
X1055088Y405152D01*
X1053598Y403662D01*
X1052545Y401838D01*
X1052000Y399803D01*
Y397697D01*
X1052545Y395662D01*
X1053598Y393838D01*
X1055088Y392348D01*
X1056912Y391295D01*
X1058947Y390750D01*
X1061053D01*
X1063088Y391295D01*
X1064912Y392348D01*
X1066402Y393838D01*
X1067455Y395662D01*
X1068000Y397697D01*
Y399803D01*
X1067455Y401838D01*
X1066402Y403662D01*
X1064912Y405152D01*
X1063088Y406205D01*
X1061053Y406750D01*
D02*
G37*
G36*
X813053Y394000D02*
X810947D01*
X808912Y393455D01*
X807088Y392402D01*
X805598Y390912D01*
X804545Y389088D01*
X804000Y387053D01*
Y384947D01*
X804545Y382912D01*
X805598Y381088D01*
X807088Y379598D01*
X808912Y378545D01*
X810947Y378000D01*
X813053D01*
X815088Y378545D01*
X816912Y379598D01*
X818402Y381088D01*
X819455Y382912D01*
X820000Y384947D01*
Y387053D01*
X819455Y389088D01*
X818402Y390912D01*
X816912Y392402D01*
X815088Y393455D01*
X813053Y394000D01*
D02*
G37*
G36*
X508396Y383853D02*
X506289D01*
X504255Y383308D01*
X502430Y382254D01*
X500941Y380765D01*
X499888Y378941D01*
X499343Y376906D01*
Y374800D01*
X499888Y372765D01*
X500941Y370941D01*
X502430Y369451D01*
X504255Y368398D01*
X506289Y367853D01*
X508396D01*
X510430Y368398D01*
X512255Y369451D01*
X513744Y370941D01*
X514797Y372765D01*
X515343Y374800D01*
Y376906D01*
X514797Y378941D01*
X513744Y380765D01*
X512255Y382254D01*
X510430Y383308D01*
X508396Y383853D01*
D02*
G37*
G36*
X844053Y396750D02*
X841947D01*
X839912Y396205D01*
X838088Y395152D01*
X836598Y393662D01*
X835545Y391838D01*
X835000Y389803D01*
Y387697D01*
X835545Y385662D01*
X836598Y383838D01*
X836686Y383750D01*
X836598Y383662D01*
X835545Y381838D01*
X835000Y379803D01*
Y377697D01*
X835545Y375662D01*
X836598Y373838D01*
X836686Y373750D01*
X836598Y373662D01*
X835545Y371838D01*
X835000Y369803D01*
Y367697D01*
X835545Y365662D01*
X836598Y363838D01*
X836686Y363750D01*
X836598Y363662D01*
X835545Y361838D01*
X835000Y359803D01*
Y357697D01*
X835545Y355662D01*
X836598Y353838D01*
X838088Y352348D01*
X839912Y351295D01*
X841947Y350750D01*
X844053D01*
X846088Y351295D01*
X847912Y352348D01*
X849402Y353838D01*
X850455Y355662D01*
X851000Y357697D01*
Y359803D01*
X850455Y361838D01*
X849402Y363662D01*
X849314Y363750D01*
X849402Y363838D01*
X850455Y365662D01*
X851000Y367697D01*
Y369803D01*
X850455Y371838D01*
X849402Y373662D01*
X849314Y373750D01*
X849402Y373838D01*
X850455Y375662D01*
X851000Y377697D01*
Y379803D01*
X850455Y381838D01*
X849402Y383662D01*
X849314Y383750D01*
X849402Y383838D01*
X850455Y385662D01*
X851000Y387697D01*
Y389803D01*
X850455Y391838D01*
X849402Y393662D01*
X847912Y395152D01*
X846088Y396205D01*
X844053Y396750D01*
D02*
G37*
G36*
X675712Y370500D02*
X672289D01*
X668982Y369614D01*
X666018Y367903D01*
X663597Y365482D01*
X661886Y362518D01*
X661000Y359212D01*
Y355789D01*
X661886Y352482D01*
X663597Y349518D01*
X666018Y347098D01*
X668982Y345386D01*
X672289Y344500D01*
X675712D01*
X679018Y345386D01*
X681982Y347098D01*
X684402Y349518D01*
X686114Y352482D01*
X687000Y355789D01*
Y359212D01*
X686114Y362518D01*
X684402Y365482D01*
X681982Y367903D01*
X679018Y369614D01*
X675712Y370500D01*
D02*
G37*
G36*
X764711Y370500D02*
X761289D01*
X757982Y369614D01*
X755018Y367903D01*
X752597Y365482D01*
X750886Y362518D01*
X750000Y359212D01*
Y355789D01*
X750886Y352482D01*
X752597Y349518D01*
X755018Y347098D01*
X757982Y345386D01*
X761289Y344500D01*
X764711D01*
X768018Y345386D01*
X770982Y347098D01*
X773402Y349518D01*
X775114Y352482D01*
X776000Y355789D01*
Y359212D01*
X775114Y362518D01*
X773402Y365482D01*
X770982Y367903D01*
X768018Y369614D01*
X764711Y370500D01*
D02*
G37*
G36*
X1216970Y379500D02*
X1213030D01*
X1209166Y378731D01*
X1205527Y377224D01*
X1202251Y375035D01*
X1199465Y372249D01*
X1197276Y368974D01*
X1195769Y365334D01*
X1195000Y361470D01*
Y357530D01*
X1195769Y353666D01*
X1197276Y350027D01*
X1199465Y346751D01*
X1202251Y343965D01*
X1205527Y341776D01*
X1209166Y340269D01*
X1213030Y339500D01*
X1216970D01*
X1220834Y340269D01*
X1224474Y341776D01*
X1227749Y343965D01*
X1230535Y346751D01*
X1232724Y350027D01*
X1234231Y353666D01*
X1235000Y357530D01*
Y361470D01*
X1234231Y365334D01*
X1232724Y368974D01*
X1230535Y372249D01*
X1227749Y375035D01*
X1224474Y377224D01*
X1220834Y378731D01*
X1216970Y379500D01*
D02*
G37*
G36*
X678000Y332816D02*
Y326500D01*
X684316D01*
X684250Y326746D01*
X682802Y329254D01*
X680754Y331302D01*
X678246Y332750D01*
X678000Y332816D01*
D02*
G37*
G36*
X670000D02*
X669754Y332750D01*
X667246Y331302D01*
X665198Y329254D01*
X663750Y326746D01*
X663684Y326500D01*
X670000D01*
Y332816D01*
D02*
G37*
G36*
X767000Y332816D02*
Y326500D01*
X773316D01*
X773250Y326746D01*
X771802Y329254D01*
X769754Y331302D01*
X767246Y332750D01*
X767000Y332816D01*
D02*
G37*
G36*
X759000D02*
X758754Y332750D01*
X756246Y331302D01*
X754198Y329254D01*
X752750Y326746D01*
X752684Y326500D01*
X759000D01*
Y332816D01*
D02*
G37*
G36*
X684316Y318500D02*
X678000D01*
Y312184D01*
X678246Y312250D01*
X680754Y313698D01*
X682802Y315746D01*
X684250Y318254D01*
X684316Y318500D01*
D02*
G37*
G36*
X670000D02*
X663684D01*
X663750Y318254D01*
X665198Y315746D01*
X667246Y313698D01*
X669754Y312250D01*
X670000Y312184D01*
Y318500D01*
D02*
G37*
G36*
X773316Y318500D02*
X767000D01*
Y312184D01*
X767246Y312250D01*
X769754Y313698D01*
X771802Y315746D01*
X773250Y318254D01*
X773316Y318500D01*
D02*
G37*
G36*
X759000D02*
X752684D01*
X752750Y318254D01*
X754198Y315746D01*
X756246Y313698D01*
X758754Y312250D01*
X759000Y312184D01*
Y318500D01*
D02*
G37*
G36*
X767000Y266316D02*
Y260000D01*
X773316D01*
X773250Y260246D01*
X771802Y262754D01*
X769754Y264802D01*
X767246Y266250D01*
X767000Y266316D01*
D02*
G37*
G36*
X678000Y266316D02*
Y260000D01*
X684316D01*
X684250Y260246D01*
X682802Y262754D01*
X680754Y264802D01*
X678246Y266250D01*
X678000Y266316D01*
D02*
G37*
G36*
X670000Y266316D02*
X669754Y266250D01*
X667246Y264802D01*
X665198Y262754D01*
X663750Y260246D01*
X663684Y260000D01*
X670000D01*
Y266316D01*
D02*
G37*
G36*
X759000D02*
X758754Y266250D01*
X756246Y264802D01*
X754198Y262754D01*
X752750Y260246D01*
X752684Y260000D01*
X759000D01*
Y266316D01*
D02*
G37*
G36*
X670000Y252000D02*
X663684D01*
X663750Y251754D01*
X665198Y249246D01*
X667246Y247198D01*
X669754Y245750D01*
X670000Y245684D01*
Y252000D01*
D02*
G37*
G36*
X773316D02*
X767000D01*
Y245684D01*
X767246Y245750D01*
X769754Y247198D01*
X771802Y249246D01*
X773250Y251754D01*
X773316Y252000D01*
D02*
G37*
G36*
X759000D02*
X752684D01*
X752750Y251754D01*
X754198Y249246D01*
X756246Y247198D01*
X758754Y245750D01*
X759000Y245684D01*
Y252000D01*
D02*
G37*
G36*
X684316D02*
X678000D01*
Y245684D01*
X678246Y245750D01*
X680754Y247198D01*
X682802Y249246D01*
X684250Y251754D01*
X684316Y252000D01*
D02*
G37*
G36*
X764712Y234000D02*
X761289D01*
X757982Y233114D01*
X755018Y231403D01*
X752597Y228982D01*
X750886Y226018D01*
X750000Y222712D01*
Y219289D01*
X750886Y215982D01*
X752597Y213018D01*
X755018Y210597D01*
X757982Y208886D01*
X761289Y208000D01*
X764712D01*
X768018Y208886D01*
X770982Y210597D01*
X773403Y213018D01*
X775114Y215982D01*
X776000Y219289D01*
Y222712D01*
X775114Y226018D01*
X773403Y228982D01*
X770982Y231403D01*
X768018Y233114D01*
X764712Y234000D01*
D02*
G37*
G36*
X675712D02*
X672289D01*
X668982Y233114D01*
X666018Y231403D01*
X663597Y228982D01*
X661886Y226018D01*
X661000Y222712D01*
Y219289D01*
X661886Y215982D01*
X663597Y213018D01*
X666018Y210597D01*
X668982Y208886D01*
X672289Y208000D01*
X675712D01*
X679018Y208886D01*
X681982Y210597D01*
X684403Y213018D01*
X686114Y215982D01*
X687000Y219289D01*
Y222712D01*
X686114Y226018D01*
X684403Y228982D01*
X681982Y231403D01*
X679018Y233114D01*
X675712Y234000D01*
D02*
G37*
G36*
X508396Y212400D02*
X506289D01*
X504255Y211855D01*
X502430Y210802D01*
X500941Y209312D01*
X499888Y207488D01*
X499343Y205453D01*
Y203347D01*
X499888Y201312D01*
X500941Y199488D01*
X502430Y197999D01*
X504255Y196945D01*
X506289Y196400D01*
X508396D01*
X510430Y196945D01*
X512255Y197999D01*
X513744Y199488D01*
X514797Y201312D01*
X515343Y203347D01*
Y205453D01*
X514797Y207488D01*
X513744Y209312D01*
X512255Y210802D01*
X510430Y211855D01*
X508396Y212400D01*
D02*
G37*
G36*
X1233700Y236066D02*
X1193700D01*
Y196066D01*
X1233700D01*
Y236066D01*
D02*
G37*
G36*
X879053Y200000D02*
X876947D01*
X874912Y199455D01*
X873088Y198402D01*
X871598Y196912D01*
X870545Y195088D01*
X870000Y193053D01*
Y190947D01*
X870545Y188912D01*
X871598Y187088D01*
X873088Y185598D01*
X874912Y184545D01*
X876947Y184000D01*
X879053D01*
X881088Y184545D01*
X882912Y185598D01*
X884402Y187088D01*
X885455Y188912D01*
X886000Y190947D01*
Y193053D01*
X885455Y195088D01*
X884402Y196912D01*
X882912Y198402D01*
X881088Y199455D01*
X879053Y200000D01*
D02*
G37*
G36*
X844053Y226066D02*
X841947D01*
X839912Y225521D01*
X838088Y224468D01*
X836598Y222978D01*
X835545Y221154D01*
X835000Y219120D01*
Y217013D01*
X835545Y214979D01*
X836598Y213154D01*
X837138Y212614D01*
X836295Y211154D01*
X835750Y209120D01*
Y207013D01*
X836295Y204979D01*
X837348Y203154D01*
X837436Y203066D01*
X837348Y202978D01*
X836295Y201154D01*
X835750Y199120D01*
Y197013D01*
X836295Y194979D01*
X837348Y193154D01*
X837436Y193066D01*
X837348Y192978D01*
X836295Y191154D01*
X835750Y189120D01*
Y187013D01*
X836295Y184979D01*
X837348Y183154D01*
X838838Y181665D01*
X840662Y180612D01*
X842697Y180066D01*
X844803D01*
X846838Y180612D01*
X848662Y181665D01*
X850152Y183154D01*
X851205Y184979D01*
X851750Y187013D01*
Y189120D01*
X851205Y191154D01*
X850152Y192978D01*
X850064Y193066D01*
X850152Y193154D01*
X851205Y194979D01*
X851750Y197013D01*
Y199120D01*
X851205Y201154D01*
X850152Y202978D01*
X850064Y203066D01*
X850152Y203154D01*
X851205Y204979D01*
X851750Y207013D01*
Y209120D01*
X851205Y211154D01*
X850152Y212978D01*
X849612Y213518D01*
X850455Y214979D01*
X851000Y217013D01*
Y219120D01*
X850455Y221154D01*
X849402Y222978D01*
X847912Y224468D01*
X846088Y225521D01*
X844053Y226066D01*
D02*
G37*
G36*
X1061053Y186000D02*
X1058947D01*
X1056912Y185455D01*
X1055088Y184402D01*
X1053598Y182912D01*
X1052545Y181088D01*
X1052000Y179053D01*
Y176947D01*
X1052545Y174912D01*
X1053598Y173088D01*
X1055088Y171598D01*
X1056912Y170545D01*
X1058947Y170000D01*
X1061053D01*
X1063088Y170545D01*
X1064912Y171598D01*
X1066402Y173088D01*
X1067455Y174912D01*
X1068000Y176947D01*
Y179053D01*
X1067455Y181088D01*
X1066402Y182912D01*
X1064912Y184402D01*
X1063088Y185455D01*
X1061053Y186000D01*
D02*
G37*
G36*
X484000Y240000D02*
X414000D01*
Y170000D01*
X484000D01*
Y240000D01*
D02*
G37*
G36*
X777107Y194562D02*
X775001D01*
X772966Y194016D01*
X771142Y192963D01*
X769653Y191474D01*
X768599Y189650D01*
X768054Y187615D01*
Y185508D01*
X768599Y183474D01*
X769117Y182578D01*
X768545Y181588D01*
X768000Y179553D01*
Y177447D01*
X768545Y175412D01*
X769072Y174500D01*
X768545Y173588D01*
X768000Y171553D01*
Y169447D01*
X768545Y167412D01*
X769598Y165588D01*
X771088Y164098D01*
X772912Y163045D01*
X774947Y162500D01*
X777053D01*
X779088Y163045D01*
X780912Y164098D01*
X782402Y165588D01*
X783455Y167412D01*
X784000Y169447D01*
Y171553D01*
X783455Y173588D01*
X782928Y174500D01*
X783455Y175412D01*
X784000Y177447D01*
Y179553D01*
X783455Y181588D01*
X782938Y182484D01*
X783509Y183474D01*
X784054Y185508D01*
Y187615D01*
X783509Y189650D01*
X782456Y191474D01*
X780966Y192963D01*
X779142Y194016D01*
X777107Y194562D01*
D02*
G37*
G36*
X815053Y170000D02*
X812947D01*
X810912Y169455D01*
X809088Y168402D01*
X807598Y166912D01*
X806545Y165088D01*
X806000Y163053D01*
Y160947D01*
X806545Y158912D01*
X807598Y157088D01*
X809088Y155598D01*
X810912Y154545D01*
X812947Y154000D01*
X815053D01*
X817088Y154545D01*
X818912Y155598D01*
X820402Y157088D01*
X821455Y158912D01*
X822000Y160947D01*
Y163053D01*
X821455Y165088D01*
X820402Y166912D01*
X818912Y168402D01*
X817088Y169455D01*
X815053Y170000D01*
D02*
G37*
G36*
X508396Y166600D02*
X506289D01*
X504255Y166055D01*
X502430Y165002D01*
X500941Y163512D01*
X499888Y161688D01*
X499343Y159653D01*
Y157547D01*
X499888Y155512D01*
X500941Y153688D01*
X502430Y152198D01*
X504255Y151145D01*
X506289Y150600D01*
X508396D01*
X510430Y151145D01*
X512255Y152198D01*
X513744Y153688D01*
X514797Y155512D01*
X515343Y157547D01*
Y159653D01*
X514797Y161688D01*
X513744Y163512D01*
X512255Y165002D01*
X510430Y166055D01*
X508396Y166600D01*
D02*
G37*
G36*
X451676Y167000D02*
X446324D01*
X441038Y166163D01*
X435949Y164509D01*
X433090Y163052D01*
X449000Y147142D01*
X464910Y163052D01*
X462052Y164509D01*
X456962Y166163D01*
X451676Y167000D01*
D02*
G37*
G36*
X844803Y176066D02*
X842697D01*
X840662Y175521D01*
X838838Y174468D01*
X837348Y172978D01*
X836295Y171154D01*
X835750Y169120D01*
Y167013D01*
X836295Y164979D01*
X837348Y163154D01*
X837436Y163066D01*
X837348Y162978D01*
X836295Y161154D01*
X835750Y159120D01*
Y157013D01*
X836295Y154979D01*
X837348Y153154D01*
X837436Y153066D01*
X837348Y152978D01*
X836295Y151154D01*
X835750Y149120D01*
Y147013D01*
X836295Y144979D01*
X837348Y143154D01*
X837571Y142931D01*
X836545Y141154D01*
X836000Y139120D01*
Y137013D01*
X836545Y134979D01*
X837598Y133154D01*
X839088Y131665D01*
X840912Y130611D01*
X842947Y130066D01*
X845053D01*
X847088Y130611D01*
X848912Y131665D01*
X850402Y133154D01*
X851455Y134979D01*
X852000Y137013D01*
Y139120D01*
X851455Y141154D01*
X850402Y142978D01*
X850179Y143201D01*
X851205Y144979D01*
X851750Y147013D01*
Y149120D01*
X851205Y151154D01*
X850152Y152978D01*
X850064Y153066D01*
X850152Y153154D01*
X851205Y154979D01*
X851750Y157013D01*
Y159120D01*
X851205Y161154D01*
X850152Y162978D01*
X850064Y163066D01*
X850152Y163154D01*
X851205Y164979D01*
X851750Y167013D01*
Y169120D01*
X851205Y171154D01*
X850152Y172978D01*
X848662Y174468D01*
X846838Y175521D01*
X844803Y176066D01*
D02*
G37*
G36*
X1215670Y160066D02*
X1211730D01*
X1207866Y159298D01*
X1204227Y157790D01*
X1200951Y155601D01*
X1198165Y152816D01*
X1195976Y149540D01*
X1194469Y145900D01*
X1193700Y142036D01*
Y138097D01*
X1194469Y134233D01*
X1195976Y130593D01*
X1198165Y127317D01*
X1200951Y124531D01*
X1204227Y122343D01*
X1207866Y120835D01*
X1211730Y120066D01*
X1215670D01*
X1219534Y120835D01*
X1223174Y122343D01*
X1226449Y124531D01*
X1229235Y127317D01*
X1231424Y130593D01*
X1232931Y134233D01*
X1233700Y138097D01*
Y142036D01*
X1232931Y145900D01*
X1231424Y149540D01*
X1229235Y152816D01*
X1226449Y155601D01*
X1223174Y157790D01*
X1219534Y159298D01*
X1215670Y160066D01*
D02*
G37*
G36*
X479052Y148910D02*
X463142Y133000D01*
X479052Y117090D01*
X480509Y119949D01*
X482163Y125038D01*
X483000Y130324D01*
Y135676D01*
X482163Y140962D01*
X480509Y146052D01*
X479052Y148910D01*
D02*
G37*
G36*
X418948D02*
X417491Y146052D01*
X415837Y140962D01*
X415000Y135676D01*
Y130324D01*
X415837Y125038D01*
X417491Y119949D01*
X418948Y117090D01*
X434858Y133000D01*
X418948Y148910D01*
D02*
G37*
G36*
X764711Y136900D02*
X761289D01*
X757982Y136014D01*
X755018Y134303D01*
X752597Y131882D01*
X750886Y128918D01*
X750000Y125612D01*
Y122189D01*
X750886Y118882D01*
X752597Y115918D01*
X755018Y113497D01*
X757982Y111786D01*
X761289Y110900D01*
X764711D01*
X768018Y111786D01*
X770982Y113497D01*
X773402Y115918D01*
X775114Y118882D01*
X776000Y122189D01*
Y125612D01*
X775114Y128918D01*
X773402Y131882D01*
X770982Y134303D01*
X768018Y136014D01*
X764711Y136900D01*
D02*
G37*
G36*
X675712Y136600D02*
X672289D01*
X668982Y135714D01*
X666018Y134003D01*
X663597Y131582D01*
X661886Y128618D01*
X661000Y125312D01*
Y121889D01*
X661886Y118582D01*
X663597Y115618D01*
X666018Y113197D01*
X668982Y111486D01*
X672289Y110600D01*
X675712D01*
X679018Y111486D01*
X681982Y113197D01*
X684402Y115618D01*
X686114Y118582D01*
X687000Y121889D01*
Y125312D01*
X686114Y128618D01*
X684402Y131582D01*
X681982Y134003D01*
X679018Y135714D01*
X675712Y136600D01*
D02*
G37*
G36*
X449000Y118858D02*
X433090Y102948D01*
X435949Y101491D01*
X441038Y99837D01*
X446324Y99000D01*
X451676D01*
X456962Y99837D01*
X462052Y101491D01*
X464910Y102948D01*
X449000Y118858D01*
D02*
G37*
G36*
X767000Y99216D02*
Y92900D01*
X773316D01*
X773250Y93146D01*
X771802Y95654D01*
X769754Y97702D01*
X767246Y99150D01*
X767000Y99216D01*
D02*
G37*
G36*
X759000D02*
X758754Y99150D01*
X756246Y97702D01*
X754198Y95654D01*
X752750Y93146D01*
X752684Y92900D01*
X759000D01*
Y99216D01*
D02*
G37*
G36*
X678000Y98916D02*
Y92600D01*
X684316D01*
X684250Y92846D01*
X682802Y95354D01*
X680754Y97402D01*
X678246Y98850D01*
X678000Y98916D01*
D02*
G37*
G36*
X670000D02*
X669754Y98850D01*
X667246Y97402D01*
X665198Y95354D01*
X663750Y92846D01*
X663684Y92600D01*
X670000D01*
Y98916D01*
D02*
G37*
G36*
X773316Y84900D02*
X767000D01*
Y78584D01*
X767246Y78650D01*
X769754Y80098D01*
X771802Y82146D01*
X773250Y84654D01*
X773316Y84900D01*
D02*
G37*
G36*
X759000D02*
X752684D01*
X752750Y84654D01*
X754198Y82146D01*
X756246Y80098D01*
X758754Y78650D01*
X759000Y78584D01*
Y84900D01*
D02*
G37*
G36*
X684316Y84600D02*
X678000D01*
Y78284D01*
X678246Y78350D01*
X680754Y79798D01*
X682802Y81846D01*
X684250Y84354D01*
X684316Y84600D01*
D02*
G37*
G36*
X670000D02*
X663684D01*
X663750Y84354D01*
X665198Y81846D01*
X667246Y79798D01*
X669754Y78350D01*
X670000Y78284D01*
Y84600D01*
D02*
G37*
%LPD*%
D76*
X1245828Y1353000D02*
D03*
D141*
X162400Y1340600D02*
D03*
Y1228300D02*
D03*
Y1115100D02*
D03*
X327200Y1300000D02*
D03*
Y1325000D02*
D03*
Y1375000D02*
D03*
Y1275000D02*
D03*
Y1350000D02*
D03*
Y1175000D02*
D03*
Y1200000D02*
D03*
Y1225000D02*
D03*
Y1250000D02*
D03*
Y1050000D02*
D03*
Y1075000D02*
D03*
Y1100000D02*
D03*
Y1125000D02*
D03*
Y1150000D02*
D03*
X247000Y1383300D02*
D03*
X248000Y1242500D02*
D03*
X448000Y873000D02*
D03*
Y954167D02*
D03*
Y1035333D02*
D03*
X379200Y942167D02*
D03*
X243500Y1047000D02*
D03*
X437000Y1358000D02*
D03*
Y1276833D02*
D03*
Y1195667D02*
D03*
Y1114500D02*
D03*
X624750Y1465000D02*
D03*
X784250D02*
D03*
X943750D02*
D03*
X1103250D02*
D03*
X545000D02*
D03*
X704500D02*
D03*
X864000D02*
D03*
X1023500D02*
D03*
X1183000D02*
D03*
X431000Y1445520D02*
D03*
X1054000Y1133000D02*
D03*
X1048000Y1211000D02*
D03*
D145*
X1253500Y1213000D02*
D03*
D148*
X449000Y133000D02*
D03*
D149*
X1121270Y1133170D02*
D03*
Y952830D02*
D03*
X674000Y256000D02*
D03*
Y703000D02*
D03*
X674000Y322500D02*
D03*
X980000Y1027000D02*
D03*
X1042000D02*
D03*
X674000Y88600D02*
D03*
X763000Y256000D02*
D03*
X763000Y88900D02*
D03*
X763000Y703000D02*
D03*
X674000Y485000D02*
D03*
X674000Y538500D02*
D03*
X763000Y322500D02*
D03*
X763000Y540500D02*
D03*
X763000Y485000D02*
D03*
D156*
X973000Y1078100D02*
D03*
X978600Y1086300D02*
D03*
X984200Y1078100D02*
D03*
X967400Y1086300D02*
D03*
X1150000Y834900D02*
D03*
X1158800Y843500D02*
D03*
Y826300D02*
D03*
X1141600D02*
D03*
Y843500D02*
D03*
X885000Y1069250D02*
D03*
X894000D02*
D03*
X194000Y1166000D02*
D03*
X195000Y1227000D02*
D03*
X193000Y1360000D02*
D03*
X1127000Y721000D02*
D03*
X1220000Y722000D02*
D03*
X1185000Y820000D02*
D03*
X1187000Y848000D02*
D03*
X520000Y1311000D02*
D03*
X221000Y1242000D02*
D03*
X777500Y1212500D02*
D03*
X1259000Y1034000D02*
D03*
X866000Y1048000D02*
D03*
X800000Y1054250D02*
D03*
X688000Y1055191D02*
D03*
X698059D02*
D03*
X677000D02*
D03*
X701934Y978066D02*
D03*
X766309Y1042441D02*
D03*
X795519Y1145000D02*
D03*
X659536Y1215536D02*
D03*
X674550Y1213582D02*
D03*
X531000Y1124800D02*
D03*
X667500Y1235000D02*
D03*
X632000Y1045000D02*
D03*
X531000Y1116000D02*
D03*
X902382Y1198382D02*
D03*
X1075000Y860000D02*
D03*
X1079000Y871000D02*
D03*
X1060000Y809000D02*
D03*
X270000Y1046000D02*
D03*
X276000Y1380000D02*
D03*
X1130000Y1274000D02*
D03*
X1160000D02*
D03*
X714683Y1213000D02*
D03*
X498000Y750000D02*
D03*
X497500Y730000D02*
D03*
X623559Y966691D02*
D03*
X731054Y985946D02*
D03*
X662000Y1013000D02*
D03*
Y1004000D02*
D03*
X621000Y1045000D02*
D03*
X609000D02*
D03*
X330460Y909000D02*
D03*
X703000Y831000D02*
D03*
X714000D02*
D03*
X725000D02*
D03*
X736000D02*
D03*
X652000Y1371000D02*
D03*
X641000D02*
D03*
X631000D02*
D03*
X517000Y1341000D02*
D03*
Y1351000D02*
D03*
X526000Y1340000D02*
D03*
X959000Y1198000D02*
D03*
X830000Y1332500D02*
D03*
X672000Y858000D02*
D03*
X683000D02*
D03*
X1024000Y1311750D02*
D03*
X1074000D02*
D03*
X1120000Y1330000D02*
D03*
X650761Y1168111D02*
D03*
X612000Y966000D02*
D03*
X500000Y795000D02*
D03*
X497500Y740000D02*
D03*
X692000D02*
D03*
X600000Y966000D02*
D03*
X696000Y1136750D02*
D03*
X531000Y1133600D02*
D03*
Y1142400D02*
D03*
X960250Y1152000D02*
D03*
X887434Y1137889D02*
D03*
X856066Y1047934D02*
D03*
X1152000Y1034000D02*
D03*
X1102080D02*
D03*
X1206000D02*
D03*
X660000Y849000D02*
D03*
X672000D02*
D03*
X683000D02*
D03*
X856000Y1040000D02*
D03*
X858000Y976000D02*
D03*
Y966000D02*
D03*
X850000Y956000D02*
D03*
Y966000D02*
D03*
X866000Y1040000D02*
D03*
X850000Y976000D02*
D03*
X900000Y1302500D02*
D03*
X887500Y1332500D02*
D03*
X862000Y1263000D02*
D03*
X1119000Y878597D02*
D03*
X500000Y805000D02*
D03*
X510000D02*
D03*
X860000Y842000D02*
D03*
X642000Y824000D02*
D03*
X650000D02*
D03*
X658000D02*
D03*
X860000Y850000D02*
D03*
Y858000D02*
D03*
X724770Y636500D02*
D03*
Y626750D02*
D03*
X858000Y956000D02*
D03*
X813000Y648500D02*
D03*
X692000Y770000D02*
D03*
Y760000D02*
D03*
Y750000D02*
D03*
X724770Y416750D02*
D03*
Y408500D02*
D03*
X707000Y740000D02*
D03*
X724770Y616750D02*
D03*
Y398750D02*
D03*
X724770Y164750D02*
D03*
X724000Y190000D02*
D03*
X789750Y863000D02*
D03*
X724769Y176500D02*
D03*
X809400Y863000D02*
D03*
X799400D02*
D03*
X890000Y858000D02*
D03*
X878000D02*
D03*
X813000Y431000D02*
D03*
X1080000Y879597D02*
D03*
X1055377Y559647D02*
D03*
X1056759Y350282D02*
D03*
Y359448D02*
D03*
X1184000Y1383000D02*
D03*
X1137500Y1178000D02*
D03*
X949000Y847000D02*
D03*
Y802000D02*
D03*
Y832000D02*
D03*
Y817000D02*
D03*
X821750Y94250D02*
D03*
X1060000Y431500D02*
D03*
Y449833D02*
D03*
X1060000Y217500D02*
D03*
X1060000Y147500D02*
D03*
Y459000D02*
D03*
X1060000Y227500D02*
D03*
X1056759Y368615D02*
D03*
X1060000Y440667D02*
D03*
X1060000Y237500D02*
D03*
X1060000Y120000D02*
D03*
X1056759Y341115D02*
D03*
X1060000Y129167D02*
D03*
Y138333D02*
D03*
X1060000Y207500D02*
D03*
X1054876Y676647D02*
D03*
Y649147D02*
D03*
Y667481D02*
D03*
X1055377Y577981D02*
D03*
X1054876Y658314D02*
D03*
X1055377Y587147D02*
D03*
Y568814D02*
D03*
X813000Y210000D02*
D03*
X825500Y311000D02*
D03*
X825500Y532500D02*
D03*
X1196000Y803000D02*
D03*
X1119000Y894000D02*
D03*
X1204000Y803000D02*
D03*
X1175960Y906000D02*
D03*
X1188000Y876900D02*
D03*
X1205000D02*
D03*
X1253000Y906000D02*
D03*
Y921000D02*
D03*
X819400Y863000D02*
D03*
M02*
