G04*
G04 #@! TF.GenerationSoftware,Altium Limited,Altium Designer,21.8.1 (53)*
G04*
G04 Layer_Color=16711935*
%FSLAX44Y44*%
%MOMM*%
G71*
G04*
G04 #@! TF.SameCoordinates,B26C40CF-43AE-4B56-A471-EC5E2FB952F6*
G04*
G04*
G04 #@! TF.FilePolarity,Negative*
G04*
G01*
G75*
%ADD23R,1.1000X0.8000*%
G04:AMPARAMS|DCode=29|XSize=1.05mm|YSize=0.95mm|CornerRadius=0.2625mm|HoleSize=0mm|Usage=FLASHONLY|Rotation=180.000|XOffset=0mm|YOffset=0mm|HoleType=Round|Shape=RoundedRectangle|*
%AMROUNDEDRECTD29*
21,1,1.0500,0.4250,0,0,180.0*
21,1,0.5250,0.9500,0,0,180.0*
1,1,0.5250,-0.2625,0.2125*
1,1,0.5250,0.2625,0.2125*
1,1,0.5250,0.2625,-0.2125*
1,1,0.5250,-0.2625,-0.2125*
%
%ADD29ROUNDEDRECTD29*%
G04:AMPARAMS|DCode=34|XSize=1.05mm|YSize=0.95mm|CornerRadius=0.2625mm|HoleSize=0mm|Usage=FLASHONLY|Rotation=90.000|XOffset=0mm|YOffset=0mm|HoleType=Round|Shape=RoundedRectangle|*
%AMROUNDEDRECTD34*
21,1,1.0500,0.4250,0,0,90.0*
21,1,0.5250,0.9500,0,0,90.0*
1,1,0.5250,0.2125,0.2625*
1,1,0.5250,0.2125,-0.2625*
1,1,0.5250,-0.2125,-0.2625*
1,1,0.5250,-0.2125,0.2625*
%
%ADD34ROUNDEDRECTD34*%
%ADD36R,0.8000X1.1000*%
%ADD68C,2.1000*%
%ADD69R,2.1000X2.1000*%
%ADD70C,7.1000*%
%ADD71C,1.4000*%
%ADD72R,1.9000X2.6000*%
%ADD73R,2.6000X1.9000*%
%ADD74R,6.1000X6.1000*%
%ADD75C,6.1000*%
%ADD76C,1.7000*%
%ADD77R,1.7000X1.7000*%
%ADD78R,2.1000X2.1000*%
%ADD79C,3.1000*%
%ADD80R,3.1000X3.1000*%
%ADD81R,1.7000X1.7000*%
%ADD82C,1.8000*%
%ADD83R,1.8000X1.8000*%
%ADD84C,0.1000*%
%ADD85O,1.9000X1.1000*%
%ADD159R,2.6800X2.6900*%
G04:AMPARAMS|DCode=160|XSize=0.6mm|YSize=0.75mm|CornerRadius=0.175mm|HoleSize=0mm|Usage=FLASHONLY|Rotation=270.000|XOffset=0mm|YOffset=0mm|HoleType=Round|Shape=RoundedRectangle|*
%AMROUNDEDRECTD160*
21,1,0.6000,0.4000,0,0,270.0*
21,1,0.2500,0.7500,0,0,270.0*
1,1,0.3500,-0.2000,-0.1250*
1,1,0.3500,-0.2000,0.1250*
1,1,0.3500,0.2000,0.1250*
1,1,0.3500,0.2000,-0.1250*
%
%ADD160ROUNDEDRECTD160*%
D23*
X80000Y1351500D02*
D03*
Y1366500D02*
D03*
X193000Y1386000D02*
D03*
Y1371000D02*
D03*
X195000Y1254500D02*
D03*
Y1239500D02*
D03*
X194000Y1193500D02*
D03*
Y1178500D02*
D03*
X84000Y1140500D02*
D03*
Y1125500D02*
D03*
X83400Y1253600D02*
D03*
Y1238600D02*
D03*
X864250Y192500D02*
D03*
Y207500D02*
D03*
X825000Y195000D02*
D03*
Y210000D02*
D03*
X864250Y160858D02*
D03*
Y175858D02*
D03*
X864250Y631000D02*
D03*
Y646000D02*
D03*
Y413750D02*
D03*
Y428750D02*
D03*
X826000Y633500D02*
D03*
Y648500D02*
D03*
X825000Y416000D02*
D03*
Y431000D02*
D03*
X864250Y599000D02*
D03*
Y614000D02*
D03*
Y377500D02*
D03*
Y392500D02*
D03*
D29*
X221000Y1267750D02*
D03*
Y1254250D02*
D03*
X1160000Y1245000D02*
D03*
Y1258500D02*
D03*
X1130000Y1245000D02*
D03*
Y1258500D02*
D03*
X276000Y1395200D02*
D03*
Y1408700D02*
D03*
X270000Y1058900D02*
D03*
Y1072400D02*
D03*
D34*
X473000Y1009000D02*
D03*
X459500D02*
D03*
X473000Y929000D02*
D03*
X459500D02*
D03*
X472750Y849000D02*
D03*
X459250D02*
D03*
X340300Y909000D02*
D03*
X353800D02*
D03*
D36*
X192500Y1293000D02*
D03*
X207500D02*
D03*
X192500Y1309500D02*
D03*
X207500D02*
D03*
D68*
X111600Y1391400D02*
D03*
Y1366000D02*
D03*
Y1340600D02*
D03*
X162400Y1366000D02*
D03*
Y1340600D02*
D03*
Y1228300D02*
D03*
Y1253700D02*
D03*
X111600Y1228300D02*
D03*
Y1253700D02*
D03*
Y1279100D02*
D03*
Y1165900D02*
D03*
Y1140500D02*
D03*
Y1115100D02*
D03*
X162400Y1140500D02*
D03*
Y1115100D02*
D03*
X327200Y1300000D02*
D03*
X352600D02*
D03*
X327200Y1325000D02*
D03*
X352600D02*
D03*
X327200Y1375000D02*
D03*
X352600D02*
D03*
X327200Y1275000D02*
D03*
X352600D02*
D03*
X327200Y1350000D02*
D03*
X352600D02*
D03*
X327200Y1175000D02*
D03*
X352600D02*
D03*
X327200Y1200000D02*
D03*
X352600D02*
D03*
X327200Y1225000D02*
D03*
X352600D02*
D03*
X327200Y1250000D02*
D03*
X352600D02*
D03*
X327200Y1050000D02*
D03*
X352600D02*
D03*
X327200Y1075000D02*
D03*
X352600D02*
D03*
X327200Y1100000D02*
D03*
X352600D02*
D03*
X327200Y1125000D02*
D03*
X352600D02*
D03*
X327200Y1150000D02*
D03*
X352600D02*
D03*
X247000Y1434100D02*
D03*
Y1408700D02*
D03*
Y1383300D02*
D03*
X248000Y1292500D02*
D03*
Y1267500D02*
D03*
Y1242500D02*
D03*
X498000Y873000D02*
D03*
X473000D02*
D03*
X448000D02*
D03*
X498000Y954167D02*
D03*
X473000D02*
D03*
X448000D02*
D03*
X498000Y1035333D02*
D03*
X473000D02*
D03*
X448000D02*
D03*
X328400Y942167D02*
D03*
X353800D02*
D03*
X379200D02*
D03*
X243500Y1047000D02*
D03*
Y1072400D02*
D03*
Y1097800D02*
D03*
Y1123200D02*
D03*
Y1148600D02*
D03*
X462500Y1358000D02*
D03*
X437000D02*
D03*
X462500Y1276833D02*
D03*
X437000D02*
D03*
X462500Y1195667D02*
D03*
X437000D02*
D03*
X462500Y1114500D02*
D03*
X437000D02*
D03*
X624750Y1439500D02*
D03*
Y1465000D02*
D03*
X784250Y1439500D02*
D03*
Y1465000D02*
D03*
X943750Y1439500D02*
D03*
Y1465000D02*
D03*
X1103250Y1439500D02*
D03*
Y1465000D02*
D03*
X545000Y1439500D02*
D03*
Y1465000D02*
D03*
X704500Y1439500D02*
D03*
Y1465000D02*
D03*
X864000Y1439500D02*
D03*
Y1465000D02*
D03*
X1023500Y1439500D02*
D03*
Y1465000D02*
D03*
X1183000Y1439500D02*
D03*
Y1465000D02*
D03*
X380200Y1445520D02*
D03*
X431000D02*
D03*
X405600D02*
D03*
X431000Y1471020D02*
D03*
X405600D02*
D03*
X1004000Y1108000D02*
D03*
X1054000Y1083000D02*
D03*
Y1133000D02*
D03*
X1087000Y1228000D02*
D03*
Y1194000D02*
D03*
X1048000Y1211000D02*
D03*
Y1245000D02*
D03*
D69*
X162400Y1391400D02*
D03*
Y1279100D02*
D03*
Y1165900D02*
D03*
X523000Y873000D02*
D03*
Y954167D02*
D03*
Y1035333D02*
D03*
X303000Y942167D02*
D03*
X487500Y1358000D02*
D03*
Y1276833D02*
D03*
Y1195667D02*
D03*
Y1114500D02*
D03*
X1048000Y1177000D02*
D03*
D70*
X1260063Y750063D02*
D03*
X440064Y40064D02*
D03*
X1260063D02*
D03*
X440064Y750063D02*
D03*
X94560Y1062560D02*
D03*
X1260063Y1460063D02*
D03*
X94489Y1460063D02*
D03*
D71*
X1278500Y1163000D02*
D03*
Y1263000D02*
D03*
X1253500D02*
D03*
Y1163000D02*
D03*
X1203500Y1213149D02*
D03*
D72*
X1253500Y1213000D02*
D03*
D73*
X1203500Y1263000D02*
D03*
Y1238000D02*
D03*
Y1188000D02*
D03*
Y1163000D02*
D03*
D74*
X449000Y205000D02*
D03*
D75*
Y133000D02*
D03*
D76*
X1095870Y1133170D02*
D03*
X1146670D02*
D03*
X1121270D02*
D03*
X1172070D02*
D03*
X1197470D02*
D03*
X1222870D02*
D03*
X1248270D02*
D03*
X1095870Y952830D02*
D03*
X1146670D02*
D03*
X1121270D02*
D03*
X1172070D02*
D03*
X1197470D02*
D03*
X1222870D02*
D03*
X1273670D02*
D03*
X1248270D02*
D03*
X674000Y221000D02*
D03*
Y256000D02*
D03*
Y668000D02*
D03*
Y703000D02*
D03*
X674000Y357500D02*
D03*
Y322500D02*
D03*
X980000Y977000D02*
D03*
Y1002000D02*
D03*
Y1027000D02*
D03*
X1042000D02*
D03*
Y1002000D02*
D03*
Y977000D02*
D03*
X674000Y123600D02*
D03*
Y88600D02*
D03*
X763000Y221000D02*
D03*
Y256000D02*
D03*
X763000Y123900D02*
D03*
Y88900D02*
D03*
X763000Y668000D02*
D03*
Y703000D02*
D03*
X674000Y450000D02*
D03*
Y485000D02*
D03*
X674000Y573500D02*
D03*
Y538500D02*
D03*
X763000Y357500D02*
D03*
Y322500D02*
D03*
X763000Y575500D02*
D03*
Y540500D02*
D03*
X763000Y450000D02*
D03*
Y485000D02*
D03*
D77*
X1273670Y1133170D02*
D03*
D78*
X378000Y1300000D02*
D03*
Y1325000D02*
D03*
Y1375000D02*
D03*
Y1275000D02*
D03*
Y1350000D02*
D03*
Y1175000D02*
D03*
Y1200000D02*
D03*
Y1225000D02*
D03*
Y1250000D02*
D03*
Y1050000D02*
D03*
Y1075000D02*
D03*
Y1100000D02*
D03*
Y1125000D02*
D03*
Y1150000D02*
D03*
X247000Y1459500D02*
D03*
X248000Y1317500D02*
D03*
X243500Y1174000D02*
D03*
X624750Y1414500D02*
D03*
X784250D02*
D03*
X943750D02*
D03*
X1103250D02*
D03*
X545000D02*
D03*
X704500D02*
D03*
X864000D02*
D03*
X1023500D02*
D03*
X1183000D02*
D03*
X380200Y1471020D02*
D03*
D79*
X1213700Y140066D02*
D03*
X1215000Y577500D02*
D03*
X1215000Y359500D02*
D03*
D80*
X1213700Y216066D02*
D03*
X1215000Y653500D02*
D03*
X1215000Y435500D02*
D03*
D81*
X980000Y952000D02*
D03*
X1042000D02*
D03*
D82*
X1245828Y1353000D02*
D03*
D83*
Y1303000D02*
D03*
D84*
X1230000Y873800D02*
D03*
Y816000D02*
D03*
D85*
X1225000Y888100D02*
D03*
X1266800D02*
D03*
X1225000Y801700D02*
D03*
X1266800D02*
D03*
D159*
X1149900Y834850D02*
D03*
D160*
X480000Y1463000D02*
D03*
Y1455000D02*
D03*
Y1447000D02*
D03*
Y1471000D02*
D03*
X493000Y1447000D02*
D03*
Y1455000D02*
D03*
Y1463000D02*
D03*
Y1471000D02*
D03*
X789000Y162500D02*
D03*
Y170500D02*
D03*
Y178500D02*
D03*
Y186500D02*
D03*
X802000Y162500D02*
D03*
Y186500D02*
D03*
Y178500D02*
D03*
Y170500D02*
D03*
X750000Y162500D02*
D03*
Y170500D02*
D03*
Y178500D02*
D03*
Y186500D02*
D03*
X763000Y162500D02*
D03*
Y186500D02*
D03*
Y178500D02*
D03*
Y170500D02*
D03*
X789000Y610750D02*
D03*
Y618750D02*
D03*
Y626750D02*
D03*
Y634750D02*
D03*
X802000Y610750D02*
D03*
Y634750D02*
D03*
Y626750D02*
D03*
Y618750D02*
D03*
X789000Y392750D02*
D03*
Y400750D02*
D03*
Y408750D02*
D03*
Y416750D02*
D03*
X802000Y392750D02*
D03*
Y416750D02*
D03*
Y408750D02*
D03*
Y400750D02*
D03*
X750000Y610750D02*
D03*
Y618750D02*
D03*
Y626750D02*
D03*
Y634750D02*
D03*
X763000Y610750D02*
D03*
Y634750D02*
D03*
Y626750D02*
D03*
Y618750D02*
D03*
X750000Y392750D02*
D03*
Y400750D02*
D03*
Y408750D02*
D03*
Y416750D02*
D03*
X763000Y392750D02*
D03*
Y416750D02*
D03*
Y408750D02*
D03*
Y400750D02*
D03*
M02*
