G04*
G04 #@! TF.GenerationSoftware,Altium Limited,Altium Designer,21.8.1 (53)*
G04*
G04 Layer_Physical_Order=2*
G04 Layer_Color=36540*
%FSLAX44Y44*%
%MOMM*%
G71*
G04*
G04 #@! TF.SameCoordinates,B26C40CF-43AE-4B56-A471-EC5E2FB952F6*
G04*
G04*
G04 #@! TF.FilePolarity,Positive*
G04*
G01*
G75*
%ADD14C,0.4000*%
%ADD15C,0.3000*%
%ADD76C,1.7000*%
%ADD141C,2.0000*%
%ADD142R,2.0000X2.0000*%
%ADD145R,1.8000X2.5000*%
%ADD149C,1.6000*%
%ADD151R,2.0000X2.0000*%
%ADD156C,0.6000*%
G36*
X440544Y1474121D02*
X440755Y1473785D01*
X441008Y1473489D01*
X441305Y1473232D01*
X441644Y1473014D01*
X442025Y1472836D01*
X442450Y1472698D01*
X442917Y1472599D01*
X443427Y1472540D01*
X443980Y1472520D01*
Y1469520D01*
X443427Y1469500D01*
X442917Y1469441D01*
X442450Y1469342D01*
X442025Y1469204D01*
X441644Y1469026D01*
X441305Y1468808D01*
X441008Y1468551D01*
X440755Y1468255D01*
X440544Y1467919D01*
X440376Y1467543D01*
Y1474497D01*
X440544Y1474121D01*
D02*
G37*
G36*
X506271Y1464986D02*
X506421Y1464884D01*
X506592Y1464794D01*
X506786Y1464716D01*
X507000Y1464650D01*
X507237Y1464596D01*
X507495Y1464554D01*
X507774Y1464524D01*
X508398Y1464500D01*
Y1461500D01*
X508075Y1461494D01*
X507495Y1461446D01*
X507237Y1461404D01*
X507000Y1461350D01*
X506786Y1461284D01*
X506592Y1461206D01*
X506421Y1461116D01*
X506271Y1461014D01*
X506142Y1460900D01*
Y1465100D01*
X506271Y1464986D01*
D02*
G37*
G36*
X256800Y1453540D02*
X256715Y1453264D01*
Y1452946D01*
X256800Y1452585D01*
X256970Y1452182D01*
X257224Y1451737D01*
X257563Y1451249D01*
X257988Y1450718D01*
X259091Y1449530D01*
X256970Y1447409D01*
X256354Y1448003D01*
X255251Y1448936D01*
X254763Y1449276D01*
X254318Y1449530D01*
X253915Y1449700D01*
X253554Y1449785D01*
X253236D01*
X252960Y1449700D01*
X252727Y1449530D01*
X256970Y1453773D01*
X256800Y1453540D01*
D02*
G37*
G36*
X506396Y1445172D02*
X506328Y1445024D01*
X506269Y1444853D01*
X506217Y1444659D01*
X506173Y1444444D01*
X506110Y1443946D01*
X506090Y1443664D01*
X506074Y1443032D01*
X503074Y1442346D01*
X503067Y1442669D01*
X503009Y1443242D01*
X502958Y1443492D01*
X502893Y1443719D01*
X502813Y1443922D01*
X502719Y1444101D01*
X502610Y1444256D01*
X502486Y1444388D01*
X502349Y1444495D01*
X506471Y1445299D01*
X506396Y1445172D01*
D02*
G37*
G36*
X257009Y1432513D02*
X257174Y1429859D01*
X257330Y1428692D01*
X257535Y1427631D01*
X257789Y1426677D01*
X258092Y1425830D01*
X258444Y1425089D01*
X258845Y1424455D01*
X259294Y1423927D01*
X257173Y1421806D01*
X256645Y1422256D01*
X256011Y1422656D01*
X255270Y1423008D01*
X254423Y1423311D01*
X253469Y1423565D01*
X252408Y1423770D01*
X251241Y1423926D01*
X248587Y1424091D01*
X247100Y1424100D01*
X256999Y1434000D01*
X257009Y1432513D01*
D02*
G37*
G36*
X714469Y1417215D02*
X714560Y1416960D01*
X714712Y1416735D01*
X714924Y1416540D01*
X715197Y1416375D01*
X715530Y1416240D01*
X715924Y1416135D01*
X716378Y1416060D01*
X716894Y1416015D01*
X717469Y1416000D01*
Y1413000D01*
X716894Y1412985D01*
X716378Y1412940D01*
X715924Y1412865D01*
X715530Y1412760D01*
X715197Y1412625D01*
X714924Y1412460D01*
X714712Y1412265D01*
X714560Y1412040D01*
X714469Y1411785D01*
X714439Y1411500D01*
Y1417500D01*
X714469Y1417215D01*
D02*
G37*
G36*
X554969D02*
X555060Y1416960D01*
X555212Y1416735D01*
X555424Y1416540D01*
X555697Y1416375D01*
X556030Y1416240D01*
X556424Y1416135D01*
X556879Y1416060D01*
X557394Y1416015D01*
X557970Y1416000D01*
Y1413000D01*
X557394Y1412985D01*
X556879Y1412940D01*
X556424Y1412865D01*
X556030Y1412760D01*
X555697Y1412625D01*
X555424Y1412460D01*
X555212Y1412265D01*
X555060Y1412040D01*
X554969Y1411785D01*
X554939Y1411500D01*
Y1417500D01*
X554969Y1417215D01*
D02*
G37*
G36*
X634550Y1408540D02*
X634465Y1408264D01*
Y1407946D01*
X634550Y1407585D01*
X634720Y1407182D01*
X634974Y1406737D01*
X635313Y1406249D01*
X635738Y1405718D01*
X636841Y1404530D01*
X634720Y1402409D01*
X634104Y1403003D01*
X633001Y1403936D01*
X632513Y1404276D01*
X632068Y1404530D01*
X631665Y1404700D01*
X631304Y1404785D01*
X630986D01*
X630710Y1404700D01*
X630477Y1404530D01*
X634720Y1408773D01*
X634550Y1408540D01*
D02*
G37*
G36*
X897179Y1319581D02*
X897250Y1319564D01*
X897354Y1319549D01*
X897665Y1319525D01*
X898694Y1319501D01*
X899036Y1319500D01*
Y1315500D01*
X897142Y1315400D01*
Y1319600D01*
X897179Y1319581D01*
D02*
G37*
G36*
X257969Y1320215D02*
X258060Y1319960D01*
X258212Y1319735D01*
X258424Y1319540D01*
X258697Y1319375D01*
X259030Y1319240D01*
X259424Y1319135D01*
X259879Y1319060D01*
X260394Y1319015D01*
X260970Y1319000D01*
Y1316000D01*
X260394Y1315985D01*
X259879Y1315940D01*
X259424Y1315865D01*
X259030Y1315760D01*
X258697Y1315625D01*
X258424Y1315460D01*
X258212Y1315265D01*
X258060Y1315040D01*
X257969Y1314785D01*
X257939Y1314500D01*
Y1320500D01*
X257969Y1320215D01*
D02*
G37*
G36*
X740358Y1307900D02*
X740229Y1308014D01*
X740079Y1308116D01*
X739908Y1308206D01*
X739714Y1308284D01*
X739500Y1308350D01*
X739263Y1308404D01*
X739005Y1308446D01*
X738726Y1308476D01*
X738102Y1308500D01*
Y1311500D01*
X738425Y1311506D01*
X739005Y1311554D01*
X739263Y1311596D01*
X739500Y1311650D01*
X739714Y1311716D01*
X739908Y1311794D01*
X740079Y1311884D01*
X740229Y1311986D01*
X740358Y1312100D01*
Y1307900D01*
D02*
G37*
G36*
X242273Y1307530D02*
X242040Y1307700D01*
X241764Y1307785D01*
X241446D01*
X241085Y1307700D01*
X240682Y1307530D01*
X240237Y1307276D01*
X239749Y1306936D01*
X239218Y1306512D01*
X238030Y1305409D01*
X235909Y1307530D01*
X236503Y1308146D01*
X237437Y1309249D01*
X237776Y1309737D01*
X238030Y1310182D01*
X238200Y1310585D01*
X238285Y1310946D01*
Y1311264D01*
X238200Y1311540D01*
X238030Y1311773D01*
X242273Y1307530D01*
D02*
G37*
G36*
X836933Y1304331D02*
X836991Y1303758D01*
X837042Y1303508D01*
X837107Y1303281D01*
X837187Y1303078D01*
X837281Y1302899D01*
X837390Y1302744D01*
X837514Y1302612D01*
X837651Y1302505D01*
X833529Y1301701D01*
X833604Y1301828D01*
X833672Y1301976D01*
X833731Y1302147D01*
X833783Y1302341D01*
X833827Y1302556D01*
X833890Y1303054D01*
X833910Y1303336D01*
X833926Y1303968D01*
X836926Y1304653D01*
X836933Y1304331D01*
D02*
G37*
G36*
X740358Y1300400D02*
X740229Y1300514D01*
X740079Y1300616D01*
X739908Y1300706D01*
X739714Y1300784D01*
X739500Y1300850D01*
X739263Y1300904D01*
X739005Y1300946D01*
X738726Y1300976D01*
X738102Y1301000D01*
Y1304000D01*
X738425Y1304006D01*
X739005Y1304054D01*
X739263Y1304096D01*
X739500Y1304150D01*
X739714Y1304216D01*
X739908Y1304294D01*
X740079Y1304384D01*
X740229Y1304486D01*
X740358Y1304600D01*
Y1300400D01*
D02*
G37*
G36*
X815779Y1304226D02*
X816225Y1303855D01*
X816439Y1303708D01*
X816646Y1303586D01*
X816846Y1303488D01*
X817040Y1303416D01*
X817228Y1303369D01*
X817410Y1303348D01*
X817584Y1303351D01*
X814872Y1300144D01*
X814849Y1300307D01*
X814804Y1300478D01*
X814736Y1300656D01*
X814646Y1300843D01*
X814533Y1301037D01*
X814398Y1301238D01*
X814240Y1301448D01*
X813856Y1301890D01*
X813631Y1302123D01*
X815547Y1304449D01*
X815779Y1304226D01*
D02*
G37*
G36*
X825183Y1303947D02*
X825628Y1303570D01*
X825840Y1303417D01*
X826045Y1303288D01*
X826244Y1303183D01*
X826435Y1303102D01*
X826620Y1303044D01*
X826799Y1303010D01*
X826970Y1303000D01*
X824000Y1300030D01*
X823990Y1300201D01*
X823956Y1300380D01*
X823898Y1300565D01*
X823817Y1300756D01*
X823712Y1300955D01*
X823583Y1301160D01*
X823430Y1301372D01*
X823254Y1301591D01*
X822829Y1302049D01*
X824951Y1304171D01*
X825183Y1303947D01*
D02*
G37*
G36*
X256489Y1297982D02*
X258102Y1296409D01*
X258897Y1295770D01*
X259684Y1295229D01*
X260463Y1294787D01*
X261234Y1294442D01*
X261997Y1294197D01*
X262753Y1294049D01*
X263500Y1294000D01*
Y1291000D01*
X262753Y1290951D01*
X261997Y1290803D01*
X261234Y1290558D01*
X260463Y1290213D01*
X259684Y1289771D01*
X258897Y1289230D01*
X258102Y1288591D01*
X257299Y1287853D01*
X256489Y1287018D01*
X255670Y1286083D01*
Y1298917D01*
X256489Y1297982D01*
D02*
G37*
G36*
X247900Y1282500D02*
X246413Y1282491D01*
X243759Y1282326D01*
X242592Y1282170D01*
X241531Y1281965D01*
X240577Y1281711D01*
X239730Y1281408D01*
X238989Y1281056D01*
X238355Y1280656D01*
X237827Y1280206D01*
X235706Y1282327D01*
X236155Y1282855D01*
X236556Y1283489D01*
X236908Y1284230D01*
X237211Y1285077D01*
X237465Y1286031D01*
X237670Y1287092D01*
X237826Y1288259D01*
X237991Y1290913D01*
X238001Y1292400D01*
X247900Y1282500D01*
D02*
G37*
G36*
X800683Y1271447D02*
X801128Y1271070D01*
X801340Y1270917D01*
X801545Y1270788D01*
X801744Y1270683D01*
X801935Y1270602D01*
X802120Y1270544D01*
X802299Y1270510D01*
X802470Y1270500D01*
X799500Y1267530D01*
X799490Y1267701D01*
X799456Y1267880D01*
X799398Y1268065D01*
X799317Y1268256D01*
X799212Y1268455D01*
X799083Y1268660D01*
X798930Y1268872D01*
X798754Y1269091D01*
X798329Y1269549D01*
X800451Y1271671D01*
X800683Y1271447D01*
D02*
G37*
G36*
X812183Y1268931D02*
X812628Y1268554D01*
X812840Y1268402D01*
X813045Y1268273D01*
X813244Y1268167D01*
X813435Y1268086D01*
X813620Y1268028D01*
X813799Y1267994D01*
X813970Y1267984D01*
X811000Y1265014D01*
X810990Y1265186D01*
X810956Y1265364D01*
X810898Y1265549D01*
X810817Y1265741D01*
X810712Y1265939D01*
X810583Y1266145D01*
X810430Y1266357D01*
X810254Y1266575D01*
X809829Y1267034D01*
X811951Y1269155D01*
X812183Y1268931D01*
D02*
G37*
G36*
X878442Y1267003D02*
X878885Y1266620D01*
X879094Y1266463D01*
X879297Y1266328D01*
X879491Y1266216D01*
X879678Y1266127D01*
X879857Y1266060D01*
X880029Y1266015D01*
X880193Y1265994D01*
X877011Y1263253D01*
X877013Y1263428D01*
X876990Y1263609D01*
X876942Y1263797D01*
X876869Y1263991D01*
X876771Y1264191D01*
X876647Y1264398D01*
X876499Y1264612D01*
X876326Y1264831D01*
X875905Y1265290D01*
X878210Y1267228D01*
X878442Y1267003D01*
D02*
G37*
G36*
X839701Y1260813D02*
X839575Y1260888D01*
X839426Y1260956D01*
X839255Y1261015D01*
X839062Y1261067D01*
X838846Y1261111D01*
X838348Y1261174D01*
X838066Y1261194D01*
X837435Y1261210D01*
X836749Y1264210D01*
X837071Y1264217D01*
X837644Y1264275D01*
X837895Y1264326D01*
X838121Y1264391D01*
X838324Y1264471D01*
X838503Y1264566D01*
X838659Y1264674D01*
X838790Y1264798D01*
X838898Y1264935D01*
X839701Y1260813D01*
D02*
G37*
G36*
X941300Y1261704D02*
X937368Y1260441D01*
X937428Y1260584D01*
X937457Y1260738D01*
X937453Y1260901D01*
X937419Y1261075D01*
X937352Y1261259D01*
X937254Y1261453D01*
X937124Y1261658D01*
X936963Y1261873D01*
X936770Y1262097D01*
X936546Y1262333D01*
X938917Y1264204D01*
X941300Y1261704D01*
D02*
G37*
G36*
X849220Y1260000D02*
X849048Y1259990D01*
X848870Y1259956D01*
X848685Y1259898D01*
X848494Y1259817D01*
X848295Y1259712D01*
X848090Y1259583D01*
X847878Y1259430D01*
X847659Y1259254D01*
X847201Y1258829D01*
X845079Y1260951D01*
X845303Y1261183D01*
X845680Y1261628D01*
X845833Y1261840D01*
X845962Y1262045D01*
X846067Y1262244D01*
X846148Y1262435D01*
X846206Y1262620D01*
X846240Y1262799D01*
X846250Y1262970D01*
X849220Y1260000D01*
D02*
G37*
G36*
X881986Y1260729D02*
X881884Y1260579D01*
X881794Y1260407D01*
X881716Y1260214D01*
X881650Y1260000D01*
X881596Y1259763D01*
X881554Y1259505D01*
X881524Y1259226D01*
X881500Y1258602D01*
X878500D01*
X878494Y1258925D01*
X878446Y1259505D01*
X878404Y1259763D01*
X878350Y1260000D01*
X878284Y1260214D01*
X878206Y1260407D01*
X878116Y1260579D01*
X878014Y1260729D01*
X877900Y1260858D01*
X882100D01*
X881986Y1260729D01*
D02*
G37*
G36*
X938183Y1251947D02*
X938628Y1251570D01*
X938840Y1251417D01*
X939045Y1251288D01*
X939244Y1251183D01*
X939435Y1251102D01*
X939620Y1251044D01*
X939799Y1251010D01*
X939970Y1251000D01*
X937000Y1248030D01*
X936990Y1248201D01*
X936956Y1248380D01*
X936898Y1248565D01*
X936817Y1248756D01*
X936712Y1248955D01*
X936583Y1249160D01*
X936430Y1249372D01*
X936254Y1249591D01*
X935829Y1250049D01*
X937951Y1252170D01*
X938183Y1251947D01*
D02*
G37*
G36*
X860299Y1247529D02*
X860173Y1247604D01*
X860024Y1247672D01*
X859853Y1247731D01*
X859659Y1247783D01*
X859444Y1247827D01*
X858946Y1247890D01*
X858664Y1247910D01*
X858032Y1247926D01*
X857346Y1250926D01*
X857669Y1250933D01*
X858242Y1250991D01*
X858492Y1251042D01*
X858719Y1251107D01*
X858922Y1251187D01*
X859101Y1251281D01*
X859256Y1251390D01*
X859388Y1251513D01*
X859495Y1251651D01*
X860299Y1247529D01*
D02*
G37*
G36*
X938183Y1241947D02*
X938628Y1241570D01*
X938840Y1241417D01*
X939045Y1241288D01*
X939244Y1241183D01*
X939435Y1241102D01*
X939620Y1241044D01*
X939799Y1241010D01*
X939970Y1241000D01*
X937000Y1238030D01*
X936990Y1238201D01*
X936956Y1238380D01*
X936898Y1238565D01*
X936817Y1238756D01*
X936712Y1238955D01*
X936583Y1239160D01*
X936430Y1239372D01*
X936254Y1239591D01*
X935829Y1240049D01*
X937951Y1242170D01*
X938183Y1241947D01*
D02*
G37*
G36*
X862299Y1237529D02*
X862172Y1237604D01*
X862024Y1237672D01*
X861853Y1237731D01*
X861659Y1237783D01*
X861444Y1237827D01*
X860946Y1237890D01*
X860664Y1237910D01*
X860032Y1237926D01*
X859346Y1240926D01*
X859669Y1240933D01*
X860242Y1240991D01*
X860492Y1241042D01*
X860719Y1241107D01*
X860922Y1241187D01*
X861101Y1241281D01*
X861256Y1241390D01*
X861388Y1241514D01*
X861495Y1241651D01*
X862299Y1237529D01*
D02*
G37*
G36*
X825493Y1227169D02*
X822493Y1226745D01*
X822486Y1227071D01*
X822464Y1227366D01*
X822426Y1227631D01*
X822374Y1227865D01*
X822308Y1228068D01*
X822226Y1228242D01*
X822129Y1228384D01*
X822018Y1228496D01*
X821892Y1228578D01*
X821750Y1228629D01*
X825314Y1230637D01*
X825493Y1227169D01*
D02*
G37*
G36*
X863986Y1228729D02*
X863884Y1228579D01*
X863794Y1228408D01*
X863716Y1228214D01*
X863650Y1228000D01*
X863596Y1227763D01*
X863554Y1227505D01*
X863524Y1227226D01*
X863500Y1226602D01*
X860500D01*
X860494Y1226925D01*
X860446Y1227505D01*
X860404Y1227763D01*
X860350Y1228000D01*
X860284Y1228214D01*
X860206Y1228408D01*
X860116Y1228579D01*
X860014Y1228729D01*
X859900Y1228858D01*
X864100D01*
X863986Y1228729D01*
D02*
G37*
G36*
X838020Y1228820D02*
X837925Y1228668D01*
X837841Y1228494D01*
X837768Y1228299D01*
X837706Y1228083D01*
X837656Y1227846D01*
X837616Y1227587D01*
X837571Y1227004D01*
X837566Y1226681D01*
X834566Y1226531D01*
X834559Y1226854D01*
X834509Y1227433D01*
X834464Y1227689D01*
X834407Y1227924D01*
X834337Y1228137D01*
X834255Y1228328D01*
X834159Y1228497D01*
X834052Y1228644D01*
X833931Y1228769D01*
X838127Y1228950D01*
X838020Y1228820D01*
D02*
G37*
G36*
X850922Y1228908D02*
X850834Y1228756D01*
X850755Y1228581D01*
X850688Y1228386D01*
X850630Y1228169D01*
X850583Y1227931D01*
X850547Y1227671D01*
X850505Y1227087D01*
X850500Y1226763D01*
X847500Y1226473D01*
X847493Y1226795D01*
X847440Y1227373D01*
X847394Y1227628D01*
X847334Y1227861D01*
X847261Y1228071D01*
X847175Y1228259D01*
X847075Y1228425D01*
X846962Y1228569D01*
X846836Y1228690D01*
X851021Y1229040D01*
X850922Y1228908D01*
D02*
G37*
G36*
X875000Y1226602D02*
X872000Y1226200D01*
X871992Y1226525D01*
X871970Y1226821D01*
X871933Y1227085D01*
X871880Y1227320D01*
X871813Y1227525D01*
X871731Y1227699D01*
X871634Y1227843D01*
X871522Y1227957D01*
X871395Y1228041D01*
X871253Y1228095D01*
X874851Y1230065D01*
X875000Y1226602D01*
D02*
G37*
G36*
X883863Y1223648D02*
X883734Y1223530D01*
X883618Y1223388D01*
X883517Y1223224D01*
X883428Y1223038D01*
X883354Y1222828D01*
X883293Y1222597D01*
X883245Y1222342D01*
X883211Y1222065D01*
X883191Y1221766D01*
X883184Y1221444D01*
X880184Y1221812D01*
X880179Y1222136D01*
X880139Y1222721D01*
X880105Y1222981D01*
X880060Y1223219D01*
X880005Y1223436D01*
X879940Y1223632D01*
X879865Y1223806D01*
X879781Y1223959D01*
X879686Y1224091D01*
X883863Y1223648D01*
D02*
G37*
G36*
X732858Y1220400D02*
X732729Y1220514D01*
X732579Y1220616D01*
X732408Y1220706D01*
X732214Y1220784D01*
X732000Y1220850D01*
X731763Y1220904D01*
X731505Y1220946D01*
X731226Y1220976D01*
X730602Y1221000D01*
Y1224000D01*
X730925Y1224006D01*
X731505Y1224054D01*
X731763Y1224096D01*
X732000Y1224150D01*
X732214Y1224216D01*
X732408Y1224294D01*
X732579Y1224384D01*
X732729Y1224486D01*
X732858Y1224600D01*
Y1220400D01*
D02*
G37*
G36*
X744254Y1191504D02*
X744125Y1191618D01*
X743975Y1191720D01*
X743804Y1191810D01*
X743611Y1191888D01*
X743396Y1191954D01*
X743159Y1192008D01*
X742902Y1192050D01*
X742622Y1192080D01*
X741998Y1192104D01*
Y1195104D01*
X742321Y1195110D01*
X742902Y1195158D01*
X743159Y1195200D01*
X743396Y1195254D01*
X743611Y1195320D01*
X743804Y1195398D01*
X743975Y1195488D01*
X744125Y1195590D01*
X744254Y1195704D01*
Y1191504D01*
D02*
G37*
G36*
X788986Y1178729D02*
X788884Y1178579D01*
X788794Y1178408D01*
X788716Y1178214D01*
X788650Y1178000D01*
X788596Y1177763D01*
X788554Y1177505D01*
X788524Y1177226D01*
X788500Y1176602D01*
X785500D01*
X785494Y1176925D01*
X785446Y1177505D01*
X785404Y1177763D01*
X785350Y1178000D01*
X785284Y1178214D01*
X785206Y1178408D01*
X785116Y1178579D01*
X785014Y1178729D01*
X784900Y1178858D01*
X789100D01*
X788986Y1178729D01*
D02*
G37*
G36*
X742858Y1174900D02*
X742729Y1175014D01*
X742579Y1175116D01*
X742408Y1175206D01*
X742214Y1175284D01*
X742000Y1175350D01*
X741763Y1175404D01*
X741505Y1175446D01*
X741226Y1175476D01*
X740602Y1175500D01*
Y1178500D01*
X740925Y1178506D01*
X741505Y1178554D01*
X741763Y1178596D01*
X742000Y1178650D01*
X742214Y1178716D01*
X742408Y1178794D01*
X742579Y1178884D01*
X742729Y1178986D01*
X742858Y1179100D01*
Y1174900D01*
D02*
G37*
G36*
X937179Y1177081D02*
X937250Y1177064D01*
X937354Y1177049D01*
X937665Y1177025D01*
X938694Y1177001D01*
X939036Y1177000D01*
Y1173000D01*
X937142Y1172900D01*
Y1177100D01*
X937179Y1177081D01*
D02*
G37*
G36*
X253300Y1168040D02*
X253215Y1167764D01*
Y1167446D01*
X253300Y1167085D01*
X253470Y1166682D01*
X253724Y1166237D01*
X254063Y1165749D01*
X254488Y1165218D01*
X255591Y1164031D01*
X253470Y1161909D01*
X252854Y1162503D01*
X251751Y1163437D01*
X251263Y1163776D01*
X250818Y1164031D01*
X250415Y1164200D01*
X250054Y1164285D01*
X249736D01*
X249460Y1164200D01*
X249227Y1164031D01*
X253470Y1168273D01*
X253300Y1168040D01*
D02*
G37*
G36*
X796236Y1158229D02*
X796134Y1158079D01*
X796044Y1157908D01*
X795966Y1157714D01*
X795900Y1157500D01*
X795846Y1157263D01*
X795804Y1157005D01*
X795774Y1156726D01*
X795750Y1156102D01*
X792750D01*
X792744Y1156425D01*
X792696Y1157005D01*
X792654Y1157263D01*
X792600Y1157500D01*
X792534Y1157714D01*
X792456Y1157908D01*
X792366Y1158079D01*
X792264Y1158229D01*
X792150Y1158358D01*
X796350D01*
X796236Y1158229D01*
D02*
G37*
G36*
X778757Y1151984D02*
X778626Y1152082D01*
X778473Y1152170D01*
X778298Y1152247D01*
X778103Y1152314D01*
X777886Y1152371D01*
X777647Y1152418D01*
X777387Y1152454D01*
X776804Y1152495D01*
X776480Y1152500D01*
X776170Y1155500D01*
X776492Y1155507D01*
X777069Y1155560D01*
X777325Y1155607D01*
X777557Y1155667D01*
X777767Y1155740D01*
X777955Y1155827D01*
X778121Y1155927D01*
X778264Y1156041D01*
X778384Y1156168D01*
X778757Y1151984D01*
D02*
G37*
G36*
X843986Y1151729D02*
X843884Y1151579D01*
X843794Y1151408D01*
X843716Y1151214D01*
X843650Y1151000D01*
X843596Y1150763D01*
X843554Y1150505D01*
X843524Y1150226D01*
X843500Y1149602D01*
X840500D01*
X840494Y1149925D01*
X840446Y1150505D01*
X840404Y1150763D01*
X840350Y1151000D01*
X840284Y1151214D01*
X840206Y1151408D01*
X840116Y1151579D01*
X840014Y1151729D01*
X839900Y1151858D01*
X844100D01*
X843986Y1151729D01*
D02*
G37*
G36*
X869664Y1151690D02*
X869538Y1151569D01*
X869425Y1151425D01*
X869325Y1151259D01*
X869239Y1151071D01*
X869166Y1150861D01*
X869106Y1150628D01*
X869060Y1150372D01*
X869027Y1150095D01*
X869007Y1149795D01*
X869000Y1149473D01*
X866000Y1149763D01*
X865995Y1150087D01*
X865953Y1150671D01*
X865917Y1150930D01*
X865870Y1151169D01*
X865812Y1151386D01*
X865745Y1151581D01*
X865666Y1151756D01*
X865578Y1151908D01*
X865479Y1152040D01*
X869664Y1151690D01*
D02*
G37*
G36*
X775970Y1144250D02*
X775799Y1144240D01*
X775620Y1144206D01*
X775435Y1144148D01*
X775244Y1144067D01*
X775045Y1143962D01*
X774840Y1143833D01*
X774628Y1143680D01*
X774409Y1143504D01*
X773951Y1143080D01*
X771829Y1145201D01*
X772053Y1145433D01*
X772430Y1145878D01*
X772583Y1146090D01*
X772712Y1146295D01*
X772817Y1146494D01*
X772898Y1146685D01*
X772956Y1146870D01*
X772990Y1147049D01*
X773000Y1147220D01*
X775970Y1144250D01*
D02*
G37*
G36*
X236123Y1141849D02*
X235116Y1142912D01*
X233203Y1144702D01*
X232297Y1145429D01*
X231424Y1146044D01*
X230586Y1146548D01*
X229781Y1146939D01*
X229009Y1147219D01*
X228271Y1147387D01*
X227567Y1147443D01*
X227671Y1150443D01*
X228348Y1150497D01*
X229073Y1150658D01*
X229846Y1150928D01*
X230667Y1151306D01*
X231537Y1151792D01*
X232454Y1152386D01*
X233419Y1153088D01*
X235493Y1154815D01*
X236603Y1155841D01*
X236123Y1141849D01*
D02*
G37*
G36*
X236359Y1116200D02*
X235301Y1117245D01*
X233307Y1119005D01*
X232372Y1119720D01*
X231477Y1120325D01*
X230623Y1120820D01*
X229809Y1121205D01*
X229036Y1121480D01*
X228304Y1121645D01*
X227613Y1121700D01*
Y1124700D01*
X228304Y1124755D01*
X229036Y1124920D01*
X229809Y1125195D01*
X230623Y1125580D01*
X231477Y1126075D01*
X232372Y1126680D01*
X233307Y1127395D01*
X235301Y1129155D01*
X236359Y1130200D01*
Y1116200D01*
D02*
G37*
G36*
X1294000Y1062000D02*
X1293000Y1061000D01*
X973000D01*
X955000Y1079000D01*
Y1163000D01*
X975934Y1183934D01*
X976119D01*
X978154Y1184479D01*
X979978Y1185533D01*
X981467Y1187022D01*
X982521Y1188846D01*
X983066Y1190881D01*
Y1191066D01*
X1004000Y1212000D01*
Y1298000D01*
X1066000Y1360000D01*
X1094000Y1388000D01*
X1294000D01*
Y1062000D01*
D02*
G37*
G36*
X524515Y1047727D02*
X524560Y1047212D01*
X524635Y1046757D01*
X524740Y1046363D01*
X524875Y1046030D01*
X525040Y1045757D01*
X525235Y1045545D01*
X525460Y1045394D01*
X525715Y1045303D01*
X526000Y1045272D01*
X520000D01*
X520285Y1045303D01*
X520540Y1045394D01*
X520765Y1045545D01*
X520960Y1045757D01*
X521125Y1046030D01*
X521260Y1046363D01*
X521365Y1046757D01*
X521440Y1047212D01*
X521485Y1047727D01*
X521500Y1048303D01*
X524500D01*
X524515Y1047727D01*
D02*
G37*
G36*
X499555Y1050529D02*
X499720Y1049797D01*
X499995Y1049024D01*
X500380Y1048211D01*
X500875Y1047357D01*
X501480Y1046462D01*
X502195Y1045526D01*
X503955Y1043532D01*
X505000Y1042475D01*
X491000D01*
X492045Y1043532D01*
X493805Y1045526D01*
X494520Y1046462D01*
X495125Y1047357D01*
X495620Y1048211D01*
X496005Y1049024D01*
X496280Y1049797D01*
X496445Y1050529D01*
X496500Y1051220D01*
X499500D01*
X499555Y1050529D01*
D02*
G37*
G36*
Y969362D02*
X499720Y968630D01*
X499995Y967858D01*
X500380Y967044D01*
X500875Y966190D01*
X501480Y965295D01*
X502195Y964359D01*
X503955Y962366D01*
X505000Y961308D01*
X491000D01*
X492045Y962366D01*
X493805Y964359D01*
X494520Y965295D01*
X495125Y966190D01*
X495620Y967044D01*
X496005Y967858D01*
X496280Y968630D01*
X496445Y969362D01*
X496500Y970053D01*
X499500D01*
X499555Y969362D01*
D02*
G37*
G36*
X304515Y954560D02*
X304560Y954045D01*
X304635Y953591D01*
X304740Y953197D01*
X304875Y952863D01*
X305040Y952591D01*
X305235Y952378D01*
X305460Y952227D01*
X305715Y952136D01*
X306000Y952106D01*
X300000D01*
X300285Y952136D01*
X300540Y952227D01*
X300765Y952378D01*
X300960Y952591D01*
X301125Y952863D01*
X301260Y953197D01*
X301365Y953591D01*
X301440Y954045D01*
X301485Y954560D01*
X301500Y955136D01*
X304500D01*
X304515Y954560D01*
D02*
G37*
G36*
X532969Y956882D02*
X533060Y956627D01*
X533212Y956402D01*
X533424Y956207D01*
X533697Y956042D01*
X534030Y955907D01*
X534424Y955802D01*
X534879Y955727D01*
X535394Y955682D01*
X535970Y955667D01*
Y952667D01*
X535394Y952652D01*
X534879Y952607D01*
X534424Y952532D01*
X534030Y952427D01*
X533697Y952292D01*
X533424Y952127D01*
X533212Y951932D01*
X533060Y951707D01*
X532969Y951452D01*
X532939Y951167D01*
Y957167D01*
X532969Y956882D01*
D02*
G37*
G36*
X340694Y952340D02*
X340244Y951812D01*
X339843Y951178D01*
X339492Y950437D01*
X339189Y949589D01*
X338935Y948635D01*
X338730Y947575D01*
X338574Y946408D01*
X338409Y943754D01*
X338399Y942267D01*
X328500Y952166D01*
X329987Y952175D01*
X332641Y952340D01*
X333808Y952496D01*
X334869Y952701D01*
X335823Y952955D01*
X336670Y953258D01*
X337411Y953610D01*
X338045Y954011D01*
X338573Y954461D01*
X340694Y952340D01*
D02*
G37*
G36*
X501264Y888453D02*
X501312Y887855D01*
X501459Y887175D01*
X501703Y886413D01*
X502045Y885570D01*
X502485Y884645D01*
X503658Y882550D01*
X505221Y880129D01*
X506150Y878795D01*
X492369Y881264D01*
X493489Y882064D01*
X495375Y883647D01*
X496142Y884429D01*
X496790Y885205D01*
X497320Y885976D01*
X497733Y886740D01*
X498028Y887498D01*
X498204Y888250D01*
X498264Y888997D01*
X501264Y888453D01*
D02*
G37*
G36*
X532969Y875715D02*
X533060Y875460D01*
X533212Y875235D01*
X533424Y875040D01*
X533697Y874875D01*
X534030Y874740D01*
X534424Y874635D01*
X534879Y874560D01*
X535394Y874515D01*
X535970Y874500D01*
Y871500D01*
X535394Y871485D01*
X534879Y871440D01*
X534424Y871365D01*
X534030Y871260D01*
X533697Y871125D01*
X533424Y870960D01*
X533212Y870765D01*
X533060Y870540D01*
X532969Y870285D01*
X532939Y870000D01*
Y876000D01*
X532969Y875715D01*
D02*
G37*
G36*
X915831Y863821D02*
X915814Y863751D01*
X915799Y863646D01*
X915775Y863335D01*
X915751Y862306D01*
X915750Y861964D01*
X911750D01*
X911650Y863858D01*
X915850D01*
X915831Y863821D01*
D02*
G37*
G36*
X1111183Y769947D02*
X1111628Y769570D01*
X1111840Y769417D01*
X1112045Y769288D01*
X1112244Y769183D01*
X1112435Y769102D01*
X1112620Y769044D01*
X1112799Y769010D01*
X1112970Y769000D01*
X1110000Y766030D01*
X1109990Y766201D01*
X1109956Y766380D01*
X1109898Y766565D01*
X1109817Y766756D01*
X1109712Y766955D01*
X1109583Y767160D01*
X1109430Y767372D01*
X1109254Y767591D01*
X1108829Y768049D01*
X1110951Y770171D01*
X1111183Y769947D01*
D02*
G37*
G36*
X773858Y632650D02*
X773729Y632764D01*
X773579Y632866D01*
X773408Y632956D01*
X773214Y633034D01*
X773000Y633100D01*
X772763Y633154D01*
X772505Y633196D01*
X772226Y633226D01*
X771602Y633250D01*
Y636250D01*
X771925Y636256D01*
X772505Y636304D01*
X772763Y636346D01*
X773000Y636400D01*
X773214Y636466D01*
X773408Y636544D01*
X773579Y636634D01*
X773729Y636736D01*
X773858Y636850D01*
Y632650D01*
D02*
G37*
G36*
X882268Y632440D02*
X881000Y631030D01*
X878030Y634000D01*
X878069Y634012D01*
X878131Y634050D01*
X878216Y634113D01*
X878452Y634316D01*
X879197Y635027D01*
X879440Y635268D01*
X882268Y632440D01*
D02*
G37*
G36*
X880081Y628821D02*
X880064Y628750D01*
X880049Y628646D01*
X880025Y628335D01*
X880001Y627306D01*
X880000Y626964D01*
X876000D01*
X875900Y628858D01*
X880100D01*
X880081Y628821D01*
D02*
G37*
G36*
X773908Y624599D02*
X773779Y624709D01*
X773627Y624808D01*
X773455Y624895D01*
X773260Y624970D01*
X773045Y625033D01*
X772808Y625086D01*
X772549Y625126D01*
X772269Y625155D01*
X771645Y625178D01*
X771562Y628178D01*
X771884Y628185D01*
X772464Y628234D01*
X772721Y628278D01*
X772957Y628333D01*
X773171Y628401D01*
X773363Y628482D01*
X773533Y628575D01*
X773681Y628680D01*
X773808Y628798D01*
X773908Y624599D01*
D02*
G37*
G36*
X775970Y615750D02*
X775799Y615740D01*
X775620Y615706D01*
X775435Y615648D01*
X775244Y615567D01*
X775045Y615462D01*
X774840Y615333D01*
X774628Y615180D01*
X774409Y615004D01*
X773951Y614579D01*
X771829Y616701D01*
X772053Y616933D01*
X772430Y617378D01*
X772583Y617590D01*
X772712Y617795D01*
X772817Y617994D01*
X772898Y618185D01*
X772956Y618370D01*
X772990Y618549D01*
X773000Y618720D01*
X775970Y615750D01*
D02*
G37*
G36*
X815271Y605986D02*
X815421Y605884D01*
X815592Y605794D01*
X815786Y605716D01*
X816000Y605650D01*
X816237Y605596D01*
X816495Y605554D01*
X816774Y605524D01*
X817398Y605500D01*
Y602500D01*
X817075Y602494D01*
X816495Y602446D01*
X816237Y602404D01*
X816000Y602350D01*
X815786Y602284D01*
X815592Y602206D01*
X815421Y602116D01*
X815271Y602014D01*
X815142Y601900D01*
Y606100D01*
X815271Y605986D01*
D02*
G37*
G36*
X880100Y415892D02*
X875900D01*
X875919Y415929D01*
X875936Y415999D01*
X875951Y416104D01*
X875975Y416415D01*
X875999Y417444D01*
X876000Y417786D01*
X880000D01*
X880100Y415892D01*
D02*
G37*
G36*
X773923Y414716D02*
X773795Y414830D01*
X773645Y414932D01*
X773473Y415022D01*
X773280Y415100D01*
X773065Y415166D01*
X772829Y415220D01*
X772571Y415262D01*
X772292Y415292D01*
X771668Y415316D01*
Y418316D01*
X771991Y418322D01*
X772571Y418370D01*
X772829Y418412D01*
X773065Y418466D01*
X773280Y418532D01*
X773473Y418610D01*
X773645Y418700D01*
X773795Y418802D01*
X773923Y418916D01*
Y414716D01*
D02*
G37*
G36*
X880081Y411571D02*
X880064Y411501D01*
X880049Y411396D01*
X880025Y411085D01*
X880001Y410056D01*
X880000Y409714D01*
X876000D01*
X875900Y411608D01*
X880100D01*
X880081Y411571D01*
D02*
G37*
G36*
X773858Y406650D02*
X773729Y406764D01*
X773579Y406866D01*
X773408Y406956D01*
X773214Y407034D01*
X773000Y407100D01*
X772763Y407154D01*
X772505Y407196D01*
X772226Y407226D01*
X771602Y407250D01*
Y410250D01*
X771925Y410256D01*
X772505Y410304D01*
X772763Y410346D01*
X773000Y410400D01*
X773214Y410466D01*
X773408Y410544D01*
X773579Y410634D01*
X773729Y410736D01*
X773858Y410850D01*
Y406650D01*
D02*
G37*
G36*
X775970Y397750D02*
X775799Y397740D01*
X775620Y397706D01*
X775435Y397648D01*
X775244Y397567D01*
X775045Y397462D01*
X774840Y397333D01*
X774628Y397180D01*
X774409Y397004D01*
X773951Y396579D01*
X771829Y398701D01*
X772053Y398933D01*
X772430Y399378D01*
X772583Y399590D01*
X772712Y399795D01*
X772817Y399994D01*
X772898Y400185D01*
X772956Y400370D01*
X772990Y400549D01*
X773000Y400720D01*
X775970Y397750D01*
D02*
G37*
G36*
X812933Y390331D02*
X812991Y389758D01*
X813042Y389508D01*
X813107Y389281D01*
X813187Y389078D01*
X813281Y388899D01*
X813390Y388744D01*
X813513Y388612D01*
X813651Y388505D01*
X809529Y387701D01*
X809604Y387827D01*
X809672Y387976D01*
X809731Y388147D01*
X809783Y388341D01*
X809827Y388556D01*
X809890Y389054D01*
X809910Y389336D01*
X809926Y389968D01*
X812926Y390653D01*
X812933Y390331D01*
D02*
G37*
G36*
X880100Y194142D02*
X875900D01*
X875919Y194179D01*
X875936Y194249D01*
X875951Y194354D01*
X875975Y194665D01*
X875999Y195694D01*
X876000Y196036D01*
X880000D01*
X880100Y194142D01*
D02*
G37*
G36*
X774147Y190483D02*
X774592Y190108D01*
X774805Y189957D01*
X775011Y189830D01*
X775210Y189728D01*
X775403Y189649D01*
X775590Y189595D01*
X775769Y189565D01*
X775942Y189559D01*
X773055Y186510D01*
X773040Y186679D01*
X773002Y186855D01*
X772941Y187038D01*
X772857Y187229D01*
X772749Y187426D01*
X772618Y187631D01*
X772464Y187842D01*
X772085Y188286D01*
X771861Y188518D01*
X773915Y190707D01*
X774147Y190483D01*
D02*
G37*
G36*
X774183Y182447D02*
X774628Y182070D01*
X774840Y181917D01*
X775045Y181788D01*
X775244Y181683D01*
X775435Y181602D01*
X775620Y181544D01*
X775799Y181510D01*
X775970Y181500D01*
X773000Y178530D01*
X772990Y178701D01*
X772956Y178880D01*
X772898Y179065D01*
X772817Y179256D01*
X772712Y179455D01*
X772583Y179660D01*
X772430Y179872D01*
X772254Y180091D01*
X771829Y180549D01*
X773951Y182671D01*
X774183Y182447D01*
D02*
G37*
G36*
X773858Y168400D02*
X773729Y168514D01*
X773579Y168616D01*
X773408Y168706D01*
X773214Y168784D01*
X773000Y168850D01*
X772763Y168904D01*
X772505Y168946D01*
X772226Y168976D01*
X771602Y169000D01*
Y172000D01*
X771925Y172006D01*
X772505Y172054D01*
X772763Y172096D01*
X773000Y172150D01*
X773214Y172216D01*
X773408Y172294D01*
X773579Y172384D01*
X773729Y172486D01*
X773858Y172600D01*
Y168400D01*
D02*
G37*
G36*
X815506Y166075D02*
X815554Y165495D01*
X815596Y165237D01*
X815650Y165000D01*
X815716Y164786D01*
X815794Y164592D01*
X815884Y164421D01*
X815986Y164271D01*
X816100Y164142D01*
X811900D01*
X812014Y164271D01*
X812116Y164421D01*
X812206Y164592D01*
X812284Y164786D01*
X812350Y165000D01*
X812404Y165237D01*
X812446Y165495D01*
X812476Y165774D01*
X812500Y166398D01*
X815500D01*
X815506Y166075D01*
D02*
G37*
%LPC*%
G36*
X1250828Y1363392D02*
Y1358000D01*
X1256220D01*
X1255030Y1360061D01*
X1252889Y1362202D01*
X1250828Y1363392D01*
D02*
G37*
G36*
X1240828Y1363392D02*
X1238767Y1362202D01*
X1236626Y1360061D01*
X1235436Y1358000D01*
X1240828D01*
Y1363392D01*
D02*
G37*
G36*
X1256220Y1348000D02*
X1250828D01*
Y1342608D01*
X1252889Y1343798D01*
X1255030Y1345939D01*
X1256220Y1348000D01*
D02*
G37*
G36*
X1240828D02*
X1235436D01*
X1236626Y1345939D01*
X1238767Y1343798D01*
X1240828Y1342608D01*
Y1348000D01*
D02*
G37*
G36*
X1259328Y1316500D02*
X1232328D01*
Y1289500D01*
X1259328D01*
Y1316500D01*
D02*
G37*
G36*
X1280014Y1274500D02*
X1276986D01*
X1274061Y1273716D01*
X1271439Y1272202D01*
X1269298Y1270061D01*
X1267784Y1267439D01*
X1267000Y1264514D01*
Y1261486D01*
X1267784Y1258561D01*
X1269298Y1255939D01*
X1271439Y1253798D01*
X1274061Y1252284D01*
X1276986Y1251500D01*
X1280014D01*
X1282939Y1252284D01*
X1285561Y1253798D01*
X1287702Y1255939D01*
X1289216Y1258561D01*
X1290000Y1261486D01*
Y1264514D01*
X1289216Y1267439D01*
X1287702Y1270061D01*
X1285561Y1272202D01*
X1282939Y1273716D01*
X1280014Y1274500D01*
D02*
G37*
G36*
X1255014D02*
X1251986D01*
X1249061Y1273716D01*
X1246439Y1272202D01*
X1244298Y1270061D01*
X1242784Y1267439D01*
X1242000Y1264514D01*
Y1261486D01*
X1242784Y1258561D01*
X1244298Y1255939D01*
X1246439Y1253798D01*
X1249061Y1252284D01*
X1251986Y1251500D01*
X1255014D01*
X1257939Y1252284D01*
X1260561Y1253798D01*
X1262702Y1255939D01*
X1264216Y1258561D01*
X1265000Y1261486D01*
Y1264514D01*
X1264216Y1267439D01*
X1262702Y1270061D01*
X1260561Y1272202D01*
X1257939Y1273716D01*
X1255014Y1274500D01*
D02*
G37*
G36*
X1049477Y1260000D02*
X1046523D01*
X1043625Y1259424D01*
X1040895Y1258293D01*
X1038438Y1256651D01*
X1036349Y1254562D01*
X1034707Y1252105D01*
X1033577Y1249375D01*
X1033000Y1246477D01*
Y1243523D01*
X1033577Y1240625D01*
X1034707Y1237895D01*
X1036349Y1235438D01*
X1038438Y1233349D01*
X1040895Y1231707D01*
X1043625Y1230576D01*
X1046523Y1230000D01*
X1049477D01*
X1052375Y1230576D01*
X1055105Y1231707D01*
X1057562Y1233349D01*
X1059651Y1235438D01*
X1061293Y1237895D01*
X1062424Y1240625D01*
X1063000Y1243523D01*
Y1246477D01*
X1062424Y1249375D01*
X1061293Y1252105D01*
X1059651Y1254562D01*
X1057562Y1256651D01*
X1055105Y1258293D01*
X1052375Y1259424D01*
X1049477Y1260000D01*
D02*
G37*
G36*
X1265500Y1228500D02*
X1258500D01*
Y1218000D01*
X1265500D01*
Y1228500D01*
D02*
G37*
G36*
X1248500D02*
X1241500D01*
Y1218000D01*
X1248500D01*
Y1228500D01*
D02*
G37*
G36*
X1053500Y1222836D02*
Y1216500D01*
X1059836D01*
X1058403Y1218982D01*
X1055982Y1221403D01*
X1053500Y1222836D01*
D02*
G37*
G36*
X1042500D02*
X1040018Y1221403D01*
X1037598Y1218982D01*
X1036164Y1216500D01*
X1042500D01*
Y1222836D01*
D02*
G37*
G36*
X1088477Y1243000D02*
X1085523D01*
X1082625Y1242424D01*
X1079895Y1241293D01*
X1077438Y1239651D01*
X1075349Y1237562D01*
X1073707Y1235105D01*
X1072577Y1232375D01*
X1072000Y1229477D01*
Y1226523D01*
X1072577Y1223625D01*
X1073707Y1220895D01*
X1075349Y1218438D01*
X1077438Y1216349D01*
X1079895Y1214707D01*
X1082625Y1213577D01*
X1085523Y1213000D01*
X1088477D01*
X1091375Y1213577D01*
X1094105Y1214707D01*
X1096562Y1216349D01*
X1098651Y1218438D01*
X1100293Y1220895D01*
X1101424Y1223625D01*
X1102000Y1226523D01*
Y1229477D01*
X1101424Y1232375D01*
X1100293Y1235105D01*
X1098651Y1237562D01*
X1096562Y1239651D01*
X1094105Y1241293D01*
X1091375Y1242424D01*
X1088477Y1243000D01*
D02*
G37*
G36*
X1059836Y1205500D02*
X1053500D01*
Y1199164D01*
X1055982Y1200598D01*
X1058403Y1203018D01*
X1059836Y1205500D01*
D02*
G37*
G36*
X1042500D02*
X1036164D01*
X1037598Y1203018D01*
X1040018Y1200598D01*
X1042500Y1199164D01*
Y1205500D01*
D02*
G37*
G36*
X1265500Y1208000D02*
X1258500D01*
Y1197500D01*
X1265500D01*
Y1208000D01*
D02*
G37*
G36*
X1248500D02*
X1241500D01*
Y1197500D01*
X1248500D01*
Y1208000D01*
D02*
G37*
G36*
X1088477Y1209000D02*
X1085523D01*
X1082625Y1208424D01*
X1079895Y1207293D01*
X1077438Y1205651D01*
X1075349Y1203562D01*
X1073707Y1201105D01*
X1072577Y1198375D01*
X1072000Y1195477D01*
Y1192523D01*
X1072577Y1189625D01*
X1073707Y1186895D01*
X1075349Y1184438D01*
X1077438Y1182349D01*
X1079895Y1180707D01*
X1082625Y1179576D01*
X1085523Y1179000D01*
X1088477D01*
X1091375Y1179576D01*
X1094105Y1180707D01*
X1096562Y1182349D01*
X1098651Y1184438D01*
X1100293Y1186895D01*
X1101424Y1189625D01*
X1102000Y1192523D01*
Y1195477D01*
X1101424Y1198375D01*
X1100293Y1201105D01*
X1098651Y1203562D01*
X1096562Y1205651D01*
X1094105Y1207293D01*
X1091375Y1208424D01*
X1088477Y1209000D01*
D02*
G37*
G36*
X1063000Y1192000D02*
X1033000D01*
Y1162000D01*
X1063000D01*
Y1192000D01*
D02*
G37*
G36*
X1280014Y1174500D02*
X1276986D01*
X1274061Y1173716D01*
X1271439Y1172202D01*
X1269298Y1170061D01*
X1267784Y1167439D01*
X1267000Y1164514D01*
Y1161486D01*
X1267784Y1158561D01*
X1269298Y1155939D01*
X1271439Y1153798D01*
X1274061Y1152284D01*
X1276986Y1151500D01*
X1280014D01*
X1282939Y1152284D01*
X1285561Y1153798D01*
X1287702Y1155939D01*
X1289216Y1158561D01*
X1290000Y1161486D01*
Y1164514D01*
X1289216Y1167439D01*
X1287702Y1170061D01*
X1285561Y1172202D01*
X1282939Y1173716D01*
X1280014Y1174500D01*
D02*
G37*
G36*
X1255014D02*
X1251986D01*
X1249061Y1173716D01*
X1246439Y1172202D01*
X1244298Y1170061D01*
X1242784Y1167439D01*
X1242000Y1164514D01*
Y1161486D01*
X1242784Y1158561D01*
X1244298Y1155939D01*
X1246439Y1153798D01*
X1249061Y1152284D01*
X1251986Y1151500D01*
X1255014D01*
X1257939Y1152284D01*
X1260561Y1153798D01*
X1262702Y1155939D01*
X1264216Y1158561D01*
X1265000Y1161486D01*
Y1164514D01*
X1264216Y1167439D01*
X1262702Y1170061D01*
X1260561Y1172202D01*
X1257939Y1173716D01*
X1255014Y1174500D01*
D02*
G37*
G36*
X1221000Y1277000D02*
X1186000D01*
Y1249000D01*
Y1224000D01*
X1196754D01*
X1197094Y1222730D01*
X1196439Y1222352D01*
X1194298Y1220210D01*
X1192784Y1217588D01*
X1192000Y1214663D01*
Y1211635D01*
X1192784Y1208710D01*
X1194298Y1206088D01*
X1196439Y1203947D01*
X1197611Y1203270D01*
X1197271Y1202000D01*
X1186000D01*
Y1174000D01*
Y1149000D01*
X1221000D01*
Y1174000D01*
Y1202000D01*
X1209729D01*
X1209388Y1203270D01*
X1210561Y1203947D01*
X1212702Y1206088D01*
X1214216Y1208710D01*
X1215000Y1211635D01*
Y1214663D01*
X1214216Y1217588D01*
X1212702Y1220210D01*
X1210561Y1222352D01*
X1209906Y1222730D01*
X1210246Y1224000D01*
X1221000D01*
Y1249000D01*
Y1277000D01*
D02*
G37*
G36*
X1286670Y1146170D02*
X1260670D01*
Y1140232D01*
X1259400Y1139892D01*
X1258673Y1141152D01*
X1256252Y1143573D01*
X1253288Y1145284D01*
X1249982Y1146170D01*
X1246559D01*
X1243252Y1145284D01*
X1240288Y1143573D01*
X1237868Y1141152D01*
X1236254Y1138357D01*
X1235570Y1138266D01*
X1234886Y1138357D01*
X1233273Y1141152D01*
X1230852Y1143573D01*
X1227888Y1145284D01*
X1224582Y1146170D01*
X1221159D01*
X1217852Y1145284D01*
X1214888Y1143573D01*
X1212467Y1141152D01*
X1210854Y1138357D01*
X1210170Y1138266D01*
X1209486Y1138357D01*
X1207873Y1141152D01*
X1205452Y1143573D01*
X1202488Y1145284D01*
X1199182Y1146170D01*
X1195759D01*
X1192452Y1145284D01*
X1189488Y1143573D01*
X1187067Y1141152D01*
X1185454Y1138357D01*
X1184770Y1138266D01*
X1184087Y1138357D01*
X1182473Y1141152D01*
X1180052Y1143573D01*
X1177088Y1145284D01*
X1173782Y1146170D01*
X1170359D01*
X1167052Y1145284D01*
X1164088Y1143573D01*
X1161667Y1141152D01*
X1160054Y1138357D01*
X1159370Y1138266D01*
X1158687Y1138357D01*
X1157073Y1141152D01*
X1154652Y1143573D01*
X1151688Y1145284D01*
X1148382Y1146170D01*
X1144958D01*
X1141652Y1145284D01*
X1138688Y1143573D01*
X1136267Y1141152D01*
X1134556Y1138188D01*
X1133670Y1134882D01*
Y1131459D01*
X1134556Y1128152D01*
X1136267Y1125188D01*
X1138688Y1122767D01*
X1141652Y1121056D01*
X1144958Y1120170D01*
X1148382D01*
X1151688Y1121056D01*
X1154652Y1122767D01*
X1157073Y1125188D01*
X1158687Y1127983D01*
X1159370Y1128074D01*
X1160054Y1127983D01*
X1161667Y1125188D01*
X1164088Y1122767D01*
X1167052Y1121056D01*
X1170359Y1120170D01*
X1173782D01*
X1177088Y1121056D01*
X1180052Y1122767D01*
X1182473Y1125188D01*
X1184087Y1127983D01*
X1184770Y1128074D01*
X1185454Y1127983D01*
X1187067Y1125188D01*
X1189488Y1122767D01*
X1192452Y1121056D01*
X1195759Y1120170D01*
X1199182D01*
X1202488Y1121056D01*
X1205452Y1122767D01*
X1207873Y1125188D01*
X1209486Y1127983D01*
X1210170Y1128074D01*
X1210854Y1127983D01*
X1212467Y1125188D01*
X1214888Y1122767D01*
X1217852Y1121056D01*
X1221159Y1120170D01*
X1224582D01*
X1227888Y1121056D01*
X1230852Y1122767D01*
X1233273Y1125188D01*
X1234886Y1127983D01*
X1235570Y1128074D01*
X1236254Y1127983D01*
X1237868Y1125188D01*
X1240288Y1122767D01*
X1243252Y1121056D01*
X1246559Y1120170D01*
X1249982D01*
X1253288Y1121056D01*
X1256252Y1122767D01*
X1258673Y1125188D01*
X1259400Y1126448D01*
X1260670Y1126108D01*
Y1120170D01*
X1286670D01*
Y1146170D01*
D02*
G37*
G36*
X1059500Y1144836D02*
Y1138500D01*
X1065836D01*
X1064403Y1140982D01*
X1061982Y1143403D01*
X1059500Y1144836D01*
D02*
G37*
G36*
X1048500Y1144836D02*
X1046018Y1143403D01*
X1043597Y1140982D01*
X1042164Y1138500D01*
X1048500D01*
Y1144836D01*
D02*
G37*
G36*
X1125270Y1143486D02*
Y1137170D01*
X1131586D01*
X1131520Y1137416D01*
X1130072Y1139924D01*
X1128024Y1141972D01*
X1125516Y1143420D01*
X1125270Y1143486D01*
D02*
G37*
G36*
X1117270Y1143486D02*
X1117024Y1143420D01*
X1114516Y1141972D01*
X1112468Y1139924D01*
X1111020Y1137416D01*
X1110954Y1137170D01*
X1117270D01*
Y1143486D01*
D02*
G37*
G36*
Y1129170D02*
X1110954D01*
X1111020Y1128924D01*
X1112468Y1126416D01*
X1114516Y1124368D01*
X1117024Y1122920D01*
X1117270Y1122854D01*
Y1129170D01*
D02*
G37*
G36*
X1131586D02*
X1125270D01*
Y1122854D01*
X1125516Y1122920D01*
X1128024Y1124368D01*
X1130072Y1126416D01*
X1131520Y1128924D01*
X1131586Y1129170D01*
D02*
G37*
G36*
X1065836Y1127500D02*
X1059500D01*
Y1121164D01*
X1061982Y1122597D01*
X1064403Y1125018D01*
X1065836Y1127500D01*
D02*
G37*
G36*
X1048500D02*
X1042164D01*
X1043597Y1125018D01*
X1046018Y1122597D01*
X1048500Y1121164D01*
Y1127500D01*
D02*
G37*
G36*
X1097581Y1146170D02*
X1094158D01*
X1090852Y1145284D01*
X1087888Y1143573D01*
X1085468Y1141152D01*
X1083756Y1138188D01*
X1082870Y1134882D01*
Y1131459D01*
X1083756Y1128152D01*
X1085468Y1125188D01*
X1087888Y1122767D01*
X1090852Y1121056D01*
X1094158Y1120170D01*
X1097581D01*
X1100888Y1121056D01*
X1103852Y1122767D01*
X1106273Y1125188D01*
X1107984Y1128152D01*
X1108870Y1131459D01*
Y1134882D01*
X1107984Y1138188D01*
X1106273Y1141152D01*
X1103852Y1143573D01*
X1100888Y1145284D01*
X1097581Y1146170D01*
D02*
G37*
G36*
X1232053Y1109000D02*
X1229947D01*
X1227912Y1108455D01*
X1226088Y1107402D01*
X1224598Y1105912D01*
X1223545Y1104088D01*
X1223000Y1102053D01*
Y1099947D01*
X1223545Y1097912D01*
X1224598Y1096088D01*
X1226088Y1094598D01*
X1227912Y1093545D01*
X1229947Y1093000D01*
X1232053D01*
X1234088Y1093545D01*
X1235912Y1094598D01*
X1237402Y1096088D01*
X1238455Y1097912D01*
X1239000Y1099947D01*
Y1102053D01*
X1238455Y1104088D01*
X1237402Y1105912D01*
X1235912Y1107402D01*
X1234088Y1108455D01*
X1232053Y1109000D01*
D02*
G37*
G36*
X1005477Y1123000D02*
X1002523D01*
X999625Y1122424D01*
X996895Y1121293D01*
X994438Y1119651D01*
X992349Y1117562D01*
X990707Y1115105D01*
X989576Y1112375D01*
X989000Y1109477D01*
Y1106523D01*
X989576Y1103625D01*
X990707Y1100895D01*
X992349Y1098438D01*
X994438Y1096349D01*
X996895Y1094707D01*
X999625Y1093577D01*
X1002523Y1093000D01*
X1005477D01*
X1008375Y1093577D01*
X1011105Y1094707D01*
X1013562Y1096349D01*
X1015651Y1098438D01*
X1017293Y1100895D01*
X1018423Y1103625D01*
X1019000Y1106523D01*
Y1109477D01*
X1018423Y1112375D01*
X1017293Y1115105D01*
X1015651Y1117562D01*
X1013562Y1119651D01*
X1011105Y1121293D01*
X1008375Y1122424D01*
X1005477Y1123000D01*
D02*
G37*
G36*
X1055477Y1098000D02*
X1052523D01*
X1049625Y1097424D01*
X1046895Y1096293D01*
X1044438Y1094651D01*
X1042349Y1092562D01*
X1040707Y1090105D01*
X1039576Y1087375D01*
X1039000Y1084477D01*
Y1081523D01*
X1039576Y1078625D01*
X1040707Y1075895D01*
X1042349Y1073438D01*
X1044438Y1071349D01*
X1046895Y1069707D01*
X1049625Y1068577D01*
X1052523Y1068000D01*
X1055477D01*
X1058375Y1068577D01*
X1061105Y1069707D01*
X1063562Y1071349D01*
X1065651Y1073438D01*
X1067293Y1075895D01*
X1068423Y1078625D01*
X1069000Y1081523D01*
Y1084477D01*
X1068423Y1087375D01*
X1067293Y1090105D01*
X1065651Y1092562D01*
X1063562Y1094651D01*
X1061105Y1096293D01*
X1058375Y1097424D01*
X1055477Y1098000D01*
D02*
G37*
%LPD*%
D14*
X878000Y631000D02*
X913750Y666750D01*
Y866000D01*
X948000Y1175000D02*
X970000Y1197000D01*
Y1295000D01*
X935000Y1175000D02*
X948000D01*
X947500Y1317500D02*
X970000Y1295000D01*
X895000Y1317500D02*
X947500D01*
X878000Y413750D02*
Y631000D01*
Y192000D02*
Y413750D01*
D15*
X213000Y1158200D02*
X222257Y1148943D01*
X213000Y1158200D02*
Y1257500D01*
X222257Y1148943D02*
X243157D01*
X642000Y1030000D02*
X683500D01*
X787250Y1133750D02*
Y1144863D01*
X683500Y1030000D02*
X787250Y1133750D01*
X566200Y1099100D02*
X727850D01*
X523000Y1055900D02*
X566200Y1099100D01*
X727850D02*
X776000Y1147250D01*
X583000Y983000D02*
X692500Y1092500D01*
X734500D01*
X523000Y1035333D02*
Y1055900D01*
X509900Y1072800D02*
X524700D01*
X605900Y1154000D01*
X498000Y1060900D02*
X509900Y1072800D01*
X498000Y1035333D02*
Y1060900D01*
X605900Y1154000D02*
X780438D01*
X507500Y901900D02*
X568032D01*
X499763Y894164D02*
X507500Y901900D01*
X568032D02*
X801269Y1135137D01*
X499763Y874763D02*
Y894164D01*
X506600Y983000D02*
X583000D01*
X498000Y954167D02*
Y974400D01*
X506600Y983000D01*
X498000Y873000D02*
X499763Y874763D01*
X326500Y985000D02*
X400000D01*
X303000Y961500D02*
X326500Y985000D01*
X303000Y942167D02*
Y961500D01*
X207500Y1135000D02*
Y1277000D01*
Y1135000D02*
X219300Y1123200D01*
X243500D01*
X243157Y1148943D02*
X243500Y1148600D01*
X572000Y506000D02*
X641400Y436600D01*
X791603D01*
X811426Y416777D01*
X565000Y501000D02*
X635800Y430200D01*
X737800D02*
X751184Y416816D01*
X635800Y430200D02*
X737800D01*
X733900Y424100D02*
X749250Y408750D01*
X633900Y424100D02*
X733900D01*
X557500Y500500D02*
X633900Y424100D01*
X862000Y1105000D02*
Y1231000D01*
X565000Y808000D02*
X862000Y1105000D01*
X751762Y1335000D02*
X814401Y1272362D01*
X562500Y1335000D02*
X751762D01*
X464003Y1433497D02*
X562500Y1335000D01*
X904500Y1283500D02*
X940000Y1248000D01*
X818819Y1283500D02*
X904500D01*
X912000Y1289000D02*
X939426Y1261574D01*
X939000Y1259000D02*
X939426Y1259426D01*
Y1261574D01*
X816541Y1278000D02*
X900000D01*
X940000Y1238000D01*
X821097Y1289000D02*
X912000D01*
X590000Y664000D02*
X608000Y646000D01*
X730000D01*
X749322Y626678D01*
X735000Y653000D02*
X753250Y634750D01*
X776000D01*
X611000Y653000D02*
X735000D01*
X598000Y666000D02*
X611000Y653000D01*
X542000Y252000D02*
X592000Y202000D01*
X542000Y252000D02*
Y834444D01*
X840743Y1133187D01*
X535000Y835222D02*
X835243Y1135465D01*
X535000Y249000D02*
Y835222D01*
Y249000D02*
X588000Y196000D01*
X846243Y1130909D02*
Y1130965D01*
X550000Y496000D02*
Y834666D01*
X835243Y1135830D02*
X836066Y1136653D01*
X527000Y835000D02*
X829743Y1137743D01*
X835243Y1135465D02*
Y1135830D01*
X840743Y1133243D02*
X842000Y1134500D01*
X840743Y1133187D02*
Y1133243D01*
X527000Y247000D02*
Y835000D01*
X550000Y834666D02*
X846243Y1130909D01*
Y1130965D02*
X849000Y1133722D01*
X527000Y247000D02*
X591750Y182250D01*
X518000Y246000D02*
Y834000D01*
Y246000D02*
X593500Y170500D01*
X518000Y834000D02*
X823993Y1139993D01*
X540000Y1285000D02*
X793984D01*
X525000Y1300000D02*
X540000Y1285000D01*
X793984D02*
X814000Y1264984D01*
X458000Y1300000D02*
X525000D01*
X416481Y1341519D02*
Y1386519D01*
Y1341519D02*
X458000Y1300000D01*
X456500Y1292500D02*
X523347D01*
X410981Y1338019D02*
Y1381019D01*
Y1338019D02*
X456500Y1292500D01*
X303000Y1387000D02*
X320000Y1404000D01*
X399000D02*
X416481Y1386519D01*
X320000Y1404000D02*
X399000D01*
X394000Y1398000D02*
X410981Y1381019D01*
X324000Y1398000D02*
X394000D01*
X312000Y1386000D02*
X324000Y1398000D01*
X303000Y1343000D02*
Y1387000D01*
X277500Y1317500D02*
X303000Y1343000D01*
X263500Y1292500D02*
X312000Y1341000D01*
X248000Y1292500D02*
X263500D01*
X312000Y1341000D02*
Y1386000D01*
X248000Y1317500D02*
X277500D01*
X207500Y1277000D02*
X248000Y1317500D01*
X213000Y1257500D02*
X248000Y1292500D01*
X404750Y1192250D02*
X435000Y1222500D01*
X293000Y1026000D02*
Y1124500D01*
X243500Y1174000D02*
X293000Y1124500D01*
X404750Y1032750D02*
Y1192250D01*
X383000Y1011000D02*
X404750Y1032750D01*
X308000Y1011000D02*
X383000D01*
X293000Y1026000D02*
X308000Y1011000D01*
X435000Y1222500D02*
X735000D01*
X547000Y873000D02*
X807500Y1133500D01*
Y1230000D01*
X572000Y807000D02*
X867500Y1102500D01*
Y1153750D01*
X328400Y942167D02*
X356233Y970000D01*
X395000D01*
X873500Y1129000D02*
Y1228688D01*
X879889Y1098626D02*
Y1122611D01*
X873500Y1129000D02*
X879889Y1122611D01*
X881684Y1132316D02*
X887000Y1127000D01*
X881684Y1132316D02*
Y1225684D01*
X582000Y800737D02*
X879889Y1098626D01*
X887000Y1097958D02*
Y1127000D01*
X582000Y654000D02*
Y800737D01*
X590000Y664000D02*
Y800958D01*
X887000Y1097958D01*
X893184Y1093184D02*
Y1211063D01*
X900000Y670000D02*
Y1141188D01*
X572000Y506000D02*
Y807000D01*
X799988Y1074988D02*
X855000Y1130000D01*
Y1236000D01*
X565000Y501000D02*
Y808000D01*
X799988Y1067988D02*
Y1074988D01*
X849000Y1133722D02*
Y1230750D01*
X842000Y1134500D02*
Y1154000D01*
X829743Y1137743D02*
Y1233743D01*
X836066Y1136653D02*
Y1230871D01*
X823993Y1139993D02*
Y1229195D01*
X557500Y500500D02*
Y825500D01*
X799988Y1067988D01*
X780438Y1154000D02*
X780705Y1154266D01*
X734500Y1092500D02*
X781750Y1139750D01*
Y1147141D01*
X787250Y1144863D02*
X794250Y1151863D01*
Y1160500D01*
X781750Y1147141D02*
X787000Y1152391D01*
Y1181000D01*
X801269Y1135137D02*
Y1231547D01*
X832432Y1262710D01*
X807500Y1230000D02*
X832500Y1255000D01*
X617000Y1177000D02*
X745000D01*
X916000Y963000D02*
X1113000Y766000D01*
X916000Y963000D02*
Y1205132D01*
X625826Y1193604D02*
X746396D01*
X872000Y1230188D02*
Y1231000D01*
Y1230188D02*
X873500Y1228688D01*
X813000Y604000D02*
X834000D01*
X900000Y670000D01*
X431000Y1471020D02*
X443980D01*
X464003Y1433497D02*
Y1450997D01*
X443980Y1471020D02*
X464003Y1450997D01*
X513000Y1407000D02*
Y1449000D01*
Y1407000D02*
X567500Y1352500D01*
X504574Y1405982D02*
X565556Y1345000D01*
X567500Y1352500D02*
X749819D01*
X565556Y1345000D02*
X749541D01*
X504574Y1405982D02*
Y1446426D01*
X570000Y1362500D02*
X747597D01*
X519000Y1413500D02*
X570000Y1362500D01*
X519000Y1413500D02*
Y1456000D01*
X504000Y1447000D02*
X504574Y1446426D01*
Y1454426D02*
X507574D01*
X504000Y1455000D02*
X504574Y1454426D01*
X507574D02*
X513000Y1449000D01*
X512000Y1463000D02*
X519000Y1456000D01*
X504000Y1463000D02*
X512000D01*
X566167Y954167D02*
X642000Y1030000D01*
X523000Y954167D02*
X566167D01*
X523000Y873000D02*
X547000D01*
X729500Y1397500D02*
X827000Y1300000D01*
X641750Y1397500D02*
X729500D01*
X817511Y1300364D02*
X817864D01*
X727875Y1390000D02*
X817511Y1300364D01*
X728000Y1414500D02*
X835426Y1307074D01*
Y1300574D02*
X836000Y1300000D01*
X835426Y1300574D02*
Y1307074D01*
X832500Y1255000D02*
X841250D01*
X849250Y1263000D01*
X704500Y1414500D02*
X728000D01*
X538347Y1277500D02*
X792500D01*
X802500Y1267500D01*
X749541Y1345000D02*
X816541Y1278000D01*
X749819Y1352500D02*
X818819Y1283500D01*
X747597Y1362500D02*
X821097Y1289000D01*
X613000Y1390000D02*
X727875D01*
X577500Y1310000D02*
X742500D01*
X467000Y1420500D02*
X577500Y1310000D01*
X286000Y1420500D02*
X467000D01*
X462500Y1415000D02*
X575000Y1302500D01*
X266100Y1415000D02*
X462500D01*
X575000Y1302500D02*
X742500D01*
X814401Y1272362D02*
X870954D01*
X523347Y1292500D02*
X538347Y1277500D01*
X624750Y1414500D02*
X641750Y1397500D01*
X588500Y1414500D02*
X613000Y1390000D01*
X545000Y1414500D02*
X588500D01*
X247000Y1459500D02*
X286000Y1420500D01*
X247000Y1434100D02*
X266100Y1415000D01*
X880000Y1263000D02*
Y1263316D01*
X870954Y1272362D02*
X880000Y1263316D01*
X519722Y1087500D02*
X625826Y1193604D01*
X522000Y1082000D02*
X617000Y1177000D01*
X412000Y1039500D02*
X460000Y1087500D01*
X519722D01*
X417500Y1035000D02*
X464500Y1082000D01*
X522000D01*
X417500Y992500D02*
Y1035000D01*
X412000Y997000D02*
Y1039500D01*
X395000Y970000D02*
X417500Y992500D01*
X400000Y985000D02*
X412000Y997000D01*
X822455Y1230733D02*
X823993Y1229195D01*
X822455Y1230733D02*
Y1231545D01*
X829743Y1233743D02*
X845426Y1249426D01*
X832432Y1262710D02*
X840828D01*
X841402Y1263284D01*
X598000Y798000D02*
X893184Y1093184D01*
X881684Y1225684D02*
X882000Y1226000D01*
X893426Y1211305D02*
Y1213426D01*
X893184Y1211063D02*
X893426Y1211305D01*
Y1213426D02*
X894000Y1214000D01*
X855000Y1236000D02*
X858426Y1239426D01*
X848750Y1231000D02*
X849000Y1230750D01*
X858426Y1239426D02*
X863426D01*
X864000Y1240000D01*
X900000Y1141188D02*
X901934Y1143122D01*
Y1143934D01*
X835936Y1231000D02*
X836066Y1230871D01*
X867500Y1153750D02*
X867750Y1154000D01*
X880000Y1241132D02*
X916000Y1205132D01*
X880000Y1241132D02*
Y1263000D01*
X550000Y496000D02*
X658000Y388000D01*
X598000Y666000D02*
Y798000D01*
X749322Y626678D02*
X775928D01*
X776000Y626750D01*
X761250Y604000D02*
X776000Y618750D01*
X632000Y604000D02*
X761250D01*
X582000Y654000D02*
X632000Y604000D01*
X811426Y386574D02*
Y416777D01*
X751184Y416816D02*
X776066D01*
X749250Y408750D02*
X776000D01*
X811426Y386574D02*
X812000Y386000D01*
X763250Y388000D02*
X776000Y400750D01*
X658000Y388000D02*
X763250D01*
X588000Y196000D02*
X766500D01*
X779297Y202000D02*
X814000Y167297D01*
X592000Y202000D02*
X779297D01*
X766500Y196000D02*
X775938Y186562D01*
X593500Y170500D02*
X776000D01*
X814000Y162000D02*
Y167297D01*
X775938Y186562D02*
X776054D01*
X772250Y182250D02*
X776000Y178500D01*
X591750Y182250D02*
X772250D01*
X845426Y1249426D02*
X861426D01*
X862000Y1250000D01*
D76*
X1245828Y1353000D02*
D03*
D141*
X247000Y1434100D02*
D03*
X248000Y1292500D02*
D03*
X498000Y873000D02*
D03*
Y954167D02*
D03*
Y1035333D02*
D03*
X328400Y942167D02*
D03*
X243500Y1123200D02*
D03*
Y1148600D02*
D03*
X431000Y1471020D02*
D03*
X1054000Y1133000D02*
D03*
X1048000Y1211000D02*
D03*
D142*
X523000Y873000D02*
D03*
Y954167D02*
D03*
Y1035333D02*
D03*
X303000Y942167D02*
D03*
D145*
X1253500Y1213000D02*
D03*
D149*
X1121270Y1133170D02*
D03*
D151*
X247000Y1459500D02*
D03*
X248000Y1317500D02*
D03*
X243500Y1174000D02*
D03*
X624750Y1414500D02*
D03*
X545000D02*
D03*
X704500D02*
D03*
D156*
X973000Y1078100D02*
D03*
X978600Y1086300D02*
D03*
X984200Y1078100D02*
D03*
X967400Y1086300D02*
D03*
X940000Y1238000D02*
D03*
Y1259000D02*
D03*
Y1248000D02*
D03*
X735000Y1222500D02*
D03*
X780705Y1154266D02*
D03*
X794250Y1160500D02*
D03*
X776000Y1147250D02*
D03*
X745000Y1177000D02*
D03*
X1130000Y1274000D02*
D03*
X1160000D02*
D03*
X787000Y1181000D02*
D03*
X746396Y1193604D02*
D03*
X842000Y1154000D02*
D03*
X872000Y1231000D02*
D03*
X813000Y604000D02*
D03*
X504000Y1447000D02*
D03*
Y1455000D02*
D03*
Y1463000D02*
D03*
X935000Y1175000D02*
D03*
X827000Y1300000D02*
D03*
X817864Y1300364D02*
D03*
X836000Y1300000D02*
D03*
X802500Y1267500D02*
D03*
X1024000Y1311750D02*
D03*
X1074000D02*
D03*
X1120000Y1330000D02*
D03*
X742500Y1310000D02*
D03*
Y1302500D02*
D03*
X822455Y1231545D02*
D03*
X841402Y1263284D02*
D03*
X960250Y1152000D02*
D03*
X848750Y1231000D02*
D03*
X862000D02*
D03*
X901934Y1143934D02*
D03*
X835936Y1231000D02*
D03*
X867750Y1154000D02*
D03*
X894000Y1214000D02*
D03*
X882000Y1226000D02*
D03*
X864000Y1240000D02*
D03*
X880000Y1263000D02*
D03*
X895000Y1317500D02*
D03*
X814000Y1264984D02*
D03*
X849250Y1263000D02*
D03*
X776000Y626750D02*
D03*
Y400750D02*
D03*
X776066Y416816D02*
D03*
X776054Y186562D02*
D03*
X776000Y618750D02*
D03*
Y634750D02*
D03*
Y408750D02*
D03*
Y170500D02*
D03*
Y178500D02*
D03*
X913750Y866000D02*
D03*
X812000Y386000D02*
D03*
X814000Y162000D02*
D03*
X862000Y1250000D02*
D03*
X878000Y631000D02*
D03*
Y413750D02*
D03*
Y192000D02*
D03*
X1113000Y766000D02*
D03*
X1184000Y1383000D02*
D03*
X1137500Y1178000D02*
D03*
M02*
