G04*
G04 #@! TF.GenerationSoftware,Altium Limited,Altium Designer,21.8.1 (53)*
G04*
G04 Layer_Physical_Order=4*
G04 Layer_Color=16711680*
%FSLAX44Y44*%
%MOMM*%
G71*
G04*
G04 #@! TF.SameCoordinates,B26C40CF-43AE-4B56-A471-EC5E2FB952F6*
G04*
G04*
G04 #@! TF.FilePolarity,Positive*
G04*
G01*
G75*
%ADD10C,0.2540*%
%ADD12C,0.2500*%
%ADD14C,0.4000*%
%ADD15C,0.3000*%
%ADD76C,1.7000*%
%ADD81R,1.7000X1.7000*%
%ADD86R,1.0000X0.7000*%
G04:AMPARAMS|DCode=92|XSize=0.95mm|YSize=0.85mm|CornerRadius=0.2125mm|HoleSize=0mm|Usage=FLASHONLY|Rotation=180.000|XOffset=0mm|YOffset=0mm|HoleType=Round|Shape=RoundedRectangle|*
%AMROUNDEDRECTD92*
21,1,0.9500,0.4250,0,0,180.0*
21,1,0.5250,0.8500,0,0,180.0*
1,1,0.4250,-0.2625,0.2125*
1,1,0.4250,0.2625,0.2125*
1,1,0.4250,0.2625,-0.2125*
1,1,0.4250,-0.2625,-0.2125*
%
%ADD92ROUNDEDRECTD92*%
G04:AMPARAMS|DCode=97|XSize=0.95mm|YSize=0.85mm|CornerRadius=0.2125mm|HoleSize=0mm|Usage=FLASHONLY|Rotation=90.000|XOffset=0mm|YOffset=0mm|HoleType=Round|Shape=RoundedRectangle|*
%AMROUNDEDRECTD97*
21,1,0.9500,0.4250,0,0,90.0*
21,1,0.5250,0.8500,0,0,90.0*
1,1,0.4250,0.2125,0.2625*
1,1,0.4250,0.2125,-0.2625*
1,1,0.4250,-0.2125,-0.2625*
1,1,0.4250,-0.2125,0.2625*
%
%ADD97ROUNDEDRECTD97*%
%ADD99R,0.7000X1.0000*%
%ADD131C,1.0000*%
%ADD132C,0.8000*%
%ADD141C,2.0000*%
%ADD142R,2.0000X2.0000*%
%ADD143C,7.0000*%
%ADD144C,1.3000*%
%ADD145R,1.8000X2.5000*%
%ADD146R,2.5000X1.8000*%
%ADD147R,6.0000X6.0000*%
%ADD148C,6.0000*%
%ADD149C,1.6000*%
%ADD150R,1.6000X1.6000*%
%ADD151R,2.0000X2.0000*%
%ADD152C,3.0000*%
%ADD153R,3.0000X3.0000*%
%ADD154R,1.6000X1.6000*%
%ADD155O,1.8000X1.0000*%
%ADD156C,0.6000*%
G04:AMPARAMS|DCode=157|XSize=0.5mm|YSize=0.65mm|CornerRadius=0.125mm|HoleSize=0mm|Usage=FLASHONLY|Rotation=270.000|XOffset=0mm|YOffset=0mm|HoleType=Round|Shape=RoundedRectangle|*
%AMROUNDEDRECTD157*
21,1,0.5000,0.4000,0,0,270.0*
21,1,0.2500,0.6500,0,0,270.0*
1,1,0.2500,-0.2000,-0.1250*
1,1,0.2500,-0.2000,0.1250*
1,1,0.2500,0.2000,0.1250*
1,1,0.2500,0.2000,-0.1250*
%
%ADD157ROUNDEDRECTD157*%
%ADD158C,0.5000*%
G36*
X455270Y1007829D02*
X455248Y1007888D01*
X455180Y1007941D01*
X455064Y1007988D01*
X454901Y1008028D01*
X454690Y1008063D01*
X454432Y1008091D01*
X453375Y1008137D01*
X452928Y1008141D01*
Y1012141D01*
X453402Y1012143D01*
X455028Y1012247D01*
X455204Y1012285D01*
X455330Y1012329D01*
X455407Y1012379D01*
X455434Y1012435D01*
X455270Y1007829D01*
D02*
G37*
G36*
X1035037Y1011842D02*
X1035586Y1011447D01*
X1036188Y1011098D01*
X1036845Y1010798D01*
X1037555Y1010546D01*
X1038320Y1010341D01*
X1039139Y1010184D01*
X1040012Y1010075D01*
X1040939Y1010013D01*
X1041920Y1010000D01*
X1039580Y1007659D01*
X1040907Y1006497D01*
X1041359Y1006221D01*
X1041724Y1006055D01*
X1042002Y1006000D01*
X1038000Y1001998D01*
X1037945Y1002276D01*
X1037779Y1002641D01*
X1037503Y1003093D01*
X1037116Y1003633D01*
X1036410Y1004489D01*
X1034000Y1002080D01*
X1033987Y1003061D01*
X1033816Y1004861D01*
X1033659Y1005680D01*
X1033454Y1006445D01*
X1033202Y1007155D01*
X1032902Y1007812D01*
X1032553Y1008414D01*
X1032158Y1008963D01*
X1031714Y1009457D01*
X1034543Y1012286D01*
X1035037Y1011842D01*
D02*
G37*
G36*
X1049760Y999741D02*
X1049698Y998868D01*
X1049701Y998039D01*
X1049769Y997256D01*
X1049903Y996517D01*
X1050101Y995823D01*
X1050366Y995174D01*
X1050695Y994569D01*
X1051089Y994010D01*
X1051549Y993495D01*
X1051349Y993352D01*
X1048692Y990695D01*
X1048196Y991186D01*
X1047789Y991554D01*
X1047263Y991945D01*
X1046674Y992310D01*
X1046024Y992646D01*
X1045311Y992956D01*
X1044537Y993237D01*
X1043700Y993491D01*
X1041840Y993917D01*
X1040817Y994088D01*
X1043080Y995727D01*
X1042641Y995995D01*
X1042276Y996161D01*
X1041998Y996216D01*
X1046000Y1000218D01*
X1046055Y999940D01*
X1046221Y999575D01*
X1046497Y999122D01*
X1046884Y998583D01*
X1046935Y998521D01*
X1049887Y1000659D01*
X1049760Y999741D01*
D02*
G37*
G36*
X987760D02*
X987698Y998868D01*
X987701Y998039D01*
X987769Y997256D01*
X987903Y996517D01*
X988102Y995823D01*
X988366Y995174D01*
X988695Y994569D01*
X989089Y994010D01*
X989549Y993495D01*
X989349Y993352D01*
X986692Y990695D01*
X986196Y991186D01*
X985789Y991554D01*
X985263Y991945D01*
X984674Y992310D01*
X984024Y992646D01*
X983311Y992956D01*
X982537Y993237D01*
X981700Y993491D01*
X979840Y993917D01*
X978818Y994088D01*
X981080Y995727D01*
X980641Y995995D01*
X980276Y996161D01*
X979997Y996216D01*
X984000Y1000218D01*
X984055Y999940D01*
X984221Y999575D01*
X984497Y999122D01*
X984884Y998583D01*
X984935Y998521D01*
X987887Y1000659D01*
X987760Y999741D01*
D02*
G37*
G36*
X1034561Y986619D02*
X1035085Y986269D01*
X1035682Y985961D01*
X1036353Y985696D01*
X1037097Y985474D01*
X1037915Y985294D01*
X1038806Y985157D01*
X1039771Y985062D01*
X1041920Y985000D01*
X1034000Y977080D01*
X1033991Y978192D01*
X1033844Y980194D01*
X1033706Y981085D01*
X1033526Y981903D01*
X1033304Y982647D01*
X1033039Y983318D01*
X1032731Y983915D01*
X1032381Y984439D01*
X1031989Y984890D01*
X1034110Y987011D01*
X1034561Y986619D01*
D02*
G37*
G36*
X972561D02*
X973084Y986269D01*
X973682Y985961D01*
X974353Y985696D01*
X975097Y985474D01*
X975915Y985294D01*
X976806Y985157D01*
X977770Y985062D01*
X979920Y985000D01*
X972000Y977080D01*
X971991Y978192D01*
X971843Y980194D01*
X971706Y981085D01*
X971526Y981903D01*
X971304Y982647D01*
X971039Y983318D01*
X970731Y983915D01*
X970381Y984439D01*
X969989Y984890D01*
X972110Y987011D01*
X972561Y986619D01*
D02*
G37*
G36*
X972648Y961494D02*
X973755Y960554D01*
X974244Y960212D01*
X974690Y959954D01*
X975092Y959781D01*
X975452Y959694D01*
X975769Y959691D01*
X976042Y959772D01*
X976273Y959939D01*
X972061Y955727D01*
X972228Y955957D01*
X972309Y956231D01*
X972306Y956548D01*
X972218Y956908D01*
X972046Y957310D01*
X971788Y957756D01*
X971446Y958245D01*
X971018Y958777D01*
X969909Y959969D01*
X972030Y962091D01*
X972648Y961494D01*
D02*
G37*
G36*
X449273Y953718D02*
X449384Y952055D01*
X449425Y951837D01*
X449472Y951659D01*
X449526Y951519D01*
X449586Y951417D01*
X446414D01*
X446474Y951519D01*
X446528Y951659D01*
X446575Y951837D01*
X446616Y952055D01*
X446679Y952604D01*
X446717Y953308D01*
X446730Y954167D01*
X449270D01*
X449273Y953718D01*
D02*
G37*
G36*
X1034061Y949000D02*
X1034031Y949285D01*
X1033940Y949540D01*
X1033788Y949765D01*
X1033576Y949960D01*
X1033303Y950125D01*
X1032970Y950260D01*
X1032576Y950365D01*
X1032122Y950440D01*
X1031606Y950485D01*
X1031031Y950500D01*
Y953500D01*
X1031606Y953515D01*
X1032122Y953560D01*
X1032576Y953635D01*
X1032970Y953740D01*
X1033303Y953875D01*
X1033576Y954040D01*
X1033788Y954235D01*
X1033940Y954460D01*
X1034031Y954715D01*
X1034061Y955000D01*
Y949000D01*
D02*
G37*
G36*
X457254Y950097D02*
X457035Y948989D01*
X456911Y947943D01*
X456882Y946956D01*
X456949Y946030D01*
X457112Y945164D01*
X457371Y944359D01*
X457725Y943614D01*
X458175Y942930D01*
X458721Y942306D01*
X455046Y940325D01*
X454580Y940735D01*
X454001Y941148D01*
X453308Y941563D01*
X452503Y941981D01*
X450552Y942824D01*
X449406Y943250D01*
X445290Y944541D01*
X457570Y951265D01*
X457254Y950097D01*
D02*
G37*
G36*
X461516Y937078D02*
X461565Y936445D01*
X461647Y935860D01*
X461762Y935325D01*
X461909Y934838D01*
X462089Y934400D01*
X462301Y934010D01*
X462547Y933670D01*
X462824Y933378D01*
X463135Y933135D01*
X455865D01*
X456176Y933378D01*
X456454Y933670D01*
X456699Y934010D01*
X456911Y934400D01*
X457091Y934838D01*
X457238Y935325D01*
X457353Y935860D01*
X457435Y936445D01*
X457484Y937078D01*
X457500Y937761D01*
X461500D01*
X461516Y937078D01*
D02*
G37*
G36*
X479430Y946416D02*
X478920Y945763D01*
X478470Y945068D01*
X478080Y944330D01*
X477750Y943549D01*
X477480Y942725D01*
X477270Y941859D01*
X477120Y940949D01*
X477030Y939997D01*
X477014Y939454D01*
X477098Y932442D01*
X468902D01*
X468921Y932550D01*
X468937Y932815D01*
X468999Y939043D01*
X468970Y939997D01*
X468880Y940949D01*
X468730Y941859D01*
X468520Y942725D01*
X468250Y943549D01*
X467920Y944330D01*
X467530Y945068D01*
X467080Y945763D01*
X466570Y946416D01*
X466000Y947025D01*
X480000D01*
X479430Y946416D01*
D02*
G37*
G36*
X995290Y940740D02*
X995410Y940060D01*
X995610Y939460D01*
X995890Y938940D01*
X996250Y938500D01*
X996690Y938140D01*
X997210Y937860D01*
X997810Y937660D01*
X998490Y937540D01*
X999250Y937500D01*
X998078Y933500D01*
X997290Y933472D01*
X996525Y933387D01*
X995784Y933245D01*
X995066Y933047D01*
X994371Y932793D01*
X993700Y932482D01*
X993053Y932114D01*
X992428Y931690D01*
X991827Y931209D01*
X991250Y930672D01*
X988422Y933500D01*
X988959Y934078D01*
X989440Y934678D01*
X989864Y935303D01*
X990232Y935950D01*
X990543Y936621D01*
X990798Y937316D01*
X990995Y938034D01*
X991137Y938775D01*
X991222Y939540D01*
X991250Y940329D01*
X995250Y941500D01*
X995290Y940740D01*
D02*
G37*
G36*
X360230Y934416D02*
X359720Y933763D01*
X359270Y933068D01*
X358880Y932330D01*
X358550Y931549D01*
X358280Y930725D01*
X358070Y929858D01*
X357920Y928949D01*
X357830Y927997D01*
X357800Y927001D01*
X349800D01*
X349770Y927997D01*
X349680Y928949D01*
X349530Y929858D01*
X349320Y930725D01*
X349050Y931549D01*
X348720Y932330D01*
X348330Y933068D01*
X347880Y933763D01*
X347370Y934416D01*
X346800Y935025D01*
X360800D01*
X360230Y934416D01*
D02*
G37*
G36*
X1176858Y918900D02*
X1176729Y919014D01*
X1176579Y919116D01*
X1176408Y919206D01*
X1176214Y919284D01*
X1176000Y919350D01*
X1175763Y919404D01*
X1175505Y919446D01*
X1175226Y919476D01*
X1174602Y919500D01*
X1174602Y922500D01*
X1174925Y922506D01*
X1175505Y922554D01*
X1175763Y922596D01*
X1176000Y922650D01*
X1176214Y922716D01*
X1176408Y922794D01*
X1176579Y922884D01*
X1176729Y922986D01*
X1176858Y923100D01*
X1176858Y918900D01*
D02*
G37*
G36*
X1292000Y919428D02*
Y789000D01*
X1284646Y781646D01*
X1281028Y784275D01*
X1275418Y787133D01*
X1269430Y789079D01*
X1263212Y790063D01*
X1256915D01*
X1250697Y789079D01*
X1244709Y787133D01*
X1239099Y784275D01*
X1234005Y780574D01*
X1233431Y780000D01*
X1076000D01*
X1044000Y812000D01*
Y883123D01*
X1063321Y902444D01*
X1139457D01*
X1139616Y902406D01*
X1139633Y902405D01*
X1141122Y901545D01*
X1143157Y901000D01*
X1145263D01*
X1147298Y901545D01*
X1149122Y902598D01*
X1150612Y904088D01*
X1151665Y905912D01*
X1152123Y907624D01*
X1152156Y907674D01*
X1158926Y914444D01*
X1174247D01*
X1174406Y914406D01*
X1174423Y914405D01*
X1175912Y913545D01*
X1177947Y913000D01*
X1180053D01*
X1182088Y913545D01*
X1183912Y914598D01*
X1185402Y916088D01*
X1186455Y917912D01*
X1187000Y919947D01*
Y922053D01*
X1186455Y924088D01*
X1185402Y925912D01*
X1183912Y927402D01*
X1182088Y928455D01*
X1180053Y929000D01*
X1177947D01*
X1175912Y928455D01*
X1174377Y927569D01*
X1174319Y927556D01*
X1156210D01*
X1154513Y927333D01*
X1152932Y926678D01*
X1151574Y925636D01*
X1142935Y916997D01*
X1142796Y916911D01*
X1142784Y916900D01*
X1141122Y916455D01*
X1139587Y915569D01*
X1139529Y915556D01*
X1060605D01*
X1060314Y915518D01*
X1059721Y916721D01*
X1076000Y933000D01*
X1277000D01*
X1292000Y919428D01*
D02*
G37*
G36*
X357898Y912442D02*
X349702D01*
X349720Y912550D01*
X349737Y912815D01*
X349799Y919068D01*
X349800Y920589D01*
X357800D01*
X357898Y912442D01*
D02*
G37*
G36*
X336070Y906460D02*
X336044Y906701D01*
X335967Y906917D01*
X335839Y907108D01*
X335659Y907273D01*
X335427Y907412D01*
X335145Y907527D01*
X334810Y907616D01*
X334425Y907679D01*
X334324Y907688D01*
X334108Y907655D01*
X333848Y907597D01*
X333603Y907523D01*
X333373Y907431D01*
X333158Y907323D01*
X332958Y907199D01*
X332773Y907058D01*
X332602Y906900D01*
Y911100D01*
X332773Y910942D01*
X332958Y910801D01*
X333158Y910677D01*
X333373Y910569D01*
X333603Y910478D01*
X333848Y910403D01*
X334108Y910345D01*
X334324Y910312D01*
X334425Y910321D01*
X334810Y910384D01*
X335145Y910473D01*
X335427Y910587D01*
X335659Y910727D01*
X335839Y910892D01*
X335967Y911083D01*
X336044Y911299D01*
X336070Y911540D01*
Y906460D01*
D02*
G37*
G36*
X1148381Y911049D02*
X1148157Y910817D01*
X1147780Y910372D01*
X1147627Y910160D01*
X1147498Y909955D01*
X1147393Y909756D01*
X1147312Y909565D01*
X1147254Y909380D01*
X1147220Y909202D01*
X1147210Y909030D01*
X1144240Y912000D01*
X1144411Y912010D01*
X1144590Y912044D01*
X1144775Y912102D01*
X1144966Y912183D01*
X1145165Y912288D01*
X1145370Y912417D01*
X1145582Y912570D01*
X1145801Y912747D01*
X1146259Y913171D01*
X1148381Y911049D01*
D02*
G37*
G36*
X1142068Y906900D02*
X1141939Y907014D01*
X1141789Y907116D01*
X1141618Y907206D01*
X1141424Y907284D01*
X1141210Y907350D01*
X1140973Y907404D01*
X1140715Y907446D01*
X1140436Y907476D01*
X1139812Y907500D01*
Y910500D01*
X1140135Y910506D01*
X1140715Y910554D01*
X1140973Y910596D01*
X1141210Y910650D01*
X1141424Y910716D01*
X1141618Y910794D01*
X1141789Y910884D01*
X1141939Y910986D01*
X1142068Y911100D01*
Y906900D01*
D02*
G37*
G36*
X357879Y905450D02*
X357863Y905185D01*
X357801Y898933D01*
X357800Y897411D01*
X349800D01*
X349702Y905558D01*
X357898D01*
X357879Y905450D01*
D02*
G37*
G36*
X457993Y871443D02*
X458160Y869060D01*
X458331Y867989D01*
X458561Y866998D01*
X458849Y866087D01*
X459195Y865256D01*
X459600Y864505D01*
X460063Y863834D01*
X460585Y863243D01*
X457757Y860415D01*
X457166Y860937D01*
X456495Y861400D01*
X455744Y861805D01*
X454913Y862151D01*
X454002Y862439D01*
X453011Y862669D01*
X451940Y862840D01*
X450788Y862953D01*
X449557Y863007D01*
X448246Y863003D01*
X457997Y872754D01*
X457993Y871443D01*
D02*
G37*
G36*
X479910Y865772D02*
X479333Y865170D01*
X478818Y864523D01*
X478362Y863834D01*
X477968Y863101D01*
X477634Y862323D01*
X477361Y861502D01*
X477148Y860638D01*
X476996Y859729D01*
X476905Y858777D01*
X476875Y857781D01*
X476866Y857782D01*
X476848Y852442D01*
X468652D01*
X468694Y852586D01*
X468732Y852882D01*
X468766Y853333D01*
X468858Y858451D01*
X468845Y858885D01*
X468756Y859837D01*
X468608Y860748D01*
X468401Y861617D01*
X468134Y862443D01*
X467808Y863228D01*
X467423Y863971D01*
X466978Y864671D01*
X466474Y865330D01*
X465911Y865947D01*
X479910Y865772D01*
D02*
G37*
G36*
X945000Y857000D02*
X896000D01*
Y872000D01*
X945000D01*
Y857000D01*
D02*
G37*
G36*
X461266Y857078D02*
X461315Y856445D01*
X461397Y855860D01*
X461512Y855325D01*
X461659Y854838D01*
X461839Y854400D01*
X462051Y854010D01*
X462296Y853670D01*
X462574Y853378D01*
X462885Y853135D01*
X455615D01*
X455926Y853378D01*
X456204Y853670D01*
X456449Y854010D01*
X456661Y854400D01*
X456841Y854838D01*
X456988Y855325D01*
X457103Y855860D01*
X457185Y856445D01*
X457234Y857078D01*
X457250Y857761D01*
X461250D01*
X461266Y857078D01*
D02*
G37*
G36*
X476983Y850944D02*
X477109Y850708D01*
X477360Y850362D01*
X477734Y849904D01*
X479599Y847866D01*
X482579Y844828D01*
X476922Y839172D01*
X475884Y840203D01*
X471292Y844281D01*
X471181Y844270D01*
X476980Y851069D01*
X476983Y850944D01*
D02*
G37*
G36*
X652000Y754000D02*
X631000D01*
Y772000D01*
X652000D01*
Y754000D01*
D02*
G37*
G36*
X682000Y736000D02*
X668000D01*
Y767000D01*
X682000D01*
Y736000D01*
D02*
G37*
G36*
X1239099Y715852D02*
X1244709Y712994D01*
X1250697Y711048D01*
X1256915Y710063D01*
X1263212D01*
X1264701Y710299D01*
X1297515Y677485D01*
Y138515D01*
X1161612Y2612D01*
X539388D01*
X443827Y98173D01*
X444404Y99304D01*
X446324Y99000D01*
X451676D01*
X456962Y99837D01*
X462052Y101491D01*
X464910Y102948D01*
X441929Y125929D01*
X450000Y134000D01*
X462142D01*
X479052Y117090D01*
X480509Y119949D01*
X482163Y125038D01*
X483000Y130324D01*
Y134000D01*
X492000D01*
Y248000D01*
X403000D01*
X402612Y249109D01*
X402612Y680000D01*
X609000D01*
X647000Y718000D01*
X1236143D01*
X1239099Y715852D01*
D02*
G37*
G36*
X382275Y1483230D02*
X382314Y1482753D01*
X382377Y1482333D01*
X382466Y1481968D01*
X382581Y1481660D01*
X382721Y1481408D01*
X382887Y1481211D01*
X383077Y1481071D01*
X383294Y1480987D01*
X383536Y1480959D01*
X377990D01*
X378231Y1480987D01*
X378448Y1481071D01*
X378639Y1481211D01*
X378804Y1481408D01*
X378944Y1481660D01*
X379059Y1481968D01*
X379148Y1482333D01*
X379212Y1482753D01*
X379250Y1483230D01*
X379263Y1483763D01*
X382263D01*
X382275Y1483230D01*
D02*
G37*
G36*
X409078Y1482985D02*
X409124Y1482449D01*
X409201Y1481955D01*
X409308Y1481504D01*
X409445Y1481095D01*
X409613Y1480728D01*
X409812Y1480404D01*
X410042Y1480122D01*
X410301Y1479882D01*
X410592Y1479685D01*
X404328Y1480939D01*
X404658Y1481005D01*
X404953Y1481115D01*
X405213Y1481268D01*
X405439Y1481465D01*
X405629Y1481706D01*
X405785Y1481990D01*
X405907Y1482318D01*
X405994Y1482690D01*
X406046Y1483105D01*
X406063Y1483563D01*
X409063D01*
X409078Y1482985D01*
D02*
G37*
G36*
X476897Y1461260D02*
X476881Y1461342D01*
X476822Y1461415D01*
X476720Y1461480D01*
X476575Y1461536D01*
X476387Y1461583D01*
X476157Y1461622D01*
X475884Y1461652D01*
X475210Y1461687D01*
X474809Y1461691D01*
Y1464691D01*
X475196Y1464695D01*
X476148Y1464761D01*
X476396Y1464801D01*
X476610Y1464849D01*
X476790Y1464906D01*
X476935Y1464971D01*
X477045Y1465046D01*
X477121Y1465129D01*
X476897Y1461260D01*
D02*
G37*
G36*
X501858Y1460900D02*
X501729Y1461014D01*
X501579Y1461116D01*
X501408Y1461206D01*
X501214Y1461284D01*
X501000Y1461350D01*
X500763Y1461404D01*
X500505Y1461446D01*
X500226Y1461476D01*
X499602Y1461500D01*
Y1464500D01*
X499925Y1464506D01*
X500505Y1464554D01*
X500763Y1464596D01*
X501000Y1464650D01*
X501214Y1464716D01*
X501408Y1464794D01*
X501579Y1464884D01*
X501729Y1464986D01*
X501858Y1465100D01*
Y1460900D01*
D02*
G37*
G36*
X495755Y1465228D02*
X496055Y1465075D01*
X496375Y1464940D01*
X496716Y1464824D01*
X497078Y1464725D01*
X497460Y1464644D01*
X497863Y1464581D01*
X498729Y1464509D01*
X499194Y1464500D01*
X499194Y1461500D01*
X498729Y1461491D01*
X497863Y1461419D01*
X497460Y1461356D01*
X497078Y1461275D01*
X496716Y1461176D01*
X496375Y1461060D01*
X496055Y1460925D01*
X495755Y1460772D01*
X495476Y1460601D01*
Y1465399D01*
X495755Y1465228D01*
D02*
G37*
G36*
X501858Y1452900D02*
X501729Y1453014D01*
X501579Y1453116D01*
X501408Y1453206D01*
X501214Y1453284D01*
X501000Y1453350D01*
X500763Y1453404D01*
X500505Y1453446D01*
X500226Y1453476D01*
X499602Y1453500D01*
Y1456500D01*
X499925Y1456506D01*
X500505Y1456554D01*
X500763Y1456596D01*
X501000Y1456650D01*
X501214Y1456716D01*
X501408Y1456794D01*
X501579Y1456884D01*
X501729Y1456986D01*
X501858Y1457100D01*
Y1452900D01*
D02*
G37*
G36*
X495755Y1457228D02*
X496055Y1457075D01*
X496375Y1456940D01*
X496716Y1456824D01*
X497078Y1456725D01*
X497460Y1456644D01*
X497863Y1456581D01*
X498729Y1456509D01*
X499194Y1456500D01*
Y1453500D01*
X498729Y1453491D01*
X497863Y1453419D01*
X497460Y1453356D01*
X497078Y1453275D01*
X496716Y1453176D01*
X496375Y1453060D01*
X496055Y1452925D01*
X495755Y1452772D01*
X495476Y1452601D01*
Y1457399D01*
X495755Y1457228D01*
D02*
G37*
G36*
X483214Y1455904D02*
X483260Y1455820D01*
X483350Y1455745D01*
X483486Y1455680D01*
X483666Y1455625D01*
X483892Y1455580D01*
X484162Y1455545D01*
X484837Y1455505D01*
X485243Y1455500D01*
Y1452500D01*
X482476Y1452601D01*
X483213Y1455999D01*
X483214Y1455904D01*
D02*
G37*
G36*
X501858Y1444900D02*
X501729Y1445014D01*
X501579Y1445116D01*
X501408Y1445206D01*
X501214Y1445284D01*
X501000Y1445350D01*
X500763Y1445404D01*
X500505Y1445446D01*
X500226Y1445476D01*
X499602Y1445500D01*
Y1448500D01*
X499925Y1448506D01*
X500505Y1448554D01*
X500763Y1448596D01*
X501000Y1448650D01*
X501214Y1448716D01*
X501408Y1448794D01*
X501579Y1448884D01*
X501729Y1448986D01*
X501858Y1449100D01*
Y1444900D01*
D02*
G37*
G36*
X495755Y1449228D02*
X496055Y1449075D01*
X496375Y1448940D01*
X496716Y1448824D01*
X497078Y1448725D01*
X497460Y1448644D01*
X497863Y1448581D01*
X498729Y1448509D01*
X499194Y1448500D01*
Y1445500D01*
X498729Y1445491D01*
X497863Y1445419D01*
X497460Y1445356D01*
X497078Y1445275D01*
X496716Y1445176D01*
X496375Y1445060D01*
X496055Y1444925D01*
X495755Y1444772D01*
X495476Y1444601D01*
Y1449399D01*
X495755Y1449228D01*
D02*
G37*
G36*
X477524Y1444601D02*
X477245Y1444772D01*
X476945Y1444925D01*
X476625Y1445060D01*
X476284Y1445176D01*
X475922Y1445275D01*
X475540Y1445356D01*
X475137Y1445419D01*
X474271Y1445491D01*
X473806Y1445500D01*
Y1448500D01*
X474271Y1448509D01*
X475137Y1448581D01*
X475540Y1448644D01*
X475922Y1448725D01*
X476284Y1448824D01*
X476625Y1448940D01*
X476945Y1449075D01*
X477245Y1449228D01*
X477524Y1449399D01*
Y1444601D01*
D02*
G37*
G36*
X415609Y1443933D02*
X415774Y1441279D01*
X415930Y1440112D01*
X416135Y1439051D01*
X416389Y1438097D01*
X416692Y1437250D01*
X417044Y1436509D01*
X417444Y1435875D01*
X417894Y1435347D01*
X415773Y1433226D01*
X415245Y1433676D01*
X414611Y1434077D01*
X413870Y1434428D01*
X413023Y1434731D01*
X412069Y1434985D01*
X411008Y1435190D01*
X409841Y1435346D01*
X407187Y1435511D01*
X405700Y1435520D01*
X415600Y1445420D01*
X415609Y1443933D01*
D02*
G37*
G36*
X386630Y1437769D02*
X386120Y1437117D01*
X385670Y1436421D01*
X385280Y1435683D01*
X384950Y1434902D01*
X384680Y1434079D01*
X384470Y1433212D01*
X384320Y1432302D01*
X384230Y1431350D01*
X384200Y1430355D01*
X376200D01*
X376170Y1431350D01*
X376080Y1432302D01*
X375930Y1433212D01*
X375720Y1434079D01*
X375450Y1434902D01*
X375120Y1435683D01*
X374730Y1436421D01*
X374280Y1437117D01*
X373770Y1437769D01*
X373200Y1438379D01*
X387200D01*
X386630Y1437769D01*
D02*
G37*
G36*
X239859Y1410896D02*
X243047Y1411107D01*
X243562Y1411231D01*
X243937Y1411372D01*
X244173Y1411530D01*
Y1405870D01*
X243937Y1406028D01*
X243562Y1406169D01*
X243047Y1406293D01*
X242392Y1406401D01*
X240665Y1406567D01*
X239859Y1406595D01*
Y1401700D01*
X238890Y1402650D01*
X237021Y1404250D01*
X236121Y1404900D01*
X235244Y1405450D01*
X234390Y1405900D01*
X233559Y1406250D01*
X232750Y1406500D01*
X231965Y1406650D01*
X231202Y1406700D01*
Y1410700D01*
X231965Y1410750D01*
X232750Y1410900D01*
X233559Y1411150D01*
X234390Y1411500D01*
X235244Y1411950D01*
X236121Y1412500D01*
X237021Y1413150D01*
X237944Y1413900D01*
X239859Y1415700D01*
Y1410896D01*
D02*
G37*
G36*
X279550Y1412779D02*
X279815Y1412763D01*
X286068Y1412701D01*
X287589Y1412700D01*
Y1404700D01*
X279442Y1404602D01*
Y1412798D01*
X279550Y1412779D01*
D02*
G37*
G36*
X272558Y1404602D02*
X272450Y1404621D01*
X272185Y1404637D01*
X265933Y1404699D01*
X264411Y1404700D01*
Y1412700D01*
X272558Y1412798D01*
Y1404602D01*
D02*
G37*
G36*
X254751Y1415130D02*
X255403Y1414620D01*
X256099Y1414170D01*
X256837Y1413780D01*
X257618Y1413450D01*
X258442Y1413180D01*
X259308Y1412970D01*
X260218Y1412820D01*
X261170Y1412730D01*
X262165Y1412700D01*
Y1404700D01*
X261170Y1404670D01*
X260218Y1404580D01*
X259308Y1404430D01*
X258442Y1404220D01*
X257618Y1403950D01*
X256837Y1403620D01*
X256099Y1403230D01*
X255403Y1402780D01*
X254751Y1402270D01*
X254142Y1401700D01*
Y1415700D01*
X254751Y1415130D01*
D02*
G37*
G36*
X169869Y1394115D02*
X169960Y1393860D01*
X170112Y1393635D01*
X170324Y1393440D01*
X170597Y1393275D01*
X170930Y1393140D01*
X171324Y1393035D01*
X171779Y1392960D01*
X172294Y1392915D01*
X172869Y1392900D01*
Y1389900D01*
X172294Y1389885D01*
X171779Y1389840D01*
X171324Y1389765D01*
X170930Y1389660D01*
X170597Y1389525D01*
X170324Y1389360D01*
X170112Y1389165D01*
X169960Y1388940D01*
X169869Y1388685D01*
X169839Y1388400D01*
Y1394400D01*
X169869Y1394115D01*
D02*
G37*
G36*
X278299Y1390944D02*
X278083Y1390867D01*
X277892Y1390739D01*
X277727Y1390559D01*
X277588Y1390327D01*
X277473Y1390045D01*
X277384Y1389710D01*
X277321Y1389325D01*
X277283Y1388888D01*
X277270Y1388399D01*
X274730D01*
X274717Y1388888D01*
X274679Y1389325D01*
X274616Y1389710D01*
X274527Y1390045D01*
X274412Y1390327D01*
X274273Y1390559D01*
X274108Y1390739D01*
X273917Y1390867D01*
X273701Y1390944D01*
X273460Y1390970D01*
X278540D01*
X278299Y1390944D01*
D02*
G37*
G36*
X188610Y1391028D02*
X189641Y1390134D01*
X190091Y1389803D01*
X190499Y1389550D01*
X190863Y1389373D01*
X191185Y1389274D01*
X191464Y1389252D01*
X191699Y1389307D01*
X191891Y1389439D01*
X188061Y1385609D01*
X188193Y1385801D01*
X188248Y1386036D01*
X188226Y1386315D01*
X188127Y1386637D01*
X187950Y1387001D01*
X187696Y1387409D01*
X187365Y1387859D01*
X186957Y1388353D01*
X185909Y1389469D01*
X188030Y1391591D01*
X188610Y1391028D01*
D02*
G37*
G36*
X365493Y1384261D02*
X364807Y1383528D01*
X364206Y1382786D01*
X363691Y1382035D01*
X363262Y1381275D01*
X362918Y1380506D01*
X362660Y1379729D01*
X362487Y1378943D01*
X362400Y1378148D01*
X362398Y1377344D01*
X362482Y1376531D01*
X352592Y1383921D01*
X342715Y1376513D01*
X342798Y1377327D01*
X342795Y1378131D01*
X342706Y1378927D01*
X342533Y1379713D01*
X342274Y1380491D01*
X341929Y1381259D01*
X341500Y1382019D01*
X340985Y1382770D01*
X340384Y1383512D01*
X339698Y1384245D01*
X346241Y1389016D01*
X346958Y1388335D01*
X347686Y1387714D01*
X348425Y1387153D01*
X349176Y1386653D01*
X349938Y1386212D01*
X350711Y1385832D01*
X351495Y1385512D01*
X352290Y1385252D01*
X352591Y1385178D01*
X352891Y1385253D01*
X353686Y1385513D01*
X354470Y1385834D01*
X355243Y1386215D01*
X356004Y1386656D01*
X356755Y1387157D01*
X357494Y1387718D01*
X358222Y1388340D01*
X358939Y1389021D01*
X365493Y1384261D01*
D02*
G37*
G36*
X277278Y1384213D02*
X277303Y1383923D01*
X277345Y1383648D01*
X277403Y1383388D01*
X277477Y1383143D01*
X277569Y1382913D01*
X277677Y1382698D01*
X277801Y1382498D01*
X277942Y1382313D01*
X278100Y1382142D01*
X273900D01*
X274058Y1382313D01*
X274199Y1382498D01*
X274323Y1382698D01*
X274431Y1382913D01*
X274522Y1383143D01*
X274597Y1383388D01*
X274655Y1383648D01*
X274697Y1383923D01*
X274722Y1384213D01*
X274730Y1384518D01*
X277270D01*
X277278Y1384213D01*
D02*
G37*
G36*
X197800Y1386540D02*
X197715Y1386264D01*
Y1385946D01*
X197800Y1385585D01*
X197969Y1385182D01*
X198224Y1384737D01*
X198563Y1384249D01*
X198988Y1383718D01*
X200091Y1382531D01*
X197969Y1380409D01*
X197354Y1381003D01*
X196251Y1381936D01*
X195763Y1382276D01*
X195318Y1382531D01*
X194915Y1382700D01*
X194554Y1382785D01*
X194236D01*
X193960Y1382700D01*
X193727Y1382531D01*
X197969Y1386773D01*
X197800Y1386540D01*
D02*
G37*
G36*
X387969Y1377715D02*
X388060Y1377460D01*
X388212Y1377235D01*
X388424Y1377040D01*
X388697Y1376875D01*
X389030Y1376740D01*
X389424Y1376635D01*
X389879Y1376560D01*
X390394Y1376515D01*
X390970Y1376500D01*
Y1373500D01*
X390394Y1373485D01*
X389879Y1373440D01*
X389424Y1373365D01*
X389030Y1373260D01*
X388697Y1373125D01*
X388424Y1372960D01*
X388212Y1372765D01*
X388060Y1372540D01*
X387969Y1372285D01*
X387939Y1372000D01*
Y1378000D01*
X387969Y1377715D01*
D02*
G37*
G36*
X467928Y1372399D02*
X467934Y1371262D01*
X468171Y1367207D01*
X468259Y1366723D01*
X468360Y1366347D01*
X468475Y1366079D01*
X468604Y1365921D01*
X457095Y1366413D01*
X457253Y1366574D01*
X457395Y1366844D01*
X457520Y1367221D01*
X457628Y1367707D01*
X457719Y1368300D01*
X457853Y1369813D01*
X457919Y1371758D01*
X457928Y1372893D01*
X467928Y1372399D01*
D02*
G37*
G36*
X195299Y1367535D02*
X195083Y1367458D01*
X194892Y1367330D01*
X194727Y1367150D01*
X194587Y1366918D01*
X194473Y1366636D01*
X194384Y1366301D01*
X194321Y1365916D01*
X194283Y1365479D01*
X194270Y1364991D01*
X191730D01*
X191717Y1365479D01*
X191679Y1365916D01*
X191616Y1366301D01*
X191527Y1366636D01*
X191413Y1366918D01*
X191273Y1367150D01*
X191108Y1367330D01*
X190917Y1367458D01*
X190701Y1367535D01*
X190460Y1367561D01*
X195540D01*
X195299Y1367535D01*
D02*
G37*
G36*
X194278Y1364213D02*
X194303Y1363923D01*
X194345Y1363648D01*
X194403Y1363388D01*
X194478Y1363143D01*
X194569Y1362913D01*
X194677Y1362698D01*
X194801Y1362498D01*
X194942Y1362313D01*
X195100Y1362142D01*
X190900D01*
X191058Y1362313D01*
X191199Y1362498D01*
X191323Y1362698D01*
X191431Y1362913D01*
X191523Y1363143D01*
X191597Y1363388D01*
X191655Y1363648D01*
X191697Y1363923D01*
X191722Y1364213D01*
X191730Y1364518D01*
X194270D01*
X194278Y1364213D01*
D02*
G37*
G36*
X359030Y1367249D02*
X358520Y1366597D01*
X358070Y1365902D01*
X357680Y1365164D01*
X357350Y1364383D01*
X357080Y1363559D01*
X356870Y1362692D01*
X356838Y1362500D01*
X356870Y1362308D01*
X357080Y1361442D01*
X357350Y1360618D01*
X357680Y1359837D01*
X358070Y1359099D01*
X358520Y1358404D01*
X359030Y1357751D01*
X359600Y1357142D01*
X345600D01*
X346170Y1357751D01*
X346680Y1358404D01*
X347130Y1359099D01*
X347520Y1359837D01*
X347850Y1360618D01*
X348120Y1361442D01*
X348330Y1362308D01*
X348362Y1362500D01*
X348330Y1362692D01*
X348120Y1363559D01*
X347850Y1364383D01*
X347520Y1365164D01*
X347130Y1365902D01*
X346680Y1366597D01*
X346170Y1367249D01*
X345600Y1367859D01*
X359600D01*
X359030Y1367249D01*
D02*
G37*
G36*
X387969Y1352352D02*
X388060Y1352097D01*
X388212Y1351872D01*
X388424Y1351677D01*
X388697Y1351512D01*
X389030Y1351377D01*
X389424Y1351272D01*
X389879Y1351197D01*
X390394Y1351152D01*
X390970Y1351137D01*
Y1348137D01*
X390394Y1348122D01*
X389879Y1348077D01*
X389424Y1348002D01*
X389030Y1347897D01*
X388697Y1347762D01*
X388424Y1347597D01*
X388212Y1347402D01*
X388060Y1347177D01*
X387969Y1346922D01*
X387939Y1346637D01*
Y1352637D01*
X387969Y1352352D01*
D02*
G37*
G36*
X497300Y1352039D02*
X497215Y1351764D01*
Y1351445D01*
X497300Y1351085D01*
X497469Y1350682D01*
X497724Y1350236D01*
X498064Y1349748D01*
X498488Y1349218D01*
X499591Y1348030D01*
X497469Y1345909D01*
X496854Y1346503D01*
X495751Y1347436D01*
X495263Y1347776D01*
X494818Y1348030D01*
X494415Y1348200D01*
X494054Y1348285D01*
X493736D01*
X493460Y1348200D01*
X493227Y1348030D01*
X497469Y1352273D01*
X497300Y1352039D01*
D02*
G37*
G36*
X359030Y1342249D02*
X358520Y1341597D01*
X358070Y1340902D01*
X357680Y1340164D01*
X357350Y1339382D01*
X357080Y1338559D01*
X356870Y1337692D01*
X356838Y1337500D01*
X356870Y1337308D01*
X357080Y1336442D01*
X357350Y1335618D01*
X357680Y1334837D01*
X358070Y1334099D01*
X358520Y1333403D01*
X359030Y1332751D01*
X359600Y1332142D01*
X345600D01*
X346170Y1332751D01*
X346680Y1333403D01*
X347130Y1334099D01*
X347520Y1334837D01*
X347850Y1335618D01*
X348120Y1336442D01*
X348330Y1337308D01*
X348362Y1337500D01*
X348330Y1337692D01*
X348120Y1338559D01*
X347850Y1339382D01*
X347520Y1340164D01*
X347130Y1340902D01*
X346680Y1341597D01*
X346170Y1342249D01*
X345600Y1342859D01*
X359600D01*
X359030Y1342249D01*
D02*
G37*
G36*
X387969Y1327715D02*
X388060Y1327460D01*
X388212Y1327235D01*
X388424Y1327040D01*
X388697Y1326875D01*
X389030Y1326740D01*
X389424Y1326635D01*
X389879Y1326560D01*
X390394Y1326515D01*
X390970Y1326500D01*
Y1323500D01*
X390394Y1323485D01*
X389879Y1323440D01*
X389424Y1323365D01*
X389030Y1323260D01*
X388697Y1323125D01*
X388424Y1322960D01*
X388212Y1322765D01*
X388060Y1322540D01*
X387969Y1322285D01*
X387939Y1322000D01*
Y1328000D01*
X387969Y1327715D01*
D02*
G37*
G36*
X238061Y1314500D02*
X238031Y1314785D01*
X237940Y1315040D01*
X237788Y1315265D01*
X237576Y1315460D01*
X237303Y1315625D01*
X236970Y1315760D01*
X236576Y1315865D01*
X236122Y1315940D01*
X235606Y1315985D01*
X235030Y1316000D01*
Y1319000D01*
X235606Y1319015D01*
X236122Y1319060D01*
X236576Y1319135D01*
X236970Y1319240D01*
X237303Y1319375D01*
X237576Y1319540D01*
X237788Y1319735D01*
X237940Y1319960D01*
X238031Y1320215D01*
X238061Y1320500D01*
Y1314500D01*
D02*
G37*
G36*
X194515Y1317710D02*
X194632Y1316429D01*
X194735Y1315909D01*
X194867Y1315470D01*
X195029Y1315110D01*
X195220Y1314830D01*
X195441Y1314630D01*
X195690Y1314509D01*
X195970Y1314469D01*
X189030D01*
X189310Y1314509D01*
X189559Y1314630D01*
X189780Y1314830D01*
X189971Y1315110D01*
X190133Y1315470D01*
X190265Y1315909D01*
X190368Y1316429D01*
X190441Y1317030D01*
X190485Y1317710D01*
X190500Y1318470D01*
X194500D01*
X194515Y1317710D01*
D02*
G37*
G36*
X213091Y1312970D02*
X212561Y1312419D01*
X211711Y1311401D01*
X211390Y1310935D01*
X211140Y1310496D01*
X210960Y1310086D01*
X210850Y1309704D01*
X210810Y1309350D01*
X210839Y1309025D01*
X210939Y1308727D01*
X208227Y1314439D01*
X208390Y1314205D01*
X208612Y1314071D01*
X208891Y1314037D01*
X209229Y1314103D01*
X209624Y1314268D01*
X210077Y1314533D01*
X210588Y1314898D01*
X211157Y1315363D01*
X212470Y1316591D01*
X213091Y1312970D01*
D02*
G37*
G36*
X359030Y1317249D02*
X358520Y1316597D01*
X358070Y1315902D01*
X357680Y1315164D01*
X357350Y1314382D01*
X357080Y1313559D01*
X356870Y1312692D01*
X356838Y1312500D01*
X356870Y1312308D01*
X357080Y1311442D01*
X357350Y1310618D01*
X357680Y1309837D01*
X358070Y1309099D01*
X358520Y1308404D01*
X359030Y1307751D01*
X359600Y1307142D01*
X345600D01*
X346170Y1307751D01*
X346680Y1308404D01*
X347130Y1309099D01*
X347520Y1309837D01*
X347850Y1310618D01*
X348120Y1311442D01*
X348330Y1312308D01*
X348362Y1312500D01*
X348330Y1312692D01*
X348120Y1313559D01*
X347850Y1314382D01*
X347520Y1315164D01*
X347130Y1315902D01*
X346680Y1316597D01*
X346170Y1317249D01*
X345600Y1317859D01*
X359600D01*
X359030Y1317249D01*
D02*
G37*
G36*
X978311Y1314013D02*
X978050Y1313466D01*
X977819Y1312760D01*
X977619Y1311894D01*
X977450Y1310869D01*
X977204Y1308340D01*
X977081Y1305174D01*
X977066Y1303352D01*
X973066D01*
X973051Y1305174D01*
X972681Y1310869D01*
X972512Y1311894D01*
X972312Y1312760D01*
X972082Y1313466D01*
X971820Y1314013D01*
X971528Y1314401D01*
X978604D01*
X978311Y1314013D01*
D02*
G37*
G36*
X195690Y1304491D02*
X195441Y1304371D01*
X195220Y1304171D01*
X195029Y1303891D01*
X194867Y1303530D01*
X194735Y1303091D01*
X194632Y1302570D01*
X194559Y1301971D01*
X194515Y1301290D01*
X194514Y1301250D01*
X194515Y1301210D01*
X194632Y1299930D01*
X194735Y1299409D01*
X194867Y1298970D01*
X195029Y1298609D01*
X195220Y1298329D01*
X195441Y1298129D01*
X195690Y1298009D01*
X195970Y1297970D01*
X189030D01*
X189310Y1298009D01*
X189559Y1298129D01*
X189780Y1298329D01*
X189971Y1298609D01*
X190133Y1298970D01*
X190265Y1299409D01*
X190368Y1299930D01*
X190441Y1300529D01*
X190485Y1301210D01*
X190486Y1301250D01*
X190485Y1301290D01*
X190368Y1302570D01*
X190265Y1303091D01*
X190133Y1303530D01*
X189971Y1303891D01*
X189780Y1304171D01*
X189559Y1304371D01*
X189310Y1304491D01*
X189030Y1304530D01*
X195970D01*
X195690Y1304491D01*
D02*
G37*
G36*
X387969Y1302215D02*
X388060Y1301960D01*
X388212Y1301735D01*
X388424Y1301540D01*
X388697Y1301375D01*
X389030Y1301240D01*
X389424Y1301135D01*
X389879Y1301060D01*
X390394Y1301015D01*
X390970Y1301000D01*
Y1298000D01*
X390394Y1297985D01*
X389879Y1297940D01*
X389424Y1297865D01*
X389030Y1297760D01*
X388697Y1297625D01*
X388424Y1297460D01*
X388212Y1297265D01*
X388060Y1297040D01*
X387969Y1296785D01*
X387939Y1296500D01*
Y1302500D01*
X387969Y1302215D01*
D02*
G37*
G36*
X210969Y1295215D02*
X211060Y1294960D01*
X211212Y1294735D01*
X211424Y1294540D01*
X211697Y1294375D01*
X212030Y1294240D01*
X212424Y1294135D01*
X212878Y1294060D01*
X213394Y1294015D01*
X213969Y1294000D01*
Y1291000D01*
X213394Y1290985D01*
X212878Y1290940D01*
X212424Y1290865D01*
X212030Y1290760D01*
X211697Y1290625D01*
X211424Y1290460D01*
X211212Y1290265D01*
X211060Y1290040D01*
X210969Y1289785D01*
X210939Y1289500D01*
Y1295500D01*
X210969Y1295215D01*
D02*
G37*
G36*
X240859Y1285500D02*
X239801Y1286545D01*
X237807Y1288305D01*
X236872Y1289020D01*
X235977Y1289625D01*
X235123Y1290120D01*
X234309Y1290505D01*
X233536Y1290780D01*
X232804Y1290945D01*
X232113Y1291000D01*
Y1294000D01*
X232804Y1294055D01*
X233536Y1294220D01*
X234309Y1294495D01*
X235123Y1294880D01*
X235977Y1295375D01*
X236872Y1295980D01*
X237807Y1296695D01*
X239801Y1298455D01*
X240859Y1299500D01*
Y1285500D01*
D02*
G37*
G36*
X195690Y1287991D02*
X195441Y1287870D01*
X195220Y1287670D01*
X195029Y1287390D01*
X194867Y1287030D01*
X194735Y1286591D01*
X194632Y1286071D01*
X194559Y1285470D01*
X194515Y1284790D01*
X194500Y1284030D01*
X190500D01*
X190485Y1284790D01*
X190368Y1286071D01*
X190265Y1286591D01*
X190133Y1287030D01*
X189971Y1287390D01*
X189780Y1287670D01*
X189559Y1287870D01*
X189310Y1287991D01*
X189030Y1288031D01*
X195970D01*
X195690Y1287991D01*
D02*
G37*
G36*
X359030Y1292249D02*
X358520Y1291597D01*
X358070Y1290902D01*
X357680Y1290164D01*
X357350Y1289383D01*
X357080Y1288559D01*
X356870Y1287692D01*
X356838Y1287500D01*
X356870Y1287308D01*
X357080Y1286442D01*
X357350Y1285618D01*
X357680Y1284837D01*
X358070Y1284099D01*
X358520Y1283404D01*
X359030Y1282751D01*
X359600Y1282142D01*
X345600D01*
X346170Y1282751D01*
X346680Y1283404D01*
X347130Y1284099D01*
X347520Y1284837D01*
X347850Y1285618D01*
X348120Y1286442D01*
X348330Y1287308D01*
X348362Y1287500D01*
X348330Y1287692D01*
X348120Y1288559D01*
X347850Y1289383D01*
X347520Y1290164D01*
X347130Y1290902D01*
X346680Y1291597D01*
X346170Y1292249D01*
X345600Y1292859D01*
X359600D01*
X359030Y1292249D01*
D02*
G37*
G36*
X497469Y1279548D02*
X497560Y1279293D01*
X497712Y1279068D01*
X497924Y1278873D01*
X498197Y1278708D01*
X498530Y1278573D01*
X498924Y1278468D01*
X499379Y1278393D01*
X499894Y1278348D01*
X500470Y1278333D01*
Y1275333D01*
X499894Y1275318D01*
X499379Y1275273D01*
X498924Y1275198D01*
X498530Y1275093D01*
X498197Y1274958D01*
X497924Y1274793D01*
X497712Y1274598D01*
X497560Y1274373D01*
X497469Y1274118D01*
X497439Y1273833D01*
Y1279833D01*
X497469Y1279548D01*
D02*
G37*
G36*
X169869Y1278532D02*
X169960Y1278278D01*
X170112Y1278053D01*
X170324Y1277858D01*
X170597Y1277692D01*
X170930Y1277558D01*
X171324Y1277452D01*
X171779Y1277377D01*
X172294Y1277333D01*
X172869Y1277318D01*
Y1274317D01*
X172294Y1274303D01*
X171779Y1274258D01*
X171324Y1274183D01*
X170930Y1274078D01*
X170597Y1273942D01*
X170324Y1273777D01*
X170112Y1273583D01*
X169960Y1273357D01*
X169869Y1273102D01*
X169839Y1272818D01*
Y1278818D01*
X169869Y1278532D01*
D02*
G37*
G36*
X387969Y1277715D02*
X388060Y1277460D01*
X388212Y1277235D01*
X388424Y1277040D01*
X388697Y1276875D01*
X389030Y1276740D01*
X389424Y1276635D01*
X389879Y1276560D01*
X390394Y1276515D01*
X390970Y1276500D01*
Y1273500D01*
X390394Y1273485D01*
X389879Y1273440D01*
X389424Y1273365D01*
X389030Y1273260D01*
X388697Y1273125D01*
X388424Y1272960D01*
X388212Y1272765D01*
X388060Y1272540D01*
X387969Y1272285D01*
X387939Y1272000D01*
Y1278000D01*
X387969Y1277715D01*
D02*
G37*
G36*
X1161942Y1271687D02*
X1161801Y1271502D01*
X1161677Y1271302D01*
X1161569Y1271087D01*
X1161478Y1270857D01*
X1161403Y1270612D01*
X1161345Y1270352D01*
X1161303Y1270077D01*
X1161278Y1269787D01*
X1161270Y1269482D01*
X1158730D01*
X1158722Y1269787D01*
X1158697Y1270077D01*
X1158655Y1270352D01*
X1158597Y1270612D01*
X1158522Y1270857D01*
X1158431Y1271087D01*
X1158323Y1271302D01*
X1158199Y1271502D01*
X1158058Y1271687D01*
X1157900Y1271858D01*
X1162100D01*
X1161942Y1271687D01*
D02*
G37*
G36*
X1131942D02*
X1131801Y1271502D01*
X1131677Y1271302D01*
X1131569Y1271087D01*
X1131478Y1270857D01*
X1131403Y1270612D01*
X1131345Y1270352D01*
X1131303Y1270077D01*
X1131278Y1269787D01*
X1131270Y1269482D01*
X1128730D01*
X1128722Y1269787D01*
X1128697Y1270077D01*
X1128655Y1270352D01*
X1128597Y1270612D01*
X1128522Y1270857D01*
X1128431Y1271087D01*
X1128323Y1271302D01*
X1128199Y1271502D01*
X1128058Y1271687D01*
X1127900Y1271858D01*
X1132100D01*
X1131942Y1271687D01*
D02*
G37*
G36*
X735683Y1271447D02*
X736128Y1271070D01*
X736340Y1270917D01*
X736545Y1270788D01*
X736744Y1270683D01*
X736935Y1270602D01*
X737120Y1270544D01*
X737299Y1270510D01*
X737470Y1270500D01*
X734500Y1267530D01*
X734490Y1267701D01*
X734456Y1267880D01*
X734398Y1268065D01*
X734317Y1268256D01*
X734212Y1268455D01*
X734083Y1268660D01*
X733930Y1268872D01*
X733754Y1269091D01*
X733329Y1269549D01*
X735451Y1271671D01*
X735683Y1271447D01*
D02*
G37*
G36*
X225408Y1271027D02*
X225723Y1270706D01*
X226080Y1270424D01*
X226480Y1270179D01*
X226921Y1269971D01*
X227405Y1269802D01*
X227931Y1269670D01*
X228498Y1269575D01*
X229108Y1269519D01*
X229761Y1269500D01*
X229736Y1265500D01*
X229028Y1265486D01*
X227778Y1265375D01*
X227236Y1265278D01*
X226748Y1265154D01*
X226315Y1265001D01*
X225938Y1264821D01*
X225615Y1264613D01*
X225348Y1264378D01*
X225135Y1264115D01*
Y1271385D01*
X225408Y1271027D01*
D02*
G37*
G36*
X216865Y1264115D02*
X216652Y1264378D01*
X216385Y1264613D01*
X216062Y1264821D01*
X215685Y1265001D01*
X215252Y1265154D01*
X214764Y1265278D01*
X214222Y1265375D01*
X213624Y1265445D01*
X212264Y1265500D01*
X212239Y1269500D01*
X212892Y1269519D01*
X213501Y1269575D01*
X214069Y1269670D01*
X214595Y1269802D01*
X215079Y1269971D01*
X215520Y1270179D01*
X215920Y1270424D01*
X216277Y1270706D01*
X216592Y1271027D01*
X216865Y1271385D01*
Y1264115D01*
D02*
G37*
G36*
X1161283Y1264812D02*
X1161321Y1264375D01*
X1161384Y1263990D01*
X1161473Y1263655D01*
X1161588Y1263373D01*
X1161727Y1263141D01*
X1161892Y1262962D01*
X1162083Y1262833D01*
X1162299Y1262756D01*
X1162540Y1262730D01*
X1157460D01*
X1157701Y1262756D01*
X1157917Y1262833D01*
X1158108Y1262962D01*
X1158273Y1263141D01*
X1158412Y1263373D01*
X1158527Y1263655D01*
X1158616Y1263990D01*
X1158679Y1264375D01*
X1158717Y1264812D01*
X1158730Y1265301D01*
X1161270D01*
X1161283Y1264812D01*
D02*
G37*
G36*
X1131283D02*
X1131321Y1264375D01*
X1131384Y1263990D01*
X1131473Y1263655D01*
X1131588Y1263373D01*
X1131727Y1263141D01*
X1131892Y1262962D01*
X1132083Y1262833D01*
X1132299Y1262756D01*
X1132540Y1262730D01*
X1127460D01*
X1127701Y1262756D01*
X1127917Y1262833D01*
X1128108Y1262962D01*
X1128273Y1263141D01*
X1128412Y1263373D01*
X1128527Y1263655D01*
X1128616Y1263990D01*
X1128679Y1264375D01*
X1128717Y1264812D01*
X1128730Y1265301D01*
X1131270D01*
X1131283Y1264812D01*
D02*
G37*
G36*
X240859Y1260500D02*
X239890Y1261450D01*
X238021Y1263050D01*
X237121Y1263700D01*
X236244Y1264250D01*
X235390Y1264700D01*
X234559Y1265050D01*
X233750Y1265300D01*
X232965Y1265450D01*
X232202Y1265500D01*
Y1269500D01*
X232965Y1269550D01*
X233750Y1269700D01*
X234559Y1269950D01*
X235390Y1270300D01*
X236244Y1270750D01*
X237121Y1271300D01*
X238021Y1271950D01*
X238944Y1272700D01*
X240859Y1274500D01*
Y1260500D01*
D02*
G37*
G36*
X194772Y1260394D02*
X194817Y1259878D01*
X194892Y1259424D01*
X194997Y1259030D01*
X195132Y1258697D01*
X195297Y1258424D01*
X195492Y1258212D01*
X195717Y1258060D01*
X195972Y1257969D01*
X196257Y1257939D01*
X190257D01*
X190542Y1257969D01*
X190797Y1258060D01*
X191022Y1258212D01*
X191217Y1258424D01*
X191382Y1258697D01*
X191517Y1259030D01*
X191622Y1259424D01*
X191697Y1259878D01*
X191742Y1260394D01*
X191757Y1260969D01*
X194757D01*
X194772Y1260394D01*
D02*
G37*
G36*
X359030Y1267249D02*
X358520Y1266597D01*
X358070Y1265902D01*
X357680Y1265163D01*
X357350Y1264383D01*
X357080Y1263559D01*
X356870Y1262692D01*
X356838Y1262500D01*
X356870Y1262308D01*
X357080Y1261442D01*
X357350Y1260618D01*
X357680Y1259837D01*
X358070Y1259099D01*
X358520Y1258404D01*
X359030Y1257751D01*
X359600Y1257142D01*
X345600D01*
X346170Y1257751D01*
X346680Y1258404D01*
X347130Y1259099D01*
X347520Y1259837D01*
X347850Y1260618D01*
X348120Y1261442D01*
X348330Y1262308D01*
X348362Y1262500D01*
X348330Y1262692D01*
X348120Y1263559D01*
X347850Y1264383D01*
X347520Y1265163D01*
X347130Y1265902D01*
X346680Y1266597D01*
X346170Y1267249D01*
X345600Y1267859D01*
X359600D01*
X359030Y1267249D01*
D02*
G37*
G36*
X701183Y1253947D02*
X701628Y1253570D01*
X701840Y1253417D01*
X702045Y1253288D01*
X702244Y1253183D01*
X702435Y1253102D01*
X702620Y1253044D01*
X702799Y1253010D01*
X702970Y1253000D01*
X700000Y1250030D01*
X699990Y1250201D01*
X699956Y1250380D01*
X699898Y1250565D01*
X699817Y1250756D01*
X699712Y1250955D01*
X699583Y1251160D01*
X699430Y1251372D01*
X699254Y1251591D01*
X698829Y1252049D01*
X700951Y1254171D01*
X701183Y1253947D01*
D02*
G37*
G36*
X199800Y1255040D02*
X199715Y1254764D01*
Y1254446D01*
X199800Y1254085D01*
X199970Y1253682D01*
X200224Y1253237D01*
X200564Y1252749D01*
X200988Y1252218D01*
X202091Y1251031D01*
X199970Y1248909D01*
X199354Y1249503D01*
X198251Y1250436D01*
X197763Y1250776D01*
X197318Y1251031D01*
X196915Y1251200D01*
X196554Y1251285D01*
X196236D01*
X195960Y1251200D01*
X195727Y1251031D01*
X199970Y1255273D01*
X199800Y1255040D01*
D02*
G37*
G36*
X739191Y1251655D02*
X739635Y1251278D01*
X739847Y1251125D01*
X740053Y1250997D01*
X740251Y1250891D01*
X740443Y1250810D01*
X740628Y1250752D01*
X740806Y1250718D01*
X740978Y1250708D01*
X738008Y1247738D01*
X737998Y1247910D01*
X737964Y1248088D01*
X737906Y1248273D01*
X737824Y1248465D01*
X737719Y1248663D01*
X737590Y1248868D01*
X737438Y1249081D01*
X737261Y1249299D01*
X736837Y1249758D01*
X738958Y1251879D01*
X739191Y1251655D01*
D02*
G37*
G36*
X223299Y1249994D02*
X223083Y1249917D01*
X222892Y1249789D01*
X222727Y1249609D01*
X222588Y1249377D01*
X222473Y1249094D01*
X222384Y1248760D01*
X222321Y1248375D01*
X222283Y1247938D01*
X222270Y1247449D01*
X219730D01*
X219717Y1247938D01*
X219679Y1248375D01*
X219616Y1248760D01*
X219527Y1249094D01*
X219412Y1249377D01*
X219273Y1249609D01*
X219108Y1249789D01*
X218917Y1249917D01*
X218701Y1249994D01*
X218460Y1250020D01*
X223540D01*
X223299Y1249994D01*
D02*
G37*
G36*
X387969Y1252715D02*
X388060Y1252460D01*
X388212Y1252235D01*
X388424Y1252040D01*
X388697Y1251875D01*
X389030Y1251740D01*
X389424Y1251635D01*
X389879Y1251560D01*
X390394Y1251515D01*
X390970Y1251500D01*
Y1248500D01*
X390394Y1248485D01*
X389879Y1248440D01*
X389424Y1248365D01*
X389030Y1248260D01*
X388697Y1248125D01*
X388424Y1247960D01*
X388212Y1247765D01*
X388060Y1247540D01*
X387969Y1247285D01*
X387939Y1247000D01*
Y1253000D01*
X387969Y1252715D01*
D02*
G37*
G36*
X1041944Y1258155D02*
X1043426Y1256900D01*
X1044133Y1256391D01*
X1044817Y1255961D01*
X1045479Y1255611D01*
X1046118Y1255339D01*
X1046735Y1255147D01*
X1047329Y1255033D01*
X1047900Y1254999D01*
X1038000Y1245100D01*
X1037967Y1245671D01*
X1037853Y1246265D01*
X1037661Y1246882D01*
X1037390Y1247521D01*
X1037039Y1248183D01*
X1036609Y1248867D01*
X1036100Y1249574D01*
X1035512Y1250304D01*
X1034098Y1251831D01*
X1041169Y1258902D01*
X1041944Y1258155D01*
D02*
G37*
G36*
X222278Y1246213D02*
X222303Y1245923D01*
X222345Y1245648D01*
X222403Y1245388D01*
X222477Y1245143D01*
X222569Y1244913D01*
X222677Y1244698D01*
X222801Y1244498D01*
X222942Y1244313D01*
X223100Y1244142D01*
X218900D01*
X219058Y1244313D01*
X219199Y1244498D01*
X219323Y1244698D01*
X219431Y1244913D01*
X219522Y1245143D01*
X219597Y1245388D01*
X219655Y1245648D01*
X219697Y1245923D01*
X219722Y1246213D01*
X219730Y1246518D01*
X222270D01*
X222278Y1246213D01*
D02*
G37*
G36*
X733426Y1244431D02*
X733870Y1244055D01*
X734082Y1243902D01*
X734287Y1243773D01*
X734486Y1243668D01*
X734678Y1243586D01*
X734863Y1243529D01*
X735041Y1243495D01*
X735212Y1243484D01*
X732243Y1240515D01*
X732232Y1240686D01*
X732198Y1240864D01*
X732141Y1241049D01*
X732059Y1241241D01*
X731954Y1241440D01*
X731825Y1241645D01*
X731672Y1241857D01*
X731496Y1242076D01*
X731072Y1242534D01*
X733193Y1244655D01*
X733426Y1244431D01*
D02*
G37*
G36*
X1055570Y1251620D02*
X1056069Y1251280D01*
X1056641Y1250980D01*
X1057286Y1250720D01*
X1058001Y1250500D01*
X1058789Y1250320D01*
X1059649Y1250180D01*
X1060581Y1250080D01*
X1062660Y1250000D01*
Y1240000D01*
X1061585Y1239980D01*
X1059649Y1239820D01*
X1058789Y1239680D01*
X1058001Y1239500D01*
X1057286Y1239280D01*
X1056641Y1239020D01*
X1056069Y1238720D01*
X1055570Y1238380D01*
X1055142Y1238000D01*
Y1252000D01*
X1055570Y1251620D01*
D02*
G37*
G36*
X730183Y1237947D02*
X730628Y1237570D01*
X730840Y1237417D01*
X731045Y1237288D01*
X731244Y1237183D01*
X731435Y1237102D01*
X731620Y1237044D01*
X731799Y1237010D01*
X731970Y1237000D01*
X729000Y1234030D01*
X728990Y1234201D01*
X728956Y1234380D01*
X728898Y1234565D01*
X728817Y1234756D01*
X728712Y1234955D01*
X728583Y1235160D01*
X728430Y1235372D01*
X728254Y1235591D01*
X727830Y1236049D01*
X729951Y1238170D01*
X730183Y1237947D01*
D02*
G37*
G36*
X197299Y1236035D02*
X197083Y1235958D01*
X196892Y1235830D01*
X196727Y1235650D01*
X196588Y1235418D01*
X196473Y1235136D01*
X196384Y1234801D01*
X196321Y1234416D01*
X196283Y1233979D01*
X196270Y1233491D01*
X193730D01*
X193717Y1233979D01*
X193679Y1234416D01*
X193616Y1234801D01*
X193527Y1235136D01*
X193412Y1235418D01*
X193273Y1235650D01*
X193108Y1235830D01*
X192917Y1235958D01*
X192701Y1236035D01*
X192460Y1236061D01*
X197540D01*
X197299Y1236035D01*
D02*
G37*
G36*
X359030Y1242249D02*
X358520Y1241597D01*
X358070Y1240902D01*
X357680Y1240163D01*
X357350Y1239383D01*
X357080Y1238559D01*
X356870Y1237692D01*
X356838Y1237500D01*
X356870Y1237308D01*
X357080Y1236442D01*
X357350Y1235618D01*
X357680Y1234837D01*
X358070Y1234099D01*
X358520Y1233404D01*
X359030Y1232751D01*
X359600Y1232142D01*
X345600D01*
X346170Y1232751D01*
X346680Y1233404D01*
X347130Y1234099D01*
X347520Y1234837D01*
X347850Y1235618D01*
X348120Y1236442D01*
X348330Y1237308D01*
X348362Y1237500D01*
X348330Y1237692D01*
X348120Y1238559D01*
X347850Y1239383D01*
X347520Y1240163D01*
X347130Y1240902D01*
X346680Y1241597D01*
X346170Y1242249D01*
X345600Y1242859D01*
X359600D01*
X359030Y1242249D01*
D02*
G37*
G36*
X196278Y1231213D02*
X196303Y1230923D01*
X196345Y1230648D01*
X196403Y1230388D01*
X196478Y1230143D01*
X196569Y1229913D01*
X196677Y1229698D01*
X196801Y1229498D01*
X196942Y1229313D01*
X197100Y1229142D01*
X192900D01*
X193058Y1229313D01*
X193199Y1229498D01*
X193323Y1229698D01*
X193431Y1229913D01*
X193522Y1230143D01*
X193597Y1230388D01*
X193655Y1230648D01*
X193697Y1230923D01*
X193722Y1231213D01*
X193730Y1231518D01*
X196270D01*
X196278Y1231213D01*
D02*
G37*
G36*
X387969Y1227715D02*
X388060Y1227460D01*
X388212Y1227235D01*
X388424Y1227040D01*
X388697Y1226875D01*
X389030Y1226740D01*
X389424Y1226635D01*
X389879Y1226560D01*
X390394Y1226515D01*
X390970Y1226500D01*
Y1223500D01*
X390394Y1223485D01*
X389879Y1223440D01*
X389424Y1223365D01*
X389030Y1223260D01*
X388697Y1223125D01*
X388424Y1222960D01*
X388212Y1222765D01*
X388060Y1222540D01*
X387969Y1222285D01*
X387939Y1222000D01*
Y1228000D01*
X387969Y1227715D01*
D02*
G37*
G36*
X870146Y1211172D02*
X870078Y1211024D01*
X870019Y1210853D01*
X869967Y1210659D01*
X869923Y1210444D01*
X869860Y1209946D01*
X869840Y1209664D01*
X869824Y1209032D01*
X866824Y1208346D01*
X866817Y1208669D01*
X866759Y1209242D01*
X866708Y1209492D01*
X866643Y1209719D01*
X866563Y1209922D01*
X866469Y1210101D01*
X866360Y1210256D01*
X866236Y1210388D01*
X866099Y1210495D01*
X870221Y1211299D01*
X870146Y1211172D01*
D02*
G37*
G36*
X359030Y1217249D02*
X358520Y1216597D01*
X358070Y1215902D01*
X357680Y1215163D01*
X357350Y1214383D01*
X357080Y1213559D01*
X356870Y1212692D01*
X356838Y1212500D01*
X356870Y1212308D01*
X357080Y1211442D01*
X357350Y1210618D01*
X357680Y1209837D01*
X358070Y1209099D01*
X358520Y1208404D01*
X359030Y1207751D01*
X359600Y1207142D01*
X345600D01*
X346170Y1207751D01*
X346680Y1208404D01*
X347130Y1209099D01*
X347520Y1209837D01*
X347850Y1210618D01*
X348120Y1211442D01*
X348330Y1212308D01*
X348362Y1212500D01*
X348330Y1212692D01*
X348120Y1213559D01*
X347850Y1214383D01*
X347520Y1215163D01*
X347130Y1215902D01*
X346680Y1216597D01*
X346170Y1217249D01*
X345600Y1217859D01*
X359600D01*
X359030Y1217249D01*
D02*
G37*
G36*
X904271Y1208986D02*
X904421Y1208884D01*
X904593Y1208794D01*
X904786Y1208716D01*
X905000Y1208650D01*
X905237Y1208596D01*
X905495Y1208554D01*
X905774Y1208524D01*
X906398Y1208500D01*
Y1205500D01*
X906075Y1205494D01*
X905495Y1205446D01*
X905237Y1205404D01*
X905000Y1205350D01*
X904786Y1205284D01*
X904593Y1205206D01*
X904421Y1205116D01*
X904271Y1205014D01*
X904142Y1204900D01*
Y1209100D01*
X904271Y1208986D01*
D02*
G37*
G36*
X937010Y1202799D02*
X937044Y1202620D01*
X937102Y1202435D01*
X937183Y1202244D01*
X937288Y1202045D01*
X937417Y1201840D01*
X937570Y1201628D01*
X937746Y1201409D01*
X938171Y1200951D01*
X936049Y1198829D01*
X935817Y1199053D01*
X935372Y1199430D01*
X935160Y1199583D01*
X934955Y1199712D01*
X934756Y1199817D01*
X934565Y1199898D01*
X934380Y1199956D01*
X934201Y1199990D01*
X934030Y1200000D01*
X937000Y1202970D01*
X937010Y1202799D01*
D02*
G37*
G36*
X387969Y1202715D02*
X388060Y1202460D01*
X388212Y1202235D01*
X388424Y1202040D01*
X388697Y1201875D01*
X389030Y1201740D01*
X389424Y1201635D01*
X389879Y1201560D01*
X390394Y1201515D01*
X390970Y1201500D01*
Y1198500D01*
X390394Y1198485D01*
X389879Y1198440D01*
X389424Y1198365D01*
X389030Y1198260D01*
X388697Y1198125D01*
X388424Y1197960D01*
X388212Y1197765D01*
X388060Y1197540D01*
X387969Y1197285D01*
X387939Y1197000D01*
Y1203000D01*
X387969Y1202715D01*
D02*
G37*
G36*
X977166Y1194077D02*
X972966D01*
X972985Y1194113D01*
X973002Y1194184D01*
X973017Y1194288D01*
X973041Y1194599D01*
X973065Y1195628D01*
X973066Y1195970D01*
X977066D01*
X977166Y1194077D01*
D02*
G37*
G36*
X497469Y1198382D02*
X497560Y1198127D01*
X497712Y1197902D01*
X497924Y1197707D01*
X498197Y1197542D01*
X498530Y1197406D01*
X498924Y1197301D01*
X499379Y1197226D01*
X499894Y1197181D01*
X500470Y1197167D01*
Y1194166D01*
X499894Y1194152D01*
X499379Y1194107D01*
X498924Y1194032D01*
X498530Y1193926D01*
X498197Y1193792D01*
X497924Y1193626D01*
X497712Y1193431D01*
X497560Y1193206D01*
X497469Y1192952D01*
X497439Y1192666D01*
Y1198667D01*
X497469Y1198382D01*
D02*
G37*
G36*
X815506Y1193075D02*
X815554Y1192495D01*
X815596Y1192237D01*
X815650Y1192000D01*
X815716Y1191786D01*
X815794Y1191592D01*
X815884Y1191421D01*
X815986Y1191271D01*
X816100Y1191142D01*
X811900D01*
X812014Y1191271D01*
X812116Y1191421D01*
X812206Y1191592D01*
X812284Y1191786D01*
X812350Y1192000D01*
X812404Y1192237D01*
X812446Y1192495D01*
X812476Y1192774D01*
X812500Y1193398D01*
X815500D01*
X815506Y1193075D01*
D02*
G37*
G36*
X199000Y1196215D02*
X199090Y1195960D01*
X199240Y1195735D01*
X199450Y1195540D01*
X199720Y1195375D01*
X200049Y1195240D01*
X200439Y1195135D01*
X200889Y1195060D01*
X201399Y1195015D01*
X201970Y1195000D01*
Y1192000D01*
X201399Y1191985D01*
X200889Y1191940D01*
X200439Y1191865D01*
X200049Y1191760D01*
X199720Y1191625D01*
X199450Y1191460D01*
X199240Y1191265D01*
X199090Y1191040D01*
X199000Y1190785D01*
X198969Y1190500D01*
Y1196500D01*
X199000Y1196215D01*
D02*
G37*
G36*
X189030Y1190031D02*
X189009Y1190081D01*
X188946Y1190082D01*
X188840Y1190033D01*
X188691Y1189933D01*
X188500Y1189784D01*
X187991Y1189336D01*
X186909Y1188288D01*
Y1192531D01*
X187316Y1192959D01*
X187681Y1193386D01*
X188003Y1193812D01*
X188282Y1194238D01*
X188518Y1194662D01*
X188712Y1195086D01*
X188863Y1195509D01*
X188972Y1195931D01*
X189038Y1196353D01*
X189061Y1196773D01*
X189030Y1190031D01*
D02*
G37*
G36*
X812183Y1182947D02*
X812628Y1182570D01*
X812840Y1182417D01*
X813045Y1182288D01*
X813244Y1182183D01*
X813435Y1182102D01*
X813620Y1182044D01*
X813799Y1182010D01*
X813970Y1182000D01*
X811000Y1179030D01*
X810990Y1179201D01*
X810956Y1179380D01*
X810898Y1179565D01*
X810817Y1179756D01*
X810712Y1179955D01*
X810583Y1180160D01*
X810430Y1180372D01*
X810254Y1180591D01*
X809829Y1181049D01*
X811951Y1183171D01*
X812183Y1182947D01*
D02*
G37*
G36*
X904046Y1181591D02*
X904067Y1181410D01*
X904113Y1181222D01*
X904184Y1181028D01*
X904281Y1180827D01*
X904403Y1180620D01*
X904550Y1180407D01*
X904722Y1180187D01*
X904920Y1179961D01*
X905143Y1179728D01*
X902800Y1177829D01*
X902567Y1178054D01*
X902125Y1178438D01*
X901916Y1178596D01*
X901715Y1178732D01*
X901521Y1178846D01*
X901336Y1178937D01*
X901158Y1179005D01*
X900988Y1179052D01*
X900826Y1179075D01*
X904051Y1181766D01*
X904046Y1181591D01*
D02*
G37*
G36*
X356630Y1189170D02*
X356720Y1188218D01*
X356870Y1187308D01*
X357080Y1186442D01*
X357350Y1185618D01*
X357680Y1184837D01*
X358070Y1184099D01*
X358520Y1183404D01*
X359030Y1182751D01*
X359600Y1182142D01*
X352600Y1175000D01*
X345600Y1182142D01*
X346170Y1182751D01*
X346680Y1183404D01*
X347130Y1184099D01*
X347520Y1184837D01*
X347850Y1185618D01*
X348120Y1186442D01*
X348330Y1187308D01*
X348480Y1188218D01*
X348570Y1189170D01*
X348600Y1190165D01*
X356600Y1190165D01*
X356630Y1189170D01*
D02*
G37*
G36*
X171991Y1173370D02*
X171394Y1172752D01*
X170454Y1171645D01*
X170112Y1171156D01*
X169854Y1170710D01*
X169681Y1170307D01*
X169594Y1169948D01*
X169591Y1169631D01*
X169672Y1169358D01*
X169839Y1169127D01*
X165627Y1173339D01*
X165858Y1173172D01*
X166131Y1173091D01*
X166448Y1173094D01*
X166807Y1173182D01*
X167210Y1173354D01*
X167656Y1173612D01*
X168145Y1173954D01*
X168677Y1174382D01*
X169869Y1175491D01*
X171991Y1173370D01*
D02*
G37*
G36*
X196299Y1175035D02*
X196083Y1174958D01*
X195892Y1174830D01*
X195727Y1174650D01*
X195588Y1174418D01*
X195473Y1174136D01*
X195384Y1173801D01*
X195321Y1173416D01*
X195283Y1172979D01*
X195270Y1172490D01*
X192730D01*
X192717Y1172979D01*
X192679Y1173416D01*
X192616Y1173801D01*
X192527Y1174136D01*
X192412Y1174418D01*
X192273Y1174650D01*
X192108Y1174830D01*
X191917Y1174958D01*
X191701Y1175035D01*
X191460Y1175061D01*
X196540D01*
X196299Y1175035D01*
D02*
G37*
G36*
X387969Y1177715D02*
X388060Y1177460D01*
X388212Y1177235D01*
X388424Y1177040D01*
X388697Y1176875D01*
X389030Y1176740D01*
X389424Y1176635D01*
X389879Y1176560D01*
X390394Y1176515D01*
X390970Y1176500D01*
Y1173500D01*
X390394Y1173485D01*
X389879Y1173440D01*
X389424Y1173365D01*
X389030Y1173260D01*
X388697Y1173125D01*
X388424Y1172960D01*
X388212Y1172765D01*
X388060Y1172540D01*
X387969Y1172285D01*
X387939Y1172000D01*
Y1178000D01*
X387969Y1177715D01*
D02*
G37*
G36*
X937081Y1172821D02*
X937064Y1172750D01*
X937049Y1172646D01*
X937025Y1172335D01*
X937001Y1171306D01*
X937000Y1170964D01*
X933000D01*
X932900Y1172858D01*
X937100D01*
X937081Y1172821D01*
D02*
G37*
G36*
X195278Y1170213D02*
X195303Y1169923D01*
X195345Y1169648D01*
X195403Y1169388D01*
X195478Y1169143D01*
X195569Y1168913D01*
X195677Y1168698D01*
X195801Y1168498D01*
X195942Y1168313D01*
X196100Y1168142D01*
X191900D01*
X192058Y1168313D01*
X192199Y1168498D01*
X192323Y1168698D01*
X192431Y1168913D01*
X192523Y1169143D01*
X192597Y1169388D01*
X192655Y1169648D01*
X192697Y1169923D01*
X192722Y1170213D01*
X192730Y1170518D01*
X195270D01*
X195278Y1170213D01*
D02*
G37*
G36*
X812133Y1165044D02*
X812775Y1164487D01*
X812969Y1164345D01*
X813326Y1164123D01*
X813489Y1164045D01*
X813643Y1163988D01*
X813786Y1163952D01*
X810310Y1161595D01*
X810331Y1161769D01*
X810324Y1161949D01*
X810291Y1162136D01*
X810231Y1162329D01*
X810144Y1162529D01*
X810029Y1162736D01*
X809888Y1162949D01*
X809719Y1163169D01*
X809523Y1163395D01*
X809301Y1163628D01*
X811900Y1165272D01*
X812133Y1165044D01*
D02*
G37*
G36*
X903010Y1163799D02*
X903044Y1163620D01*
X903102Y1163435D01*
X903183Y1163244D01*
X903288Y1163045D01*
X903417Y1162840D01*
X903570Y1162628D01*
X903746Y1162409D01*
X904171Y1161951D01*
X902049Y1159829D01*
X901817Y1160053D01*
X901372Y1160430D01*
X901160Y1160583D01*
X900955Y1160712D01*
X900756Y1160817D01*
X900565Y1160898D01*
X900380Y1160956D01*
X900201Y1160990D01*
X900030Y1161000D01*
X903000Y1163970D01*
X903010Y1163799D01*
D02*
G37*
G36*
X811488Y1150572D02*
X811359Y1150654D01*
X811208Y1150726D01*
X811036Y1150790D01*
X810841Y1150846D01*
X810625Y1150893D01*
X810386Y1150932D01*
X809844Y1150983D01*
X809214Y1151000D01*
X808622Y1154000D01*
X808944Y1154007D01*
X809518Y1154064D01*
X809770Y1154114D01*
X809998Y1154178D01*
X810203Y1154257D01*
X810384Y1154350D01*
X810542Y1154457D01*
X810676Y1154578D01*
X810788Y1154714D01*
X811488Y1150572D01*
D02*
G37*
G36*
X359600Y1167859D02*
X359030Y1167249D01*
X358520Y1166597D01*
X358070Y1165902D01*
X357680Y1165163D01*
X357350Y1164383D01*
X357080Y1163559D01*
X356870Y1162692D01*
X356838Y1162500D01*
X356870Y1162308D01*
X357080Y1161442D01*
X357350Y1160618D01*
X357680Y1159837D01*
X358070Y1159099D01*
X358520Y1158404D01*
X359030Y1157751D01*
X359600Y1157142D01*
X352600Y1150000D01*
X345600Y1157142D01*
X346170Y1157751D01*
X346680Y1158404D01*
X347130Y1159099D01*
X347520Y1159837D01*
X347850Y1160618D01*
X348120Y1161442D01*
X348330Y1162308D01*
X348362Y1162500D01*
X348330Y1162692D01*
X348120Y1163559D01*
X347850Y1164383D01*
X347520Y1165163D01*
X347130Y1165902D01*
X346680Y1166597D01*
X346170Y1167249D01*
X345600Y1167859D01*
X352600Y1175000D01*
X359600Y1167859D01*
D02*
G37*
G36*
X387969Y1152715D02*
X388060Y1152460D01*
X388212Y1152235D01*
X388424Y1152040D01*
X388697Y1151875D01*
X389030Y1151740D01*
X389424Y1151635D01*
X389879Y1151560D01*
X390394Y1151515D01*
X390970Y1151500D01*
Y1148500D01*
X390394Y1148485D01*
X389879Y1148440D01*
X389424Y1148365D01*
X389030Y1148260D01*
X388697Y1148125D01*
X388424Y1147960D01*
X388212Y1147765D01*
X388060Y1147540D01*
X387969Y1147285D01*
X387939Y1147000D01*
Y1153000D01*
X387969Y1152715D01*
D02*
G37*
G36*
X813220Y1142000D02*
X813049Y1141990D01*
X812870Y1141956D01*
X812685Y1141898D01*
X812494Y1141817D01*
X812295Y1141712D01*
X812090Y1141583D01*
X811878Y1141430D01*
X811659Y1141254D01*
X811201Y1140829D01*
X809080Y1142951D01*
X809303Y1143183D01*
X809680Y1143628D01*
X809833Y1143840D01*
X809962Y1144045D01*
X810067Y1144244D01*
X810148Y1144435D01*
X810206Y1144620D01*
X810240Y1144799D01*
X810250Y1144970D01*
X813220Y1142000D01*
D02*
G37*
G36*
X1215784Y1129457D02*
X1215590Y1129774D01*
X1215358Y1130057D01*
X1215088Y1130307D01*
X1214779Y1130524D01*
X1214433Y1130708D01*
X1214048Y1130858D01*
X1213625Y1130975D01*
X1213164Y1131058D01*
X1212665Y1131108D01*
X1212127Y1131125D01*
Y1134125D01*
X1212624Y1134142D01*
X1213082Y1134195D01*
X1213502Y1134283D01*
X1213882Y1134406D01*
X1214223Y1134565D01*
X1214525Y1134758D01*
X1214789Y1134987D01*
X1215013Y1135251D01*
X1215198Y1135550D01*
X1215345Y1135885D01*
X1215784Y1129457D01*
D02*
G37*
G36*
X731040Y1128979D02*
X730909Y1129078D01*
X730756Y1129166D01*
X730582Y1129245D01*
X730386Y1129312D01*
X730169Y1129370D01*
X729930Y1129417D01*
X729671Y1129453D01*
X729087Y1129495D01*
X728763Y1129500D01*
X728473Y1132500D01*
X728795Y1132507D01*
X729372Y1132560D01*
X729628Y1132606D01*
X729861Y1132666D01*
X730071Y1132739D01*
X730259Y1132825D01*
X730425Y1132925D01*
X730569Y1133038D01*
X730690Y1133164D01*
X731040Y1128979D01*
D02*
G37*
G36*
X1267596Y1146370D02*
X1270960Y1143442D01*
X1272429Y1142355D01*
X1273756Y1141520D01*
X1274941Y1140935D01*
X1275984Y1140602D01*
X1276886Y1140520D01*
X1277645Y1140689D01*
X1278261Y1141109D01*
X1265731Y1128578D01*
X1266151Y1129195D01*
X1266320Y1129955D01*
X1266238Y1130855D01*
X1265905Y1131898D01*
X1265321Y1133084D01*
X1264485Y1134411D01*
X1263398Y1135880D01*
X1262059Y1137491D01*
X1258629Y1141140D01*
X1265701Y1148211D01*
X1267596Y1146370D01*
D02*
G37*
G36*
X359600Y1142859D02*
X359030Y1142249D01*
X358520Y1141597D01*
X358070Y1140902D01*
X357680Y1140163D01*
X357350Y1139383D01*
X357080Y1138559D01*
X356870Y1137692D01*
X356838Y1137500D01*
X356870Y1137308D01*
X357080Y1136442D01*
X357350Y1135618D01*
X357680Y1134837D01*
X358070Y1134099D01*
X358520Y1133404D01*
X359030Y1132751D01*
X359600Y1132142D01*
X352600Y1125000D01*
X345600Y1132142D01*
X346170Y1132751D01*
X346680Y1133404D01*
X347130Y1134099D01*
X347520Y1134837D01*
X347850Y1135618D01*
X348120Y1136442D01*
X348330Y1137308D01*
X348362Y1137500D01*
X348330Y1137692D01*
X348120Y1138559D01*
X347850Y1139383D01*
X347520Y1140163D01*
X347130Y1140902D01*
X346680Y1141597D01*
X346170Y1142249D01*
X345600Y1142859D01*
X352600Y1150000D01*
X359600Y1142859D01*
D02*
G37*
G36*
X387969Y1127715D02*
X388060Y1127460D01*
X388212Y1127235D01*
X388424Y1127040D01*
X388697Y1126875D01*
X389030Y1126740D01*
X389424Y1126635D01*
X389879Y1126560D01*
X390394Y1126515D01*
X390970Y1126500D01*
Y1123500D01*
X390394Y1123485D01*
X389879Y1123440D01*
X389424Y1123365D01*
X389030Y1123260D01*
X388697Y1123125D01*
X388424Y1122960D01*
X388212Y1122765D01*
X388060Y1122540D01*
X387969Y1122285D01*
X387939Y1122000D01*
Y1128000D01*
X387969Y1127715D01*
D02*
G37*
G36*
X497469Y1117215D02*
X497560Y1116960D01*
X497712Y1116735D01*
X497924Y1116540D01*
X498197Y1116375D01*
X498530Y1116240D01*
X498924Y1116135D01*
X499379Y1116060D01*
X499894Y1116015D01*
X500470Y1116000D01*
Y1113000D01*
X499894Y1112985D01*
X499379Y1112940D01*
X498924Y1112865D01*
X498530Y1112760D01*
X498197Y1112625D01*
X497924Y1112460D01*
X497712Y1112265D01*
X497560Y1112040D01*
X497469Y1111785D01*
X497439Y1111500D01*
Y1117500D01*
X497469Y1117215D01*
D02*
G37*
G36*
X726617Y1110525D02*
X726441Y1110534D01*
X726260Y1110517D01*
X726072Y1110475D01*
X725878Y1110407D01*
X725677Y1110313D01*
X725470Y1110193D01*
X725256Y1110048D01*
X725036Y1109876D01*
X724810Y1109679D01*
X724577Y1109456D01*
X722749Y1111870D01*
X722975Y1112103D01*
X723521Y1112752D01*
X723659Y1112951D01*
X723774Y1113142D01*
X723868Y1113325D01*
X723940Y1113500D01*
X723990Y1113666D01*
X724017Y1113824D01*
X726617Y1110525D01*
D02*
G37*
G36*
X877010Y1111799D02*
X877044Y1111620D01*
X877102Y1111435D01*
X877183Y1111244D01*
X877288Y1111045D01*
X877417Y1110840D01*
X877570Y1110628D01*
X877746Y1110409D01*
X878171Y1109951D01*
X876049Y1107830D01*
X875817Y1108053D01*
X875372Y1108430D01*
X875160Y1108583D01*
X874955Y1108712D01*
X874756Y1108817D01*
X874565Y1108898D01*
X874380Y1108956D01*
X874201Y1108990D01*
X874030Y1109000D01*
X877000Y1111970D01*
X877010Y1111799D01*
D02*
G37*
G36*
X359600Y1117859D02*
X359030Y1117249D01*
X358520Y1116597D01*
X358070Y1115902D01*
X357680Y1115163D01*
X357350Y1114383D01*
X357080Y1113559D01*
X356870Y1112692D01*
X356838Y1112500D01*
X356870Y1112308D01*
X357080Y1111442D01*
X357350Y1110618D01*
X357680Y1109837D01*
X358070Y1109099D01*
X358520Y1108403D01*
X359030Y1107751D01*
X359600Y1107142D01*
X352600Y1100000D01*
X345600Y1107142D01*
X346170Y1107751D01*
X346680Y1108403D01*
X347130Y1109099D01*
X347520Y1109837D01*
X347850Y1110618D01*
X348120Y1111442D01*
X348330Y1112308D01*
X348362Y1112500D01*
X348330Y1112692D01*
X348120Y1113559D01*
X347850Y1114383D01*
X347520Y1115163D01*
X347130Y1115902D01*
X346680Y1116597D01*
X346170Y1117249D01*
X345600Y1117859D01*
X352600Y1125000D01*
X359600Y1117859D01*
D02*
G37*
G36*
X1228858Y1098900D02*
X1228729Y1099014D01*
X1228579Y1099116D01*
X1228408Y1099206D01*
X1228214Y1099284D01*
X1228000Y1099350D01*
X1227763Y1099404D01*
X1227505Y1099446D01*
X1227226Y1099476D01*
X1226602Y1099500D01*
Y1102500D01*
X1226925Y1102506D01*
X1227505Y1102554D01*
X1227763Y1102596D01*
X1228000Y1102650D01*
X1228214Y1102716D01*
X1228408Y1102794D01*
X1228579Y1102884D01*
X1228729Y1102986D01*
X1228858Y1103100D01*
Y1098900D01*
D02*
G37*
G36*
X875986Y1100729D02*
X875884Y1100579D01*
X875794Y1100408D01*
X875716Y1100214D01*
X875650Y1100000D01*
X875596Y1099763D01*
X875554Y1099505D01*
X875524Y1099226D01*
X875500Y1098602D01*
X872500D01*
X872494Y1098925D01*
X872446Y1099505D01*
X872404Y1099763D01*
X872350Y1100000D01*
X872284Y1100214D01*
X872206Y1100408D01*
X872116Y1100579D01*
X872014Y1100729D01*
X871900Y1100858D01*
X876100D01*
X875986Y1100729D01*
D02*
G37*
G36*
X387969Y1102715D02*
X388060Y1102460D01*
X388212Y1102235D01*
X388424Y1102040D01*
X388697Y1101875D01*
X389030Y1101740D01*
X389424Y1101635D01*
X389879Y1101560D01*
X390394Y1101515D01*
X390970Y1101500D01*
Y1098500D01*
X390394Y1098485D01*
X389879Y1098440D01*
X389424Y1098365D01*
X389030Y1098260D01*
X388697Y1098125D01*
X388424Y1097960D01*
X388212Y1097765D01*
X388060Y1097540D01*
X387969Y1097285D01*
X387939Y1097000D01*
Y1103000D01*
X387969Y1102715D01*
D02*
G37*
G36*
X870052Y1092663D02*
X869950Y1092513D01*
X869860Y1092342D01*
X869782Y1092149D01*
X869716Y1091934D01*
X869662Y1091697D01*
X869620Y1091439D01*
X869590Y1091160D01*
X869566Y1090536D01*
X866566D01*
X866560Y1090859D01*
X866512Y1091439D01*
X866470Y1091697D01*
X866416Y1091934D01*
X866350Y1092149D01*
X866272Y1092342D01*
X866182Y1092513D01*
X866080Y1092663D01*
X865966Y1092792D01*
X870166D01*
X870052Y1092663D01*
D02*
G37*
G36*
X857005Y1089999D02*
X857451Y1089635D01*
X857664Y1089493D01*
X857871Y1089379D01*
X858071Y1089292D01*
X858264Y1089232D01*
X858451Y1089199D01*
X858631Y1089193D01*
X858804Y1089215D01*
X856458Y1085732D01*
X856422Y1085874D01*
X856364Y1086027D01*
X856285Y1086190D01*
X856185Y1086364D01*
X856064Y1086547D01*
X855757Y1086944D01*
X855571Y1087158D01*
X855136Y1087615D01*
X856772Y1090221D01*
X857005Y1089999D01*
D02*
G37*
G36*
X829598Y1084509D02*
X829646Y1083928D01*
X829688Y1083670D01*
X829742Y1083434D01*
X829808Y1083219D01*
X829886Y1083026D01*
X829976Y1082854D01*
X830078Y1082704D01*
X830192Y1082576D01*
X825992D01*
X826106Y1082704D01*
X826208Y1082854D01*
X826298Y1083026D01*
X826376Y1083219D01*
X826442Y1083434D01*
X826496Y1083670D01*
X826538Y1083928D01*
X826568Y1084208D01*
X826592Y1084831D01*
X829592D01*
X829598Y1084509D01*
D02*
G37*
G36*
X852096Y1084728D02*
X852541Y1084352D01*
X852753Y1084199D01*
X852958Y1084070D01*
X853157Y1083965D01*
X853349Y1083883D01*
X853534Y1083826D01*
X853712Y1083792D01*
X853883Y1083781D01*
X850913Y1080812D01*
X850903Y1080983D01*
X850869Y1081161D01*
X850812Y1081346D01*
X850730Y1081538D01*
X850625Y1081736D01*
X850496Y1081942D01*
X850343Y1082154D01*
X850167Y1082373D01*
X849743Y1082831D01*
X851864Y1084952D01*
X852096Y1084728D01*
D02*
G37*
G36*
X249930Y1090049D02*
X249420Y1089397D01*
X248970Y1088701D01*
X248580Y1087963D01*
X248250Y1087182D01*
X247980Y1086359D01*
X247770Y1085492D01*
X247705Y1085100D01*
X247770Y1084708D01*
X247980Y1083841D01*
X248250Y1083018D01*
X248580Y1082237D01*
X248970Y1081499D01*
X249420Y1080803D01*
X249930Y1080151D01*
X250500Y1079541D01*
X236500D01*
X237070Y1080151D01*
X237580Y1080803D01*
X238030Y1081499D01*
X238420Y1082237D01*
X238750Y1083018D01*
X239020Y1083841D01*
X239230Y1084708D01*
X239295Y1085100D01*
X239230Y1085492D01*
X239020Y1086359D01*
X238750Y1087182D01*
X238420Y1087963D01*
X238030Y1088701D01*
X237580Y1089397D01*
X237070Y1090049D01*
X236500Y1090659D01*
X250500D01*
X249930Y1090049D01*
D02*
G37*
G36*
X846866Y1079497D02*
X847310Y1079121D01*
X847522Y1078968D01*
X847728Y1078839D01*
X847926Y1078734D01*
X848118Y1078652D01*
X848303Y1078595D01*
X848481Y1078561D01*
X848652Y1078550D01*
X845683Y1075581D01*
X845672Y1075752D01*
X845638Y1075930D01*
X845581Y1076115D01*
X845499Y1076307D01*
X845394Y1076506D01*
X845265Y1076711D01*
X845112Y1076923D01*
X844936Y1077142D01*
X844512Y1077600D01*
X846633Y1079721D01*
X846866Y1079497D01*
D02*
G37*
G36*
X359600Y1092859D02*
X359030Y1092249D01*
X358520Y1091597D01*
X358070Y1090901D01*
X357680Y1090163D01*
X357350Y1089382D01*
X357080Y1088559D01*
X356870Y1087692D01*
X356838Y1087500D01*
X356870Y1087308D01*
X357080Y1086442D01*
X357350Y1085618D01*
X357680Y1084837D01*
X358070Y1084099D01*
X358520Y1083403D01*
X359030Y1082751D01*
X359600Y1082142D01*
X352600Y1075000D01*
X345600Y1082142D01*
X346170Y1082751D01*
X346680Y1083403D01*
X347130Y1084099D01*
X347520Y1084837D01*
X347850Y1085618D01*
X348120Y1086442D01*
X348330Y1087308D01*
X348362Y1087500D01*
X348330Y1087692D01*
X348120Y1088559D01*
X347850Y1089382D01*
X347520Y1090163D01*
X347130Y1090902D01*
X346680Y1091597D01*
X346170Y1092249D01*
X345600Y1092859D01*
X352600Y1100000D01*
X359600Y1092859D01*
D02*
G37*
G36*
X813030Y1074799D02*
X812900Y1074884D01*
X812748Y1074961D01*
X812574Y1075029D01*
X812379Y1075088D01*
X812162Y1075137D01*
X811924Y1075178D01*
X811382Y1075232D01*
X811078Y1075246D01*
X810753Y1075250D01*
X810234Y1078250D01*
X810556Y1078257D01*
X811130Y1078313D01*
X811383Y1078363D01*
X811613Y1078426D01*
X811819Y1078503D01*
X812002Y1078595D01*
X812162Y1078700D01*
X812299Y1078820D01*
X812413Y1078953D01*
X813030Y1074799D01*
D02*
G37*
G36*
X387969Y1075715D02*
X388060Y1075460D01*
X388212Y1075235D01*
X388424Y1075040D01*
X388697Y1074875D01*
X389030Y1074740D01*
X389424Y1074635D01*
X389879Y1074560D01*
X390394Y1074515D01*
X390970Y1074500D01*
Y1071500D01*
X390394Y1071485D01*
X389879Y1071440D01*
X389424Y1071365D01*
X389030Y1071260D01*
X388697Y1071125D01*
X388424Y1070960D01*
X388212Y1070765D01*
X388060Y1070540D01*
X387969Y1070285D01*
X387939Y1070000D01*
Y1076000D01*
X387969Y1075715D01*
D02*
G37*
G36*
X251251Y1078830D02*
X251903Y1078320D01*
X252599Y1077870D01*
X253337Y1077480D01*
X254118Y1077150D01*
X254942Y1076880D01*
X255808Y1076670D01*
X256718Y1076520D01*
X257670Y1076430D01*
X258593Y1076402D01*
X266558Y1076498D01*
Y1068302D01*
X266450Y1068321D01*
X266185Y1068337D01*
X259933Y1068399D01*
X258660Y1068400D01*
X257670Y1068370D01*
X256718Y1068280D01*
X255808Y1068130D01*
X254942Y1067920D01*
X254118Y1067650D01*
X253337Y1067320D01*
X252599Y1066930D01*
X251903Y1066480D01*
X251251Y1065970D01*
X250641Y1065400D01*
Y1079400D01*
X251251Y1078830D01*
D02*
G37*
G36*
X274887Y1075312D02*
X275301Y1075005D01*
X275895Y1074504D01*
X280072Y1070556D01*
X283240Y1067417D01*
X276861Y1062483D01*
X275910Y1063388D01*
X273957Y1064983D01*
X272953Y1065673D01*
X271932Y1066291D01*
X270893Y1066837D01*
X269836Y1067311D01*
X268761Y1067713D01*
X267668Y1068043D01*
X266558Y1068302D01*
X274598Y1075342D01*
X274652Y1075424D01*
X274887Y1075312D01*
D02*
G37*
G36*
X359600Y1067859D02*
X359030Y1067249D01*
X358520Y1066597D01*
X358070Y1065901D01*
X357680Y1065163D01*
X357350Y1064382D01*
X357080Y1063559D01*
X356870Y1062692D01*
X356720Y1061783D01*
X356630Y1060830D01*
X356600Y1059835D01*
X348600Y1059835D01*
X348570Y1060830D01*
X348480Y1061783D01*
X348330Y1062692D01*
X348120Y1063559D01*
X347850Y1064382D01*
X347520Y1065163D01*
X347130Y1065902D01*
X346680Y1066597D01*
X346170Y1067249D01*
X345600Y1067859D01*
X352600Y1075000D01*
X359600Y1067859D01*
D02*
G37*
G36*
X272299Y1054644D02*
X272083Y1054567D01*
X271892Y1054439D01*
X271727Y1054259D01*
X271588Y1054027D01*
X271473Y1053745D01*
X271384Y1053410D01*
X271321Y1053025D01*
X271283Y1052588D01*
X271270Y1052099D01*
X268730D01*
X268717Y1052588D01*
X268679Y1053025D01*
X268616Y1053410D01*
X268527Y1053745D01*
X268412Y1054027D01*
X268273Y1054259D01*
X268108Y1054439D01*
X267917Y1054567D01*
X267701Y1054644D01*
X267460Y1054670D01*
X272540D01*
X272299Y1054644D01*
D02*
G37*
G36*
X271278Y1050213D02*
X271303Y1049923D01*
X271345Y1049648D01*
X271403Y1049388D01*
X271478Y1049143D01*
X271569Y1048913D01*
X271677Y1048698D01*
X271801Y1048498D01*
X271942Y1048313D01*
X272100Y1048142D01*
X267900D01*
X268058Y1048313D01*
X268199Y1048498D01*
X268323Y1048698D01*
X268431Y1048913D01*
X268522Y1049143D01*
X268597Y1049388D01*
X268655Y1049648D01*
X268697Y1049923D01*
X268722Y1050213D01*
X268730Y1050518D01*
X271270D01*
X271278Y1050213D01*
D02*
G37*
G36*
X387969Y1052715D02*
X388060Y1052460D01*
X388212Y1052235D01*
X388424Y1052040D01*
X388697Y1051875D01*
X389030Y1051740D01*
X389424Y1051635D01*
X389879Y1051560D01*
X390394Y1051515D01*
X390970Y1051500D01*
Y1048500D01*
X390394Y1048485D01*
X389879Y1048440D01*
X389424Y1048365D01*
X389030Y1048260D01*
X388697Y1048125D01*
X388424Y1047960D01*
X388212Y1047765D01*
X388060Y1047540D01*
X387969Y1047285D01*
X387939Y1047000D01*
Y1053000D01*
X387969Y1052715D01*
D02*
G37*
G36*
X454050Y1027223D02*
X452450Y1025354D01*
X451800Y1024454D01*
X451250Y1023577D01*
X450800Y1022723D01*
X450450Y1021892D01*
X450200Y1021083D01*
X450050Y1020298D01*
X450000Y1019535D01*
X446000D01*
X445950Y1020298D01*
X445800Y1021083D01*
X445550Y1021892D01*
X445200Y1022723D01*
X444750Y1023577D01*
X444200Y1024454D01*
X443550Y1025354D01*
X442800Y1026277D01*
X441000Y1028192D01*
X455000D01*
X454050Y1027223D01*
D02*
G37*
G36*
X479430Y1027582D02*
X478920Y1026930D01*
X478470Y1026235D01*
X478080Y1025497D01*
X477750Y1024716D01*
X477480Y1023892D01*
X477270Y1023025D01*
X477120Y1022116D01*
X477030Y1021163D01*
X477004Y1020288D01*
X477098Y1012442D01*
X468902D01*
X468921Y1012550D01*
X468937Y1012815D01*
X468999Y1019067D01*
X469000Y1020177D01*
X468970Y1021163D01*
X468880Y1022116D01*
X468730Y1023025D01*
X468520Y1023892D01*
X468250Y1024716D01*
X467920Y1025497D01*
X467530Y1026235D01*
X467080Y1026930D01*
X466570Y1027582D01*
X466000Y1028192D01*
X480000D01*
X479430Y1027582D01*
D02*
G37*
%LPC*%
G36*
X1270800Y898186D02*
X1262800D01*
X1260190Y897843D01*
X1257757Y896835D01*
X1255668Y895232D01*
X1254065Y893143D01*
X1253057Y890711D01*
X1252714Y888100D01*
X1253057Y885490D01*
X1254065Y883057D01*
X1255668Y880968D01*
X1257757Y879365D01*
X1260190Y878357D01*
X1262800Y878014D01*
X1270800D01*
X1273410Y878357D01*
X1275843Y879365D01*
X1277932Y880968D01*
X1279535Y883057D01*
X1280543Y885490D01*
X1280886Y888100D01*
X1280543Y890711D01*
X1279535Y893143D01*
X1277932Y895232D01*
X1275843Y896835D01*
X1273410Y897843D01*
X1270800Y898186D01*
D02*
G37*
G36*
X1229000D02*
X1221000D01*
X1218390Y897843D01*
X1215957Y896835D01*
X1213868Y895232D01*
X1212265Y893143D01*
X1211257Y890711D01*
X1210914Y888100D01*
X1211257Y885490D01*
X1212265Y883057D01*
X1213868Y880968D01*
X1215957Y879365D01*
X1218390Y878357D01*
X1221000Y878014D01*
X1221623D01*
X1222248Y876744D01*
X1221750Y874886D01*
Y872714D01*
X1222312Y870616D01*
X1223398Y868734D01*
X1224934Y867198D01*
X1226816Y866112D01*
X1228914Y865550D01*
X1231086D01*
X1233184Y866112D01*
X1235066Y867198D01*
X1236602Y868734D01*
X1237688Y870616D01*
X1238250Y872714D01*
Y874886D01*
X1237688Y876984D01*
X1236602Y878866D01*
X1235889Y879578D01*
X1235972Y880845D01*
X1236132Y880968D01*
X1237735Y883057D01*
X1238743Y885490D01*
X1239086Y888100D01*
X1238743Y890711D01*
X1237735Y893143D01*
X1236132Y895232D01*
X1234043Y896835D01*
X1231610Y897843D01*
X1229000Y898186D01*
D02*
G37*
G36*
X1206156Y855400D02*
X1204050D01*
X1202015Y854855D01*
X1200191Y853802D01*
X1198702Y852312D01*
X1197648Y850488D01*
X1197103Y848453D01*
Y846347D01*
X1197364Y845376D01*
X1188313Y836325D01*
X1188088Y836455D01*
X1186053Y837000D01*
X1183947D01*
X1181912Y836455D01*
X1180088Y835402D01*
X1178598Y833912D01*
X1177545Y832088D01*
X1177000Y830053D01*
Y827947D01*
X1177545Y825912D01*
X1178598Y824088D01*
X1180088Y822598D01*
X1181912Y821545D01*
X1183947Y821000D01*
X1186053D01*
X1188088Y821545D01*
X1189912Y822598D01*
X1189941Y822628D01*
X1190000D01*
X1192439Y823113D01*
X1194506Y824494D01*
X1208985Y838973D01*
X1210366Y841040D01*
X1210443Y841426D01*
X1211505Y842488D01*
X1212558Y844312D01*
X1213103Y846347D01*
Y848453D01*
X1212558Y850488D01*
X1211505Y852312D01*
X1210015Y853802D01*
X1208191Y854855D01*
X1206156Y855400D01*
D02*
G37*
G36*
X1270800Y811786D02*
X1262800D01*
X1260190Y811443D01*
X1257757Y810435D01*
X1255668Y808832D01*
X1254065Y806743D01*
X1253057Y804311D01*
X1252714Y801700D01*
X1253057Y799090D01*
X1254065Y796657D01*
X1255668Y794568D01*
X1257757Y792965D01*
X1260190Y791957D01*
X1262800Y791614D01*
X1270800D01*
X1273410Y791957D01*
X1275843Y792965D01*
X1277932Y794568D01*
X1279535Y796657D01*
X1280543Y799090D01*
X1280886Y801700D01*
X1280543Y804311D01*
X1279535Y806743D01*
X1277932Y808832D01*
X1275843Y810435D01*
X1273410Y811443D01*
X1270800Y811786D01*
D02*
G37*
G36*
X1231086Y824250D02*
X1228914D01*
X1226816Y823688D01*
X1224934Y822602D01*
X1223398Y821066D01*
X1222312Y819184D01*
X1221750Y817086D01*
Y814914D01*
X1222248Y813056D01*
X1221623Y811786D01*
X1221000D01*
X1218390Y811443D01*
X1215957Y810435D01*
X1213868Y808832D01*
X1212265Y806743D01*
X1211257Y804311D01*
X1210914Y801700D01*
X1211257Y799090D01*
X1212265Y796657D01*
X1213868Y794568D01*
X1215957Y792965D01*
X1218390Y791957D01*
X1221000Y791614D01*
X1229000D01*
X1231610Y791957D01*
X1234043Y792965D01*
X1236132Y794568D01*
X1237735Y796657D01*
X1238743Y799090D01*
X1239086Y801700D01*
X1238743Y804311D01*
X1237735Y806743D01*
X1236132Y808832D01*
X1235972Y808955D01*
X1235889Y810222D01*
X1236602Y810934D01*
X1237688Y812816D01*
X1238250Y814914D01*
Y817086D01*
X1237688Y819184D01*
X1236602Y821066D01*
X1235066Y822602D01*
X1233184Y823688D01*
X1231086Y824250D01*
D02*
G37*
%LPD*%
G36*
X1187316Y830938D02*
X1187504Y830794D01*
X1187707Y830667D01*
X1187924Y830556D01*
X1188155Y830462D01*
X1188401Y830386D01*
X1188661Y830327D01*
X1188935Y830284D01*
X1189224Y830258D01*
X1189527Y830250D01*
Y827750D01*
X1189224Y827741D01*
X1188935Y827716D01*
X1188661Y827673D01*
X1188401Y827614D01*
X1188155Y827538D01*
X1187924Y827444D01*
X1187707Y827334D01*
X1187504Y827206D01*
X1187316Y827061D01*
X1187142Y826900D01*
Y831100D01*
X1187316Y830938D01*
D02*
G37*
%LPC*%
G36*
X767000Y713316D02*
Y707000D01*
X773316D01*
X773250Y707246D01*
X771802Y709754D01*
X769754Y711802D01*
X767246Y713250D01*
X767000Y713316D01*
D02*
G37*
G36*
X678000Y713316D02*
Y707000D01*
X684316D01*
X684250Y707246D01*
X682802Y709754D01*
X680754Y711802D01*
X678246Y713250D01*
X678000Y713316D01*
D02*
G37*
G36*
X670000Y713316D02*
X669754Y713250D01*
X667246Y711802D01*
X665198Y709754D01*
X663750Y707246D01*
X663684Y707000D01*
X670000D01*
Y713316D01*
D02*
G37*
G36*
X759000D02*
X758754Y713250D01*
X756246Y711802D01*
X754198Y709754D01*
X752750Y707246D01*
X752684Y707000D01*
X759000D01*
Y713316D01*
D02*
G37*
G36*
X670000Y699000D02*
X663684D01*
X663750Y698754D01*
X665198Y696246D01*
X667246Y694198D01*
X669754Y692750D01*
X670000Y692684D01*
Y699000D01*
D02*
G37*
G36*
X773316D02*
X767000D01*
Y692684D01*
X767246Y692750D01*
X769754Y694198D01*
X771802Y696246D01*
X773250Y698754D01*
X773316Y699000D01*
D02*
G37*
G36*
X759000D02*
X752684D01*
X752750Y698754D01*
X754198Y696246D01*
X756246Y694198D01*
X758754Y692750D01*
X759000Y692684D01*
Y699000D01*
D02*
G37*
G36*
X684316D02*
X678000D01*
Y692684D01*
X678246Y692750D01*
X680754Y694198D01*
X682802Y696246D01*
X684250Y698754D01*
X684316Y699000D01*
D02*
G37*
G36*
X764712Y681000D02*
X761289D01*
X757982Y680114D01*
X755018Y678403D01*
X752597Y675982D01*
X750886Y673018D01*
X750000Y669712D01*
Y666289D01*
X750886Y662982D01*
X752597Y660018D01*
X755018Y657598D01*
X757982Y655886D01*
X761289Y655000D01*
X764712D01*
X768018Y655886D01*
X770982Y657598D01*
X773403Y660018D01*
X775114Y662982D01*
X776000Y666289D01*
Y669712D01*
X775114Y673018D01*
X773403Y675982D01*
X770982Y678403D01*
X768018Y680114D01*
X764712Y681000D01*
D02*
G37*
G36*
X675712D02*
X672289D01*
X668982Y680114D01*
X666018Y678403D01*
X663597Y675982D01*
X661886Y673018D01*
X661000Y669712D01*
Y666289D01*
X661886Y662982D01*
X663597Y660018D01*
X666018Y657598D01*
X668982Y655886D01*
X672289Y655000D01*
X675712D01*
X679018Y655886D01*
X681982Y657598D01*
X684403Y660018D01*
X686114Y662982D01*
X687000Y666289D01*
Y669712D01*
X686114Y673018D01*
X684403Y675982D01*
X681982Y678403D01*
X679018Y680114D01*
X675712Y681000D01*
D02*
G37*
G36*
X844053Y664750D02*
X841947D01*
X839912Y664205D01*
X838377Y663319D01*
X838319Y663306D01*
X811757D01*
X810061Y663083D01*
X808479Y662428D01*
X807122Y661386D01*
X797364Y651628D01*
X796322Y650271D01*
X795667Y648689D01*
X795444Y646993D01*
Y642075D01*
X794174Y641396D01*
X793439Y641887D01*
X791000Y642372D01*
X787000D01*
X786002Y642174D01*
X785732Y642185D01*
X785349Y642044D01*
X784561Y641887D01*
X784118Y641591D01*
X783865Y641498D01*
X783783Y641449D01*
X783721Y641431D01*
X783618Y641410D01*
X783532Y641396D01*
X783010Y641353D01*
X782708Y641347D01*
X782521Y641306D01*
X780753D01*
X780594Y641344D01*
X780577Y641345D01*
X779088Y642205D01*
X777053Y642750D01*
X774947D01*
X772912Y642205D01*
X771377Y641319D01*
X771319Y641306D01*
X769479D01*
X769292Y641347D01*
X768990Y641353D01*
X768467Y641396D01*
X768382Y641410D01*
X768279Y641431D01*
X768216Y641449D01*
X768135Y641498D01*
X767882Y641591D01*
X767439Y641887D01*
X766651Y642044D01*
X766268Y642185D01*
X765998Y642174D01*
X765000Y642372D01*
X761000D01*
X758561Y641887D01*
X756494Y640506D01*
X755877Y639583D01*
X754360Y639598D01*
X753278Y640428D01*
X751697Y641083D01*
X750559Y641232D01*
X750525Y641270D01*
X749977Y641523D01*
X749475Y641859D01*
X749082Y641937D01*
X748719Y642105D01*
X748116Y642129D01*
X747524Y642247D01*
X747132Y642169D01*
X746731Y642185D01*
X746165Y641976D01*
X745573Y641859D01*
X745240Y641636D01*
X744865Y641498D01*
X744783Y641449D01*
X744721Y641431D01*
X744618Y641410D01*
X744532Y641396D01*
X744010Y641353D01*
X743708Y641347D01*
X743521Y641306D01*
X730341D01*
X730227Y641403D01*
X729450Y641656D01*
X728693Y641963D01*
X728510Y641962D01*
X728335Y642018D01*
X727853Y641981D01*
X727216Y642406D01*
X724770Y642893D01*
X722323Y642406D01*
X720249Y641021D01*
X718864Y638946D01*
X718377Y636500D01*
X718864Y634054D01*
X720249Y631980D01*
X720214Y631448D01*
X720134Y631386D01*
X719092Y630028D01*
X718437Y628447D01*
X718214Y626750D01*
X718437Y625053D01*
X719092Y623472D01*
X720134Y622114D01*
X720197Y622066D01*
X720249Y621270D01*
X718864Y619196D01*
X718377Y616750D01*
X718864Y614304D01*
X720249Y612230D01*
X722323Y610844D01*
X722412Y610826D01*
X722287Y609556D01*
X544221D01*
X517100Y636678D01*
X517014Y636817D01*
X517003Y636829D01*
X516558Y638491D01*
X515505Y640315D01*
X514015Y641805D01*
X512191Y642858D01*
X510156Y643403D01*
X508050D01*
X506015Y642858D01*
X504191Y641805D01*
X502701Y640315D01*
X501648Y638491D01*
X501103Y636456D01*
Y634350D01*
X501648Y632315D01*
X502701Y630491D01*
X504191Y629001D01*
X506015Y627948D01*
X507727Y627489D01*
X507777Y627457D01*
X536870Y598364D01*
X537240Y598080D01*
X536809Y596810D01*
X514832D01*
X514797Y596941D01*
X513744Y598765D01*
X512255Y600255D01*
X510430Y601308D01*
X508396Y601853D01*
X506289D01*
X504255Y601308D01*
X502430Y600255D01*
X500941Y598765D01*
X499888Y596941D01*
X499343Y594906D01*
Y592800D01*
X499888Y590765D01*
X500941Y588941D01*
X502430Y587451D01*
X504255Y586398D01*
X504892Y586227D01*
X505373Y585795D01*
X505479Y585732D01*
X506453Y584758D01*
X507915Y583636D01*
X509618Y582930D01*
X511445Y582690D01*
X663146D01*
X663393Y582092D01*
X663561Y581420D01*
X661886Y578518D01*
X661000Y575211D01*
Y571789D01*
X661886Y568482D01*
X663597Y565518D01*
X666018Y563097D01*
X668982Y561386D01*
X672289Y560500D01*
X675712D01*
X679018Y561386D01*
X681982Y563097D01*
X684403Y565518D01*
X686114Y568482D01*
X687000Y571789D01*
Y575211D01*
X686114Y578518D01*
X684439Y581420D01*
X684607Y582092D01*
X684855Y582690D01*
X750870D01*
X751505Y581590D01*
X750886Y580518D01*
X750000Y577211D01*
Y573789D01*
X750886Y570482D01*
X752597Y567518D01*
X755018Y565098D01*
X757982Y563386D01*
X761289Y562500D01*
X762537D01*
X762975Y562404D01*
X763660Y562389D01*
X764131Y562349D01*
X764547Y562284D01*
X764908Y562199D01*
X765223Y562098D01*
X765498Y561984D01*
X765744Y561856D01*
X765969Y561713D01*
X766183Y561548D01*
X766553Y561209D01*
X766656Y561146D01*
X769651Y558151D01*
X769651Y558151D01*
X771218Y556949D01*
X773042Y556193D01*
X775000Y555935D01*
X876000D01*
X877958Y556193D01*
X879782Y556949D01*
X881349Y558151D01*
X932383Y609185D01*
X1057322D01*
X1058947Y608750D01*
X1061053D01*
X1063088Y609295D01*
X1064912Y610348D01*
X1066402Y611838D01*
X1067455Y613662D01*
X1068000Y615697D01*
Y617803D01*
X1067455Y619838D01*
X1066402Y621662D01*
X1064912Y623152D01*
X1063088Y624205D01*
X1061053Y624750D01*
X1058947D01*
X1057322Y624315D01*
X929250D01*
X927292Y624057D01*
X925468Y623301D01*
X923901Y622099D01*
X923901Y622099D01*
X872867Y571065D01*
X850322D01*
X849688Y572335D01*
X850455Y573662D01*
X851000Y575697D01*
Y577803D01*
X850455Y579838D01*
X849402Y581662D01*
X849314Y581750D01*
X849402Y581838D01*
X850455Y583662D01*
X851000Y585697D01*
Y587803D01*
X850455Y589838D01*
X849582Y591350D01*
X850099Y592295D01*
X850324Y592500D01*
X850750Y592444D01*
X854250D01*
Y590500D01*
X874250D01*
Y605500D01*
Y622574D01*
X875520Y623382D01*
X876947Y623000D01*
X879053D01*
X881088Y623545D01*
X882912Y624598D01*
X884402Y626088D01*
X885455Y627912D01*
X886000Y629947D01*
Y632053D01*
X885455Y634088D01*
X884402Y635912D01*
X882912Y637402D01*
X881088Y638455D01*
X879053Y639000D01*
X876947D01*
X875520Y638618D01*
X874250Y639426D01*
Y654500D01*
X854250D01*
Y652556D01*
X851086D01*
X850918Y652847D01*
X850499Y653826D01*
X851000Y655697D01*
Y657803D01*
X850455Y659838D01*
X849402Y661662D01*
X847912Y663152D01*
X846088Y664205D01*
X844053Y664750D01*
D02*
G37*
G36*
X1247000Y686000D02*
X1181000D01*
Y546000D01*
X1247000D01*
Y686000D01*
D02*
G37*
G36*
X767000Y550816D02*
Y544500D01*
X773316D01*
X773250Y544746D01*
X771802Y547254D01*
X769754Y549302D01*
X767246Y550750D01*
X767000Y550816D01*
D02*
G37*
G36*
X759000D02*
X758754Y550750D01*
X756246Y549302D01*
X754198Y547254D01*
X752750Y544746D01*
X752684Y544500D01*
X759000D01*
Y550816D01*
D02*
G37*
G36*
X678000Y548816D02*
Y542500D01*
X684316D01*
X684250Y542746D01*
X682802Y545254D01*
X680754Y547302D01*
X678246Y548750D01*
X678000Y548816D01*
D02*
G37*
G36*
X670000D02*
X669754Y548750D01*
X667246Y547302D01*
X665198Y545254D01*
X663750Y542746D01*
X663684Y542500D01*
X670000D01*
Y548816D01*
D02*
G37*
G36*
X773316Y536500D02*
X767000D01*
Y530184D01*
X767246Y530250D01*
X769754Y531698D01*
X771802Y533746D01*
X773250Y536254D01*
X773316Y536500D01*
D02*
G37*
G36*
X759000D02*
X752684D01*
X752750Y536254D01*
X754198Y533746D01*
X756246Y531698D01*
X758754Y530250D01*
X759000Y530184D01*
Y536500D01*
D02*
G37*
G36*
X684316Y534500D02*
X678000D01*
Y528184D01*
X678246Y528250D01*
X680754Y529698D01*
X682802Y531746D01*
X684250Y534254D01*
X684316Y534500D01*
D02*
G37*
G36*
X670000D02*
X663684D01*
X663750Y534254D01*
X665198Y531746D01*
X667246Y529698D01*
X669754Y528250D01*
X670000Y528184D01*
Y534500D01*
D02*
G37*
G36*
X678000Y495316D02*
Y489000D01*
X684316D01*
X684250Y489246D01*
X682802Y491754D01*
X680754Y493802D01*
X678246Y495250D01*
X678000Y495316D01*
D02*
G37*
G36*
X767000Y495316D02*
Y489000D01*
X773316D01*
X773250Y489246D01*
X771802Y491754D01*
X769754Y493802D01*
X767246Y495250D01*
X767000Y495316D01*
D02*
G37*
G36*
X759000Y495316D02*
X758754Y495250D01*
X756246Y493802D01*
X754198Y491754D01*
X752750Y489246D01*
X752684Y489000D01*
X759000D01*
Y495316D01*
D02*
G37*
G36*
X670000D02*
X669754Y495250D01*
X667246Y493802D01*
X665198Y491754D01*
X663750Y489246D01*
X663684Y489000D01*
X670000D01*
Y495316D01*
D02*
G37*
G36*
X759000Y481000D02*
X752684D01*
X752750Y480754D01*
X754198Y478246D01*
X756246Y476198D01*
X758754Y474750D01*
X759000Y474684D01*
Y481000D01*
D02*
G37*
G36*
X684316D02*
X678000D01*
Y474684D01*
X678246Y474750D01*
X680754Y476198D01*
X682802Y478246D01*
X684250Y480754D01*
X684316Y481000D01*
D02*
G37*
G36*
X670000D02*
X663684D01*
X663750Y480754D01*
X665198Y478246D01*
X667246Y476198D01*
X669754Y474750D01*
X670000Y474684D01*
Y481000D01*
D02*
G37*
G36*
X773316D02*
X767000D01*
Y474684D01*
X767246Y474750D01*
X769754Y476198D01*
X771802Y478246D01*
X773250Y480754D01*
X773316Y481000D01*
D02*
G37*
G36*
X764711Y463000D02*
X761289D01*
X757982Y462114D01*
X755018Y460403D01*
X752597Y457982D01*
X750886Y455018D01*
X750000Y451712D01*
Y448289D01*
X750886Y444982D01*
X752597Y442018D01*
X755018Y439598D01*
X757982Y437886D01*
X761289Y437000D01*
X764711D01*
X768018Y437886D01*
X770982Y439598D01*
X773402Y442018D01*
X775114Y444982D01*
X776000Y448289D01*
Y451712D01*
X775114Y455018D01*
X773402Y457982D01*
X770982Y460403D01*
X768018Y462114D01*
X764711Y463000D01*
D02*
G37*
G36*
X675712D02*
X672289D01*
X668982Y462114D01*
X666018Y460403D01*
X663597Y457982D01*
X661886Y455018D01*
X661000Y451712D01*
Y448289D01*
X661886Y444982D01*
X663597Y442018D01*
X666018Y439598D01*
X668982Y437886D01*
X672289Y437000D01*
X675712D01*
X679018Y437886D01*
X681982Y439598D01*
X684402Y442018D01*
X686114Y444982D01*
X687000Y448289D01*
Y451712D01*
X686114Y455018D01*
X684402Y457982D01*
X681982Y460403D01*
X679018Y462114D01*
X675712Y463000D01*
D02*
G37*
G36*
X844053Y446750D02*
X841947D01*
X839912Y446205D01*
X838377Y445319D01*
X838319Y445306D01*
X810750D01*
X809053Y445083D01*
X807472Y444428D01*
X806114Y443386D01*
X797364Y434636D01*
X796322Y433278D01*
X795667Y431697D01*
X795444Y430000D01*
Y424075D01*
X794174Y423396D01*
X793439Y423887D01*
X791000Y424372D01*
X787000D01*
X786002Y424174D01*
X785732Y424185D01*
X785349Y424044D01*
X784561Y423887D01*
X784118Y423591D01*
X783865Y423498D01*
X783783Y423448D01*
X783721Y423431D01*
X783618Y423410D01*
X783532Y423396D01*
X783010Y423353D01*
X782708Y423347D01*
X782521Y423306D01*
X780861D01*
X780799Y423321D01*
X779154Y424271D01*
X777119Y424816D01*
X775013D01*
X772978Y424271D01*
X771364Y423339D01*
X769469D01*
X769281Y423380D01*
X768963Y423386D01*
X768418Y423429D01*
X768321Y423443D01*
X768214Y423465D01*
X768170Y423477D01*
X768126Y423504D01*
X768053Y423530D01*
X768036Y423539D01*
X768010Y423546D01*
X767876Y423595D01*
X767439Y423887D01*
X766643Y424046D01*
X766258Y424187D01*
X765992Y424175D01*
X765000Y424372D01*
X761000D01*
X758561Y423887D01*
X756494Y422506D01*
X755877Y421583D01*
X754360Y421598D01*
X753278Y422428D01*
X751697Y423083D01*
X750559Y423232D01*
X750525Y423270D01*
X749977Y423523D01*
X749475Y423859D01*
X749082Y423937D01*
X748719Y424105D01*
X748116Y424129D01*
X747524Y424247D01*
X747132Y424169D01*
X746731Y424185D01*
X746165Y423976D01*
X745573Y423859D01*
X745240Y423636D01*
X744865Y423498D01*
X744783Y423448D01*
X744721Y423431D01*
X744618Y423410D01*
X744532Y423396D01*
X744010Y423353D01*
X743708Y423347D01*
X743521Y423306D01*
X729523D01*
X729364Y423344D01*
X729175Y423352D01*
X728863Y423560D01*
X728712Y423590D01*
X728580Y423667D01*
X727742Y423783D01*
X726912Y423948D01*
X726761Y423918D01*
X726609Y423939D01*
X725791Y423725D01*
X724961Y423560D01*
X724833Y423475D01*
X724685Y423436D01*
X724460Y423265D01*
X723073Y423083D01*
X721492Y422428D01*
X720134Y421386D01*
X719092Y420028D01*
X718437Y418447D01*
X718214Y416750D01*
X718437Y415053D01*
X719092Y413472D01*
X719771Y412587D01*
X719342Y412028D01*
X718687Y410447D01*
X718464Y408750D01*
X718687Y407053D01*
X719342Y405472D01*
X720384Y404114D01*
X719805Y402957D01*
X719092Y402028D01*
X718437Y400447D01*
X718214Y398750D01*
X718437Y397053D01*
X719092Y395472D01*
X720134Y394114D01*
X721492Y393072D01*
X723073Y392417D01*
X724770Y392194D01*
X725582D01*
X727278Y392417D01*
X728859Y393072D01*
X730217Y394114D01*
X730297Y394194D01*
X741468D01*
X741628Y394000D01*
Y391500D01*
X741769Y390788D01*
X740964Y389806D01*
X548334D01*
X515276Y422864D01*
X515190Y423004D01*
X515179Y423016D01*
X514734Y424677D01*
X513680Y426501D01*
X512191Y427991D01*
X510367Y429044D01*
X508332Y429589D01*
X506226D01*
X504191Y429044D01*
X502367Y427991D01*
X500877Y426501D01*
X499824Y424677D01*
X499279Y422643D01*
Y420536D01*
X499824Y418501D01*
X500877Y416677D01*
X502367Y415188D01*
X504191Y414134D01*
X505903Y413676D01*
X505953Y413644D01*
X538363Y381234D01*
X537877Y380060D01*
X514151D01*
X513744Y380765D01*
X512255Y382254D01*
X510430Y383308D01*
X508396Y383853D01*
X506289D01*
X504255Y383308D01*
X502430Y382254D01*
X500941Y380765D01*
X499888Y378941D01*
X499343Y376906D01*
Y374800D01*
X499888Y372765D01*
X500941Y370941D01*
X502430Y369451D01*
X504255Y368398D01*
X505017Y368194D01*
X505203Y368008D01*
X506665Y366886D01*
X508368Y366180D01*
X510196Y365940D01*
X662395D01*
X663128Y364670D01*
X661886Y362518D01*
X661000Y359212D01*
Y355789D01*
X661886Y352482D01*
X663597Y349518D01*
X666018Y347098D01*
X668982Y345386D01*
X672289Y344500D01*
X675712D01*
X679018Y345386D01*
X681982Y347098D01*
X684402Y349518D01*
X686114Y352482D01*
X687000Y355789D01*
Y359212D01*
X686114Y362518D01*
X684872Y364670D01*
X685605Y365940D01*
X751395D01*
X752128Y364670D01*
X750886Y362518D01*
X750000Y359212D01*
Y355789D01*
X750886Y352482D01*
X752597Y349518D01*
X755018Y347098D01*
X757982Y345386D01*
X761289Y344500D01*
X762537D01*
X762975Y344404D01*
X763660Y344389D01*
X764131Y344349D01*
X764547Y344284D01*
X764908Y344199D01*
X765223Y344098D01*
X765498Y343984D01*
X765744Y343856D01*
X765969Y343713D01*
X766183Y343548D01*
X766553Y343209D01*
X766656Y343146D01*
X768651Y341151D01*
X770218Y339949D01*
X772042Y339193D01*
X774000Y338935D01*
X774000Y338935D01*
X912000D01*
X913958Y339193D01*
X915782Y339949D01*
X917349Y341151D01*
X967383Y391185D01*
X1057322D01*
X1058947Y390750D01*
X1061053D01*
X1063088Y391295D01*
X1064912Y392348D01*
X1066402Y393838D01*
X1067455Y395662D01*
X1068000Y397697D01*
Y399803D01*
X1067455Y401838D01*
X1066402Y403662D01*
X1064912Y405152D01*
X1063088Y406205D01*
X1061053Y406750D01*
X1058947D01*
X1057322Y406315D01*
X964250D01*
X964250Y406315D01*
X962292Y406057D01*
X960468Y405301D01*
X958901Y404099D01*
X958901Y404099D01*
X908867Y354065D01*
X850803D01*
X850168Y355165D01*
X850455Y355662D01*
X851000Y357697D01*
Y359803D01*
X850455Y361838D01*
X849402Y363662D01*
X849314Y363750D01*
X849402Y363838D01*
X850455Y365662D01*
X851000Y367697D01*
Y369803D01*
X850455Y371838D01*
X849402Y373662D01*
X849314Y373750D01*
X849402Y373838D01*
X850387Y375545D01*
X850786Y375792D01*
X851693Y376035D01*
X852864Y374864D01*
X854222Y373822D01*
X854250Y373811D01*
Y369000D01*
X874250D01*
Y384000D01*
Y401000D01*
X870806D01*
Y405250D01*
X874250D01*
Y405324D01*
X875520Y406132D01*
X876947Y405750D01*
X879053D01*
X881088Y406295D01*
X882912Y407348D01*
X884402Y408838D01*
X885455Y410662D01*
X886000Y412697D01*
Y414803D01*
X885455Y416838D01*
X884402Y418662D01*
X882912Y420152D01*
X881088Y421205D01*
X879053Y421750D01*
X876947D01*
X875520Y421368D01*
X874250Y422176D01*
Y437250D01*
X854250D01*
Y435306D01*
X851661D01*
X850700Y436576D01*
X851000Y437697D01*
Y439803D01*
X850455Y441838D01*
X849402Y443662D01*
X847912Y445152D01*
X846088Y446205D01*
X844053Y446750D01*
D02*
G37*
G36*
X1246000Y469000D02*
X1180000D01*
Y329000D01*
X1246000D01*
Y469000D01*
D02*
G37*
G36*
X678000Y332816D02*
Y326500D01*
X684316D01*
X684250Y326746D01*
X682802Y329254D01*
X680754Y331302D01*
X678246Y332750D01*
X678000Y332816D01*
D02*
G37*
G36*
X670000D02*
X669754Y332750D01*
X667246Y331302D01*
X665198Y329254D01*
X663750Y326746D01*
X663684Y326500D01*
X670000D01*
Y332816D01*
D02*
G37*
G36*
X767000Y332816D02*
Y326500D01*
X773316D01*
X773250Y326746D01*
X771802Y329254D01*
X769754Y331302D01*
X767246Y332750D01*
X767000Y332816D01*
D02*
G37*
G36*
X759000D02*
X758754Y332750D01*
X756246Y331302D01*
X754198Y329254D01*
X752750Y326746D01*
X752684Y326500D01*
X759000D01*
Y332816D01*
D02*
G37*
G36*
X684316Y318500D02*
X678000D01*
Y312184D01*
X678246Y312250D01*
X680754Y313698D01*
X682802Y315746D01*
X684250Y318254D01*
X684316Y318500D01*
D02*
G37*
G36*
X670000D02*
X663684D01*
X663750Y318254D01*
X665198Y315746D01*
X667246Y313698D01*
X669754Y312250D01*
X670000Y312184D01*
Y318500D01*
D02*
G37*
G36*
X773316Y318500D02*
X767000D01*
Y312184D01*
X767246Y312250D01*
X769754Y313698D01*
X771802Y315746D01*
X773250Y318254D01*
X773316Y318500D01*
D02*
G37*
G36*
X759000D02*
X752684D01*
X752750Y318254D01*
X754198Y315746D01*
X756246Y313698D01*
X758754Y312250D01*
X759000Y312184D01*
Y318500D01*
D02*
G37*
G36*
X767000Y266316D02*
Y260000D01*
X773316D01*
X773250Y260246D01*
X771802Y262754D01*
X769754Y264802D01*
X767246Y266250D01*
X767000Y266316D01*
D02*
G37*
G36*
X678000Y266316D02*
Y260000D01*
X684316D01*
X684250Y260246D01*
X682802Y262754D01*
X680754Y264802D01*
X678246Y266250D01*
X678000Y266316D01*
D02*
G37*
G36*
X670000Y266316D02*
X669754Y266250D01*
X667246Y264802D01*
X665198Y262754D01*
X663750Y260246D01*
X663684Y260000D01*
X670000D01*
Y266316D01*
D02*
G37*
G36*
X759000D02*
X758754Y266250D01*
X756246Y264802D01*
X754198Y262754D01*
X752750Y260246D01*
X752684Y260000D01*
X759000D01*
Y266316D01*
D02*
G37*
G36*
X670000Y252000D02*
X663684D01*
X663750Y251754D01*
X665198Y249246D01*
X667246Y247198D01*
X669754Y245750D01*
X670000Y245684D01*
Y252000D01*
D02*
G37*
G36*
X773316D02*
X767000D01*
Y245684D01*
X767246Y245750D01*
X769754Y247198D01*
X771802Y249246D01*
X773250Y251754D01*
X773316Y252000D01*
D02*
G37*
G36*
X759000D02*
X752684D01*
X752750Y251754D01*
X754198Y249246D01*
X756246Y247198D01*
X758754Y245750D01*
X759000Y245684D01*
Y252000D01*
D02*
G37*
G36*
X684316D02*
X678000D01*
Y245684D01*
X678246Y245750D01*
X680754Y247198D01*
X682802Y249246D01*
X684250Y251754D01*
X684316Y252000D01*
D02*
G37*
G36*
X764712Y234000D02*
X761289D01*
X757982Y233114D01*
X755018Y231403D01*
X752597Y228982D01*
X750886Y226018D01*
X750000Y222712D01*
Y219289D01*
X750886Y215982D01*
X752597Y213018D01*
X755018Y210597D01*
X757982Y208886D01*
X761289Y208000D01*
X764712D01*
X768018Y208886D01*
X770982Y210597D01*
X773403Y213018D01*
X775114Y215982D01*
X776000Y219289D01*
Y222712D01*
X775114Y226018D01*
X773403Y228982D01*
X770982Y231403D01*
X768018Y233114D01*
X764712Y234000D01*
D02*
G37*
G36*
X675712D02*
X672289D01*
X668982Y233114D01*
X666018Y231403D01*
X663597Y228982D01*
X661886Y226018D01*
X661000Y222712D01*
Y219289D01*
X661886Y215982D01*
X663597Y213018D01*
X666018Y210597D01*
X668982Y208886D01*
X672289Y208000D01*
X675712D01*
X679018Y208886D01*
X681982Y210597D01*
X684403Y213018D01*
X686114Y215982D01*
X687000Y219289D01*
Y222712D01*
X686114Y226018D01*
X684403Y228982D01*
X681982Y231403D01*
X679018Y233114D01*
X675712Y234000D01*
D02*
G37*
G36*
X844053Y226066D02*
X841947D01*
X839912Y225521D01*
X838377Y224635D01*
X838319Y224622D01*
X809066D01*
X807370Y224399D01*
X805788Y223744D01*
X804430Y222702D01*
X797364Y215636D01*
X796322Y214278D01*
X795667Y212697D01*
X795444Y211000D01*
Y193825D01*
X794174Y193146D01*
X793439Y193637D01*
X791000Y194123D01*
X787000D01*
X786002Y193924D01*
X785732Y193935D01*
X785349Y193794D01*
X784561Y193637D01*
X784118Y193342D01*
X783865Y193248D01*
X783783Y193199D01*
X783721Y193181D01*
X783618Y193160D01*
X783532Y193146D01*
X783010Y193103D01*
X782708Y193097D01*
X782521Y193056D01*
X780846D01*
X780776Y193073D01*
X779142Y194016D01*
X777107Y194562D01*
X775001D01*
X772966Y194016D01*
X771357Y193087D01*
X771355Y193087D01*
X769470D01*
X769281Y193128D01*
X768965Y193134D01*
X768421Y193177D01*
X768325Y193191D01*
X768217Y193213D01*
X768174Y193225D01*
X768127Y193253D01*
X768053Y193280D01*
X768038Y193288D01*
X768015Y193294D01*
X767876Y193345D01*
X767439Y193637D01*
X766644Y193796D01*
X766258Y193936D01*
X765992Y193925D01*
X765000Y194123D01*
X761000D01*
X758561Y193637D01*
X756494Y192256D01*
X755877Y191333D01*
X754360Y191348D01*
X753278Y192178D01*
X751697Y192833D01*
X750559Y192983D01*
X750525Y193020D01*
X749977Y193274D01*
X749475Y193609D01*
X749082Y193687D01*
X748719Y193855D01*
X748116Y193879D01*
X747524Y193997D01*
X747132Y193919D01*
X746731Y193935D01*
X746165Y193727D01*
X745573Y193609D01*
X745240Y193386D01*
X744865Y193248D01*
X744783Y193199D01*
X744721Y193181D01*
X744618Y193160D01*
X744532Y193146D01*
X744010Y193103D01*
X743708Y193097D01*
X743521Y193056D01*
X731324D01*
X731200Y193361D01*
X731100Y193461D01*
X731039Y193590D01*
X730402Y194164D01*
X729799Y194772D01*
X729667Y194827D01*
X729562Y194923D01*
X728754Y195210D01*
X728634Y195260D01*
X728090Y195678D01*
X726509Y196333D01*
X724812Y196556D01*
X724000D01*
X722303Y196333D01*
X720722Y195678D01*
X719364Y194636D01*
X718322Y193278D01*
X717667Y191697D01*
X717444Y190000D01*
X717667Y188303D01*
X718322Y186722D01*
X719364Y185364D01*
X720080Y184815D01*
X720168Y184549D01*
X720285Y184412D01*
X720354Y184245D01*
X720931Y183663D01*
X721034Y183544D01*
X721037Y182072D01*
X720952Y181880D01*
X720633Y181636D01*
X720133Y181136D01*
X719091Y179778D01*
X718436Y178197D01*
X718213Y176500D01*
X718436Y174803D01*
X719091Y173222D01*
X720133Y171864D01*
X720307Y171731D01*
X720988Y171134D01*
X720560Y170404D01*
X720090Y169701D01*
X720061Y169550D01*
X719983Y169418D01*
X719944Y169138D01*
X719092Y168028D01*
X718438Y166447D01*
X718214Y164750D01*
X718438Y163053D01*
X719092Y161472D01*
X720134Y160114D01*
X721492Y159072D01*
X723073Y158417D01*
X724770Y158194D01*
X726467Y158417D01*
X728048Y159072D01*
X729158Y159924D01*
X729438Y159963D01*
X729571Y160040D01*
X729721Y160070D01*
X730424Y160540D01*
X731155Y160968D01*
X731247Y161090D01*
X731375Y161175D01*
X731845Y161879D01*
X732356Y162553D01*
X732395Y162702D01*
X732480Y162829D01*
X732554Y163202D01*
X732612Y163262D01*
X732716Y163424D01*
X733236Y163944D01*
X741468D01*
X741628Y163750D01*
Y161250D01*
X742113Y158811D01*
X743494Y156744D01*
X744769Y155892D01*
X744383Y154622D01*
X621399D01*
X566986Y209036D01*
X565628Y210078D01*
X564047Y210733D01*
X562350Y210956D01*
X512096D01*
X511937Y210994D01*
X511920Y210995D01*
X510430Y211855D01*
X508396Y212400D01*
X506289D01*
X504255Y211855D01*
X502430Y210802D01*
X500941Y209312D01*
X499888Y207488D01*
X499343Y205453D01*
Y203347D01*
X499888Y201312D01*
X500941Y199488D01*
X502430Y197999D01*
X504255Y196945D01*
X506289Y196400D01*
X508396D01*
X510430Y196945D01*
X511965Y197831D01*
X512023Y197844D01*
X559634D01*
X611178Y146300D01*
X610692Y145127D01*
X549358D01*
X530742Y163743D01*
X529280Y164865D01*
X527577Y165570D01*
X525750Y165810D01*
X511445D01*
X511262Y165848D01*
X510784Y165851D01*
X510430Y166055D01*
X508396Y166600D01*
X506289D01*
X504255Y166055D01*
X502430Y165002D01*
X500941Y163512D01*
X499888Y161688D01*
X499343Y159653D01*
Y157547D01*
X499888Y155512D01*
X500941Y153688D01*
X502430Y152198D01*
X504255Y151145D01*
X506289Y150600D01*
X508396D01*
X510430Y151145D01*
X511305Y151650D01*
X511327Y151651D01*
X511525Y151652D01*
X511685Y151685D01*
X511847Y151664D01*
X511943Y151690D01*
X522826D01*
X541441Y133074D01*
X542904Y131952D01*
X544606Y131247D01*
X546434Y131006D01*
X661995D01*
X662630Y129906D01*
X661886Y128618D01*
X661000Y125312D01*
Y121889D01*
X661886Y118582D01*
X663597Y115618D01*
X666018Y113197D01*
X668982Y111486D01*
X672289Y110600D01*
X675712D01*
X679018Y111486D01*
X681982Y113197D01*
X684402Y115618D01*
X686114Y118582D01*
X687000Y121889D01*
Y125312D01*
X686114Y128618D01*
X685370Y129906D01*
X686005Y131006D01*
X750822D01*
X751457Y129906D01*
X750886Y128918D01*
X750000Y125612D01*
Y122189D01*
X750886Y118882D01*
X752597Y115918D01*
X755018Y113497D01*
X757982Y111786D01*
X761289Y110900D01*
X764711D01*
X768018Y111786D01*
X770982Y113497D01*
X771865Y114380D01*
X772243Y114622D01*
X772737Y115096D01*
X773099Y115401D01*
X773439Y115648D01*
X773755Y115844D01*
X774048Y115995D01*
X774324Y116109D01*
X774588Y116193D01*
X774849Y116250D01*
X775116Y116285D01*
X775618Y116307D01*
X775735Y116335D01*
X900650D01*
X902608Y116593D01*
X904432Y117349D01*
X905999Y118551D01*
X957883Y170435D01*
X1057322D01*
X1058947Y170000D01*
X1061053D01*
X1063088Y170545D01*
X1064912Y171598D01*
X1066402Y173088D01*
X1067455Y174912D01*
X1068000Y176947D01*
Y179053D01*
X1067455Y181088D01*
X1066402Y182912D01*
X1064912Y184402D01*
X1063088Y185455D01*
X1061053Y186000D01*
X1058947D01*
X1057322Y185565D01*
X954750D01*
X954750Y185565D01*
X952792Y185307D01*
X950968Y184551D01*
X949401Y183349D01*
X949401Y183349D01*
X897517Y131465D01*
X850508D01*
X849982Y132735D01*
X850402Y133154D01*
X851455Y134979D01*
X852000Y137013D01*
Y139120D01*
X851455Y141154D01*
X850402Y142978D01*
X850179Y143201D01*
X851205Y144979D01*
X851750Y147013D01*
Y149120D01*
X851205Y151154D01*
X850152Y152978D01*
X850064Y153066D01*
X850152Y153154D01*
X851205Y154979D01*
X851386Y155654D01*
X852446Y156525D01*
X854142Y156301D01*
X854250D01*
Y152358D01*
X874250D01*
Y167358D01*
Y183461D01*
X874364Y183648D01*
X875503Y184382D01*
X875520Y184382D01*
X876947Y184000D01*
X879053D01*
X881088Y184545D01*
X882912Y185598D01*
X884402Y187088D01*
X885455Y188912D01*
X886000Y190947D01*
Y193053D01*
X885455Y195088D01*
X884402Y196912D01*
X882912Y198402D01*
X881088Y199455D01*
X879053Y200000D01*
X876947D01*
X875520Y199618D01*
X874363Y200354D01*
X874250Y200539D01*
Y216000D01*
X859947D01*
X859825Y216038D01*
X859551Y216014D01*
X859280Y216068D01*
X858941Y216000D01*
X854250D01*
Y214556D01*
X851610D01*
X850682Y215826D01*
X851000Y217013D01*
Y219120D01*
X850455Y221154D01*
X849402Y222978D01*
X847912Y224468D01*
X846088Y225521D01*
X844053Y226066D01*
D02*
G37*
G36*
X1249000Y246000D02*
X1183000D01*
Y106000D01*
X1249000D01*
Y246000D01*
D02*
G37*
G36*
X767000Y99216D02*
Y92900D01*
X773316D01*
X773250Y93146D01*
X771802Y95654D01*
X769754Y97702D01*
X767246Y99150D01*
X767000Y99216D01*
D02*
G37*
G36*
X759000D02*
X758754Y99150D01*
X756246Y97702D01*
X754198Y95654D01*
X752750Y93146D01*
X752684Y92900D01*
X759000D01*
Y99216D01*
D02*
G37*
G36*
X678000Y98916D02*
Y92600D01*
X684316D01*
X684250Y92846D01*
X682802Y95354D01*
X680754Y97402D01*
X678246Y98850D01*
X678000Y98916D01*
D02*
G37*
G36*
X670000D02*
X669754Y98850D01*
X667246Y97402D01*
X665198Y95354D01*
X663750Y92846D01*
X663684Y92600D01*
X670000D01*
Y98916D01*
D02*
G37*
G36*
X773316Y84900D02*
X767000D01*
Y78584D01*
X767246Y78650D01*
X769754Y80098D01*
X771802Y82146D01*
X773250Y84654D01*
X773316Y84900D01*
D02*
G37*
G36*
X759000D02*
X752684D01*
X752750Y84654D01*
X754198Y82146D01*
X756246Y80098D01*
X758754Y78650D01*
X759000Y78584D01*
Y84900D01*
D02*
G37*
G36*
X684316Y84600D02*
X678000D01*
Y78284D01*
X678246Y78350D01*
X680754Y79798D01*
X682802Y81846D01*
X684250Y84354D01*
X684316Y84600D01*
D02*
G37*
G36*
X670000D02*
X663684D01*
X663750Y84354D01*
X665198Y81846D01*
X667246Y79798D01*
X669754Y78350D01*
X670000Y78284D01*
Y84600D01*
D02*
G37*
%LPD*%
G36*
X840858Y654650D02*
X840729Y654764D01*
X840579Y654866D01*
X840407Y654956D01*
X840214Y655034D01*
X840000Y655100D01*
X839763Y655154D01*
X839505Y655196D01*
X839226Y655226D01*
X838602Y655250D01*
Y658250D01*
X838925Y658256D01*
X839505Y658304D01*
X839763Y658346D01*
X840000Y658400D01*
X840214Y658466D01*
X840407Y658544D01*
X840579Y658634D01*
X840729Y658736D01*
X840858Y658850D01*
Y654650D01*
D02*
G37*
G36*
X815271Y650486D02*
X815421Y650384D01*
X815592Y650294D01*
X815786Y650216D01*
X816000Y650150D01*
X816237Y650096D01*
X816495Y650054D01*
X816774Y650024D01*
X817398Y650000D01*
Y647000D01*
X817075Y646994D01*
X816495Y646946D01*
X816237Y646904D01*
X816000Y646850D01*
X815786Y646784D01*
X815592Y646706D01*
X815421Y646616D01*
X815271Y646514D01*
X815142Y646400D01*
Y650600D01*
X815271Y650486D01*
D02*
G37*
G36*
X821031Y645500D02*
X821001Y645785D01*
X820910Y646040D01*
X820760Y646265D01*
X820551Y646460D01*
X820281Y646625D01*
X819950Y646760D01*
X819560Y646865D01*
X819110Y646940D01*
X818600Y646985D01*
X818030Y647000D01*
Y650000D01*
X818600Y650015D01*
X819110Y650060D01*
X819560Y650135D01*
X819950Y650240D01*
X820281Y650375D01*
X820551Y650540D01*
X820760Y650735D01*
X820910Y650960D01*
X821001Y651215D01*
X821031Y651500D01*
Y645500D01*
D02*
G37*
G36*
X845698Y648106D02*
X845821Y647979D01*
X845970Y647866D01*
X846143Y647769D01*
X846341Y647687D01*
X846564Y647620D01*
X846812Y647567D01*
X847085Y647530D01*
X847382Y647507D01*
X847705Y647500D01*
X846784Y644500D01*
X846455Y644497D01*
X845373Y644420D01*
X845161Y644385D01*
X844973Y644344D01*
X844808Y644296D01*
X844667Y644242D01*
X844549Y644181D01*
X845599Y648248D01*
X845698Y648106D01*
D02*
G37*
G36*
X859280Y643000D02*
X859250Y643285D01*
X859161Y643540D01*
X859010Y643765D01*
X858801Y643960D01*
X858531Y644125D01*
X858201Y644260D01*
X857811Y644365D01*
X857361Y644440D01*
X856851Y644485D01*
X856281Y644500D01*
Y647500D01*
X856851Y647515D01*
X857361Y647560D01*
X857811Y647635D01*
X858201Y647740D01*
X858531Y647875D01*
X858801Y648040D01*
X859010Y648235D01*
X859161Y648460D01*
X859250Y648715D01*
X859280Y649000D01*
Y643000D01*
D02*
G37*
G36*
X803514Y639770D02*
X803555Y639327D01*
X803624Y638915D01*
X803721Y638533D01*
X803845Y638181D01*
X803997Y637860D01*
X804176Y637569D01*
X804383Y637309D01*
X804617Y637079D01*
X804879Y636879D01*
X799121D01*
X799383Y637079D01*
X799617Y637309D01*
X799824Y637569D01*
X800003Y637860D01*
X800155Y638181D01*
X800279Y638533D01*
X800376Y638915D01*
X800445Y639327D01*
X800486Y639770D01*
X800500Y640243D01*
X803500D01*
X803514Y639770D01*
D02*
G37*
G36*
X840858Y634650D02*
X840729Y634764D01*
X840579Y634866D01*
X840407Y634956D01*
X840214Y635034D01*
X840000Y635100D01*
X839763Y635154D01*
X839505Y635196D01*
X839226Y635226D01*
X838602Y635250D01*
Y638250D01*
X838925Y638256D01*
X839505Y638304D01*
X839763Y638346D01*
X840000Y638400D01*
X840214Y638466D01*
X840407Y638544D01*
X840579Y638634D01*
X840729Y638736D01*
X840858Y638850D01*
Y634650D01*
D02*
G37*
G36*
X727773Y636822D02*
X727842Y636702D01*
X727945Y636596D01*
X728079Y636504D01*
X728245Y636427D01*
X728444Y636363D01*
X728674Y636314D01*
X728937Y636278D01*
X729232Y636257D01*
X729559Y636250D01*
X729006Y633250D01*
X725525Y633597D01*
X727735Y636956D01*
X727773Y636822D01*
D02*
G37*
G36*
X778271Y636736D02*
X778421Y636634D01*
X778592Y636544D01*
X778786Y636466D01*
X779000Y636400D01*
X779237Y636346D01*
X779495Y636304D01*
X779774Y636274D01*
X780398Y636250D01*
Y633250D01*
X780075Y633244D01*
X779495Y633196D01*
X779237Y633154D01*
X779000Y633100D01*
X778786Y633034D01*
X778592Y632956D01*
X778421Y632866D01*
X778271Y632764D01*
X778142Y632650D01*
Y636850D01*
X778271Y636736D01*
D02*
G37*
G36*
X773858Y632650D02*
X773729Y632764D01*
X773579Y632866D01*
X773408Y632956D01*
X773214Y633034D01*
X773000Y633100D01*
X772763Y633154D01*
X772505Y633196D01*
X772226Y633226D01*
X771602Y633250D01*
Y636250D01*
X771925Y636256D01*
X772505Y636304D01*
X772763Y636346D01*
X773000Y636400D01*
X773214Y636466D01*
X773408Y636544D01*
X773579Y636634D01*
X773729Y636736D01*
X773858Y636850D01*
Y632650D01*
D02*
G37*
G36*
X786524Y632351D02*
X786245Y632522D01*
X785945Y632675D01*
X785625Y632810D01*
X785284Y632926D01*
X784922Y633025D01*
X784540Y633106D01*
X784137Y633169D01*
X783270Y633241D01*
X782806Y633250D01*
Y636250D01*
X783270Y636259D01*
X784137Y636331D01*
X784540Y636394D01*
X784922Y636475D01*
X785284Y636574D01*
X785625Y636690D01*
X785945Y636825D01*
X786245Y636978D01*
X786524Y637149D01*
Y632351D01*
D02*
G37*
G36*
X765755Y636978D02*
X766055Y636825D01*
X766375Y636690D01*
X766716Y636574D01*
X767078Y636475D01*
X767460Y636394D01*
X767862Y636331D01*
X768729Y636259D01*
X769194Y636250D01*
Y633250D01*
X768729Y633241D01*
X767862Y633169D01*
X767460Y633106D01*
X767078Y633025D01*
X766716Y632926D01*
X766375Y632810D01*
X766055Y632675D01*
X765755Y632522D01*
X765476Y632351D01*
Y637149D01*
X765755Y636978D01*
D02*
G37*
G36*
X747524Y632351D02*
X747245Y632522D01*
X746945Y632675D01*
X746625Y632810D01*
X746284Y632926D01*
X745922Y633025D01*
X745540Y633106D01*
X745137Y633169D01*
X744270Y633241D01*
X743806Y633250D01*
Y636250D01*
X744270Y636259D01*
X745137Y636331D01*
X745540Y636394D01*
X745922Y636475D01*
X746284Y636574D01*
X746625Y636690D01*
X746945Y636825D01*
X747245Y636978D01*
X747524Y637149D01*
Y632351D01*
D02*
G37*
G36*
X512113Y635201D02*
X512147Y635023D01*
X512205Y634838D01*
X512286Y634647D01*
X512391Y634448D01*
X512520Y634243D01*
X512673Y634031D01*
X512849Y633812D01*
X513274Y633354D01*
X511152Y631232D01*
X510920Y631456D01*
X510475Y631833D01*
X510263Y631986D01*
X510058Y632115D01*
X509859Y632220D01*
X509668Y632301D01*
X509483Y632359D01*
X509304Y632393D01*
X509133Y632403D01*
X512103Y635373D01*
X512113Y635201D01*
D02*
G37*
G36*
X875858Y628900D02*
X875729Y629014D01*
X875579Y629116D01*
X875407Y629206D01*
X875214Y629284D01*
X875000Y629350D01*
X874763Y629404D01*
X874505Y629446D01*
X874226Y629476D01*
X873602Y629500D01*
Y632500D01*
X873925Y632506D01*
X874505Y632554D01*
X874763Y632596D01*
X875000Y632650D01*
X875214Y632716D01*
X875407Y632794D01*
X875579Y632884D01*
X875729Y632986D01*
X875858Y633100D01*
Y628900D01*
D02*
G37*
G36*
X869219Y633715D02*
X869310Y633460D01*
X869462Y633235D01*
X869674Y633040D01*
X869947Y632875D01*
X870280Y632740D01*
X870674Y632635D01*
X871128Y632560D01*
X871644Y632515D01*
X872219Y632500D01*
Y629500D01*
X871644Y629485D01*
X871128Y629440D01*
X870674Y629365D01*
X870280Y629260D01*
X869947Y629125D01*
X869674Y628960D01*
X869462Y628765D01*
X869310Y628540D01*
X869219Y628285D01*
X869189Y628000D01*
Y634000D01*
X869219Y633715D01*
D02*
G37*
G36*
X840858Y624650D02*
X840729Y624764D01*
X840579Y624866D01*
X840407Y624956D01*
X840214Y625034D01*
X840000Y625100D01*
X839763Y625154D01*
X839505Y625196D01*
X839226Y625226D01*
X838602Y625250D01*
Y628250D01*
X838925Y628256D01*
X839505Y628304D01*
X839763Y628346D01*
X840000Y628400D01*
X840214Y628466D01*
X840407Y628544D01*
X840579Y628634D01*
X840729Y628736D01*
X840858Y628850D01*
Y624650D01*
D02*
G37*
G36*
X778271Y628736D02*
X778421Y628634D01*
X778592Y628544D01*
X778786Y628466D01*
X779000Y628400D01*
X779237Y628346D01*
X779495Y628304D01*
X779774Y628274D01*
X780398Y628250D01*
Y625250D01*
X780075Y625244D01*
X779495Y625196D01*
X779237Y625154D01*
X779000Y625100D01*
X778786Y625034D01*
X778592Y624956D01*
X778421Y624866D01*
X778271Y624764D01*
X778142Y624650D01*
Y628850D01*
X778271Y628736D01*
D02*
G37*
G36*
X773858Y624650D02*
X773729Y624764D01*
X773579Y624866D01*
X773408Y624956D01*
X773214Y625034D01*
X773000Y625100D01*
X772763Y625154D01*
X772505Y625196D01*
X772226Y625226D01*
X771602Y625250D01*
Y628250D01*
X771925Y628256D01*
X772505Y628304D01*
X772763Y628346D01*
X773000Y628400D01*
X773214Y628466D01*
X773408Y628544D01*
X773579Y628634D01*
X773729Y628736D01*
X773858Y628850D01*
Y624650D01*
D02*
G37*
G36*
X727040Y628736D02*
X727190Y628634D01*
X727362Y628544D01*
X727555Y628466D01*
X727770Y628400D01*
X728006Y628346D01*
X728264Y628304D01*
X728544Y628274D01*
X729168Y628250D01*
Y625250D01*
X728845Y625244D01*
X728264Y625196D01*
X728006Y625154D01*
X727770Y625100D01*
X727555Y625034D01*
X727362Y624956D01*
X727190Y624866D01*
X727040Y624764D01*
X726912Y624650D01*
Y628850D01*
X727040Y628736D01*
D02*
G37*
G36*
X866965Y627531D02*
X866710Y627440D01*
X866485Y627288D01*
X866290Y627076D01*
X866125Y626803D01*
X865990Y626470D01*
X865885Y626076D01*
X865810Y625621D01*
X865765Y625106D01*
X865750Y624530D01*
X862750D01*
X862735Y625106D01*
X862690Y625621D01*
X862615Y626076D01*
X862510Y626470D01*
X862375Y626803D01*
X862210Y627076D01*
X862015Y627288D01*
X861790Y627440D01*
X861535Y627531D01*
X861250Y627561D01*
X867250D01*
X866965Y627531D01*
D02*
G37*
G36*
X804755Y628978D02*
X805055Y628825D01*
X805375Y628690D01*
X805716Y628573D01*
X806078Y628475D01*
X806460Y628394D01*
X806862Y628331D01*
X807729Y628259D01*
X808194Y628250D01*
Y625250D01*
X807729Y625241D01*
X806862Y625169D01*
X806460Y625106D01*
X806078Y625025D01*
X805716Y624926D01*
X805375Y624810D01*
X805055Y624675D01*
X804755Y624522D01*
X804476Y624351D01*
Y629149D01*
X804755Y628978D01*
D02*
G37*
G36*
X786524Y624351D02*
X786245Y624522D01*
X785945Y624675D01*
X785625Y624810D01*
X785284Y624926D01*
X784922Y625025D01*
X784540Y625106D01*
X784137Y625169D01*
X783270Y625241D01*
X782806Y625250D01*
Y628250D01*
X783270Y628259D01*
X784137Y628331D01*
X784540Y628394D01*
X784922Y628475D01*
X785284Y628573D01*
X785625Y628690D01*
X785945Y628825D01*
X786245Y628978D01*
X786524Y629149D01*
Y624351D01*
D02*
G37*
G36*
X765755Y628978D02*
X766055Y628825D01*
X766375Y628690D01*
X766716Y628573D01*
X767078Y628475D01*
X767460Y628394D01*
X767862Y628331D01*
X768729Y628259D01*
X769194Y628250D01*
Y625250D01*
X768729Y625241D01*
X767862Y625169D01*
X767460Y625106D01*
X767078Y625025D01*
X766716Y624926D01*
X766375Y624810D01*
X766055Y624675D01*
X765755Y624522D01*
X765476Y624351D01*
Y629149D01*
X765755Y628978D01*
D02*
G37*
G36*
X747524Y624351D02*
X747245Y624522D01*
X746945Y624675D01*
X746625Y624810D01*
X746284Y624926D01*
X745922Y625025D01*
X745540Y625106D01*
X745137Y625169D01*
X744270Y625241D01*
X743806Y625250D01*
Y628250D01*
X744270Y628259D01*
X745137Y628331D01*
X745540Y628394D01*
X745922Y628475D01*
X746284Y628573D01*
X746625Y628690D01*
X746945Y628825D01*
X747245Y628978D01*
X747524Y629149D01*
Y624351D01*
D02*
G37*
G36*
X854250Y622500D02*
Y607815D01*
X852980Y607037D01*
X852570Y607246D01*
X852396Y607897D01*
X851342Y609721D01*
X849853Y611211D01*
X848029Y612264D01*
X845994Y612809D01*
X843888D01*
X841853Y612264D01*
X840029Y611211D01*
X839277Y610458D01*
X830714Y619021D01*
X831200Y620194D01*
X838247D01*
X838406Y620156D01*
X838423Y620155D01*
X839912Y619295D01*
X841947Y618750D01*
X844053D01*
X846088Y619295D01*
X847912Y620348D01*
X849402Y621838D01*
X850455Y623662D01*
X851000Y625697D01*
Y627803D01*
X850455Y629838D01*
X849402Y631662D01*
X849314Y631750D01*
X849402Y631838D01*
X850455Y633662D01*
X851000Y635697D01*
Y637803D01*
X850830Y638436D01*
X851603Y639444D01*
X854250D01*
Y622500D01*
D02*
G37*
G36*
X865765Y619894D02*
X865810Y619379D01*
X865885Y618924D01*
X865990Y618530D01*
X866125Y618197D01*
X866290Y617924D01*
X866485Y617712D01*
X866710Y617560D01*
X866965Y617469D01*
X867250Y617439D01*
X861250D01*
X861535Y617469D01*
X861790Y617560D01*
X862015Y617712D01*
X862210Y617924D01*
X862375Y618197D01*
X862510Y618530D01*
X862615Y618924D01*
X862690Y619379D01*
X862735Y619894D01*
X862750Y620470D01*
X865750D01*
X865765Y619894D01*
D02*
G37*
G36*
X778271Y620736D02*
X778421Y620634D01*
X778592Y620544D01*
X778786Y620466D01*
X779000Y620400D01*
X779237Y620346D01*
X779495Y620304D01*
X779774Y620274D01*
X780398Y620250D01*
Y617250D01*
X780075Y617244D01*
X779495Y617196D01*
X779237Y617154D01*
X779000Y617100D01*
X778786Y617034D01*
X778592Y616956D01*
X778421Y616866D01*
X778271Y616764D01*
X778142Y616650D01*
Y620850D01*
X778271Y620736D01*
D02*
G37*
G36*
X773858Y616650D02*
X773729Y616764D01*
X773579Y616866D01*
X773408Y616956D01*
X773214Y617034D01*
X773000Y617100D01*
X772763Y617154D01*
X772505Y617196D01*
X772226Y617226D01*
X771602Y617250D01*
Y620250D01*
X771925Y620256D01*
X772505Y620304D01*
X772763Y620346D01*
X773000Y620400D01*
X773214Y620466D01*
X773408Y620544D01*
X773579Y620634D01*
X773729Y620736D01*
X773858Y620850D01*
Y616650D01*
D02*
G37*
G36*
X729528Y617250D02*
X729198Y617244D01*
X728642Y617193D01*
X728415Y617148D01*
X728221Y617091D01*
X728062Y617021D01*
X727937Y616938D01*
X727846Y616842D01*
X727789Y616734D01*
X727766Y616613D01*
X725329Y619697D01*
X728806Y620250D01*
X729528Y617250D01*
D02*
G37*
G36*
X804628Y621073D02*
X804846Y621005D01*
X805130Y620945D01*
X805481Y620894D01*
X806379Y620814D01*
X808220Y620754D01*
X808966Y620750D01*
Y616750D01*
X808220Y616746D01*
X805130Y616555D01*
X804846Y616495D01*
X804628Y616427D01*
X804476Y616351D01*
Y621149D01*
X804628Y621073D01*
D02*
G37*
G36*
X786524Y616351D02*
X786245Y616522D01*
X785945Y616675D01*
X785625Y616810D01*
X785284Y616926D01*
X784922Y617025D01*
X784540Y617106D01*
X784137Y617169D01*
X783270Y617241D01*
X782806Y617250D01*
Y620250D01*
X783270Y620259D01*
X784137Y620331D01*
X784540Y620394D01*
X784922Y620475D01*
X785284Y620574D01*
X785625Y620690D01*
X785945Y620825D01*
X786245Y620978D01*
X786524Y621149D01*
Y616351D01*
D02*
G37*
G36*
X765755Y620978D02*
X766055Y620825D01*
X766375Y620690D01*
X766716Y620574D01*
X767078Y620475D01*
X767460Y620394D01*
X767862Y620331D01*
X768729Y620259D01*
X769194Y620250D01*
Y617250D01*
X768729Y617241D01*
X767862Y617169D01*
X767460Y617106D01*
X767078Y617025D01*
X766716Y616926D01*
X766375Y616810D01*
X766055Y616675D01*
X765755Y616522D01*
X765476Y616351D01*
Y621149D01*
X765755Y620978D01*
D02*
G37*
G36*
X747524Y616351D02*
X747245Y616522D01*
X746945Y616675D01*
X746625Y616810D01*
X746284Y616926D01*
X745922Y617025D01*
X745540Y617106D01*
X745137Y617169D01*
X744270Y617241D01*
X743806Y617250D01*
Y620250D01*
X744270Y620259D01*
X745137Y620331D01*
X745540Y620394D01*
X745922Y620475D01*
X746284Y620574D01*
X746625Y620690D01*
X746945Y620825D01*
X747245Y620978D01*
X747524Y621149D01*
Y616351D01*
D02*
G37*
G36*
X847951Y604608D02*
X847985Y604430D01*
X848043Y604244D01*
X848124Y604053D01*
X848229Y603854D01*
X848358Y603649D01*
X848511Y603437D01*
X848687Y603218D01*
X849111Y602760D01*
X846990Y600639D01*
X846758Y600863D01*
X846313Y601239D01*
X846101Y601392D01*
X845896Y601521D01*
X845697Y601626D01*
X845505Y601707D01*
X845320Y601765D01*
X845142Y601799D01*
X844971Y601809D01*
X847941Y604779D01*
X847951Y604608D01*
D02*
G37*
G36*
X842970Y599750D02*
X840000Y596780D01*
X839988Y596819D01*
X839950Y596881D01*
X839887Y596966D01*
X839684Y597202D01*
X838973Y597947D01*
X838732Y598190D01*
X841560Y601018D01*
X842970Y599750D01*
D02*
G37*
G36*
X859311Y596000D02*
X859281Y596285D01*
X859190Y596540D01*
X859038Y596765D01*
X858826Y596960D01*
X858553Y597125D01*
X858220Y597260D01*
X857826Y597365D01*
X857372Y597440D01*
X856856Y597485D01*
X856281Y597500D01*
Y600500D01*
X856856Y600515D01*
X857372Y600560D01*
X857826Y600635D01*
X858220Y600740D01*
X858553Y600875D01*
X858826Y601040D01*
X859038Y601235D01*
X859190Y601460D01*
X859281Y601715D01*
X859311Y602000D01*
Y596000D01*
D02*
G37*
G36*
X835012Y594753D02*
X835117Y594595D01*
X835136Y594576D01*
X835015Y593994D01*
X834340Y593306D01*
X802966D01*
X793786Y602485D01*
X794048Y604020D01*
X795500Y604990D01*
X797561Y603613D01*
X800000Y603128D01*
X804000D01*
X804628Y603252D01*
X805000Y602947D01*
X805545Y600912D01*
X806598Y599088D01*
X808088Y597598D01*
X809912Y596545D01*
X811947Y596000D01*
X814053D01*
X816088Y596545D01*
X817912Y597598D01*
X819402Y599088D01*
X820455Y600912D01*
X821000Y602947D01*
Y605053D01*
X820455Y607088D01*
X819873Y608097D01*
X820889Y608876D01*
X835012Y594753D01*
D02*
G37*
G36*
X510355Y593784D02*
X510393Y593722D01*
X510456Y593637D01*
X510659Y593400D01*
X511370Y592656D01*
X511611Y592413D01*
X508782Y589585D01*
X507373Y590853D01*
X510342Y593823D01*
X510355Y593784D01*
D02*
G37*
G36*
X840858Y584650D02*
X840729Y584764D01*
X840579Y584866D01*
X840407Y584956D01*
X840214Y585034D01*
X840000Y585100D01*
X839763Y585154D01*
X839505Y585196D01*
X839226Y585226D01*
X838602Y585250D01*
Y588250D01*
X838925Y588256D01*
X839505Y588304D01*
X839763Y588346D01*
X840000Y588400D01*
X840214Y588466D01*
X840407Y588544D01*
X840579Y588634D01*
X840729Y588736D01*
X840858Y588850D01*
Y584650D01*
D02*
G37*
G36*
Y574650D02*
X840821Y574669D01*
X840751Y574686D01*
X840646Y574701D01*
X840335Y574725D01*
X839306Y574749D01*
X838964Y574750D01*
Y578750D01*
X840858Y578850D01*
Y574650D01*
D02*
G37*
G36*
X771017Y574570D02*
X771087Y573754D01*
X771210Y572974D01*
X771385Y572229D01*
X771612Y571520D01*
X771892Y570845D01*
X772224Y570206D01*
X772609Y569602D01*
X773046Y569034D01*
X773535Y568500D01*
X770000Y564965D01*
X769466Y565454D01*
X768898Y565891D01*
X768294Y566276D01*
X767655Y566608D01*
X766980Y566888D01*
X766271Y567116D01*
X765526Y567290D01*
X764746Y567413D01*
X763931Y567483D01*
X763080Y567500D01*
X771000Y575420D01*
X771017Y574570D01*
D02*
G37*
G36*
X840858Y436650D02*
X840729Y436764D01*
X840579Y436866D01*
X840407Y436956D01*
X840214Y437034D01*
X840000Y437100D01*
X839763Y437154D01*
X839505Y437196D01*
X839226Y437226D01*
X838602Y437250D01*
Y440250D01*
X838925Y440256D01*
X839505Y440304D01*
X839763Y440346D01*
X840000Y440400D01*
X840214Y440466D01*
X840407Y440544D01*
X840579Y440634D01*
X840729Y440736D01*
X840858Y440850D01*
Y436650D01*
D02*
G37*
G36*
X820031Y428000D02*
X820001Y428285D01*
X819911Y428540D01*
X819761Y428765D01*
X819550Y428960D01*
X819280Y429125D01*
X818951Y429260D01*
X818560Y429365D01*
X818111Y429440D01*
X817600Y429485D01*
X817182Y429496D01*
X817075Y429494D01*
X816495Y429446D01*
X816237Y429404D01*
X816000Y429350D01*
X815786Y429284D01*
X815592Y429206D01*
X815421Y429116D01*
X815271Y429014D01*
X815142Y428900D01*
Y433100D01*
X815271Y432986D01*
X815421Y432884D01*
X815592Y432794D01*
X815786Y432716D01*
X816000Y432650D01*
X816237Y432596D01*
X816495Y432554D01*
X816774Y432524D01*
X817249Y432506D01*
X817600Y432515D01*
X818111Y432560D01*
X818560Y432635D01*
X818951Y432740D01*
X819280Y432875D01*
X819550Y433040D01*
X819761Y433235D01*
X819911Y433460D01*
X820001Y433715D01*
X820031Y434000D01*
Y428000D01*
D02*
G37*
G36*
X845271Y430736D02*
X845421Y430634D01*
X845592Y430544D01*
X845786Y430466D01*
X846000Y430400D01*
X846237Y430346D01*
X846495Y430304D01*
X846774Y430274D01*
X847398Y430250D01*
Y427250D01*
X847075Y427244D01*
X846495Y427196D01*
X846237Y427154D01*
X846000Y427100D01*
X845786Y427034D01*
X845592Y426956D01*
X845421Y426866D01*
X845271Y426764D01*
X845142Y426650D01*
Y430850D01*
X845271Y430736D01*
D02*
G37*
G36*
X859280Y425750D02*
X859250Y426035D01*
X859161Y426290D01*
X859010Y426515D01*
X858801Y426710D01*
X858531Y426875D01*
X858201Y427010D01*
X857811Y427115D01*
X857361Y427190D01*
X856851Y427235D01*
X856281Y427250D01*
Y430250D01*
X856851Y430265D01*
X857361Y430310D01*
X857811Y430385D01*
X858201Y430490D01*
X858531Y430625D01*
X858801Y430790D01*
X859010Y430985D01*
X859161Y431210D01*
X859250Y431465D01*
X859280Y431750D01*
Y425750D01*
D02*
G37*
G36*
X803514Y421770D02*
X803555Y421327D01*
X803624Y420915D01*
X803721Y420533D01*
X803845Y420181D01*
X803997Y419860D01*
X804176Y419569D01*
X804383Y419309D01*
X804617Y419079D01*
X804879Y418879D01*
X799121D01*
X799383Y419079D01*
X799617Y419309D01*
X799824Y419569D01*
X800003Y419860D01*
X800155Y420181D01*
X800279Y420533D01*
X800376Y420915D01*
X800445Y421327D01*
X800486Y421770D01*
X800500Y422243D01*
X803500D01*
X803514Y421770D01*
D02*
G37*
G36*
X510289Y421388D02*
X510323Y421210D01*
X510381Y421025D01*
X510462Y420833D01*
X510567Y420634D01*
X510696Y420429D01*
X510849Y420217D01*
X511025Y419998D01*
X511450Y419540D01*
X509328Y417419D01*
X509096Y417643D01*
X508651Y418019D01*
X508439Y418172D01*
X508234Y418301D01*
X508035Y418406D01*
X507844Y418488D01*
X507659Y418545D01*
X507480Y418579D01*
X507309Y418590D01*
X510279Y421559D01*
X510289Y421388D01*
D02*
G37*
G36*
X840858Y416650D02*
X840729Y416764D01*
X840579Y416866D01*
X840407Y416956D01*
X840214Y417034D01*
X840000Y417100D01*
X839763Y417154D01*
X839505Y417196D01*
X839226Y417226D01*
X838602Y417250D01*
Y420250D01*
X838925Y420256D01*
X839505Y420304D01*
X839763Y420346D01*
X840000Y420400D01*
X840214Y420466D01*
X840407Y420544D01*
X840579Y420634D01*
X840729Y420736D01*
X840858Y420850D01*
Y416650D01*
D02*
G37*
G36*
X832970Y417250D02*
X832396Y417235D01*
X831882Y417190D01*
X831429Y417115D01*
X831036Y417010D01*
X830703Y416875D01*
X830430Y416710D01*
X830217Y416515D01*
X830064Y416290D01*
X829971Y416035D01*
X829939Y415750D01*
X829969Y419469D01*
X829999Y419618D01*
X830089Y419751D01*
X830239Y419868D01*
X830450Y419969D01*
X830720Y420055D01*
X831049Y420125D01*
X831440Y420180D01*
X831889Y420219D01*
X832970Y420250D01*
Y417250D01*
D02*
G37*
G36*
X773947Y414692D02*
X773818Y414805D01*
X773667Y414905D01*
X773495Y414994D01*
X773301Y415070D01*
X773086Y415135D01*
X772849Y415188D01*
X772591Y415230D01*
X772311Y415259D01*
X771687Y415283D01*
X771649Y418283D01*
X771972Y418289D01*
X772552Y418338D01*
X772810Y418380D01*
X773046Y418435D01*
X773260Y418502D01*
X773453Y418582D01*
X773624Y418673D01*
X773773Y418777D01*
X773901Y418892D01*
X773947Y414692D01*
D02*
G37*
G36*
X778381Y418751D02*
X778529Y418646D01*
X778700Y418553D01*
X778892Y418473D01*
X779106Y418405D01*
X779341Y418349D01*
X779598Y418306D01*
X779877Y418275D01*
X780501Y418250D01*
X780425Y415250D01*
X780102Y415244D01*
X779520Y415198D01*
X779262Y415157D01*
X779025Y415105D01*
X778809Y415041D01*
X778615Y414966D01*
X778443Y414878D01*
X778291Y414780D01*
X778162Y414669D01*
X778254Y418868D01*
X778381Y418751D01*
D02*
G37*
G36*
X727040Y418736D02*
X727190Y418634D01*
X727362Y418544D01*
X727555Y418466D01*
X727770Y418400D01*
X728006Y418346D01*
X728264Y418304D01*
X728544Y418274D01*
X729168Y418250D01*
Y415250D01*
X728845Y415244D01*
X728264Y415196D01*
X728006Y415154D01*
X727770Y415100D01*
X727555Y415034D01*
X727362Y414956D01*
X727190Y414866D01*
X727040Y414764D01*
X726912Y414650D01*
Y418850D01*
X727040Y418736D01*
D02*
G37*
G36*
X786524Y414351D02*
X786245Y414522D01*
X785945Y414675D01*
X785625Y414810D01*
X785284Y414926D01*
X784922Y415025D01*
X784540Y415106D01*
X784137Y415169D01*
X783270Y415241D01*
X782806Y415250D01*
Y418250D01*
X783270Y418259D01*
X784137Y418331D01*
X784540Y418394D01*
X784922Y418475D01*
X785284Y418574D01*
X785625Y418690D01*
X785945Y418825D01*
X786245Y418978D01*
X786524Y419149D01*
Y414351D01*
D02*
G37*
G36*
X765746Y418984D02*
X766039Y418837D01*
X766354Y418707D01*
X766692Y418595D01*
X767052Y418499D01*
X767434Y418422D01*
X767839Y418361D01*
X768715Y418292D01*
X769187Y418283D01*
X769200Y415283D01*
X768744Y415274D01*
X767886Y415199D01*
X767486Y415134D01*
X767104Y415050D01*
X766741Y414948D01*
X766397Y414826D01*
X766071Y414687D01*
X765764Y414528D01*
X765476Y414351D01*
Y419149D01*
X765746Y418984D01*
D02*
G37*
G36*
X747524Y414351D02*
X747245Y414522D01*
X746945Y414675D01*
X746625Y414810D01*
X746284Y414926D01*
X745922Y415025D01*
X745540Y415106D01*
X745137Y415169D01*
X744270Y415241D01*
X743806Y415250D01*
Y418250D01*
X744270Y418259D01*
X745137Y418331D01*
X745540Y418394D01*
X745922Y418475D01*
X746284Y418574D01*
X746625Y418690D01*
X746945Y418825D01*
X747245Y418978D01*
X747524Y419149D01*
Y414351D01*
D02*
G37*
G36*
X875858Y411650D02*
X875729Y411764D01*
X875579Y411866D01*
X875407Y411956D01*
X875214Y412034D01*
X875000Y412100D01*
X874763Y412154D01*
X874505Y412196D01*
X874226Y412226D01*
X873602Y412250D01*
Y415250D01*
X873925Y415256D01*
X874505Y415304D01*
X874763Y415346D01*
X875000Y415400D01*
X875214Y415466D01*
X875407Y415544D01*
X875579Y415634D01*
X875729Y415736D01*
X875858Y415850D01*
Y411650D01*
D02*
G37*
G36*
X869219Y416465D02*
X869310Y416210D01*
X869462Y415985D01*
X869674Y415790D01*
X869947Y415625D01*
X870280Y415490D01*
X870674Y415385D01*
X871128Y415310D01*
X871644Y415265D01*
X872219Y415250D01*
Y412250D01*
X871644Y412235D01*
X871128Y412190D01*
X870674Y412115D01*
X870280Y412010D01*
X869947Y411875D01*
X869674Y411710D01*
X869462Y411515D01*
X869310Y411290D01*
X869219Y411035D01*
X869189Y410750D01*
Y416750D01*
X869219Y416465D01*
D02*
G37*
G36*
X866965Y410281D02*
X866710Y410190D01*
X866485Y410038D01*
X866290Y409826D01*
X866125Y409553D01*
X865990Y409220D01*
X865885Y408826D01*
X865810Y408372D01*
X865765Y407856D01*
X865750Y407281D01*
X862750D01*
X862735Y407856D01*
X862690Y408372D01*
X862615Y408826D01*
X862510Y409220D01*
X862375Y409553D01*
X862210Y409826D01*
X862015Y410038D01*
X861790Y410190D01*
X861535Y410281D01*
X861250Y410311D01*
X867250D01*
X866965Y410281D01*
D02*
G37*
G36*
X840858Y406650D02*
X840729Y406764D01*
X840579Y406866D01*
X840407Y406956D01*
X840214Y407034D01*
X840000Y407100D01*
X839763Y407154D01*
X839505Y407196D01*
X839226Y407226D01*
X838602Y407250D01*
Y410250D01*
X838925Y410256D01*
X839505Y410304D01*
X839763Y410346D01*
X840000Y410400D01*
X840214Y410466D01*
X840407Y410544D01*
X840579Y410634D01*
X840729Y410736D01*
X840858Y410850D01*
Y406650D01*
D02*
G37*
G36*
X778271Y410736D02*
X778421Y410634D01*
X778592Y410544D01*
X778786Y410466D01*
X779000Y410400D01*
X779237Y410346D01*
X779495Y410304D01*
X779774Y410274D01*
X780398Y410250D01*
Y407250D01*
X780075Y407244D01*
X779495Y407196D01*
X779237Y407154D01*
X779000Y407100D01*
X778786Y407034D01*
X778592Y406956D01*
X778421Y406866D01*
X778271Y406764D01*
X778142Y406650D01*
Y410850D01*
X778271Y410736D01*
D02*
G37*
G36*
X773858Y406650D02*
X773729Y406764D01*
X773579Y406866D01*
X773408Y406956D01*
X773214Y407034D01*
X773000Y407100D01*
X772763Y407154D01*
X772505Y407196D01*
X772226Y407226D01*
X771602Y407250D01*
Y410250D01*
X771925Y410256D01*
X772505Y410304D01*
X772763Y410346D01*
X773000Y410400D01*
X773214Y410466D01*
X773408Y410544D01*
X773579Y410634D01*
X773729Y410736D01*
X773858Y410850D01*
Y406650D01*
D02*
G37*
G36*
X726861Y410672D02*
X727014Y410584D01*
X727188Y410505D01*
X727384Y410438D01*
X727601Y410380D01*
X727839Y410333D01*
X728099Y410297D01*
X728682Y410255D01*
X729006Y410250D01*
X729297Y407250D01*
X728975Y407243D01*
X728397Y407190D01*
X728142Y407144D01*
X727909Y407084D01*
X727699Y407011D01*
X727510Y406925D01*
X727344Y406825D01*
X727201Y406712D01*
X727080Y406586D01*
X726730Y410771D01*
X726861Y410672D01*
D02*
G37*
G36*
X804755Y410978D02*
X805055Y410825D01*
X805375Y410690D01*
X805716Y410574D01*
X806078Y410475D01*
X806460Y410394D01*
X806862Y410331D01*
X807729Y410259D01*
X808194Y410250D01*
Y407250D01*
X807729Y407241D01*
X806862Y407169D01*
X806460Y407106D01*
X806078Y407025D01*
X805716Y406926D01*
X805375Y406810D01*
X805055Y406675D01*
X804755Y406522D01*
X804476Y406351D01*
Y411149D01*
X804755Y410978D01*
D02*
G37*
G36*
X786524Y406351D02*
X786245Y406522D01*
X785945Y406675D01*
X785625Y406810D01*
X785284Y406926D01*
X784922Y407025D01*
X784540Y407106D01*
X784137Y407169D01*
X783270Y407241D01*
X782806Y407250D01*
Y410250D01*
X783270Y410259D01*
X784137Y410331D01*
X784540Y410394D01*
X784922Y410475D01*
X785284Y410574D01*
X785625Y410690D01*
X785945Y410825D01*
X786245Y410978D01*
X786524Y411149D01*
Y406351D01*
D02*
G37*
G36*
X765755Y410978D02*
X766055Y410825D01*
X766375Y410690D01*
X766716Y410574D01*
X767078Y410475D01*
X767460Y410394D01*
X767862Y410331D01*
X768729Y410259D01*
X769194Y410250D01*
Y407250D01*
X768729Y407241D01*
X767862Y407169D01*
X767460Y407106D01*
X767078Y407025D01*
X766716Y406926D01*
X766375Y406810D01*
X766055Y406675D01*
X765755Y406522D01*
X765476Y406351D01*
Y411149D01*
X765755Y410978D01*
D02*
G37*
G36*
X747524Y406351D02*
X747245Y406522D01*
X746945Y406675D01*
X746625Y406810D01*
X746284Y406926D01*
X745922Y407025D01*
X745540Y407106D01*
X745137Y407169D01*
X744270Y407241D01*
X743806Y407250D01*
Y410250D01*
X744270Y410259D01*
X745137Y410331D01*
X745540Y410394D01*
X745922Y410475D01*
X746284Y410574D01*
X746625Y410690D01*
X746945Y410825D01*
X747245Y410978D01*
X747524Y411149D01*
Y406351D01*
D02*
G37*
G36*
X854250Y405250D02*
X857694D01*
Y401000D01*
X854250D01*
Y393681D01*
X853077Y393195D01*
X852886Y393386D01*
X851528Y394428D01*
X849947Y395083D01*
X848250Y395306D01*
X847753D01*
X847594Y395344D01*
X847577Y395345D01*
X846088Y396205D01*
X844053Y396750D01*
X841947D01*
X839912Y396205D01*
X838088Y395152D01*
X836979Y394043D01*
X830001Y401021D01*
X830487Y402194D01*
X838247D01*
X838406Y402156D01*
X838423Y402155D01*
X839912Y401295D01*
X841947Y400750D01*
X844053D01*
X846088Y401295D01*
X847912Y402348D01*
X849402Y403838D01*
X850455Y405662D01*
X851000Y407697D01*
Y409803D01*
X850455Y411838D01*
X849402Y413662D01*
X849314Y413750D01*
X849402Y413838D01*
X850455Y415662D01*
X851000Y417697D01*
Y419803D01*
X850700Y420924D01*
X851661Y422194D01*
X854250D01*
Y405250D01*
D02*
G37*
G36*
X778271Y402736D02*
X778421Y402634D01*
X778592Y402544D01*
X778786Y402466D01*
X779000Y402400D01*
X779237Y402346D01*
X779495Y402304D01*
X779774Y402274D01*
X780398Y402250D01*
Y399250D01*
X780075Y399244D01*
X779495Y399196D01*
X779237Y399154D01*
X779000Y399100D01*
X778786Y399034D01*
X778592Y398956D01*
X778421Y398866D01*
X778271Y398764D01*
X778142Y398650D01*
Y402850D01*
X778271Y402736D01*
D02*
G37*
G36*
X773858Y398650D02*
X773729Y398764D01*
X773579Y398866D01*
X773408Y398956D01*
X773214Y399034D01*
X773000Y399100D01*
X772763Y399154D01*
X772505Y399196D01*
X772226Y399226D01*
X771602Y399250D01*
Y402250D01*
X771925Y402256D01*
X772505Y402304D01*
X772763Y402346D01*
X773000Y402400D01*
X773214Y402466D01*
X773408Y402544D01*
X773579Y402634D01*
X773729Y402736D01*
X773858Y402850D01*
Y398650D01*
D02*
G37*
G36*
X804755Y402978D02*
X805055Y402825D01*
X805375Y402690D01*
X805716Y402574D01*
X806078Y402475D01*
X806460Y402394D01*
X806862Y402331D01*
X807729Y402259D01*
X808194Y402250D01*
Y399250D01*
X807729Y399241D01*
X806862Y399169D01*
X806460Y399106D01*
X806078Y399025D01*
X805716Y398926D01*
X805375Y398810D01*
X805055Y398675D01*
X804755Y398522D01*
X804476Y398351D01*
Y403149D01*
X804755Y402978D01*
D02*
G37*
G36*
X786524Y398351D02*
X786245Y398522D01*
X785945Y398675D01*
X785625Y398810D01*
X785284Y398926D01*
X784922Y399025D01*
X784540Y399106D01*
X784137Y399169D01*
X783270Y399241D01*
X782806Y399250D01*
Y402250D01*
X783270Y402259D01*
X784137Y402331D01*
X784540Y402394D01*
X784922Y402475D01*
X785284Y402574D01*
X785625Y402690D01*
X785945Y402825D01*
X786245Y402978D01*
X786524Y403149D01*
Y398351D01*
D02*
G37*
G36*
X765755Y402978D02*
X766055Y402825D01*
X766375Y402690D01*
X766716Y402574D01*
X767078Y402475D01*
X767460Y402394D01*
X767862Y402331D01*
X768729Y402259D01*
X769194Y402250D01*
Y399250D01*
X768729Y399241D01*
X767862Y399169D01*
X767460Y399106D01*
X767078Y399025D01*
X766716Y398926D01*
X766375Y398810D01*
X766055Y398675D01*
X765755Y398522D01*
X765476Y398351D01*
Y403149D01*
X765755Y402978D01*
D02*
G37*
G36*
X747524Y398351D02*
X747245Y398522D01*
X746945Y398675D01*
X746625Y398810D01*
X746284Y398926D01*
X745922Y399025D01*
X745540Y399106D01*
X745137Y399169D01*
X744270Y399241D01*
X743806Y399250D01*
Y402250D01*
X744270Y402259D01*
X745137Y402331D01*
X745540Y402394D01*
X745922Y402475D01*
X746284Y402574D01*
X746625Y402690D01*
X746945Y402825D01*
X747245Y402978D01*
X747524Y403149D01*
Y398351D01*
D02*
G37*
G36*
X865765Y398394D02*
X865810Y397879D01*
X865885Y397424D01*
X865990Y397030D01*
X866125Y396697D01*
X866290Y396424D01*
X866485Y396212D01*
X866710Y396060D01*
X866965Y395969D01*
X867250Y395939D01*
X861250D01*
X861535Y395969D01*
X861790Y396060D01*
X862015Y396212D01*
X862210Y396424D01*
X862375Y396697D01*
X862510Y397030D01*
X862615Y397424D01*
X862690Y397879D01*
X862735Y398394D01*
X862750Y398970D01*
X865750D01*
X865765Y398394D01*
D02*
G37*
G36*
X845271Y390736D02*
X845421Y390634D01*
X845592Y390544D01*
X845786Y390466D01*
X846000Y390400D01*
X846237Y390346D01*
X846495Y390304D01*
X846774Y390274D01*
X847398Y390250D01*
Y387250D01*
X847075Y387244D01*
X846495Y387196D01*
X846237Y387154D01*
X846000Y387100D01*
X845786Y387034D01*
X845592Y386956D01*
X845421Y386866D01*
X845271Y386764D01*
X845142Y386650D01*
Y390850D01*
X845271Y390736D01*
D02*
G37*
G36*
X841183Y382697D02*
X841628Y382320D01*
X841840Y382167D01*
X842045Y382038D01*
X842244Y381933D01*
X842435Y381852D01*
X842620Y381794D01*
X842799Y381760D01*
X842970Y381750D01*
X840000Y378780D01*
X839990Y378951D01*
X839956Y379130D01*
X839898Y379315D01*
X839817Y379506D01*
X839712Y379705D01*
X839583Y379910D01*
X839430Y380122D01*
X839254Y380341D01*
X838829Y380799D01*
X840951Y382920D01*
X841183Y382697D01*
D02*
G37*
G36*
X835003Y377475D02*
X835089Y377336D01*
X835100Y377323D01*
X835300Y376576D01*
X834340Y375306D01*
X800966D01*
X792073Y384199D01*
X792441Y385414D01*
X793439Y385613D01*
X795500Y386990D01*
X797561Y385613D01*
X800000Y385128D01*
X804000D01*
X804000Y385127D01*
Y384947D01*
X804545Y382912D01*
X805598Y381088D01*
X807088Y379598D01*
X808912Y378545D01*
X810947Y378000D01*
X813053D01*
X815088Y378545D01*
X816912Y379598D01*
X818402Y381088D01*
X819455Y382912D01*
X820000Y384947D01*
Y387053D01*
X819455Y389088D01*
X818402Y390912D01*
X816912Y392402D01*
X816007Y392924D01*
X816348Y394194D01*
X818284D01*
X835003Y377475D01*
D02*
G37*
G36*
X859280Y380970D02*
X859311Y377719D01*
X859292Y377773D01*
X859238Y377821D01*
X859147Y377863D01*
X859020Y377899D01*
X858857Y377930D01*
X858658Y377955D01*
X858151Y377989D01*
X857500Y378000D01*
Y381000D01*
X859280Y380970D01*
D02*
G37*
G36*
X840858Y366650D02*
X840729Y366764D01*
X840579Y366866D01*
X840407Y366956D01*
X840214Y367034D01*
X840000Y367100D01*
X839763Y367154D01*
X839505Y367196D01*
X839226Y367226D01*
X838602Y367250D01*
Y370250D01*
X838925Y370256D01*
X839505Y370304D01*
X839763Y370346D01*
X840000Y370400D01*
X840214Y370466D01*
X840407Y370544D01*
X840579Y370634D01*
X840729Y370736D01*
X840858Y370850D01*
Y366650D01*
D02*
G37*
G36*
Y356650D02*
X840821Y356669D01*
X840751Y356686D01*
X840646Y356701D01*
X840335Y356725D01*
X839306Y356749D01*
X838964Y356750D01*
Y360750D01*
X840858Y360850D01*
Y356650D01*
D02*
G37*
G36*
X771017Y356570D02*
X771087Y355754D01*
X771210Y354974D01*
X771385Y354229D01*
X771612Y353520D01*
X771892Y352845D01*
X772224Y352206D01*
X772609Y351602D01*
X773046Y351034D01*
X773535Y350500D01*
X770000Y346965D01*
X769466Y347454D01*
X768898Y347891D01*
X768294Y348276D01*
X767655Y348608D01*
X766980Y348888D01*
X766271Y349116D01*
X765526Y349291D01*
X764746Y349413D01*
X763931Y349483D01*
X763080Y349500D01*
X771000Y357420D01*
X771017Y356570D01*
D02*
G37*
G36*
X840858Y215966D02*
X840729Y216080D01*
X840579Y216182D01*
X840407Y216272D01*
X840214Y216350D01*
X840000Y216416D01*
X839763Y216470D01*
X839505Y216512D01*
X839226Y216542D01*
X838602Y216566D01*
Y219566D01*
X838925Y219572D01*
X839505Y219620D01*
X839763Y219662D01*
X840000Y219716D01*
X840214Y219782D01*
X840407Y219860D01*
X840579Y219950D01*
X840729Y220052D01*
X840858Y220166D01*
Y215966D01*
D02*
G37*
G36*
X820031Y207000D02*
X820001Y207285D01*
X819911Y207540D01*
X819761Y207765D01*
X819550Y207960D01*
X819280Y208125D01*
X818951Y208260D01*
X818560Y208365D01*
X818111Y208440D01*
X817600Y208485D01*
X817182Y208496D01*
X817075Y208494D01*
X816495Y208446D01*
X816237Y208404D01*
X816000Y208350D01*
X815786Y208284D01*
X815592Y208206D01*
X815421Y208116D01*
X815271Y208014D01*
X815142Y207900D01*
Y212100D01*
X815271Y211986D01*
X815421Y211884D01*
X815592Y211794D01*
X815786Y211716D01*
X816000Y211650D01*
X816237Y211596D01*
X816495Y211554D01*
X816774Y211524D01*
X817249Y211506D01*
X817600Y211515D01*
X818111Y211560D01*
X818560Y211635D01*
X818951Y211740D01*
X819280Y211875D01*
X819550Y212040D01*
X819761Y212235D01*
X819911Y212460D01*
X820001Y212715D01*
X820031Y213000D01*
Y207000D01*
D02*
G37*
G36*
X846065Y210001D02*
X846214Y209896D01*
X846384Y209803D01*
X846576Y209723D01*
X846790Y209655D01*
X847026Y209599D01*
X847283Y209556D01*
X847562Y209525D01*
X848185Y209500D01*
X848109Y206500D01*
X847786Y206494D01*
X847204Y206448D01*
X846946Y206407D01*
X846709Y206355D01*
X846493Y206291D01*
X846299Y206216D01*
X846126Y206129D01*
X845975Y206030D01*
X845845Y205920D01*
X845938Y210119D01*
X846065Y210001D01*
D02*
G37*
G36*
X859280Y205000D02*
X859250Y205285D01*
X859161Y205540D01*
X859010Y205765D01*
X858801Y205960D01*
X858531Y206125D01*
X858201Y206260D01*
X857811Y206365D01*
X857361Y206440D01*
X856851Y206485D01*
X856281Y206500D01*
Y209500D01*
X856851Y209515D01*
X857361Y209559D01*
X857811Y209632D01*
X858201Y209735D01*
X858531Y209867D01*
X858801Y210029D01*
X859010Y210220D01*
X859161Y210441D01*
X859250Y210690D01*
X859280Y210970D01*
Y205000D01*
D02*
G37*
G36*
X509613Y206386D02*
X509763Y206284D01*
X509935Y206194D01*
X510128Y206116D01*
X510343Y206050D01*
X510579Y205996D01*
X510837Y205954D01*
X511117Y205924D01*
X511741Y205900D01*
Y202900D01*
X511418Y202894D01*
X510837Y202846D01*
X510579Y202804D01*
X510343Y202750D01*
X510128Y202684D01*
X509935Y202606D01*
X509763Y202516D01*
X509613Y202414D01*
X509485Y202300D01*
Y206500D01*
X509613Y206386D01*
D02*
G37*
G36*
X841608Y195966D02*
X841479Y196080D01*
X841329Y196182D01*
X841158Y196272D01*
X840964Y196350D01*
X840750Y196416D01*
X840513Y196470D01*
X840255Y196512D01*
X839976Y196542D01*
X839352Y196566D01*
Y199566D01*
X839675Y199572D01*
X840255Y199620D01*
X840513Y199662D01*
X840750Y199716D01*
X840964Y199782D01*
X841158Y199860D01*
X841329Y199950D01*
X841479Y200052D01*
X841608Y200166D01*
Y195966D01*
D02*
G37*
G36*
X832970Y196566D02*
X832396Y196551D01*
X831883Y196506D01*
X831430Y196431D01*
X831036Y196326D01*
X830703Y196191D01*
X830430Y196026D01*
X830217Y195831D01*
X830065Y195606D01*
X829972Y195351D01*
X829939Y195066D01*
X829969Y198470D01*
X829999Y198678D01*
X830089Y198864D01*
X830239Y199029D01*
X830450Y199172D01*
X830720Y199292D01*
X831049Y199391D01*
X831440Y199468D01*
X831889Y199522D01*
X832400Y199555D01*
X832970Y199566D01*
Y196566D01*
D02*
G37*
G36*
X875537Y190287D02*
X875426Y190422D01*
X875292Y190543D01*
X875134Y190650D01*
X874953Y190743D01*
X874748Y190822D01*
X874519Y190886D01*
X874268Y190936D01*
X873992Y190972D01*
X873694Y190993D01*
X873372Y191000D01*
X873964Y194000D01*
X874290Y194004D01*
X875136Y194069D01*
X875375Y194107D01*
X875591Y194154D01*
X875786Y194210D01*
X875958Y194274D01*
X876109Y194347D01*
X876238Y194428D01*
X875537Y190287D01*
D02*
G37*
G36*
X869219Y195215D02*
X869310Y194960D01*
X869462Y194735D01*
X869674Y194540D01*
X869947Y194375D01*
X870280Y194240D01*
X870674Y194135D01*
X871128Y194060D01*
X871644Y194015D01*
X872219Y194000D01*
Y191000D01*
X871644Y190985D01*
X871128Y190940D01*
X870674Y190865D01*
X870280Y190760D01*
X869947Y190625D01*
X869674Y190460D01*
X869462Y190265D01*
X869310Y190040D01*
X869219Y189785D01*
X869189Y189500D01*
Y195500D01*
X869219Y195215D01*
D02*
G37*
G36*
X803514Y191520D02*
X803555Y191077D01*
X803624Y190665D01*
X803721Y190283D01*
X803845Y189931D01*
X803997Y189610D01*
X804176Y189319D01*
X804383Y189059D01*
X804617Y188829D01*
X804879Y188629D01*
X799121D01*
X799383Y188829D01*
X799617Y189059D01*
X799824Y189319D01*
X800003Y189610D01*
X800155Y189931D01*
X800279Y190283D01*
X800376Y190665D01*
X800445Y191077D01*
X800486Y191520D01*
X800500Y191994D01*
X803500D01*
X803514Y191520D01*
D02*
G37*
G36*
X726986Y190402D02*
X727044Y190249D01*
X727122Y190086D01*
X727223Y189913D01*
X727344Y189729D01*
X727651Y189332D01*
X727837Y189119D01*
X728272Y188661D01*
X726636Y186055D01*
X726403Y186277D01*
X725957Y186642D01*
X725743Y186783D01*
X725537Y186897D01*
X725337Y186984D01*
X725144Y187044D01*
X724957Y187077D01*
X724777Y187083D01*
X724603Y187061D01*
X726950Y190545D01*
X726986Y190402D01*
D02*
G37*
G36*
X867870Y189021D02*
X867530Y188900D01*
X867230Y188698D01*
X866970Y188416D01*
X866750Y188053D01*
X866570Y187610D01*
X866430Y187086D01*
X866330Y186481D01*
X866270Y185796D01*
X866250Y185031D01*
X862250D01*
X862230Y185796D01*
X862170Y186481D01*
X862070Y187086D01*
X861930Y187610D01*
X861750Y188053D01*
X861530Y188416D01*
X861270Y188698D01*
X860970Y188900D01*
X860630Y189021D01*
X860250Y189061D01*
X868250D01*
X867870Y189021D01*
D02*
G37*
G36*
X773933Y184440D02*
X773804Y184552D01*
X773654Y184653D01*
X773482Y184741D01*
X773288Y184818D01*
X773073Y184883D01*
X772836Y184936D01*
X772578Y184978D01*
X772298Y185007D01*
X771674Y185031D01*
X771639Y188031D01*
X771961Y188037D01*
X772542Y188086D01*
X772799Y188128D01*
X773035Y188183D01*
X773250Y188250D01*
X773442Y188329D01*
X773613Y188420D01*
X773763Y188524D01*
X773891Y188640D01*
X773933Y184440D01*
D02*
G37*
G36*
X778366Y188500D02*
X778515Y188395D01*
X778686Y188302D01*
X778878Y188222D01*
X779092Y188154D01*
X779327Y188099D01*
X779585Y188056D01*
X779864Y188025D01*
X780487Y188000D01*
X780416Y185000D01*
X780093Y184994D01*
X779511Y184948D01*
X779253Y184907D01*
X779016Y184855D01*
X778801Y184791D01*
X778606Y184715D01*
X778434Y184628D01*
X778283Y184529D01*
X778153Y184418D01*
X778239Y188617D01*
X778366Y188500D01*
D02*
G37*
G36*
X786524Y184101D02*
X786245Y184272D01*
X785945Y184425D01*
X785625Y184560D01*
X785284Y184676D01*
X784922Y184775D01*
X784540Y184856D01*
X784137Y184919D01*
X783270Y184991D01*
X782806Y185000D01*
Y188000D01*
X783270Y188009D01*
X784137Y188081D01*
X784540Y188144D01*
X784922Y188225D01*
X785284Y188324D01*
X785625Y188440D01*
X785945Y188575D01*
X786245Y188728D01*
X786524Y188899D01*
Y184101D01*
D02*
G37*
G36*
X765747Y188734D02*
X766040Y188586D01*
X766356Y188456D01*
X766693Y188343D01*
X767053Y188248D01*
X767436Y188170D01*
X767840Y188109D01*
X768716Y188039D01*
X769187Y188031D01*
X769200Y185031D01*
X768743Y185022D01*
X767885Y184947D01*
X767484Y184882D01*
X767102Y184799D01*
X766739Y184696D01*
X766395Y184575D01*
X766070Y184436D01*
X765763Y184278D01*
X765476Y184101D01*
Y188899D01*
X765747Y188734D01*
D02*
G37*
G36*
X747524Y184101D02*
X747245Y184272D01*
X746945Y184425D01*
X746625Y184560D01*
X746284Y184676D01*
X745922Y184775D01*
X745540Y184856D01*
X745137Y184919D01*
X744270Y184991D01*
X743806Y185000D01*
Y188000D01*
X744270Y188009D01*
X745137Y188081D01*
X745540Y188144D01*
X745922Y188225D01*
X746284Y188324D01*
X746625Y188440D01*
X746945Y188575D01*
X747245Y188728D01*
X747524Y188899D01*
Y184101D01*
D02*
G37*
G36*
X845736Y185795D02*
X845634Y185646D01*
X845544Y185474D01*
X845466Y185281D01*
X845400Y185066D01*
X845346Y184830D01*
X845304Y184572D01*
X845274Y184292D01*
X845250Y183668D01*
X842250D01*
X842244Y183991D01*
X842196Y184572D01*
X842154Y184830D01*
X842100Y185066D01*
X842034Y185281D01*
X841956Y185474D01*
X841866Y185646D01*
X841764Y185795D01*
X841650Y185924D01*
X845850D01*
X845736Y185795D01*
D02*
G37*
G36*
X866270Y182561D02*
X866330Y181876D01*
X866430Y181271D01*
X866570Y180748D01*
X866750Y180304D01*
X866970Y179941D01*
X867230Y179659D01*
X867530Y179458D01*
X867870Y179337D01*
X868250Y179297D01*
X860250D01*
X860630Y179337D01*
X860970Y179458D01*
X861270Y179659D01*
X861530Y179941D01*
X861750Y180304D01*
X861930Y180748D01*
X862070Y181271D01*
X862170Y181876D01*
X862230Y182561D01*
X862250Y183327D01*
X866250D01*
X866270Y182561D01*
D02*
G37*
G36*
X778271Y180486D02*
X778421Y180384D01*
X778592Y180294D01*
X778786Y180216D01*
X779000Y180150D01*
X779237Y180096D01*
X779495Y180054D01*
X779774Y180024D01*
X780398Y180000D01*
Y177000D01*
X780075Y176994D01*
X779495Y176946D01*
X779237Y176904D01*
X779000Y176850D01*
X778786Y176784D01*
X778592Y176706D01*
X778421Y176616D01*
X778271Y176514D01*
X778142Y176400D01*
Y180600D01*
X778271Y180486D01*
D02*
G37*
G36*
X773858Y176400D02*
X773729Y176514D01*
X773579Y176616D01*
X773408Y176706D01*
X773214Y176784D01*
X773000Y176850D01*
X772763Y176904D01*
X772505Y176946D01*
X772226Y176976D01*
X771602Y177000D01*
Y180000D01*
X771925Y180006D01*
X772505Y180054D01*
X772763Y180096D01*
X773000Y180150D01*
X773214Y180216D01*
X773408Y180294D01*
X773579Y180384D01*
X773729Y180486D01*
X773858Y180600D01*
Y176400D01*
D02*
G37*
G36*
X804755Y180728D02*
X805055Y180575D01*
X805375Y180441D01*
X805716Y180324D01*
X806078Y180225D01*
X806460Y180144D01*
X806862Y180081D01*
X807729Y180009D01*
X808194Y180000D01*
Y177000D01*
X807729Y176991D01*
X806862Y176919D01*
X806460Y176856D01*
X806078Y176775D01*
X805716Y176677D01*
X805375Y176560D01*
X805055Y176425D01*
X804755Y176272D01*
X804476Y176101D01*
Y180899D01*
X804755Y180728D01*
D02*
G37*
G36*
X786524Y176101D02*
X786245Y176272D01*
X785945Y176425D01*
X785625Y176560D01*
X785284Y176677D01*
X784922Y176775D01*
X784540Y176856D01*
X784137Y176919D01*
X783270Y176991D01*
X782806Y177000D01*
Y180000D01*
X783270Y180009D01*
X784137Y180081D01*
X784540Y180144D01*
X784922Y180225D01*
X785284Y180324D01*
X785625Y180441D01*
X785945Y180575D01*
X786245Y180728D01*
X786524Y180899D01*
Y176101D01*
D02*
G37*
G36*
X765755Y180728D02*
X766055Y180575D01*
X766375Y180441D01*
X766716Y180324D01*
X767078Y180225D01*
X767460Y180144D01*
X767862Y180081D01*
X768729Y180009D01*
X769194Y180000D01*
Y177000D01*
X768729Y176991D01*
X767862Y176919D01*
X767460Y176856D01*
X767078Y176775D01*
X766716Y176677D01*
X766375Y176560D01*
X766055Y176425D01*
X765755Y176272D01*
X765476Y176101D01*
Y180899D01*
X765755Y180728D01*
D02*
G37*
G36*
X747524Y176101D02*
X747649Y175987D01*
X747663Y175885D01*
X747567Y175795D01*
X747361Y175716D01*
X747045Y175650D01*
X746618Y175596D01*
X745433Y175524D01*
X743806Y175500D01*
X743757Y178500D01*
X744389Y178515D01*
X744950Y178560D01*
X745438Y178634D01*
X745854Y178739D01*
X746198Y178874D01*
X746470Y179038D01*
X746670Y179232D01*
X746797Y179456D01*
X746853Y179710D01*
X746836Y179994D01*
X747524Y176101D01*
D02*
G37*
G36*
X726660Y178846D02*
X726811Y178774D01*
X726984Y178710D01*
X727178Y178654D01*
X727394Y178607D01*
X727633Y178568D01*
X728175Y178517D01*
X728805Y178500D01*
X729398Y175500D01*
X729075Y175493D01*
X728501Y175436D01*
X728250Y175386D01*
X728021Y175322D01*
X727816Y175243D01*
X727635Y175150D01*
X727477Y175043D01*
X727343Y174922D01*
X727232Y174786D01*
X726532Y178928D01*
X726660Y178846D01*
D02*
G37*
G36*
X778271Y172486D02*
X778421Y172384D01*
X778592Y172294D01*
X778786Y172216D01*
X779000Y172150D01*
X779237Y172096D01*
X779495Y172054D01*
X779774Y172024D01*
X780398Y172000D01*
Y169000D01*
X780075Y168994D01*
X779495Y168946D01*
X779237Y168904D01*
X779000Y168850D01*
X778786Y168784D01*
X778592Y168706D01*
X778421Y168616D01*
X778271Y168514D01*
X778142Y168400D01*
Y172600D01*
X778271Y172486D01*
D02*
G37*
G36*
X773858Y168400D02*
X773729Y168514D01*
X773579Y168616D01*
X773408Y168706D01*
X773214Y168784D01*
X773000Y168850D01*
X772763Y168904D01*
X772505Y168946D01*
X772226Y168976D01*
X771602Y169000D01*
Y172000D01*
X771925Y172006D01*
X772505Y172054D01*
X772763Y172096D01*
X773000Y172150D01*
X773214Y172216D01*
X773408Y172294D01*
X773579Y172384D01*
X773729Y172486D01*
X773858Y172600D01*
Y168400D01*
D02*
G37*
G36*
X804755Y172728D02*
X805055Y172575D01*
X805375Y172440D01*
X805716Y172324D01*
X806078Y172225D01*
X806460Y172144D01*
X806862Y172081D01*
X807729Y172009D01*
X808194Y172000D01*
Y169000D01*
X807729Y168991D01*
X806862Y168919D01*
X806460Y168856D01*
X806078Y168775D01*
X805716Y168676D01*
X805375Y168560D01*
X805055Y168425D01*
X804755Y168272D01*
X804476Y168101D01*
Y172899D01*
X804755Y172728D01*
D02*
G37*
G36*
X786524Y168101D02*
X786245Y168272D01*
X785945Y168425D01*
X785625Y168560D01*
X785284Y168676D01*
X784922Y168775D01*
X784540Y168856D01*
X784137Y168919D01*
X783270Y168991D01*
X782806Y169000D01*
Y172000D01*
X783270Y172009D01*
X784137Y172081D01*
X784540Y172144D01*
X784922Y172225D01*
X785284Y172324D01*
X785625Y172440D01*
X785945Y172575D01*
X786245Y172728D01*
X786524Y172899D01*
Y168101D01*
D02*
G37*
G36*
X765755Y172728D02*
X766055Y172575D01*
X766375Y172440D01*
X766716Y172324D01*
X767078Y172225D01*
X767460Y172144D01*
X767862Y172081D01*
X768729Y172009D01*
X769194Y172000D01*
Y169000D01*
X768729Y168991D01*
X767862Y168919D01*
X767460Y168856D01*
X767078Y168775D01*
X766716Y168676D01*
X766375Y168560D01*
X766055Y168425D01*
X765755Y168272D01*
X765476Y168101D01*
Y172899D01*
X765755Y172728D01*
D02*
G37*
G36*
X747524Y168101D02*
X747245Y168272D01*
X746945Y168425D01*
X746625Y168560D01*
X746284Y168676D01*
X745922Y168775D01*
X745540Y168856D01*
X745137Y168919D01*
X744270Y168991D01*
X743806Y169000D01*
Y172000D01*
X744270Y172009D01*
X745137Y172081D01*
X745540Y172144D01*
X745922Y172225D01*
X746284Y172324D01*
X746625Y172440D01*
X746945Y172575D01*
X747245Y172728D01*
X747524Y172899D01*
Y168101D01*
D02*
G37*
G36*
X846092Y169969D02*
X846239Y169862D01*
X846409Y169768D01*
X846600Y169686D01*
X846813Y169617D01*
X847048Y169560D01*
X847305Y169516D01*
X847584Y169485D01*
X848207Y169459D01*
X848083Y166459D01*
X847760Y166454D01*
X847178Y166408D01*
X846919Y166369D01*
X846682Y166317D01*
X846466Y166255D01*
X846271Y166181D01*
X846098Y166096D01*
X845947Y165999D01*
X845816Y165891D01*
X845966Y170089D01*
X846092Y169969D01*
D02*
G37*
G36*
X728941Y166799D02*
X728717Y166567D01*
X728340Y166122D01*
X728187Y165910D01*
X728059Y165705D01*
X727953Y165506D01*
X727872Y165315D01*
X727814Y165130D01*
X727780Y164951D01*
X727770Y164780D01*
X724800Y167750D01*
X724972Y167760D01*
X725150Y167794D01*
X725335Y167852D01*
X725527Y167933D01*
X725725Y168038D01*
X725930Y168167D01*
X726143Y168320D01*
X726361Y168496D01*
X726820Y168921D01*
X728941Y166799D01*
D02*
G37*
G36*
X841933Y162013D02*
X842378Y161636D01*
X842590Y161484D01*
X842795Y161355D01*
X842994Y161250D01*
X843185Y161168D01*
X843370Y161110D01*
X843549Y161076D01*
X843720Y161066D01*
X840750Y158096D01*
X840740Y158268D01*
X840706Y158446D01*
X840648Y158631D01*
X840567Y158823D01*
X840462Y159021D01*
X840333Y159227D01*
X840180Y159439D01*
X840004Y159657D01*
X839579Y160116D01*
X841701Y162237D01*
X841933Y162013D01*
D02*
G37*
G36*
X509407Y160794D02*
X509470Y160785D01*
X509569Y160777D01*
X510312Y160755D01*
X511235Y160750D01*
X511504Y156750D01*
X511162Y156749D01*
X509704Y156660D01*
X509629Y156636D01*
X509587Y156610D01*
X509377Y160805D01*
X509407Y160794D01*
D02*
G37*
G36*
X841608Y145966D02*
X841479Y146080D01*
X841329Y146182D01*
X841158Y146272D01*
X840964Y146350D01*
X840750Y146416D01*
X840513Y146470D01*
X840255Y146512D01*
X839976Y146542D01*
X839352Y146566D01*
Y149566D01*
X839675Y149572D01*
X840255Y149620D01*
X840513Y149662D01*
X840750Y149716D01*
X840964Y149782D01*
X841158Y149860D01*
X841329Y149950D01*
X841479Y150052D01*
X841608Y150166D01*
Y145966D01*
D02*
G37*
G36*
X841858Y135966D02*
X841821Y135985D01*
X841750Y136002D01*
X841646Y136017D01*
X841335Y136041D01*
X840306Y136065D01*
X839964Y136066D01*
Y140066D01*
X841858Y140166D01*
Y135966D01*
D02*
G37*
G36*
X769327Y128911D02*
X769953Y128384D01*
X770591Y127919D01*
X771241Y127516D01*
X771904Y127175D01*
X772579Y126896D01*
X773266Y126679D01*
X773965Y126524D01*
X774676Y126431D01*
X775399Y126400D01*
Y121400D01*
X774676Y121369D01*
X773965Y121276D01*
X773266Y121121D01*
X772579Y120904D01*
X771904Y120625D01*
X771241Y120284D01*
X770591Y119881D01*
X769953Y119416D01*
X769327Y118889D01*
X768713Y118300D01*
Y129500D01*
X769327Y128911D01*
D02*
G37*
D10*
X194000Y1166000D02*
Y1178500D01*
X195000Y1227000D02*
Y1239500D01*
X193000Y1360000D02*
Y1371000D01*
X221000Y1242000D02*
Y1254250D01*
X330460Y909000D02*
X340300D01*
X270000Y1046000D02*
Y1061400D01*
X276000Y1380000D02*
Y1395200D01*
X1160000Y1258500D02*
Y1274000D01*
X1130000Y1258500D02*
Y1274000D01*
X458359Y1010141D02*
X459500Y1009000D01*
X724770Y636500D02*
X726520Y634750D01*
X249500Y1383300D02*
X253768D01*
X448000Y950199D02*
Y954167D01*
X724770Y616750D02*
X726770Y618750D01*
X825000Y416000D02*
X827750Y418750D01*
X826000Y633500D02*
X828000D01*
X843690Y188190D02*
X843750Y188250D01*
X825000Y195000D02*
X828066Y198066D01*
D12*
X1190000Y829000D02*
X1204479Y843479D01*
Y846776D01*
X1205103Y847400D01*
X1185000Y829000D02*
X1190000D01*
D14*
X221000Y1267500D02*
X248000D01*
X83450Y1253650D02*
X107950D01*
X108000Y1253700D01*
X107750Y1366250D02*
X108000Y1366000D01*
X80250Y1366250D02*
X107750D01*
X127200Y1325000D02*
Y1354700D01*
X115900Y1366000D02*
X127200Y1354700D01*
X111600Y1366000D02*
X115900D01*
X65000Y1158000D02*
Y1259000D01*
Y1158000D02*
X82500Y1140500D01*
X84000Y1140500D02*
X111600D01*
X82500Y1140500D02*
X84000D01*
X101200Y1125500D02*
X111600Y1115100D01*
X84000Y1125500D02*
X101200D01*
X83400Y1238600D02*
X101300D01*
X111600Y1228300D01*
X83400Y1253600D02*
X83450Y1253650D01*
X80000Y1366500D02*
X80250Y1366250D01*
X79657Y1366843D02*
X80000Y1366500D01*
X70400Y1253600D02*
X83400D01*
X65000Y1259000D02*
X70400Y1253600D01*
X65000Y1259000D02*
Y1373200D01*
X71357Y1366843D02*
X79657D01*
X65000Y1373200D02*
X71357Y1366843D01*
X65000Y1373200D02*
Y1381000D01*
X81500Y1351500D02*
X92400Y1340600D01*
X111600D01*
X80000Y1351500D02*
X81500D01*
X65000Y1381000D02*
X92700Y1408700D01*
X247000D01*
X127200Y1325000D02*
X186000D01*
X975066Y1191934D02*
Y1317934D01*
X186000Y1325000D02*
X192500Y1318500D01*
Y1309500D02*
Y1318500D01*
Y1309500D02*
X192500Y1309500D01*
X208500Y1267500D02*
X220750D01*
X821000Y618750D02*
X843000Y596750D01*
X802000Y618750D02*
X821000D01*
X192500Y1283500D02*
Y1293000D01*
Y1283500D02*
X208500Y1267500D01*
X192500Y1293000D02*
X192500Y1293000D01*
X192500Y1293000D02*
Y1309500D01*
X935000Y1148662D02*
Y1175000D01*
Y1148662D02*
X1018000Y1065662D01*
X1064000Y941000D02*
Y978216D01*
X993250Y935500D02*
X1058500D01*
X1064000Y941000D01*
X1042000Y1000216D02*
X1064000Y978216D01*
X923750Y866000D02*
X993250Y935500D01*
Y986966D01*
X980000Y1000216D02*
X993250Y986966D01*
X1018000Y1026000D02*
Y1065662D01*
Y1026000D02*
X1042000Y1002000D01*
X448000Y1015069D02*
X452928Y1010141D01*
X458359D01*
X448000Y1015069D02*
Y1035333D01*
X459500Y929000D02*
Y938699D01*
X448000Y950199D02*
X459500Y938699D01*
X511445Y589750D02*
X777250D01*
X507343Y593853D02*
X511445Y589750D01*
X773500Y373000D02*
X787750Y358750D01*
X510196Y373000D02*
X773500D01*
X507343Y375853D02*
X510196Y373000D01*
X864250Y192500D02*
X864250Y192500D01*
Y175858D02*
Y192500D01*
X448000Y873000D02*
X459250Y861750D01*
Y849000D02*
Y861750D01*
X546434Y138066D02*
X844000D01*
X525750Y158750D02*
X546434Y138066D01*
X790250Y576750D02*
X843000D01*
X777250Y589750D02*
X790250Y576750D01*
X787750Y358750D02*
X843000D01*
X507343Y158750D02*
X525750D01*
D15*
X959900Y1063200D02*
X988000D01*
X1011000Y1008000D02*
Y1040200D01*
X988000Y1063200D02*
X1011000Y1040200D01*
X986100Y1055900D02*
X1004000Y1038000D01*
Y971400D02*
Y1038000D01*
X958500Y1055900D02*
X986100D01*
X1023400Y952000D02*
X1042000D01*
X1004000Y971400D02*
X1023400Y952000D01*
X927000Y1096100D02*
X959900Y1063200D01*
X922000Y1092400D02*
X958500Y1055900D01*
X927000Y1096100D02*
Y1165632D01*
X922000Y1092400D02*
Y1160750D01*
X162400Y1165900D02*
X190300Y1193800D01*
X186100Y1391400D02*
X191500Y1386000D01*
X162400Y1391400D02*
X186100D01*
X191500Y1386000D02*
X194500D01*
X165683Y1275817D02*
X180182D01*
X193257Y1256243D02*
Y1262743D01*
X180182Y1275817D02*
X193257Y1262743D01*
Y1256243D02*
X195000Y1254500D01*
X196500D01*
X162400Y1279100D02*
X165683Y1275817D01*
X405600Y1445520D02*
X423120Y1428000D01*
X473000D02*
X487000Y1442000D01*
X423120Y1428000D02*
X473000D01*
X407563Y1483563D02*
X412000Y1488000D01*
X442000D02*
X467843Y1462157D01*
X412000Y1488000D02*
X442000D01*
X445000Y1493000D02*
X474809Y1463191D01*
X390000Y1493000D02*
X445000D01*
X380763Y1483763D02*
X390000Y1493000D01*
X467843Y1448757D02*
X469600Y1447000D01*
X467843Y1448757D02*
Y1462157D01*
X469600Y1447000D02*
X480000D01*
X474809Y1463191D02*
X479809D01*
X480000Y1463000D01*
X190300Y1193800D02*
X193700D01*
X194000Y1193500D01*
X247289D01*
X873000Y1057000D02*
X879817Y1063817D01*
X879250Y1066868D02*
Y1086684D01*
Y1066868D02*
X879817Y1066302D01*
Y1063817D02*
Y1066302D01*
X874000Y1112000D02*
X879750Y1106250D01*
X879250Y1086684D02*
X879750Y1087184D01*
Y1106250D01*
X247289Y1193500D02*
X247589Y1193800D01*
X196500Y1254500D02*
X303000Y1148000D01*
Y1035000D02*
Y1148000D01*
X247589Y1193800D02*
X298000Y1143389D01*
Y1032000D02*
Y1143389D01*
X245000Y1352000D02*
X309000Y1288000D01*
X228500Y1352000D02*
X245000D01*
X194500Y1386000D02*
X228500Y1352000D01*
X309000Y1038000D02*
Y1288000D01*
X954000Y1181000D02*
X1034000Y1101000D01*
X942000Y1181000D02*
X954000D01*
X916000Y1207000D02*
X942000Y1181000D01*
X934000Y1203000D02*
X949000Y1188000D01*
X957000D01*
X425000Y1320000D02*
X668716D01*
X395363Y1349637D02*
X425000Y1320000D01*
X416000Y1305000D02*
X670727D01*
X378181Y1299500D02*
X666500D01*
X670727Y1305000D02*
X735242Y1240485D01*
X371681Y1293000D02*
X378181Y1299500D01*
X666500D02*
X732000Y1234000D01*
X243500Y1317500D02*
X246000Y1320000D01*
X455052Y1240750D02*
X706250D01*
X744000Y1203000D02*
X790000D01*
X706250Y1240750D02*
X744000Y1203000D01*
X790000D02*
X814000Y1179000D01*
Y1189000D02*
Y1202000D01*
X683000Y1333000D02*
X814000Y1202000D01*
X867750Y1221000D02*
X868112Y1220638D01*
X871994D01*
X927000Y1165632D01*
X868324Y1206676D02*
X914750Y1160250D01*
X868324Y1206676D02*
Y1212426D01*
X867750Y1213000D02*
X868324Y1212426D01*
X807050Y1168000D02*
X813250Y1161800D01*
Y1161000D02*
Y1161800D01*
X692000Y1168000D02*
X807050D01*
X790632Y1152500D02*
X812750D01*
X813250Y1153000D01*
X811000Y1060941D02*
X814941Y1057000D01*
X873000D01*
X815559Y1066441D02*
X820000Y1062000D01*
X870929D01*
X874000Y1065071D01*
X868066Y1070757D02*
Y1094934D01*
X866309Y1069000D02*
X868066Y1070757D01*
X821000Y1071441D02*
X823441Y1069000D01*
X866309D01*
X874000Y1065071D02*
Y1103000D01*
X826854Y1097379D02*
X848682Y1075551D01*
X422621Y1097379D02*
X826854D01*
X848682Y1075551D02*
Y1075551D01*
X819372Y1125500D02*
X858596Y1086276D01*
X648890Y1125500D02*
X819372D01*
X815445Y1119250D02*
X853913Y1080782D01*
X648069Y1119250D02*
X815445D01*
X858596Y1086276D02*
X859408D01*
X436370Y1071441D02*
X821000D01*
X438441Y1066441D02*
X815559D01*
X441941Y1060941D02*
X811000D01*
X402000Y1021000D02*
X441941Y1060941D01*
X398000Y1026000D02*
X438441Y1066441D01*
X396929Y1032000D02*
X436370Y1071441D01*
X814399Y1076750D02*
X814840Y1077191D01*
X828092Y1080433D02*
Y1085837D01*
X818188Y1085000D02*
X820417Y1082771D01*
X821229D01*
X434608Y1076750D02*
X814399D01*
X423000Y1085000D02*
X818188D01*
X822929Y1091000D02*
X828092Y1085837D01*
X411000Y1073000D02*
X423000Y1085000D01*
X627000Y1225000D02*
X691000Y1161000D01*
X782132D02*
X790632Y1152500D01*
X691000Y1161000D02*
X782132D01*
X408000Y1091000D02*
X822929D01*
X407858Y1050000D02*
X434608Y1076750D01*
X706000Y1137000D02*
X805250D01*
X813250Y1145000D01*
X630000Y1230000D02*
X692000Y1168000D01*
X445000Y1230000D02*
X630000D01*
X378000Y1225000D02*
X627000D01*
X626000Y1217000D02*
X706000Y1137000D01*
X419000Y1217000D02*
X626000D01*
X442500Y1327500D02*
X677500D01*
X737500Y1267500D01*
X515000Y1109000D02*
X722000D01*
X726500Y1113500D02*
X727000D01*
X722000Y1109000D02*
X726500Y1113500D01*
X509500Y1114500D02*
X515000Y1109000D01*
X585795Y1195667D02*
X650461Y1131000D01*
X487500Y1195667D02*
X585795D01*
X402000Y1200000D02*
X419000Y1217000D01*
X420802Y1275000D02*
X455052Y1240750D01*
X425000Y1250000D02*
X445000Y1230000D01*
X378000Y1200000D02*
X402000D01*
X378000Y1250000D02*
X425000D01*
X420000Y1155000D02*
X619390D01*
X400000Y1175000D02*
X420000Y1155000D01*
X378000Y1175000D02*
X400000D01*
X378000Y1100000D02*
X399000D01*
X408000Y1091000D01*
X395000Y1125000D02*
X422621Y1097379D01*
X378000Y1125000D02*
X395000D01*
X487500Y1114500D02*
X509500D01*
X378000Y1275000D02*
X420802D01*
X619390Y1155000D02*
X648890Y1125500D01*
X650461Y1131000D02*
X732750D01*
X378000Y1150000D02*
X617319D01*
X648069Y1119250D01*
X380000Y1073000D02*
X411000D01*
X378000Y1075000D02*
X380000Y1073000D01*
X378000Y1050000D02*
X407858D01*
X309000Y1021000D02*
X402000D01*
X312000Y1026000D02*
X398000D01*
X315000Y1032000D02*
X396929D01*
X309000Y1038000D02*
X315000Y1032000D01*
X303000Y1035000D02*
X312000Y1026000D01*
X298000Y1032000D02*
X309000Y1021000D01*
X378000Y1325000D02*
X396000D01*
X416000Y1305000D01*
X378363Y1349637D02*
X395363D01*
X378000Y1350000D02*
X378363Y1349637D01*
X914750Y1042250D02*
Y1160250D01*
X901066Y1181684D02*
Y1182066D01*
Y1181684D02*
X922000Y1160750D01*
X900000Y1164000D02*
X909750Y1154250D01*
X914750Y1042250D02*
X980000Y977000D01*
X909750Y1022250D02*
Y1154250D01*
X1156210Y921000D02*
X1179000D01*
X1144210Y909000D02*
X1156210Y921000D01*
X1179000D02*
X1179000Y921000D01*
X676167Y1276833D02*
X703000Y1250000D01*
X487500Y1276833D02*
X676167D01*
X512500Y1333000D02*
X683000D01*
X481000Y1454000D02*
X485243D01*
X487000Y1452243D01*
Y1442000D02*
Y1452243D01*
X480000Y1455000D02*
X481000Y1454000D01*
X405600Y1471020D02*
X407563Y1472983D01*
Y1483563D01*
X380763Y1471583D02*
Y1483763D01*
X380200Y1471020D02*
X380763Y1471583D01*
X493000Y1447000D02*
X504000D01*
X493000Y1455000D02*
X504000D01*
X493000Y1463000D02*
X504000D01*
X493000Y1463000D02*
X493000Y1463000D01*
X957000Y1188000D02*
X1037000Y1108000D01*
X1187503D01*
X1034000Y1101000D02*
X1231000D01*
X802000Y186500D02*
Y211000D01*
X809066Y218066D02*
X843000D01*
X802000Y211000D02*
X809066Y218066D01*
X208500Y1292500D02*
X208500Y1292500D01*
X248000D01*
X1017605Y866000D02*
X1060605Y909000D01*
X1144210D01*
X934000Y866000D02*
X1017605D01*
X395000Y1375000D02*
X442500Y1327500D01*
X380000Y1375000D02*
X395000D01*
X725269Y177000D02*
X750960D01*
X732750Y1131000D02*
X733000Y1131250D01*
X248000Y1292500D02*
X248500D01*
X215500Y1317500D02*
X243500D01*
X207500Y1309500D02*
X215500Y1317500D01*
X668716Y1320000D02*
X741008Y1247708D01*
X487500Y1358000D02*
X512500Y1333000D01*
X1011000Y1008000D02*
X1042000Y977000D01*
Y977000D02*
Y977000D01*
X909750Y1022250D02*
X980000Y952000D01*
Y977000D02*
Y977000D01*
X902000Y1207000D02*
X916000D01*
X850750Y599000D02*
X864250D01*
X844941Y604809D02*
X850750Y599000D01*
X802000Y626750D02*
X843000D01*
X724770D02*
X750000D01*
X802000Y646993D02*
X811757Y656750D01*
X802000Y634750D02*
Y646993D01*
X811757Y656750D02*
X843000D01*
X813000Y648500D02*
X826000D01*
X763000Y626750D02*
X776000D01*
X724770Y416750D02*
X750000D01*
X725020Y408750D02*
X748000D01*
X776000Y416750D02*
X789000D01*
X727581Y400750D02*
X750000D01*
X724770Y398750D02*
X725582D01*
X727581Y400750D01*
X763000D02*
X776000D01*
X763033Y416783D02*
X776033D01*
X776066Y416816D01*
X763000Y416750D02*
X763033Y416783D01*
X724770Y164750D02*
X730520Y170500D01*
X750000D01*
X724812Y190000D02*
X728312Y186500D01*
X750000D01*
X724000Y190000D02*
X724812D01*
X763000Y186500D02*
X763031Y186531D01*
X776023D02*
X776054Y186562D01*
X763031Y186531D02*
X776023D01*
X750960Y177000D02*
X751158Y177199D01*
X724769Y176500D02*
X725269Y177000D01*
X541506Y603000D02*
X784000D01*
X509103Y635403D02*
X541506Y603000D01*
X507279Y421589D02*
X545618Y383250D01*
X776000Y618750D02*
X789000D01*
X763000D02*
X776000D01*
Y626750D02*
X789000D01*
X776000Y634750D02*
X789000D01*
X763000D02*
X776000D01*
Y400750D02*
X789000D01*
X776000Y408750D02*
X789000D01*
X763000D02*
X776000D01*
X802000Y430000D02*
X810750Y438750D01*
X802000Y416750D02*
Y430000D01*
X810750Y438750D02*
X843000D01*
X802000Y400750D02*
X821000D01*
X843000Y378750D01*
X776000Y170500D02*
X789000D01*
X763000D02*
X776000D01*
X763000Y178500D02*
X776000D01*
X789000D01*
X776000Y186500D02*
X789000D01*
X802000Y170500D02*
X831316D01*
X843750Y158066D01*
X545618Y383250D02*
X783750D01*
X798250Y368750D01*
X802000Y408750D02*
X843000D01*
X813000Y431000D02*
X825000D01*
X864250Y631000D02*
X878000D01*
X864250Y631000D02*
X864250Y631000D01*
X864250Y614000D02*
Y631000D01*
Y413750D02*
X878000D01*
X864250Y392500D02*
Y413750D01*
Y192500D02*
X877500D01*
X878000Y192000D01*
X858993Y162858D02*
X862250D01*
X864250Y160858D01*
X858993Y162858D02*
X858993Y162858D01*
X854142Y162858D02*
X858993D01*
X849041Y167959D02*
X854142Y162858D01*
X843791Y167959D02*
X849041D01*
X862250Y379500D02*
X864250Y377500D01*
X843000Y388750D02*
X848250D01*
X857500Y379500D02*
X862250D01*
X848250Y388750D02*
X857500Y379500D01*
X1187503Y1108000D02*
X1212127Y1132625D01*
X1222325D01*
X1222870Y1133170D01*
X618684Y148066D02*
X843750D01*
X562350Y204400D02*
X618684Y148066D01*
X507343Y204400D02*
X562350D01*
X798250Y368750D02*
X843000D01*
X800250Y586750D02*
X843000D01*
X784000Y603000D02*
X800250Y586750D01*
X726770Y618750D02*
X750000D01*
X843000Y428750D02*
X864250D01*
X827750Y418750D02*
X843000D01*
X828000Y633500D02*
X831250Y636750D01*
X843000D01*
X726520Y634750D02*
X750000D01*
X843750Y646000D02*
X864250D01*
X843750Y181250D02*
Y188066D01*
X841000Y178500D02*
X843750Y181250D01*
X802000Y178500D02*
X841000D01*
X843750Y208000D02*
X863750D01*
X813000Y210000D02*
X825000D01*
X828066Y198066D02*
X843750D01*
D76*
X1245828Y1353000D02*
D03*
D81*
Y1303000D02*
D03*
D86*
X80000Y1351500D02*
D03*
Y1366500D02*
D03*
X193000Y1386000D02*
D03*
Y1371000D02*
D03*
X195000Y1254500D02*
D03*
Y1239500D02*
D03*
X194000Y1193500D02*
D03*
Y1178500D02*
D03*
X84000Y1140500D02*
D03*
Y1125500D02*
D03*
X83400Y1253600D02*
D03*
Y1238600D02*
D03*
X864250Y192500D02*
D03*
Y207500D02*
D03*
X825000Y195000D02*
D03*
Y210000D02*
D03*
X864250Y160858D02*
D03*
Y175858D02*
D03*
X864250Y631000D02*
D03*
Y646000D02*
D03*
Y413750D02*
D03*
Y428750D02*
D03*
X826000Y633500D02*
D03*
Y648500D02*
D03*
X825000Y416000D02*
D03*
Y431000D02*
D03*
X864250Y599000D02*
D03*
Y614000D02*
D03*
Y377500D02*
D03*
Y392500D02*
D03*
D92*
X221000Y1267750D02*
D03*
Y1254250D02*
D03*
X1160000Y1245000D02*
D03*
Y1258500D02*
D03*
X1130000Y1245000D02*
D03*
Y1258500D02*
D03*
X276000Y1395200D02*
D03*
Y1408700D02*
D03*
X270000Y1058900D02*
D03*
Y1072400D02*
D03*
D97*
X473000Y1009000D02*
D03*
X459500D02*
D03*
X473000Y929000D02*
D03*
X459500D02*
D03*
X472750Y849000D02*
D03*
X459250D02*
D03*
X340300Y909000D02*
D03*
X353800D02*
D03*
D99*
X192500Y1293000D02*
D03*
X207500D02*
D03*
X192500Y1309500D02*
D03*
X207500D02*
D03*
D131*
X1259420Y1147420D02*
X1273670Y1133170D01*
X1160000Y1176161D02*
X1188741Y1147420D01*
X1259420D01*
X1160000Y1176161D02*
Y1245000D01*
X975066Y1317934D02*
X1048000Y1245000D01*
X908000Y1385000D02*
X975066Y1317934D01*
X1048000Y1245000D02*
X1130000D01*
X1159000D01*
X475000Y1385000D02*
X908000D01*
X462928Y1372928D02*
X475000Y1385000D01*
X462928Y1358427D02*
Y1372928D01*
X462500Y1358000D02*
X462928Y1358427D01*
D132*
X352600Y1377000D02*
X353600Y1376000D01*
X472875Y848375D02*
Y872875D01*
X352600Y1050000D02*
Y1200000D01*
X353800Y909000D02*
Y942167D01*
Y891200D02*
Y909000D01*
X610000Y828000D02*
X676000Y762000D01*
X353800Y891200D02*
X417000Y828000D01*
X610000D01*
X588000Y816000D02*
X636000Y768000D01*
X379000Y816000D02*
X588000D01*
X473500Y848250D02*
X479750Y842000D01*
X539500D01*
X580000Y882500D01*
X282000Y913000D02*
X379000Y816000D01*
X272850Y1072150D02*
X282000Y1063000D01*
Y913000D02*
Y1063000D01*
X352600Y1250000D02*
Y1275000D01*
Y1225000D02*
Y1250000D01*
Y1200000D02*
Y1225000D01*
X270000Y1072400D02*
X270250Y1072150D01*
X272850D01*
X243500Y1072400D02*
X270000D01*
X352600Y1350000D02*
Y1375000D01*
Y1325000D02*
Y1350000D01*
Y1300000D02*
Y1325000D01*
Y1275000D02*
Y1300000D01*
X320900Y1408700D02*
X352600Y1377000D01*
Y1377025D01*
Y1375000D02*
Y1377000D01*
X380200Y1404625D02*
Y1445520D01*
X352600Y1377025D02*
X380200Y1404625D01*
X472875Y848375D02*
X473000Y848250D01*
X472750Y848500D02*
X472875Y848375D01*
X243500Y1072400D02*
Y1097800D01*
X247000Y1408700D02*
X276000D01*
X320900D01*
X473000Y848250D02*
X473500D01*
X472750Y848500D02*
Y849000D01*
X472875Y872875D02*
X473000Y873000D01*
X896764Y882500D02*
X913263Y866000D01*
X580000Y882500D02*
X896764D01*
X473000Y1009000D02*
Y1035333D01*
Y929000D02*
Y954167D01*
X1042000Y1000216D02*
Y1002000D01*
X980000Y1000216D02*
Y1002000D01*
D141*
X111600Y1391400D02*
D03*
Y1366000D02*
D03*
Y1340600D02*
D03*
X162400Y1366000D02*
D03*
Y1340600D02*
D03*
Y1228300D02*
D03*
Y1253700D02*
D03*
X111600Y1228300D02*
D03*
Y1253700D02*
D03*
Y1279100D02*
D03*
Y1165900D02*
D03*
Y1140500D02*
D03*
Y1115100D02*
D03*
X162400Y1140500D02*
D03*
Y1115100D02*
D03*
X327200Y1300000D02*
D03*
X352600D02*
D03*
X327200Y1325000D02*
D03*
X352600D02*
D03*
X327200Y1375000D02*
D03*
X352600D02*
D03*
X327200Y1275000D02*
D03*
X352600D02*
D03*
X327200Y1350000D02*
D03*
X352600D02*
D03*
X327200Y1175000D02*
D03*
X352600D02*
D03*
X327200Y1200000D02*
D03*
X352600D02*
D03*
X327200Y1225000D02*
D03*
X352600D02*
D03*
X327200Y1250000D02*
D03*
X352600D02*
D03*
X327200Y1050000D02*
D03*
X352600D02*
D03*
X327200Y1075000D02*
D03*
X352600D02*
D03*
X327200Y1100000D02*
D03*
X352600D02*
D03*
X327200Y1125000D02*
D03*
X352600D02*
D03*
X327200Y1150000D02*
D03*
X352600D02*
D03*
X247000Y1434100D02*
D03*
Y1408700D02*
D03*
Y1383300D02*
D03*
X248000Y1292500D02*
D03*
Y1267500D02*
D03*
Y1242500D02*
D03*
X498000Y873000D02*
D03*
X473000D02*
D03*
X448000D02*
D03*
X498000Y954167D02*
D03*
X473000D02*
D03*
X448000D02*
D03*
X498000Y1035333D02*
D03*
X473000D02*
D03*
X448000D02*
D03*
X328400Y942167D02*
D03*
X353800D02*
D03*
X379200D02*
D03*
X243500Y1047000D02*
D03*
Y1072400D02*
D03*
Y1097800D02*
D03*
Y1123200D02*
D03*
Y1148600D02*
D03*
X462500Y1358000D02*
D03*
X437000D02*
D03*
X462500Y1276833D02*
D03*
X437000D02*
D03*
X462500Y1195667D02*
D03*
X437000D02*
D03*
X462500Y1114500D02*
D03*
X437000D02*
D03*
X624750Y1439500D02*
D03*
Y1465000D02*
D03*
X784250Y1439500D02*
D03*
Y1465000D02*
D03*
X943750Y1439500D02*
D03*
Y1465000D02*
D03*
X1103250Y1439500D02*
D03*
Y1465000D02*
D03*
X545000Y1439500D02*
D03*
Y1465000D02*
D03*
X704500Y1439500D02*
D03*
Y1465000D02*
D03*
X864000Y1439500D02*
D03*
Y1465000D02*
D03*
X1023500Y1439500D02*
D03*
Y1465000D02*
D03*
X1183000Y1439500D02*
D03*
Y1465000D02*
D03*
X380200Y1445520D02*
D03*
X431000D02*
D03*
X405600D02*
D03*
X431000Y1471020D02*
D03*
X405600D02*
D03*
X1004000Y1108000D02*
D03*
X1054000Y1083000D02*
D03*
Y1133000D02*
D03*
X1087000Y1228000D02*
D03*
Y1194000D02*
D03*
X1048000Y1211000D02*
D03*
Y1245000D02*
D03*
D142*
X162400Y1391400D02*
D03*
Y1279100D02*
D03*
Y1165900D02*
D03*
X523000Y873000D02*
D03*
Y954167D02*
D03*
Y1035333D02*
D03*
X303000Y942167D02*
D03*
X487500Y1358000D02*
D03*
Y1276833D02*
D03*
Y1195667D02*
D03*
Y1114500D02*
D03*
X1048000Y1177000D02*
D03*
D143*
X1260063Y750063D02*
D03*
X440064Y40064D02*
D03*
X1260063D02*
D03*
X440064Y750063D02*
D03*
X94560Y1062560D02*
D03*
X1260063Y1460063D02*
D03*
X94489Y1460063D02*
D03*
D144*
X1278500Y1163000D02*
D03*
Y1263000D02*
D03*
X1253500D02*
D03*
Y1163000D02*
D03*
X1203500Y1213149D02*
D03*
D145*
X1253500Y1213000D02*
D03*
D146*
X1203500Y1263000D02*
D03*
Y1238000D02*
D03*
Y1188000D02*
D03*
Y1163000D02*
D03*
D147*
X449000Y205000D02*
D03*
D148*
Y133000D02*
D03*
D149*
X1095870Y1133170D02*
D03*
X1146670D02*
D03*
X1121270D02*
D03*
X1172070D02*
D03*
X1197470D02*
D03*
X1222870D02*
D03*
X1248270D02*
D03*
X1095870Y952830D02*
D03*
X1146670D02*
D03*
X1121270D02*
D03*
X1172070D02*
D03*
X1197470D02*
D03*
X1222870D02*
D03*
X1273670D02*
D03*
X1248270D02*
D03*
X674000Y221000D02*
D03*
Y256000D02*
D03*
Y668000D02*
D03*
Y703000D02*
D03*
X674000Y357500D02*
D03*
Y322500D02*
D03*
X980000Y977000D02*
D03*
Y1002000D02*
D03*
Y1027000D02*
D03*
X1042000D02*
D03*
Y1002000D02*
D03*
Y977000D02*
D03*
X674000Y123600D02*
D03*
Y88600D02*
D03*
X763000Y221000D02*
D03*
Y256000D02*
D03*
X763000Y123900D02*
D03*
Y88900D02*
D03*
X763000Y668000D02*
D03*
Y703000D02*
D03*
X674000Y450000D02*
D03*
Y485000D02*
D03*
X674000Y573500D02*
D03*
Y538500D02*
D03*
X763000Y357500D02*
D03*
Y322500D02*
D03*
X763000Y575500D02*
D03*
Y540500D02*
D03*
X763000Y450000D02*
D03*
Y485000D02*
D03*
D150*
X1273670Y1133170D02*
D03*
D151*
X378000Y1300000D02*
D03*
Y1325000D02*
D03*
Y1375000D02*
D03*
Y1275000D02*
D03*
Y1350000D02*
D03*
Y1175000D02*
D03*
Y1200000D02*
D03*
Y1225000D02*
D03*
Y1250000D02*
D03*
Y1050000D02*
D03*
Y1075000D02*
D03*
Y1100000D02*
D03*
Y1125000D02*
D03*
Y1150000D02*
D03*
X247000Y1459500D02*
D03*
X248000Y1317500D02*
D03*
X243500Y1174000D02*
D03*
X624750Y1414500D02*
D03*
X784250D02*
D03*
X943750D02*
D03*
X1103250D02*
D03*
X545000D02*
D03*
X704500D02*
D03*
X864000D02*
D03*
X1023500D02*
D03*
X1183000D02*
D03*
X380200Y1471020D02*
D03*
D152*
X1213700Y140066D02*
D03*
X1215000Y577500D02*
D03*
X1215000Y359500D02*
D03*
D153*
X1213700Y216066D02*
D03*
X1215000Y653500D02*
D03*
X1215000Y435500D02*
D03*
D154*
X980000Y952000D02*
D03*
X1042000D02*
D03*
D155*
X1225000Y888100D02*
D03*
X1266800D02*
D03*
X1225000Y801700D02*
D03*
X1266800D02*
D03*
D156*
X973000Y1078100D02*
D03*
X978600Y1086300D02*
D03*
X984200Y1078100D02*
D03*
X967400Y1086300D02*
D03*
X1150000Y834900D02*
D03*
X1158800Y843500D02*
D03*
Y826300D02*
D03*
X1141600D02*
D03*
Y843500D02*
D03*
X885000Y1069250D02*
D03*
X894000D02*
D03*
X194000Y1166000D02*
D03*
X195000Y1227000D02*
D03*
X193000Y1360000D02*
D03*
X1127000Y721000D02*
D03*
X1220000Y722000D02*
D03*
X940000Y1238000D02*
D03*
Y1259000D02*
D03*
Y1248000D02*
D03*
X1185000Y829000D02*
D03*
Y820000D02*
D03*
X1187000Y848000D02*
D03*
X520000Y1311000D02*
D03*
X221000Y1242000D02*
D03*
X735000Y1222500D02*
D03*
X777500Y1212500D02*
D03*
X867750Y1221000D02*
D03*
Y1213000D02*
D03*
X813250Y1161000D02*
D03*
Y1153000D02*
D03*
X814000Y1189000D02*
D03*
X868066Y1094934D02*
D03*
X874000Y1103000D02*
D03*
X1259000Y1034000D02*
D03*
X647000Y768000D02*
D03*
Y760000D02*
D03*
X636000D02*
D03*
Y768000D02*
D03*
X853913Y1080782D02*
D03*
X848682Y1075551D02*
D03*
X859408Y1086276D02*
D03*
X866000Y1048000D02*
D03*
X800000Y1054250D02*
D03*
X688000Y1055191D02*
D03*
X698059D02*
D03*
X677000D02*
D03*
X874000Y1112000D02*
D03*
X821229Y1082771D02*
D03*
X828092Y1080433D02*
D03*
X814840Y1077191D02*
D03*
X701934Y978066D02*
D03*
X766309Y1042441D02*
D03*
X780705Y1154266D02*
D03*
X794250Y1160500D02*
D03*
X776000Y1147250D02*
D03*
X795519Y1145000D02*
D03*
X813250D02*
D03*
X745000Y1177000D02*
D03*
X659536Y1215536D02*
D03*
X674550Y1213582D02*
D03*
X531000Y1124800D02*
D03*
X667500Y1235000D02*
D03*
X632000Y1045000D02*
D03*
X531000Y1116000D02*
D03*
X727000Y1113500D02*
D03*
X975066Y1191934D02*
D03*
X901066Y1182066D02*
D03*
X900000Y1164000D02*
D03*
X902382Y1198382D02*
D03*
X1075000Y860000D02*
D03*
X1079000Y871000D02*
D03*
X1060000Y809000D02*
D03*
X1179000Y921000D02*
D03*
X270000Y1046000D02*
D03*
X276000Y1380000D02*
D03*
X1130000Y1274000D02*
D03*
X1160000D02*
D03*
X787000Y1181000D02*
D03*
X814000Y1179000D02*
D03*
X714683Y1213000D02*
D03*
X703000Y1250000D02*
D03*
X498000Y750000D02*
D03*
X497500Y730000D02*
D03*
X623559Y966691D02*
D03*
X731054Y985946D02*
D03*
X746396Y1193604D02*
D03*
X842000Y1154000D02*
D03*
X872000Y1231000D02*
D03*
X813000Y604000D02*
D03*
X504000Y1447000D02*
D03*
Y1455000D02*
D03*
Y1463000D02*
D03*
X662000Y1013000D02*
D03*
Y1004000D02*
D03*
X621000Y1045000D02*
D03*
X609000D02*
D03*
X330460Y909000D02*
D03*
X703000Y831000D02*
D03*
X714000D02*
D03*
X725000D02*
D03*
X736000D02*
D03*
X652000Y1371000D02*
D03*
X641000D02*
D03*
X631000D02*
D03*
X517000Y1341000D02*
D03*
Y1351000D02*
D03*
X526000Y1340000D02*
D03*
X959000Y1198000D02*
D03*
X935000Y1175000D02*
D03*
X827000Y1300000D02*
D03*
X817864Y1300364D02*
D03*
X836000Y1300000D02*
D03*
X830000Y1332500D02*
D03*
X802500Y1267500D02*
D03*
X672000Y858000D02*
D03*
X683000D02*
D03*
X1024000Y1311750D02*
D03*
X1074000D02*
D03*
X1120000Y1330000D02*
D03*
X737500Y1267500D02*
D03*
X742500Y1310000D02*
D03*
Y1302500D02*
D03*
X732000Y1234000D02*
D03*
X733000Y1131250D02*
D03*
X650761Y1168111D02*
D03*
X612000Y966000D02*
D03*
X822455Y1231545D02*
D03*
X841402Y1263284D02*
D03*
X500000Y795000D02*
D03*
X497500Y740000D02*
D03*
X692000D02*
D03*
X600000Y966000D02*
D03*
X696000Y1136750D02*
D03*
X735242Y1240485D02*
D03*
X741008Y1247708D02*
D03*
X1231000Y1101000D02*
D03*
X531000Y1133600D02*
D03*
Y1142400D02*
D03*
X960250Y1152000D02*
D03*
X887434Y1137889D02*
D03*
X848750Y1231000D02*
D03*
X862000D02*
D03*
X901934Y1143934D02*
D03*
X934000Y1203000D02*
D03*
X902000Y1207000D02*
D03*
X835936Y1231000D02*
D03*
X867750Y1154000D02*
D03*
X894000Y1214000D02*
D03*
X856066Y1047934D02*
D03*
X882000Y1226000D02*
D03*
X864000Y1240000D02*
D03*
X880000Y1263000D02*
D03*
X1152000Y1034000D02*
D03*
X1102080D02*
D03*
X1206000D02*
D03*
X660000Y849000D02*
D03*
X672000D02*
D03*
X683000D02*
D03*
X856000Y1040000D02*
D03*
X858000Y976000D02*
D03*
Y966000D02*
D03*
X850000Y956000D02*
D03*
Y966000D02*
D03*
X866000Y1040000D02*
D03*
X850000Y976000D02*
D03*
X900000Y1302500D02*
D03*
X895000Y1317500D02*
D03*
X887500Y1332500D02*
D03*
X814000Y1264984D02*
D03*
X849250Y1263000D02*
D03*
X862000D02*
D03*
X1119000Y878597D02*
D03*
X500000Y805000D02*
D03*
X510000D02*
D03*
X860000Y842000D02*
D03*
X642000Y824000D02*
D03*
X650000D02*
D03*
X658000D02*
D03*
X860000Y850000D02*
D03*
X676000Y742000D02*
D03*
Y752000D02*
D03*
Y762000D02*
D03*
X843000Y596750D02*
D03*
X844941Y604809D02*
D03*
X843000Y626750D02*
D03*
X860000Y858000D02*
D03*
X724770Y636500D02*
D03*
Y626750D02*
D03*
X858000Y956000D02*
D03*
X813000Y648500D02*
D03*
X776000Y626750D02*
D03*
X692000Y770000D02*
D03*
Y760000D02*
D03*
Y750000D02*
D03*
X724770Y416750D02*
D03*
Y408500D02*
D03*
X707000Y740000D02*
D03*
X724770Y616750D02*
D03*
X776000Y400750D02*
D03*
X724770Y398750D02*
D03*
X776066Y416816D02*
D03*
X724770Y164750D02*
D03*
X724000Y190000D02*
D03*
X789750Y863000D02*
D03*
X776054Y186562D02*
D03*
X724769Y176500D02*
D03*
X509103Y635403D02*
D03*
X809400Y863000D02*
D03*
X799400D02*
D03*
X507279Y421589D02*
D03*
X776000Y618750D02*
D03*
Y634750D02*
D03*
Y408750D02*
D03*
Y170500D02*
D03*
Y178500D02*
D03*
X890000Y858000D02*
D03*
X878000D02*
D03*
X913750Y866000D02*
D03*
X923750D02*
D03*
X812000Y386000D02*
D03*
X814000Y162000D02*
D03*
X862000Y1250000D02*
D03*
X507343Y593853D02*
D03*
X813000Y431000D02*
D03*
X878000Y631000D02*
D03*
Y413750D02*
D03*
Y192000D02*
D03*
X1080000Y879597D02*
D03*
X1113000Y766000D02*
D03*
X507343Y375853D02*
D03*
X1060000Y616750D02*
D03*
X1055377Y559647D02*
D03*
X1056759Y350282D02*
D03*
Y359448D02*
D03*
X1144210Y909000D02*
D03*
X1184000Y1383000D02*
D03*
X1137500Y1178000D02*
D03*
X949000Y847000D02*
D03*
Y802000D02*
D03*
X934000Y866000D02*
D03*
X949000Y832000D02*
D03*
Y817000D02*
D03*
X844000Y138066D02*
D03*
X821750Y94250D02*
D03*
X843000Y358750D02*
D03*
Y368750D02*
D03*
X1060000Y431500D02*
D03*
Y449833D02*
D03*
X1060000Y217500D02*
D03*
X1060000Y147500D02*
D03*
Y459000D02*
D03*
X1060000Y227500D02*
D03*
X1056759Y368615D02*
D03*
X1060000Y440667D02*
D03*
X1060000Y398750D02*
D03*
Y237500D02*
D03*
X1060000Y120000D02*
D03*
X1056759Y341115D02*
D03*
X1060000Y129167D02*
D03*
X1060000Y178000D02*
D03*
X1060000Y138333D02*
D03*
X1060000Y207500D02*
D03*
X1054876Y676647D02*
D03*
Y649147D02*
D03*
Y667481D02*
D03*
X1055377Y577981D02*
D03*
X1054876Y658314D02*
D03*
X1055377Y587147D02*
D03*
Y568814D02*
D03*
X507343Y204400D02*
D03*
X843750Y208066D02*
D03*
Y198066D02*
D03*
Y168066D02*
D03*
Y158066D02*
D03*
Y188066D02*
D03*
X507343Y158600D02*
D03*
X843750Y148066D02*
D03*
X843000Y378750D02*
D03*
Y388750D02*
D03*
X813000Y210000D02*
D03*
X843000Y218066D02*
D03*
X825500Y311000D02*
D03*
X843000Y408750D02*
D03*
Y636750D02*
D03*
Y418750D02*
D03*
Y428750D02*
D03*
Y438750D02*
D03*
Y586750D02*
D03*
Y576750D02*
D03*
X825500Y532500D02*
D03*
X843000Y656750D02*
D03*
Y646750D02*
D03*
X1196000Y803000D02*
D03*
X1119000Y894000D02*
D03*
X1204000Y803000D02*
D03*
X1175960Y906000D02*
D03*
X1188000Y876900D02*
D03*
X1205000D02*
D03*
X1205103Y847400D02*
D03*
X1253000Y906000D02*
D03*
Y921000D02*
D03*
X819400Y863000D02*
D03*
D157*
X480000Y1463000D02*
D03*
Y1455000D02*
D03*
Y1447000D02*
D03*
Y1471000D02*
D03*
X493000Y1447000D02*
D03*
Y1455000D02*
D03*
Y1463000D02*
D03*
Y1471000D02*
D03*
X789000Y162500D02*
D03*
Y170500D02*
D03*
Y178500D02*
D03*
Y186500D02*
D03*
X802000Y162500D02*
D03*
Y186500D02*
D03*
Y178500D02*
D03*
Y170500D02*
D03*
X750000Y162500D02*
D03*
Y170500D02*
D03*
Y178500D02*
D03*
Y186500D02*
D03*
X763000Y162500D02*
D03*
Y186500D02*
D03*
Y178500D02*
D03*
Y170500D02*
D03*
X789000Y610750D02*
D03*
Y618750D02*
D03*
Y626750D02*
D03*
Y634750D02*
D03*
X802000Y610750D02*
D03*
Y634750D02*
D03*
Y626750D02*
D03*
Y618750D02*
D03*
X789000Y392750D02*
D03*
Y400750D02*
D03*
Y408750D02*
D03*
Y416750D02*
D03*
X802000Y392750D02*
D03*
Y416750D02*
D03*
Y408750D02*
D03*
Y400750D02*
D03*
X750000Y610750D02*
D03*
Y618750D02*
D03*
Y626750D02*
D03*
Y634750D02*
D03*
X763000Y610750D02*
D03*
Y634750D02*
D03*
Y626750D02*
D03*
Y618750D02*
D03*
X750000Y392750D02*
D03*
Y400750D02*
D03*
Y408750D02*
D03*
Y416750D02*
D03*
X763000Y392750D02*
D03*
Y416750D02*
D03*
Y408750D02*
D03*
Y400750D02*
D03*
D158*
X929250Y616750D02*
X1060000D01*
X876000Y563500D02*
X929250Y616750D01*
X763000Y575500D02*
X775000Y563500D01*
X876000D01*
X774000Y346500D02*
X912000D01*
X954750Y178000D02*
X1060000D01*
X900650Y123900D02*
X954750Y178000D01*
X763000Y123900D02*
X900650D01*
X964250Y398750D02*
X1060000D01*
X912000Y346500D02*
X964250Y398750D01*
X763000Y357500D02*
X774000Y346500D01*
M02*
