M48
;Layer_Color=9474304
;FILE_FORMAT=4:4
METRIC,LZ
;TYPE=PLATED
T1F00S00C0.3000
T3F00S00C0.8000
T4F00S00C0.9000
T6F00S00C1.0000
T7F00S00C1.0200
T8F00S00C1.1000
T9F00S00C1.2000
T10F00S00C1.3000
T11F00S00C1.5000
T12F00S00C3.2000
T13F00S00C3.5000
;TYPE=NON_PLATED
T14F00S00C0.6500
%
T01
X00507343Y001586
Y002044
Y00375853
X00724Y0019
X00724769Y001765
X0072477Y0016475
X00776Y001705
Y001785
X00776054Y00186562
X00813Y0021
X0084375Y00208066
Y00198066
Y00188066
Y00168066
Y00158066
Y00148066
X00844Y00138066
X00814Y00162
X0082175Y0009425
X00843Y00218066
X00878Y00192
X008255Y00311
X00843Y0035875
Y0036875
Y0037875
Y0038875
X00812Y00386
X01056759Y00368615
Y00359448
Y00350282
Y00341115
X0106Y002375
Y002275
Y002175
Y002075
Y00178
X0106Y001475
Y00138333
Y00129167
Y0012
X0122Y00722
X01127Y00721
X01113Y00766
X01054876Y00676647
Y00667481
Y00658314
Y00649147
X0106Y0061675
X01055377Y00587147
Y00577981
Y00568814
Y00559647
X0106Y00459
Y00449833
Y00440667
Y004315
X0106Y0039875
X00878Y0041375
X00843Y0041875
Y0040875
Y0042875
Y0043875
X00813Y00431
X008255Y005325
X00843Y0057675
Y0058675
Y0059675
X00844941Y00604809
X00843Y0062675
Y0063675
Y0064675
Y0065675
X00813Y006485
X00813Y00604
X00878Y00631
X00776Y0063475
Y0062675
Y0061875
X0072477Y0061675
Y0062675
Y006365
X00707Y0074
X00692Y0074
Y0075
Y0076
Y0077
X00676Y00762
Y00752
Y00742
X00647Y0076
Y00768
X00636
Y0076
X00498Y0075
X004975Y0074
Y0073
X00509103Y00635403
X00507343Y00593853
X00507279Y00421589
X0072477Y0041675
Y004085
Y0039875
X00776Y0040075
Y0040875
X00776066Y00416816
X0033046Y00909
X0027Y01046
X00194Y01166
X00531Y011424
Y011336
Y011248
Y01116
X00609Y01045
X00621
X00632
X00677Y01055191
X00688
X00698059
X00662Y01013
Y01004
X00701934Y00978066
X00731054Y00985946
X00766309Y01042441
X00727Y011135
X00733Y0113125
X00696Y0113675
X00650761Y01168111
X00745Y01177
X00787Y01181
X00780705Y01154266
X00776Y0114725
X0078975Y00863
X00736Y00831
X00725
X00714
X00703
X00683Y00849
Y00858
X00672
Y00849
X0066
X00658Y00824
X0065
X00642
X0051Y00805
X005
Y00795
X006Y00966
X00612
X00623559Y00966691
X0085Y00966
X00858
Y00976
X0085
Y00956
X00858
X00856Y0104
X00856066Y01047934
X00866Y01048
Y0104
X00885Y0106925
X00894
X00868066Y01094934
X00874Y01103
Y01112
X00887434Y01137889
X00901934Y01143934
X009Y01164
X00901066Y01182066
X00935Y01175
X0096025Y01152
X009674Y010863
X009786
X00973Y010781
X009842
X00853913Y01080782
X00848682Y01075551
X00859408Y01086276
X00828092Y01080433
X00821229Y01082771
X0081484Y01077191
X008Y0105425
X00795519Y01145
X0079425Y011605
X0081325Y01161
Y01153
Y01145
X00814Y01179
Y01189
X00842Y01154
X0086775
X011375Y01178
X01152Y01034
X0110208
X01119Y00894
Y00878597
X0108Y00879597
X01079Y00871
X01075Y0086
X0106Y00809
X011416Y008263
X0115Y008349
X011416Y008435
X011588
Y008263
X01185Y00829
Y0082
X01187Y00848
X01188Y008769
X0117596Y00906
X01179Y00921
X0114421Y00909
X00934Y00866
X0092375
X0091375
X0089Y00858
X00878
X0086
Y0085
Y00842
X008194Y00863
X008094
X007994
X00949Y00847
Y00832
Y00817
Y00802
X01196Y00803
X01204
X01205103Y008474
X01205Y008769
X01253Y00906
Y00921
X01259Y01034
X01206
X01231Y01101
X0116Y01274
X0113
X0112Y0133
X01074Y0131175
X01024
X009Y013025
X00895Y013175
X008875Y013325
X0083
X00827Y013
X00836
X00817864Y01300364
X00814Y01264984
X008025Y012675
X00841402Y01263284
X0084925Y01263
X00862
Y0125
X00864Y0124
X00862Y01231
X00872
X0086775Y01221
Y01213
X00894Y01214
X00902Y01207
X00902382Y01198382
X00934Y01203
X00959Y01198
X00975066Y01191934
X0094Y01238
Y01248
Y01259
X0088Y01263
X00882Y01226
X0084875Y01231
X00835936
X00822455Y01231545
X01184Y01383
X007425Y0131
Y013025
X007375Y012675
X00741008Y01247708
X00735242Y01240485
X00732Y01234
X00735Y012225
X00714683Y01213
X0067455Y01213582
X00659536Y01215536
X006675Y01235
X00703Y0125
X00746396Y01193604
X007775Y012125
X00652Y01371
X00641
X00631
X00517Y01351
Y01341
X00526Y0134
X0052Y01311
X00504Y01447
Y01455
Y01463
X00276Y0138
X00193Y0136
X00195Y01227
X00221Y01242
T03
X00674Y000886
Y001236
X00763Y001239
Y000889
X00763Y00221
Y00256
X00763Y003225
Y003575
X00674Y003575
Y003225
X00674Y00256
Y00221
X00674Y0045
Y00485
X00674Y005385
Y005735
X00763Y005755
Y005405
X00763Y00485
Y0045
X00763Y00668
Y00703
X00674
Y00668
T04
X0109587Y0095283
X0112127
X0114667
X0117207
Y0113317
X0114667
X0112127
X0109587
X0119747
X0122287
X0124827
X0127367
Y0095283
X0124827
X0122287
X0119747
T06
X001116Y011151
Y011405
Y011659
X001624
Y011405
Y011151
X0098Y01027
Y01002
Y00977
Y00952
X01042
Y00977
Y01002
Y01027
X01048Y01177
Y01211
Y01245
X01087Y01228
Y01194
X001624Y012283
Y012537
Y012791
X001116
Y012537
Y012283
Y013406
Y01366
Y013914
X001624
Y01366
Y013406
T07
X00303Y00942167
X003284
X003538
X003792
X002435Y01047
Y010724
Y010978
Y011232
Y011486
Y01174
X00437Y011145
X004625
X004875
X00498Y01035333
X00473
X00448
X00523
Y00954167
X00498
X00473
X00448
Y00873
X00473
X00498
X00523
X00864Y014145
Y014395
Y01465
X0094375
Y014395
Y014145
X010235
Y014395
Y01465
X0110325
Y014395
Y014145
X01183
Y014395
Y01465
X0078425
Y014395
Y014145
X007045
Y014395
Y01465
X0062475
Y014395
Y014145
X00545
Y014395
Y01465
X004875Y01358
X004625
X00437
Y01276833
X004625
X004875
Y01195667
X004625
X00437
X00248Y012425
Y012675
Y012925
Y013175
X00247Y013833
Y014087
Y014341
Y014595
T08
X003272Y0105
Y01075
Y011
Y01125
Y0115
Y01175
X003526
Y0115
Y01125
Y011
Y01075
Y0105
X00378
Y01075
Y011
Y01125
Y0115
Y01175
X01004Y01108
X01054Y01083
Y01133
X00431Y0144552
X004056
Y0147102
X00431
X003802
Y0144552
X00378Y01375
Y0135
Y01325
Y013
Y01275
Y0125
Y01225
Y012
X003526
Y01225
Y0125
Y01275
Y013
Y01325
Y0135
Y01375
X003272
Y0135
Y01325
Y013
Y01275
Y0125
Y01225
Y012
T09
X01245828Y01303
Y01353
T10
X012535Y01163
X012785
Y01263
X012535
X012035Y01213149
T11
X012137Y00140066
Y00216066
X01215Y003595
Y004355
X01215Y005775
Y006535
T12
X00440064Y00040064
X01260063
Y00750063
X00440064
X0009456Y0106256
X01260063Y01460063
X00094489Y01460063
T13
X00449Y00133
Y00205
T14
X0123Y00816
Y008738
M30
